<svg width="123" height="35" viewBox="0 0 123 35" fill="none" xmlns="http://www.w3.org/2000/svg">
<path d="M0.436523 17.1431C0.436523 8.30651 7.59997 1.14307 16.4365 1.14307H105.437C114.273 1.14307 121.437 8.30651 121.437 17.1431C121.437 25.9796 114.273 33.1431 105.437 33.1431H16.4365C7.59997 33.1431 0.436523 25.9796 0.436523 17.1431Z" fill="#E6EFDC"/>
<path d="M82.6084 0.0415039L83.9834 0.178223L85.3584 0.311035C86.0819 0.381895 86.807 0.396856 87.5303 0.354004L90.2803 0.189941C91.0759 0.142708 91.8741 0.201648 92.667 0.369629L95.417 0.955566C96.1106 1.10227 96.8037 1.12489 97.4951 1.02979L100.245 0.654785C101.013 0.549266 101.783 0.48424 102.554 0.463379L103.933 0.424316L105.312 0.38916C106.136 0.366836 106.932 0.517892 107.69 0.842285L110.229 1.92822C110.913 2.22083 111.604 2.49589 112.3 2.75244L113.589 3.229L114.882 3.70557C115.686 4.00185 116.333 4.51192 116.808 5.2251L118.331 7.51416C118.758 8.15544 119.144 8.81334 119.483 9.48682L120.089 10.6899L120.694 11.8892C121.044 12.5817 121.307 13.3179 121.483 14.0962L121.788 15.4556L122.097 16.811C122.286 17.6503 122.218 18.4778 121.897 19.2759L121.378 20.5649L120.862 21.854C120.574 22.572 120.257 23.2667 119.913 23.9321L119.296 25.1235L118.675 26.3188C118.312 27.0194 117.84 27.642 117.261 28.186L115.284 30.0454C114.693 30.6003 114.013 31.0071 113.249 31.2642L111.976 31.6938L110.698 32.1235C109.984 32.3639 109.257 32.5593 108.519 32.7095L107.198 32.9751L105.882 33.2446C105.131 33.3973 104.363 33.474 103.581 33.479L102.206 33.4907L100.831 33.4985C100.108 33.5033 99.3837 33.565 98.6592 33.6821L95.9092 34.1274C95.1173 34.2555 94.3232 34.2819 93.5303 34.2056L90.7803 33.9399C90.0432 33.869 89.3063 33.8259 88.5693 33.811L85.8193 33.7563C85.0617 33.7411 84.3035 33.7071 83.5459 33.6548L82.1709 33.5571L80.7959 33.4634C80.0743 33.4135 79.3497 33.4251 78.6279 33.4985L75.8779 33.7798C75.0822 33.8606 74.2855 33.8302 73.4912 33.6899L70.7412 33.2056C70.0267 33.0795 69.3135 33.0276 68.6006 33.0571L65.8506 33.1743C65.1154 33.2048 64.3791 33.2658 63.6436 33.3618L60.8936 33.7212C60.1384 33.8198 59.3832 33.9055 58.6279 33.979L57.2529 34.1157L55.8779 34.2485C55.0947 34.3247 54.3095 34.3216 53.5264 34.2407L52.1514 34.1001L50.7764 33.9556C50.0147 33.8769 49.2525 33.7701 48.4912 33.6353L45.7412 33.1509C45.0293 33.0248 44.3187 32.979 43.6084 33.0181L42.2334 33.0962L40.8584 33.1704C40.0923 33.2127 39.3237 33.218 38.5576 33.186L37.1826 33.1274L35.8076 33.0728C35.0921 33.043 34.3759 33.0847 33.6592 33.2017L32.2842 33.4282L30.9092 33.6509C30.1375 33.7768 29.3653 33.8493 28.5928 33.8696L27.2178 33.9048L25.8428 33.9438C25.0866 33.9637 24.3295 33.9678 23.5732 33.9595L20.8232 33.9282C20.0727 33.9199 19.3201 33.9094 18.5654 33.897L17.1826 33.8735L15.7998 33.854C14.9802 33.8405 14.1935 33.6686 13.4443 33.3423L12.1826 32.7915L10.9209 32.2446C10.2176 31.9382 9.53434 31.6 8.87793 31.2329L7.70215 30.5767L6.52637 29.9165C5.83989 29.5326 5.21937 29.0485 4.66699 28.4673L3.71777 27.4673L2.76465 26.4673C2.20263 25.8758 1.76737 25.1947 1.45605 24.4321L0.928711 23.1392L0.397461 21.8462C0.0805748 21.0699 -0.0457564 20.2631 0.0146484 19.4321L0.112305 18.0493L0.213867 16.6665C0.271711 15.8738 0.422232 15.1115 0.666992 14.3813L1.09277 13.1157L1.51465 11.8501C1.75348 11.1379 2.04311 10.4419 2.38184 9.76416L2.9834 8.56104L3.58887 7.35791C3.94086 6.65362 4.39702 6.00683 4.95996 5.42432L5.92871 4.42432L6.90137 3.42041C7.50393 2.79699 8.23794 2.40565 9.09277 2.26025L10.4717 2.02979L11.8467 1.79541C12.5901 1.66923 13.2068 1.54473 13.6982 1.42432L14.6279 1.19775L15.5576 0.967285C15.7839 0.911836 15.9553 0.870831 16.0732 0.838379C16.0993 0.809781 16.1198 0.784139 16.1357 0.771973C16.1936 0.728054 16.2469 0.705688 16.2686 0.697754C16.3163 0.680384 16.3597 0.672756 16.374 0.67041C16.4107 0.664456 16.4485 0.664314 16.4756 0.662598C16.5351 0.658835 16.615 0.656052 16.71 0.654785C16.904 0.652218 17.1934 0.650344 17.5693 0.654785L18.9443 0.674316L20.3193 0.689941C21.0626 0.698699 21.8065 0.692632 22.5498 0.674316L23.9248 0.63916L25.2998 0.60791C26.0472 0.589491 26.7946 0.565665 27.542 0.537598L28.917 0.486816L30.292 0.432129C31.0703 0.402898 31.8503 0.443061 32.6279 0.54541L35.3779 0.904785C36.0865 0.997964 36.7946 1.00559 37.5029 0.924316L38.8779 0.76416L40.2529 0.60791C41.0203 0.519724 41.7899 0.470112 42.5576 0.463379L45.3076 0.439941C46.0881 0.433126 46.8683 0.49821 47.6475 0.635254L50.3975 1.11963C51.0785 1.23946 51.7605 1.21575 52.4443 1.04932L53.8193 0.717285L55.1943 0.381348C55.9928 0.18712 56.7942 0.119691 57.5967 0.178223L58.9717 0.275879L60.3467 0.377441C61.0872 0.431566 61.8289 0.46608 62.5693 0.479004L65.3193 0.525879C66.0501 0.538619 66.7836 0.511197 67.5146 0.439941L68.8896 0.303223L70.2646 0.17041C71.0546 0.0935541 71.8465 0.113663 72.6357 0.229004L74.0107 0.428223L75.3857 0.631348C76.0823 0.732938 76.7784 0.723828 77.4756 0.604004L78.8506 0.365723L80.2256 0.131348C81.0186 -0.00509195 81.8141 -0.0361252 82.6084 0.0415039ZM82.5146 1.0376C81.81 0.968581 81.1034 0.99436 80.3975 1.11572L79.0225 1.354L77.6475 1.58838C76.8457 1.72631 76.0397 1.73689 75.2373 1.61963L73.8623 1.42041L72.4873 1.21729C71.7777 1.11375 71.0673 1.09741 70.3584 1.1665L68.9834 1.29932L67.6084 1.43604C66.8404 1.51083 66.072 1.53924 65.3037 1.52588L62.5537 1.479C61.7949 1.46578 61.0351 1.43287 60.2764 1.37744L57.5264 1.17432C56.8297 1.12339 56.1295 1.18344 55.4287 1.354L54.0537 1.68604L52.6787 2.02197C51.863 2.22039 51.0441 2.24796 50.2256 2.104L47.4756 1.61963C46.7552 1.49287 46.0345 1.43364 45.3154 1.43994L42.5654 1.46338C41.8338 1.46981 41.1021 1.51604 40.3701 1.6001L38.9951 1.76025L37.6201 1.9165C36.8294 2.00738 36.0356 2.00102 35.2451 1.89697L33.8701 1.71729L32.4951 1.53369C31.7734 1.43878 31.0521 1.40509 30.3311 1.43213L28.9561 1.48291L27.5811 1.5376C26.8289 1.56585 26.0754 1.58938 25.3232 1.60791L23.9482 1.63916L22.5732 1.67432C21.8174 1.69293 21.0596 1.69887 20.3037 1.68994L18.9287 1.67432L17.5537 1.65479H16.7139C16.685 1.67464 16.6633 1.69172 16.6514 1.69775C16.6152 1.71598 16.5791 1.72918 16.5576 1.73682C16.5097 1.75389 16.4478 1.76898 16.3818 1.7876C16.2466 1.82573 16.0502 1.87761 15.7959 1.93994L14.8662 2.1665L13.9365 2.39697C13.414 2.525 12.7717 2.65127 12.0146 2.77979L10.6396 3.01416L9.26074 3.24854C8.6159 3.35824 8.07454 3.6455 7.62012 4.11572L6.64746 5.11572L5.67871 6.11963C5.18418 6.63135 4.7882 7.19356 4.4834 7.80322L3.87793 9.00635L3.27637 10.2134C2.95845 10.8496 2.68764 11.5031 2.46387 12.1704L2.04199 13.4321L1.61621 14.6978C1.39868 15.3464 1.2619 16.0273 1.20996 16.7407L1.1123 18.1235L1.01074 19.5024C0.961558 20.1781 1.06424 20.8325 1.32324 21.4673L1.85449 22.7603L2.38184 24.0571C2.64658 24.7051 3.01662 25.2763 3.49121 25.7759L4.44043 26.7798L5.39355 27.7798C5.87825 28.2896 6.41823 28.7119 7.01465 29.0454L9.36621 30.3579C9.99318 30.7085 10.6456 31.0332 11.3193 31.3267L12.5811 31.8774L13.8428 32.4243C14.4705 32.6978 15.127 32.8426 15.8154 32.854L17.1982 32.8774L18.5811 32.897C19.3343 32.9094 20.0859 32.9199 20.835 32.9282L23.585 32.9595C24.3284 32.9677 25.0719 32.9634 25.8154 32.9438L27.1904 32.9087L28.5654 32.8696C29.2926 32.8505 30.021 32.7814 30.749 32.6626L32.124 32.4399L33.499 32.2134C34.2818 32.0857 35.0665 32.0401 35.8506 32.0728L37.2256 32.1313L38.6006 32.186C39.3337 32.2166 40.0667 32.2108 40.7998 32.1704L43.5498 32.022C44.3387 31.9785 45.1297 32.0271 45.917 32.1665L48.667 32.6509C49.405 32.7816 50.1442 32.8872 50.8818 32.9634L53.6318 33.2446C54.3482 33.3185 55.064 33.3221 55.7803 33.2524L58.5303 32.9868C59.2748 32.9144 60.02 32.8262 60.7646 32.729L63.5146 32.3696C64.2787 32.2699 65.0432 32.2061 65.8076 32.1743L67.1826 32.1157L68.5576 32.061C69.3442 32.0284 70.132 32.0787 70.917 32.2173L72.292 32.4634L73.667 32.7056C74.3717 32.8299 75.077 32.8552 75.7803 32.7837L78.5303 32.5024C79.3074 32.4235 80.0849 32.4136 80.8623 32.4673L83.6123 32.6548C84.3541 32.706 85.0971 32.7414 85.8389 32.7563L88.5889 32.811C89.3516 32.8264 90.1154 32.8704 90.8779 32.9438L93.6279 33.2095C94.3346 33.2774 95.0413 33.2536 95.749 33.1392L98.499 32.6938C99.274 32.5685 100.051 32.5035 100.827 32.4985L102.202 32.4907L103.577 32.479C104.295 32.4743 104.997 32.4036 105.683 32.2642L106.999 31.9946L108.319 31.729C109.018 31.587 109.706 31.4016 110.382 31.1743L112.929 30.3149C113.555 30.1041 114.113 29.7725 114.601 29.3149L115.589 28.3853L116.577 27.4595C117.075 26.9917 117.478 26.4578 117.788 25.8579L118.405 24.6665L119.022 23.4712C119.352 22.835 119.655 22.1724 119.933 21.4829L120.452 20.1938L120.972 18.9009C121.216 18.2921 121.265 17.6742 121.12 17.0337L120.812 15.6743L120.507 14.3188C120.348 13.6171 120.111 12.9559 119.8 12.3384L119.194 11.1392L118.589 9.93604C118.268 9.29957 117.904 8.67716 117.499 8.06885L116.737 6.92432L115.976 5.77588C115.619 5.23971 115.142 4.86609 114.538 4.64307L111.952 3.68994C111.24 3.42749 110.534 3.14547 109.835 2.84619L107.296 1.76025C106.671 1.49312 106.019 1.37075 105.339 1.38916L103.96 1.42432L102.581 1.46338C101.846 1.48326 101.11 1.54238 100.378 1.64307L99.0029 1.83447L97.6279 2.02197C96.8206 2.13283 96.0112 2.10272 95.2061 1.93213L93.8311 1.63916L92.4561 1.3501C91.75 1.20066 91.0461 1.14832 90.3428 1.18994L88.9678 1.26807L87.5928 1.3501C86.8172 1.39614 86.04 1.38297 85.2646 1.30713L83.8896 1.17041L82.5146 1.0376Z" fill="#7B8F65"/>
</svg>
