<svg width="73" height="17" viewBox="0 0 73 17" fill="none" xmlns="http://www.w3.org/2000/svg">
<path d="M0.542236 8.49854C0.542236 4.3564 3.9001 0.998535 8.04224 0.998535H64.0422C68.1844 0.998535 71.5422 4.3564 71.5422 8.49854C71.5422 12.6407 68.1844 15.9985 64.0422 15.9985H8.04224C3.9001 15.9985 0.542236 12.6407 0.542236 8.49854Z" fill="#E6EFDC"/>
<path d="M61.8704 0.0258789C62.6949 -0.0542377 63.5002 0.0503304 64.2805 0.338379L65.5852 0.818848L66.8899 1.30322C67.6567 1.58678 68.3563 2.00092 68.9875 2.5415L71.1438 4.38525C71.8508 4.99075 72.1871 5.78556 72.1399 6.72119L72.0657 8.1626L71.9915 9.6001C71.947 10.4707 71.6912 11.2744 71.2219 11.9985L70.4485 13.186L69.679 14.3774C69.1756 15.1542 68.4479 15.5975 67.5344 15.6665L66.1555 15.7681L64.7727 15.8735C64.0302 15.9296 63.2894 16.0101 62.55 16.1118L59.8 16.4868C59.0331 16.5923 58.2627 16.6604 57.4954 16.686L56.1204 16.7329L54.7454 16.7759C53.9586 16.8021 53.1709 16.7439 52.386 16.5962L51.011 16.3345L49.636 16.0767C48.9466 15.9471 48.2588 15.9447 47.5696 16.0688L46.1946 16.3149L44.8196 16.5649C44.0175 16.7096 43.2125 16.7255 42.4094 16.6118L39.6594 16.2212C38.9415 16.1197 38.2242 16.0904 37.5071 16.1274L34.7571 16.2681C34.0192 16.3062 33.2803 16.3722 32.5422 16.4634L31.1672 16.6313L29.7922 16.8032C28.9928 16.902 28.1921 16.8811 27.3938 16.7407L24.6438 16.2563C23.9295 16.1307 23.2159 16.0832 22.5032 16.1157L19.7532 16.2407C18.9986 16.2752 18.2421 16.3012 17.4875 16.3149L14.7375 16.3618C13.9692 16.3757 13.2009 16.347 12.4329 16.272L11.0579 16.1392L9.68286 16.0024C8.92116 15.928 8.1827 15.8296 7.47192 15.7056L6.19458 15.4829L4.91333 15.2603C4.09062 15.1165 3.41392 14.6992 2.90161 14.0298L1.29224 11.9282C0.797265 11.2805 0.499117 10.5239 0.389893 9.67822L0.210205 8.27979L0.0266113 6.87744C-0.0920415 5.95874 0.187377 5.1449 0.839111 4.479L1.84302 3.45166L2.84302 2.42822C3.43708 1.82177 4.08935 1.40807 4.80005 1.2251L5.90942 0.939941L7.01489 0.658691C7.31653 0.581203 7.54656 0.523396 7.70239 0.486816C7.7791 0.468812 7.84532 0.453076 7.8938 0.443848C7.91509 0.439811 7.94528 0.435323 7.97583 0.432129C7.98686 0.431007 8.02913 0.424565 8.07739 0.428223C8.09642 0.429671 8.16201 0.435152 8.23755 0.467285C8.24781 0.471704 8.25726 0.489971 8.27271 0.498535C8.29264 0.499232 8.31537 0.497831 8.33911 0.498535C8.522 0.503947 8.80129 0.505838 9.17505 0.510254L10.55 0.529785L11.925 0.54541C12.6683 0.554168 13.4122 0.5481 14.1555 0.529785L15.5305 0.494629L16.9055 0.463379C17.6529 0.44496 18.4003 0.421134 19.1477 0.393066L20.5227 0.342285L21.8977 0.287598C22.676 0.258366 23.456 0.29853 24.2336 0.400879L26.9836 0.760254C27.6923 0.853433 28.4003 0.861056 29.1086 0.779785L30.4836 0.619629L31.8586 0.463379C32.626 0.375193 33.3956 0.325581 34.1633 0.318848L36.9133 0.29541C37.6939 0.288595 38.474 0.353679 39.2532 0.490723L42.0032 0.975098C42.6842 1.09493 43.3662 1.07122 44.05 0.904785L45.425 0.572754L46.8 0.236816C47.5985 0.0425889 48.3999 -0.0248399 49.2024 0.0336914L50.5774 0.131348L51.9524 0.23291C52.6929 0.287035 53.4346 0.321548 54.175 0.334473L56.925 0.381348C57.6559 0.394088 58.3893 0.366666 59.1204 0.29541L60.4954 0.158691L61.8704 0.0258789ZM61.9641 1.02197L60.5891 1.15479L59.2141 1.2915C58.4461 1.36629 57.6777 1.39471 56.9094 1.38135L54.1594 1.33447C53.4006 1.32124 52.6408 1.28834 51.8821 1.23291L49.1321 1.02979C48.4354 0.97886 47.7352 1.03891 47.0344 1.20947L45.6594 1.5415L44.2844 1.87744C43.4687 2.07586 42.6498 2.10343 41.8313 1.95947L39.0813 1.4751C38.3609 1.34833 37.6402 1.2891 36.9211 1.29541L34.1711 1.31885C33.4395 1.32528 32.7078 1.37151 31.9758 1.45557L30.6008 1.61572L29.2258 1.77197C28.4351 1.86284 27.6413 1.85649 26.8508 1.75244L25.4758 1.57275L24.1008 1.38916C23.3792 1.29425 22.6578 1.26056 21.9368 1.2876L20.5618 1.33838L19.1868 1.39307C18.4346 1.42132 17.6811 1.44485 16.929 1.46338L15.554 1.49463L14.179 1.52979C13.4231 1.5484 12.6653 1.55434 11.9094 1.54541L10.5344 1.52979L9.15942 1.51025C8.78471 1.50582 8.49965 1.50422 8.30786 1.49854C8.21387 1.49574 8.13712 1.49043 8.0813 1.48682C8.05516 1.48511 8.02126 1.48308 7.99146 1.479L7.91333 1.46338C7.76778 1.49778 7.55028 1.55312 7.26099 1.62744L6.15552 1.90869L5.05005 2.19385C4.55555 2.32103 4.0568 2.62194 3.55786 3.13135L2.55786 4.15479L1.55396 5.17822C1.11291 5.62874 0.939974 6.13821 1.0188 6.74854L1.20239 8.15088L1.38208 9.55322C1.47052 10.2366 1.70848 10.8207 2.08911 11.3188L2.88989 12.3696L3.69458 13.4204C4.05741 13.8952 4.51463 14.1721 5.08521 14.272L6.36646 14.4985L7.6438 14.7212C8.32834 14.8406 9.04222 14.9342 9.78052 15.0063L11.1555 15.1431L12.5305 15.2759C13.2609 15.3472 13.9918 15.3751 14.7219 15.3618L17.4719 15.3149C18.2167 15.3014 18.9615 15.2747 19.7063 15.2407L22.4563 15.1157C23.2432 15.0798 24.0303 15.1339 24.8157 15.272L26.1907 15.5142L27.5657 15.7524C28.2666 15.8758 28.9674 15.8974 29.6672 15.811L31.0422 15.6392L32.4172 15.4712C33.1783 15.3771 33.9411 15.3075 34.7024 15.2681L37.4524 15.1274C38.2347 15.087 39.0186 15.1223 39.8 15.2329L41.175 15.4282L42.55 15.6196C43.2465 15.7182 43.9425 15.7062 44.6399 15.5806L46.0149 15.3345L47.3899 15.0845C48.1999 14.9384 49.0137 14.9438 49.8235 15.0962L52.5735 15.6118C53.2878 15.7462 54.0016 15.7997 54.7141 15.7759L56.0891 15.7329L57.4641 15.686C58.1965 15.6615 58.9305 15.5993 59.6633 15.4985L61.0383 15.3071L62.4133 15.1196C63.173 15.0152 63.9354 14.9351 64.6985 14.8774L66.0774 14.772L67.4602 14.6665C68.0529 14.6215 68.5009 14.3564 68.8391 13.8345L69.6086 12.6431L70.3821 11.4517C70.7538 10.8776 70.9558 10.2466 70.9915 9.54932L71.0657 8.11182L71.1399 6.67041C71.1717 6.0388 70.9589 5.54738 70.4915 5.14697L69.4133 4.22119L68.3391 3.29932C67.7956 2.83383 67.196 2.48238 66.5422 2.24072L65.2375 1.76025L63.9368 1.27588C63.2964 1.03927 62.6385 0.956238 61.9641 1.02197Z" fill="#7B8F65"/>
</svg>
