<svg width="523" height="396" viewBox="0 0 523 396" fill="none" xmlns="http://www.w3.org/2000/svg">
<path d="M1.13135 21.1953C1.13135 10.1496 10.0857 1.19531 21.1313 1.19531H501.131C512.177 1.19531 521.131 10.1496 521.131 21.1953V374.195C521.131 385.241 512.177 394.195 501.131 394.195H21.1314C10.0857 394.195 1.13135 385.241 1.13135 374.195V21.1953Z" fill="#FFFDF8"/>
<path d="M260.002 0C260.791 -0.00456116 261.58 0.0823023 262.366 0.257812L263.741 0.5625L265.116 0.871094C265.802 1.02438 266.486 1.03974 267.17 0.921875L268.545 0.6875L269.92 0.449219C270.727 0.310258 271.536 0.311381 272.342 0.453125L275.092 0.9375C275.786 1.05955 276.481 1.06223 277.174 0.945312L278.549 0.714844L279.924 0.480469C280.706 0.348815 281.489 0.297097 282.272 0.324219L283.647 0.371094L285.022 0.421875C285.795 0.448779 286.57 0.528859 287.342 0.664062L288.717 0.90625L290.092 1.14453C290.807 1.26958 291.52 1.31726 292.233 1.28516L294.983 1.16016C295.704 1.12759 296.428 1.03581 297.151 0.882812L298.526 0.589844L299.901 0.300781C300.693 0.133086 301.489 0.0706965 302.284 0.117188L303.659 0.199219L305.038 0.277344C305.768 0.320151 306.499 0.322321 307.229 0.28125L309.979 0.125C310.741 0.0821838 311.502 0.0690908 312.264 0.0820312L315.014 0.128906C315.779 0.141924 316.546 0.190429 317.311 0.273438L320.061 0.570312C320.808 0.651351 321.556 0.725104 322.303 0.792969L325.053 1.04297C325.756 1.10666 326.458 1.07436 327.163 0.941406L328.538 0.679688L329.913 0.421875C330.7 0.273113 331.49 0.217691 332.28 0.253906L335.03 0.378906C335.787 0.413663 336.546 0.46573 337.303 0.535156L340.053 0.785156C340.777 0.851481 341.501 0.865132 342.225 0.820312L344.975 0.648438C345.747 0.600655 346.52 0.604586 347.292 0.65625L348.667 0.746094L350.042 0.839844C350.779 0.889215 351.519 0.91235 352.256 0.910156L355.006 0.902344C355.742 0.900115 356.478 0.865142 357.213 0.800781L358.588 0.679688L359.963 0.5625C360.735 0.495008 361.508 0.477624 362.28 0.511719L363.655 0.570312L365.03 0.632812C365.784 0.666129 366.538 0.708426 367.292 0.761719L370.042 0.957031C370.748 1.00694 371.455 0.963876 372.163 0.828125L373.538 0.566406L374.913 0.300781C375.703 0.149266 376.495 0.0983656 377.288 0.148438L378.663 0.234375L380.038 0.324219C380.801 0.372458 381.564 0.451203 382.327 0.5625L383.702 0.761719L385.077 0.964844C385.812 1.07217 386.549 1.14567 387.284 1.1875L390.034 1.34375C390.726 1.38313 391.421 1.30342 392.12 1.10547L393.495 0.71875L394.87 0.328125C395.685 0.097178 396.506 0.0367252 397.327 0.152344L398.702 0.347656L400.077 0.539062C400.783 0.63847 401.488 0.646514 402.194 0.558594L404.944 0.214844C405.742 0.115353 406.541 0.131311 407.338 0.265625L408.713 0.5L410.088 0.730469C410.825 0.854684 411.563 0.949684 412.299 1.01172L413.674 1.125L415.049 1.24219C415.744 1.30063 416.44 1.24756 417.139 1.07812L418.514 0.742188L419.889 0.410156C420.706 0.212136 421.527 0.186032 422.346 0.335938L423.721 0.589844L425.096 0.839844C425.817 0.97173 426.537 1.03914 427.256 1.03906H430.006C430.736 1.03898 431.468 0.991305 432.198 0.902344L433.573 0.738281L434.948 0.570312C435.734 0.474622 436.521 0.467848 437.307 0.550781L440.057 0.839844C440.792 0.917475 441.529 0.963021 442.264 0.976562L443.639 1.00391L445.014 1.02734C445.74 1.04068 446.467 1.0006 447.194 0.910156L448.569 0.742188L449.944 0.570312C450.705 0.475525 451.468 0.405973 452.229 0.363281L454.979 0.207031C455.774 0.162502 456.569 0.226516 457.362 0.398438L458.737 0.699219L460.112 0.996094C460.83 1.15203 461.548 1.23507 462.264 1.24609L463.639 1.26953L465.014 1.28906C465.76 1.30054 466.506 1.30453 467.252 1.30078L468.627 1.29297L470.002 1.28906C470.737 1.28536 471.474 1.24532 472.209 1.17578L474.959 0.917969C475.721 0.845995 476.483 0.797845 477.245 0.777344L478.62 0.742188L479.995 0.703125C480.726 0.683363 481.458 0.626323 482.19 0.527344L483.565 0.339844L484.94 0.15625C485.727 0.0497789 486.515 0.0311611 487.303 0.105469L488.678 0.234375L490.053 0.367188C490.777 0.435475 491.501 0.446567 492.225 0.402344L493.6 0.316406L494.975 0.234375C495.733 0.188052 496.491 0.161466 497.249 0.152344L498.624 0.132812L499.999 0.117188C500.789 0.107702 501.579 0.191682 502.362 0.371094L503.725 0.6875L505.092 1C505.852 1.17413 506.6 1.37996 507.334 1.62109L509.975 2.48828C510.757 2.74511 511.462 3.14326 512.084 3.67969L513.135 4.58594L514.186 5.48828C514.785 6.00374 515.321 6.57162 515.795 7.1875L516.624 8.26562L517.456 9.34375C517.924 9.95251 518.344 10.5941 518.713 11.2695L519.366 12.4688L520.022 13.6641C520.395 14.3466 520.697 15.0693 520.932 15.8281L521.76 18.5C522.001 19.2768 522.118 20.0716 522.112 20.8789L522.1 22.2617L522.092 23.6484C522.087 24.3974 522.094 25.1435 522.116 25.8867L522.194 28.6367C522.217 29.4361 522.125 30.2366 521.917 31.0312L521.553 32.4062L521.194 33.7812C521.011 34.4779 520.949 35.1718 521.006 35.8633L521.233 38.6133C521.293 39.3433 521.393 40.0738 521.538 40.8047L521.811 42.1797L522.081 43.5547C522.236 44.3432 522.299 45.1351 522.264 45.9258L522.139 48.6758C522.106 49.4099 522.11 50.1447 522.147 50.8789L522.213 52.2539L522.284 53.6289C522.323 54.4183 522.267 55.2085 522.12 55.9961L521.866 57.3711L521.608 58.7461C521.472 59.4745 521.383 60.2023 521.342 60.9297L521.186 63.6797C521.145 64.4121 521.142 65.1465 521.178 65.8789L521.245 67.2539L521.315 68.6289C521.352 69.3802 521.383 70.1315 521.413 70.8828L521.467 72.2578L521.518 73.6328C521.547 74.3746 521.594 75.1175 521.659 75.8594L521.901 78.6094C521.97 79.4 521.942 80.1909 521.819 80.9805L521.389 83.7305C521.278 84.4407 521.252 85.1502 521.315 85.8594L521.44 87.2344L521.561 88.6094C521.63 89.384 521.64 90.1589 521.592 90.9336L521.506 92.3086L521.424 93.6836C521.378 94.4369 521.321 95.1921 521.26 95.9453L521.151 97.3203L521.038 98.6953C520.979 99.4152 520.984 100.135 521.053 100.855L521.319 103.605C521.39 104.345 521.485 105.085 521.604 105.824L522.049 108.574C522.174 109.351 522.232 110.129 522.225 110.906L522.209 112.281L522.198 113.656C522.191 114.419 522.156 115.183 522.092 115.945L521.858 118.695C521.798 119.413 521.808 120.133 521.885 120.852L522.034 122.227L522.178 123.602C522.264 124.408 522.215 125.213 522.03 126.016L521.397 128.766C521.233 129.478 521.152 130.189 521.159 130.898L521.174 132.273L521.186 133.648C521.193 134.393 521.211 135.138 521.241 135.883L521.35 138.633C521.379 139.36 521.455 140.088 521.581 140.816L522.057 143.566C522.196 144.373 522.196 145.182 522.057 145.988L521.819 147.363L521.584 148.738C521.458 149.474 521.364 150.21 521.303 150.945L521.077 153.695C521.019 154.399 521.058 155.103 521.194 155.809L521.725 158.559C521.875 159.336 521.96 160.115 521.975 160.895L521.999 162.27L522.026 163.645C522.041 164.421 521.993 165.197 521.885 165.973L521.502 168.723C521.402 169.446 521.359 170.172 521.374 170.895L521.405 172.27L521.432 173.645C521.447 174.38 521.494 175.116 521.573 175.852L521.717 177.227L521.866 178.602C521.95 179.398 521.922 180.197 521.78 180.992L521.288 183.742C521.166 184.427 521.181 185.111 521.331 185.797L521.631 187.172L521.928 188.547C522.099 189.327 522.195 190.108 522.213 190.891L522.245 192.266L522.28 193.641C522.298 194.402 522.288 195.164 522.252 195.926L522.127 198.676C522.092 199.434 522.036 200.192 521.963 200.949L521.834 202.324L521.702 203.699C521.63 204.449 521.556 205.203 521.483 205.953L521.217 208.703C521.149 209.408 521.176 210.114 521.295 210.82L521.53 212.195L521.76 213.57C521.894 214.359 521.933 215.148 521.877 215.938L521.682 218.688C521.632 219.401 521.66 220.117 521.764 220.832L522.163 223.582C522.279 224.382 522.274 225.181 522.147 225.98L521.928 227.355L521.713 228.73C521.601 229.44 521.575 230.151 521.639 230.859L521.889 233.609C521.961 234.4 521.934 235.191 521.811 235.98L521.6 237.355L521.385 238.73C521.272 239.462 521.198 240.195 521.167 240.926L521.108 242.301L521.045 243.676C521.015 244.381 521.076 245.088 521.229 245.797L521.53 247.172L521.827 248.547C521.995 249.323 522.1 250.101 522.139 250.879L522.28 253.629C522.319 254.409 522.286 255.19 522.186 255.969L521.834 258.719C521.743 259.431 521.73 260.144 521.799 260.855L521.932 262.23L522.069 263.605C522.147 264.41 522.095 265.215 521.913 266.016L521.596 267.391L521.284 268.766C521.121 269.483 521.032 270.199 521.014 270.914L520.979 272.289L520.948 273.664C520.931 274.366 521.012 275.071 521.194 275.777L521.545 277.152L521.901 278.527C522.111 279.346 522.143 280.17 521.995 280.992L521.495 283.742C521.368 284.44 521.355 285.136 521.452 285.832L521.834 288.582C521.945 289.372 521.96 290.167 521.877 290.957L521.588 293.707C521.51 294.454 521.439 295.202 521.37 295.949L521.112 298.699C521.046 299.404 521.08 300.11 521.206 300.816L521.448 302.191L521.694 303.566C521.834 304.353 521.885 305.142 521.846 305.93L521.78 307.305L521.709 308.68C521.672 309.436 521.617 310.193 521.545 310.949L521.413 312.324L521.284 313.699C521.215 314.419 521.211 315.14 521.276 315.859L521.526 318.609C521.594 319.365 521.647 320.123 521.686 320.879L521.827 323.629C521.866 324.388 521.882 325.147 521.877 325.906L521.862 328.656C521.857 329.393 521.881 330.131 521.936 330.867L522.038 332.242L522.143 333.617C522.201 334.397 522.185 335.177 522.1 335.957L521.803 338.707C521.722 339.452 521.651 340.197 521.592 340.941L521.374 343.691C521.317 344.402 521.346 345.113 521.459 345.824L521.897 348.574C522.02 349.343 522.097 350.114 522.131 350.883L522.194 352.258L522.252 353.633C522.287 354.417 522.242 355.202 522.116 355.984L521.897 357.359L521.674 358.734C521.558 359.46 521.495 360.186 521.487 360.91L521.456 363.66C521.447 364.396 521.471 365.131 521.522 365.867L521.709 368.617C521.763 369.397 521.749 370.179 521.663 370.957L521.358 373.699C521.274 374.462 521.159 375.211 521.014 375.941L520.752 377.254L520.495 378.566C520.351 379.29 520.187 380.021 520.006 380.758L519.678 382.094L519.35 383.434C519.149 384.25 518.75 384.961 518.159 385.559L517.19 386.535L516.221 387.516C515.699 388.043 515.186 388.586 514.682 389.145L512.815 391.215C512.261 391.829 511.604 392.313 510.85 392.668L509.577 393.266L508.303 393.867C507.539 394.227 506.732 394.394 505.889 394.371L504.487 394.336L503.084 394.297C502.355 394.277 501.632 394.333 500.92 394.469L499.549 394.73L498.182 394.992C497.389 395.143 496.592 395.184 495.795 395.109L494.42 394.977L493.045 394.848C492.295 394.777 491.542 394.705 490.792 394.633L489.417 394.504L488.042 394.371C487.307 394.301 486.573 394.265 485.838 394.262L484.463 394.254L483.088 394.25C482.368 394.247 481.646 394.305 480.924 394.43L478.174 394.906C477.389 395.042 476.602 395.086 475.815 395.043L474.44 394.969L473.065 394.891C472.31 394.849 471.554 394.796 470.799 394.73L469.424 394.613L468.049 394.492C467.33 394.43 466.609 394.433 465.889 394.5L463.139 394.758C462.359 394.831 461.576 394.834 460.795 394.762L459.42 394.633L458.045 394.508C457.343 394.443 456.637 394.476 455.932 394.609L453.182 395.133C452.36 395.289 451.536 395.263 450.717 395.055L447.967 394.352C447.275 394.175 446.585 394.127 445.897 394.207L443.147 394.527C442.397 394.614 441.647 394.699 440.897 394.785L439.522 394.941L438.147 395.102C437.337 395.194 436.527 395.139 435.721 394.941L432.971 394.27C432.304 394.106 431.64 394.115 430.971 394.297L429.596 394.668L428.221 395.043C427.428 395.258 426.629 395.358 425.831 395.344L423.081 395.297C422.326 395.283 421.57 395.259 420.815 395.223L418.065 395.09C417.332 395.055 416.599 395.054 415.866 395.09L413.116 395.223C412.351 395.26 411.584 395.266 410.819 395.234L409.444 395.176L408.069 395.121C407.315 395.09 406.561 395.05 405.807 395L403.057 394.82C402.327 394.772 401.596 394.765 400.866 394.801L399.491 394.867L398.116 394.938C397.34 394.976 396.563 394.953 395.788 394.867L393.038 394.562C392.292 394.48 391.544 394.408 390.799 394.348L389.424 394.238L388.049 394.125C387.332 394.067 386.615 394.079 385.897 394.16L384.522 394.312L383.147 394.469C382.389 394.554 381.631 394.622 380.874 394.672L378.124 394.852C377.333 394.903 376.541 394.861 375.752 394.723L373.002 394.238C372.318 394.118 371.634 394.134 370.948 394.285L369.573 394.586L368.198 394.891C367.403 395.066 366.605 395.126 365.807 395.07L363.057 394.875C362.335 394.824 361.611 394.835 360.889 394.906L358.139 395.18C357.371 395.256 356.603 395.286 355.834 395.273L354.459 395.25L353.084 395.23C352.311 395.218 351.533 395.147 350.76 395.023L348.01 394.586C347.281 394.47 346.551 394.4 345.823 394.375L343.073 394.281C342.336 394.256 341.599 394.26 340.862 394.289L338.112 394.398C337.377 394.428 336.64 394.49 335.905 394.586L333.155 394.945C332.382 395.047 331.608 395.094 330.834 395.082L329.459 395.059L328.084 395.039C327.336 395.027 326.587 395.018 325.838 395.012L323.088 394.988C322.327 394.982 321.564 394.95 320.803 394.891L318.053 394.672C317.306 394.613 316.555 394.56 315.807 394.512L314.432 394.426L313.057 394.336C312.326 394.289 311.593 394.28 310.862 394.312L308.112 394.438C307.378 394.47 306.643 394.538 305.909 394.641L304.534 394.832L303.159 395.027C302.346 395.141 301.534 395.1 300.725 394.906L299.35 394.574L297.975 394.246C297.27 394.077 296.567 394.01 295.866 394.043L294.491 394.105L293.116 394.172C292.395 394.206 291.67 394.304 290.948 394.465L289.573 394.77L288.198 395.078C287.376 395.261 286.551 395.259 285.729 395.07L284.354 394.754L282.979 394.434C282.285 394.274 281.592 394.24 280.901 394.324L278.151 394.66C277.38 394.754 276.609 394.8 275.838 394.797L274.463 394.789L273.088 394.785C272.319 394.782 271.549 394.731 270.78 394.637L269.405 394.469L268.03 394.305C267.315 394.218 266.6 394.204 265.885 394.27L264.51 394.398L263.135 394.523C262.385 394.593 261.635 394.663 260.885 394.73L259.51 394.852L258.135 394.977C257.375 395.044 256.614 395.085 255.854 395.105L254.479 395.145L253.104 395.18C252.323 395.2 251.54 395.149 250.76 395.023L249.385 394.801L248.01 394.582C247.307 394.469 246.604 394.457 245.901 394.543L243.151 394.879C242.382 394.973 241.612 395.022 240.842 395.023L238.092 395.031C237.349 395.033 236.605 395.049 235.862 395.082L233.112 395.207C232.354 395.241 231.596 395.257 230.838 395.254L229.463 395.246L228.088 395.242C227.319 395.239 226.549 395.187 225.78 395.09L224.405 394.918L223.03 394.742C222.303 394.65 221.573 394.611 220.846 394.621L219.471 394.637L218.096 394.656C217.327 394.666 216.557 394.631 215.788 394.551L214.413 394.406L213.038 394.266C212.334 394.193 211.629 394.216 210.924 394.336L208.174 394.805C207.378 394.94 206.581 394.957 205.784 394.863L204.409 394.703L203.034 394.539C202.301 394.452 201.567 394.406 200.834 394.398L198.084 394.367C197.369 394.359 196.653 394.426 195.936 394.562L193.186 395.086C192.405 395.235 191.621 395.306 190.838 395.305L189.463 395.301H188.088C187.334 395.299 186.581 395.284 185.827 395.262L184.452 395.223L183.077 395.18C182.306 395.157 181.534 395.089 180.764 394.973L179.389 394.762L178.014 394.555C177.285 394.444 176.556 394.378 175.827 394.355L173.077 394.27C172.342 394.247 171.605 394.257 170.87 394.301L168.12 394.465C167.357 394.51 166.594 394.523 165.831 394.508L163.081 394.453C162.367 394.439 161.652 394.5 160.936 394.637L159.561 394.898L158.186 395.164C157.402 395.314 156.616 395.382 155.831 395.363L154.456 395.328L153.081 395.297C152.303 395.278 151.525 395.194 150.749 395.047L149.374 394.785L147.999 394.527C147.309 394.397 146.618 394.391 145.928 394.516L144.553 394.766L143.178 395.012C142.396 395.153 141.614 395.217 140.831 395.199L139.456 395.164L138.081 395.133C137.33 395.115 136.577 395.098 135.827 395.078L134.452 395.043L133.077 395.004C132.314 394.984 131.55 394.935 130.788 394.855L128.038 394.566C127.302 394.489 126.566 394.446 125.831 394.434L123.081 394.387C122.331 394.374 121.58 394.36 120.831 394.348L118.081 394.301C117.361 394.289 116.641 394.339 115.92 394.453L113.17 394.891C112.386 395.014 111.6 395.053 110.815 395.012L109.44 394.941L108.065 394.867C107.337 394.829 106.609 394.842 105.881 394.902L103.131 395.129C102.358 395.193 101.584 395.203 100.811 395.156L99.436 395.07L98.061 394.988C97.3111 394.943 96.5609 394.898 95.811 394.852L94.436 394.77L93.061 394.684C92.3233 394.638 91.5838 394.619 90.8462 394.629L89.4712 394.648L88.0962 394.664C87.3674 394.673 86.638 394.731 85.9087 394.832L84.5337 395.02L83.1587 395.211C82.3766 395.319 81.5939 395.348 80.811 395.301L79.436 395.219L78.061 395.133C77.3282 395.088 76.5946 395.081 75.8618 395.109L74.4868 395.164L73.1118 395.215C72.3257 395.245 71.537 395.193 70.7524 395.055L68.0024 394.57C67.2715 394.441 66.5412 394.352 65.811 394.309L64.436 394.23L63.061 394.148C62.318 394.105 61.5735 394.075 60.8306 394.062L58.0806 394.016C57.3652 394.003 56.6492 394.066 55.9321 394.199L54.5571 394.453L53.1821 394.711C52.3968 394.857 51.6099 394.915 50.8228 394.887L48.0728 394.785C47.3296 394.758 46.5855 394.747 45.8423 394.75L44.4673 394.758L43.0923 394.762C42.316 394.765 41.5395 394.709 40.7642 394.59L39.3892 394.375L38.0142 394.164C37.3332 394.059 36.6524 394.097 35.9673 394.273L34.5923 394.625L33.2173 394.98C32.4284 395.184 31.6352 395.285 30.8423 395.285H29.4673L28.0923 395.289C27.3164 395.29 26.5392 395.229 25.7642 395.109L24.3892 394.898L23.0142 394.684C22.2717 394.569 21.5357 394.475 20.8071 394.395L19.4556 394.242L18.104 394.094C17.3402 394.009 16.5872 393.86 15.8462 393.648L14.5376 393.277L13.2251 392.902C12.444 392.679 11.7409 392.306 11.1196 391.785L9.03369 390.035C8.46377 389.557 7.89923 389.071 7.33838 388.582L6.31494 387.688L5.2876 386.793C4.6865 386.268 4.18583 385.653 3.7876 384.953L2.42822 382.562C2.02088 381.846 1.78366 381.077 1.72119 380.258L1.61572 378.891L1.51416 377.523C1.45699 376.773 1.41286 376.025 1.38525 375.281L1.33447 373.926L1.28369 372.574C1.25643 371.839 1.22607 371.095 1.18604 370.348L1.0376 367.598C0.996572 366.831 0.99419 366.063 1.02979 365.297L1.09229 363.922L1.15869 362.547C1.1924 361.819 1.17748 361.091 1.11572 360.363L0.881348 357.613C0.816731 356.852 0.779877 356.09 0.771973 355.328L0.760254 353.953L0.744629 352.578C0.737058 351.846 0.689749 351.111 0.604004 350.379L0.283691 347.629C0.191132 346.838 0.196195 346.045 0.303223 345.254L0.490723 343.879L0.674316 342.504C0.773512 341.771 0.8392 341.038 0.865723 340.305L0.912598 338.93L0.963379 337.555C0.98918 336.841 0.941241 336.125 0.814941 335.41L0.568848 334.035L0.32666 332.66C0.188137 331.876 0.134998 331.09 0.162598 330.305L0.256348 327.555C0.283418 326.785 0.356845 326.015 0.475098 325.246L0.896973 322.496C1.00778 321.776 1.05525 321.055 1.0376 320.336L1.00244 318.961L0.971191 317.586C0.953322 316.862 0.880875 316.135 0.752441 315.41L0.506348 314.035L0.26416 312.66C0.124575 311.872 0.0781199 311.082 0.123535 310.293L0.279785 307.543C0.323391 306.785 0.38528 306.027 0.467285 305.27L0.615723 303.895L0.768066 302.52C0.848054 301.781 0.902463 301.039 0.932129 300.301L1.0415 297.551C1.07107 296.814 1.0722 296.077 1.04541 295.34L0.943848 292.59C0.916871 291.848 0.873943 291.105 0.811035 290.363L0.57666 287.613C0.512211 286.853 0.472744 286.092 0.459473 285.332L0.412598 282.582C0.399019 281.802 0.456321 281.021 0.584473 280.242L1.0376 277.492C1.15271 276.793 1.15684 276.093 1.05322 275.395L0.646973 272.645C0.533097 271.877 0.462081 271.108 0.436035 270.34L0.342285 267.59L0.314941 265.32L0.330566 262.57C0.335682 261.794 0.405089 261.014 0.533691 260.238L0.986816 257.488C1.10662 256.765 1.1695 256.042 1.17041 255.32V253.945L1.17432 252.57L1.13525 251.484C1.10866 251.121 1.06788 250.758 1.01416 250.395L0.60791 247.645C0.489976 246.847 0.485911 246.048 0.600098 245.25L0.799316 243.875L0.994629 242.5C1.09293 241.812 1.06418 241.124 0.904785 240.434L0.584473 239.059L0.268066 237.684C0.0779537 236.859 0.0797875 236.031 0.271973 235.207L0.912598 232.457C1.07976 231.74 1.17334 231.023 1.18994 230.309L1.25244 227.559C1.26891 226.845 1.21151 226.13 1.07666 225.414L0.814941 224.039L0.557129 222.664C0.408212 221.874 0.359208 221.082 0.412598 220.289L0.600098 217.539C0.648467 216.822 0.623885 216.104 0.529785 215.387L0.17041 212.637C0.0663497 211.843 0.0646853 211.047 0.17041 210.254L0.537598 207.504C0.633326 206.785 0.664095 206.066 0.627441 205.348L0.486816 202.598C0.448409 201.845 0.415697 201.092 0.38916 200.34L0.342285 198.965L0.291504 197.59C0.264614 196.827 0.268588 196.063 0.299316 195.301L0.408691 192.551C0.439246 191.793 0.49073 191.035 0.561035 190.277L0.689941 188.902L0.814941 187.527C0.882177 186.803 0.895048 186.076 0.850098 185.352L0.678223 182.602C0.632454 181.865 0.559171 181.128 0.459473 180.391L0.275879 179.016L0.0883789 177.641C-0.0222945 176.823 0.0354396 176.004 0.256348 175.191L0.627441 173.816L1.00244 172.441C1.19257 171.742 1.26709 171.045 1.2251 170.352L1.13916 168.977L1.05713 167.602C1.01276 166.869 0.932329 166.136 0.814941 165.402L0.596191 164.027L0.373535 162.652C0.249107 161.875 0.188232 161.094 0.193848 160.316L0.217285 157.566C0.22278 156.809 0.242697 156.05 0.283691 155.293L0.35791 153.918L0.436035 152.543C0.47497 151.822 0.452161 151.1 0.369629 150.379L0.213379 149.004L0.0532227 147.629C-0.0384623 146.827 -0.00330797 146.026 0.154785 145.227L0.428223 143.852L0.697754 142.477C0.837357 141.771 0.879242 141.066 0.822754 140.363L0.713379 138.988L0.600098 137.613C0.536455 136.823 0.570389 136.031 0.697754 135.242L1.14307 132.492C1.2581 131.779 1.28846 131.067 1.24072 130.355L1.15088 128.98L1.05713 127.605C1.0058 126.84 0.991198 126.074 1.01025 125.309L1.04541 123.934L1.07666 122.559C1.09428 121.849 1.02751 121.138 0.877441 120.426L0.299316 117.676C0.131665 116.88 0.0807911 116.08 0.143066 115.281L0.248535 113.906L0.35791 112.531C0.416302 111.783 0.471996 111.034 0.529785 110.285L0.635254 108.91L0.744629 107.535C0.801127 106.803 0.81496 106.068 0.791504 105.336L0.705566 102.586C0.681419 101.832 0.665266 101.078 0.662598 100.324L0.654785 97.5742C0.652221 96.8482 0.59739 96.1213 0.490723 95.3945L0.287598 94.0195L0.0883789 92.6445C-0.0287318 91.8467 -0.0303373 91.0478 0.0883789 90.25L0.29541 88.875L0.498535 87.5C0.605976 86.7791 0.649398 86.0559 0.627441 85.3359L0.584473 83.9609L0.54541 82.5859C0.522206 81.8242 0.526823 81.0625 0.561035 80.3008L0.623535 78.9258L0.682129 77.5508C0.716412 76.7882 0.781705 76.024 0.873535 75.2617L1.0376 73.8867L1.20557 72.5117C1.28917 71.8172 1.25694 71.1226 1.11182 70.4258L0.82666 69.0508L0.537598 67.6758C0.37266 66.8849 0.312182 66.0903 0.354004 65.2969L0.428223 63.9219L0.498535 62.5469C0.538566 61.7896 0.597147 61.0307 0.67041 60.2734L0.936035 57.5234C1.00543 56.806 1.00501 56.0886 0.936035 55.3711L0.67041 52.6211C0.595513 51.843 0.58883 51.0634 0.646973 50.2852L0.850098 47.5352C0.902768 46.8305 0.862056 46.1247 0.725098 45.418L0.459473 44.043L0.189941 42.668C0.0352385 41.8701 0.000640762 41.0693 0.0844727 40.2695L0.373535 37.5195C0.450779 36.7825 0.498859 36.0454 0.518066 35.3086L0.588379 32.5586C0.608018 31.8053 0.635529 31.0502 0.67041 30.2969L0.736816 28.9219L0.799316 27.5469C0.833397 26.8099 0.841752 26.0729 0.822754 25.3359L0.752441 22.5859C0.732811 21.8256 0.736696 21.0611 0.76416 20.2969L0.811035 18.9141L0.861816 17.5352C0.892006 16.6951 1.12965 15.9121 1.56885 15.1953L3.01416 12.8359C3.39609 12.2126 3.73267 11.5611 4.02588 10.8867L4.58057 9.61328L5.13525 8.33594C5.46987 7.5671 5.96687 6.91459 6.61963 6.38672L8.78369 4.63672C9.42599 4.11731 10.1439 3.74414 10.9321 3.51953L12.2603 3.14062L13.5845 2.76172C14.2944 2.55954 14.9938 2.33189 15.6782 2.07422L16.9556 1.59375L18.2329 1.10938C18.5889 0.97537 18.8978 0.871574 19.1548 0.800781C19.4025 0.732635 19.6417 0.686281 19.8384 0.6875L20.2954 0.691406H20.7563C21.023 0.693059 21.5398 0.717317 22.2876 0.761719L25.0376 0.925781C25.7521 0.9681 26.4667 0.936533 27.1821 0.832031L28.5571 0.632812L29.9321 0.429688C30.702 0.317113 31.4741 0.254764 32.2446 0.238281L33.6196 0.207031L34.9946 0.179688C35.7728 0.163085 36.5532 0.209835 37.3306 0.324219L40.0806 0.730469C40.8072 0.837319 41.5344 0.894243 42.2603 0.898438L45.0103 0.914062C45.7318 0.918174 46.4556 0.8594 47.1782 0.742188L49.9282 0.296875C50.7426 0.165027 51.5578 0.1947 52.3696 0.382812L53.7446 0.699219L55.1196 1.01953C55.8021 1.17761 56.4819 1.19339 57.1626 1.06641L59.9126 0.550781C60.6811 0.407091 61.4519 0.307778 62.2212 0.253906L63.5962 0.15625L64.9712 0.0625C65.7781 0.00600737 66.5838 0.0851157 67.3853 0.300781L70.1353 1.04297C70.812 1.2252 71.4855 1.24794 72.1587 1.11328L73.5337 0.835938L74.9087 0.5625C75.6959 0.40507 76.4864 0.339125 77.2759 0.367188L78.6509 0.417969L80.0259 0.464844C80.7651 0.491084 81.5055 0.49579 82.2446 0.476562L84.9946 0.40625C85.7498 0.386621 86.5051 0.377306 87.2603 0.382812L88.6353 0.394531L90.0103 0.402344C90.7786 0.407956 91.547 0.455948 92.3149 0.546875L95.0649 0.875C95.7821 0.959931 96.5005 0.972177 97.2173 0.914062L98.5923 0.804688L99.9673 0.691406C100.728 0.629732 101.491 0.594331 102.252 0.585938L105.002 0.554688C105.756 0.54639 106.51 0.551071 107.264 0.5625L110.014 0.601562C110.785 0.613264 111.556 0.675153 112.327 0.785156L115.077 1.17578C115.802 1.27931 116.528 1.32801 117.252 1.32031L118.627 1.30859L120.002 1.29297C120.723 1.28523 121.445 1.21204 122.167 1.07812L124.917 0.570312C125.715 0.422262 126.515 0.395511 127.315 0.492188L128.69 0.660156L130.065 0.824219C130.789 0.911817 131.514 0.942391 132.237 0.914062L134.987 0.804688C135.764 0.774238 136.542 0.809396 137.319 0.910156L140.069 1.26953C140.77 1.36056 141.472 1.34733 142.174 1.23047L143.549 1L144.924 0.773438C145.723 0.640418 146.523 0.626447 147.323 0.734375L148.698 0.921875L150.073 1.10547C150.766 1.19909 151.46 1.17692 152.155 1.03516L154.905 0.472656C155.719 0.30629 156.539 0.304681 157.354 0.464844L160.104 1.00391C160.822 1.14495 161.54 1.21606 162.256 1.21484L165.006 1.20703C165.73 1.20575 166.454 1.14977 167.178 1.03516L168.553 0.816406L169.928 0.601562C170.736 0.473804 171.544 0.488295 172.35 0.644531L175.1 1.17578C175.817 1.31487 176.537 1.3794 177.252 1.37109L180.002 1.33984C180.738 1.33125 181.474 1.29359 182.209 1.22656L184.959 0.976562C185.71 0.908129 186.463 0.842483 187.213 0.777344L189.963 0.535156C190.729 0.468751 191.495 0.440345 192.26 0.449219L193.635 0.464844L195.01 0.484375C195.758 0.493101 196.509 0.494632 197.256 0.492188L200.006 0.484375C200.785 0.481923 201.565 0.547032 202.342 0.679688L205.092 1.14844C205.781 1.26576 206.469 1.25661 207.159 1.12109L208.534 0.851562L209.909 0.578125C210.715 0.419445 211.526 0.405331 212.334 0.53125L215.084 0.960938C215.784 1.06981 216.483 1.06961 217.182 0.964844L218.557 0.757812L219.932 0.554688C220.699 0.439853 221.466 0.364362 222.233 0.328125L224.983 0.195312C225.745 0.159335 226.506 0.15348 227.268 0.171875L228.643 0.203125L230.018 0.238281C230.79 0.256937 231.563 0.324273 232.334 0.445312L233.709 0.664062L235.084 0.878906C235.781 0.988088 236.478 0.984962 237.174 0.867188L238.549 0.632812L239.924 0.402344C240.727 0.266693 241.531 0.261373 242.334 0.390625L243.709 0.613281L245.084 0.832031C245.79 0.945688 246.497 0.966156 247.202 0.886719L249.952 0.574219C250.706 0.489238 251.459 0.415336 252.213 0.351562L253.588 0.234375L254.963 0.121094C255.726 0.0565862 256.49 0.0200638 257.252 0.015625L260.002 0ZM257.26 1.01562C256.524 1.01989 255.786 1.05489 255.049 1.11719L253.674 1.23047L252.299 1.34766C251.554 1.4107 250.806 1.48627 250.061 1.57031L248.686 1.72266L247.311 1.87891C246.516 1.96837 245.722 1.94807 244.928 1.82031L243.553 1.60156L242.178 1.37891C241.482 1.26678 240.785 1.26902 240.088 1.38672L238.713 1.61719L237.338 1.85156C236.536 1.98712 235.731 1.99318 234.928 1.86719L233.553 1.64844L232.178 1.43359C231.45 1.31936 230.722 1.25587 229.995 1.23828L228.62 1.20312L227.245 1.17188C226.507 1.15404 225.768 1.16044 225.03 1.19531L223.655 1.26172L222.28 1.32422C221.547 1.35884 220.814 1.43311 220.081 1.54297L218.706 1.75L217.331 1.95312C216.53 2.07299 215.728 2.06998 214.928 1.94531L213.553 1.73438L212.178 1.51953C211.487 1.4119 210.797 1.42638 210.104 1.5625L207.354 2.10156C206.545 2.26073 205.731 2.27106 204.92 2.13281L202.17 1.66406C201.449 1.54105 200.727 1.48202 200.006 1.48438L197.256 1.49219C196.505 1.49464 195.754 1.49314 195.002 1.48438L193.627 1.46484L192.252 1.44922C191.519 1.44066 190.783 1.47149 190.049 1.53516L188.674 1.65234L187.299 1.77344C186.551 1.8384 185.802 1.90441 185.053 1.97266L182.303 2.22266C181.54 2.29222 180.774 2.33098 180.01 2.33984L177.26 2.37109C176.477 2.38006 175.694 2.30773 174.913 2.15625L172.163 1.625C171.469 1.49061 170.777 1.47647 170.084 1.58594L167.334 2.02344C166.559 2.14608 165.783 2.20571 165.006 2.20703L162.256 2.21484C161.473 2.21612 160.69 2.13789 159.909 1.98438L157.159 1.44531C156.474 1.31098 155.792 1.31351 155.108 1.45312L152.358 2.01562C151.554 2.17983 150.746 2.20645 149.94 2.09766L148.565 1.91016L147.19 1.72656C146.49 1.632 145.789 1.64111 145.088 1.75781L142.338 2.21875C141.541 2.35148 140.742 2.36516 139.944 2.26172L137.194 1.90234C136.471 1.80854 135.748 1.77642 135.026 1.80469L132.276 1.91406C131.5 1.94447 130.724 1.91023 129.948 1.81641L128.573 1.65234L127.198 1.48438C126.499 1.39976 125.797 1.42469 125.096 1.55469L122.346 2.0625C121.569 2.20669 120.789 2.28469 120.01 2.29297L118.635 2.30859L117.26 2.32031C116.485 2.32848 115.71 2.27851 114.936 2.16797L113.561 1.97266L112.186 1.77344C111.457 1.6693 110.727 1.61261 109.999 1.60156L107.249 1.5625C106.503 1.5512 105.756 1.54647 105.01 1.55469L102.26 1.58594C101.522 1.59411 100.783 1.62768 100.045 1.6875L98.6704 1.80078L97.2954 1.91016C96.5127 1.97353 95.7301 1.95982 94.9478 1.86719L93.5728 1.70312L92.1978 1.54297C91.4659 1.45631 90.7339 1.40768 90.0024 1.40234L88.6274 1.39453L87.2524 1.38281C86.5081 1.37739 85.7624 1.38689 85.0181 1.40625L82.2681 1.47656C81.5082 1.4963 80.7466 1.49185 79.9868 1.46484L78.6118 1.41797L77.2368 1.36719C76.527 1.34209 75.816 1.40055 75.104 1.54297L73.729 1.81641L72.354 2.09375C71.5277 2.25894 70.7002 2.22918 69.8774 2.00781L67.1274 1.26562C66.4294 1.07768 65.7341 1.01013 65.0415 1.05859L63.6665 1.15625L62.2915 1.25C61.5614 1.30112 60.831 1.39854 60.1001 1.53516L58.7251 1.78906L57.3501 2.04688C56.5316 2.19991 55.7097 2.18141 54.8931 1.99219L53.5181 1.67578L52.1431 1.35547C51.4556 1.19623 50.7693 1.17406 50.0845 1.28516L47.3345 1.73047C46.5581 1.8563 45.7799 1.91856 45.0024 1.91406L42.2524 1.89844C41.4791 1.89392 40.7047 1.83243 39.9321 1.71875L38.5571 1.51562L37.1821 1.31641C36.4602 1.21024 35.7391 1.16436 35.0181 1.17969L33.6431 1.20703L32.2681 1.23828C31.5395 1.25383 30.8098 1.31531 30.0806 1.42188L28.7056 1.62109L27.3306 1.82422C26.5471 1.93878 25.7595 1.97235 24.9751 1.92578L22.2251 1.76172C21.4749 1.71718 20.9884 1.69292 20.7524 1.69141H20.2915L19.8306 1.6875C19.7761 1.68716 19.6471 1.70325 19.4204 1.76562C19.2039 1.82526 18.9279 1.91908 18.5884 2.04688L17.3071 2.52734L16.0298 3.00781C15.3192 3.27531 14.5942 3.51689 13.8579 3.72656L12.5337 4.10156L11.2056 4.48047C10.5483 4.66781 9.95126 4.97846 9.4126 5.41406L7.24854 7.16406C6.72024 7.59128 6.32355 8.11654 6.05322 8.73828L5.49854 10.0117L4.94385 11.2891C4.63224 12.0056 4.27198 12.6964 3.86572 13.3594L3.14307 14.5391L2.42041 15.7148C2.07118 16.2848 1.88582 16.9024 1.86182 17.5703L1.81104 18.9531L1.76025 20.332C1.73353 21.0756 1.72945 21.8191 1.74854 22.5586L1.7876 23.9336L1.82275 25.3086C1.84242 26.0702 1.83455 26.8322 1.79932 27.5938L1.73291 28.9688L1.67041 30.3438C1.63584 31.0904 1.60784 31.8393 1.58838 32.5859L1.51807 35.3359C1.49815 36.0987 1.44956 36.8624 1.36963 37.625L1.08057 40.375C1.0073 41.0749 1.03824 41.7747 1.17432 42.4766L1.70557 45.2266C1.85931 46.0195 1.90952 46.8144 1.8501 47.6094L1.74463 48.9844L1.64307 50.3594C1.58916 51.0807 1.59708 51.8019 1.6665 52.5234L1.93213 55.2734C2.0074 56.0554 2.00778 56.8391 1.93213 57.6211L1.79541 58.9961L1.6626 60.3711C1.59081 61.1133 1.53777 61.8556 1.49854 62.5977L1.42432 63.9727L1.354 65.3477C1.3167 66.0534 1.37042 66.7604 1.51807 67.4688L1.80322 68.8438L2.09229 70.2188C2.25963 71.0212 2.29469 71.8281 2.19775 72.6328L2.02979 74.0078L1.86572 75.3828C1.77696 76.1199 1.71527 76.8569 1.68213 77.5938L1.61963 78.9688L1.56104 80.3438C1.52791 81.0805 1.51908 81.8179 1.5415 82.5547L1.62744 85.3047C1.65122 86.0845 1.60285 86.8657 1.48682 87.6445L1.28369 89.0195L1.07666 90.3945C0.972106 91.096 0.973701 91.7985 1.07666 92.5L1.27979 93.875L1.479 95.25C1.59243 96.023 1.65205 96.7966 1.65479 97.5703L1.6626 100.32C1.66523 101.065 1.6817 101.81 1.70557 102.555L1.7915 105.305C1.81612 106.073 1.79995 106.842 1.74072 107.609L1.63525 108.984L1.52588 110.359C1.46801 111.109 1.41248 111.86 1.354 112.609L1.24463 113.984L1.13916 115.359C1.08444 116.061 1.13141 116.765 1.27979 117.469L1.85791 120.219C2.02375 121.006 2.09632 121.796 2.07666 122.586L2.0415 123.961L2.01025 125.336C1.99202 126.07 2.00788 126.805 2.05713 127.539L2.14697 128.914L2.24072 130.289C2.29352 131.077 2.25441 131.866 2.12744 132.652L1.90479 134.027L1.68604 135.402C1.57143 136.113 1.54301 136.822 1.6001 137.531L1.81885 140.281C1.88298 141.078 1.8354 141.874 1.67822 142.668L1.40869 144.043L1.13525 145.418C0.996675 146.118 0.969462 146.818 1.04932 147.516L1.36182 150.266C1.45069 151.043 1.47416 151.82 1.43213 152.598L1.28369 155.348C1.24353 156.089 1.22266 156.832 1.21729 157.574L1.19385 160.324C1.18864 161.046 1.24609 161.769 1.36182 162.492L1.58057 163.867L1.80322 165.242C1.92589 166.008 2.01073 166.776 2.05713 167.543L2.22119 170.293C2.26982 171.099 2.18487 171.903 1.96729 172.703L1.59229 174.078L1.22119 175.453C1.0344 176.14 0.988428 176.822 1.08057 177.504L1.26416 178.879L1.45166 180.254C1.55467 181.015 1.63091 181.777 1.67822 182.539L1.76025 183.914L1.84619 185.289C1.89433 186.065 1.88296 186.842 1.81104 187.617L1.68604 188.992L1.55713 190.367C1.48832 191.109 1.43856 191.852 1.40869 192.594L1.29932 195.344C1.26967 196.081 1.26552 196.818 1.2915 197.555L1.34229 198.93L1.38916 200.305C1.41551 201.052 1.44868 201.8 1.48682 202.547L1.62744 205.297C1.66723 206.077 1.63359 206.857 1.52979 207.637L1.1626 210.387C1.06846 211.093 1.06994 211.801 1.1626 212.508L1.52197 215.258C1.62449 216.04 1.64901 216.823 1.59619 217.605L1.50244 218.98L1.4126 220.355C1.36489 221.063 1.40791 221.771 1.5415 222.48L2.05713 225.23C2.20457 226.013 2.27057 226.797 2.25244 227.582L2.18994 230.332C2.17171 231.117 2.06757 231.901 1.88525 232.684L1.24463 235.434C1.08703 236.109 1.08868 236.785 1.24463 237.461L1.87744 240.211C2.06394 241.02 2.09908 241.833 1.98291 242.645L1.59229 245.395C1.492 246.096 1.49241 246.798 1.59619 247.5L2.00244 250.25C2.1168 251.024 2.17529 251.8 2.17432 252.574L2.17041 253.949V255.324C2.16934 256.101 2.1036 256.877 1.9751 257.652L1.74463 259.027L1.51807 260.402C1.398 261.126 1.33538 261.851 1.33057 262.574L1.31494 265.324C1.31005 266.067 1.31714 266.812 1.34229 267.555L1.43604 270.305C1.46077 271.036 1.52676 271.769 1.63525 272.5L1.84229 273.875L2.04541 275.25C2.16398 276.051 2.15756 276.852 2.02588 277.652L1.57275 280.402C1.45411 281.123 1.40012 281.843 1.4126 282.562L1.45947 285.312C1.47233 286.051 1.51011 286.792 1.57275 287.531L1.80713 290.281C1.87133 291.039 1.91631 291.797 1.94385 292.555L2.04541 295.305C2.0731 296.067 2.07212 296.831 2.0415 297.594L1.98682 298.969L1.92822 300.344C1.89764 301.104 1.84255 301.865 1.76025 302.625L1.46338 305.375C1.38308 306.117 1.32245 306.86 1.27979 307.602L1.19775 308.977L1.11963 310.352C1.07884 311.062 1.12239 311.772 1.24854 312.484L1.49072 313.859L1.73682 315.234C1.87398 316.008 1.95201 316.783 1.97119 317.559L2.00244 318.934L2.0376 320.309C2.05685 321.088 2.00503 321.87 1.88525 322.648L1.46338 325.398C1.35104 326.129 1.28202 326.86 1.25635 327.59L1.20947 328.965L1.15869 330.34C1.13361 331.054 1.18461 331.769 1.31104 332.484L1.55322 333.859L1.79932 335.234C1.93788 336.019 1.99177 336.804 1.96338 337.59L1.9126 338.965L1.86572 340.34C1.83802 341.106 1.77015 341.875 1.6665 342.641L1.479 344.016L1.29541 345.391C1.19976 346.099 1.19303 346.808 1.27588 347.516L1.59619 350.266C1.68588 351.032 1.73669 351.799 1.74463 352.566L1.76025 353.941L1.77197 355.316C1.7796 356.054 1.81484 356.794 1.87744 357.531L2.11182 360.281C2.17715 361.052 2.19054 361.823 2.15479 362.594L2.02979 365.344C1.99572 366.077 1.99831 366.814 2.0376 367.547L2.10791 368.922L2.18213 370.297C2.22241 371.049 2.25624 371.795 2.28369 372.535L2.33447 373.891L2.38525 375.242C2.41238 375.974 2.45399 376.71 2.51025 377.449L2.61572 378.816L2.71729 380.18C2.76841 380.851 2.96065 381.482 3.29541 382.07L3.9751 383.266L4.65869 384.461C5.00227 385.065 5.43198 385.593 5.94775 386.043L6.97119 386.934L7.99463 387.828C8.55102 388.314 9.11283 388.795 9.67822 389.27L10.7212 390.145L11.7603 391.02C12.2741 391.451 12.8554 391.757 13.5024 391.941L14.811 392.316L16.1196 392.688C16.8075 392.884 17.5087 393.023 18.2173 393.102L19.5649 393.25L20.9165 393.398C21.6599 393.481 22.41 393.579 23.1665 393.695L24.5415 393.91L25.9165 394.121C26.6415 394.233 27.3682 394.29 28.0923 394.289L29.4673 394.285H30.8423C31.5484 394.285 32.2572 394.195 32.9673 394.012L34.3423 393.656L35.7173 393.305C36.531 393.095 37.3487 393.05 38.1665 393.176L39.5415 393.387L40.9165 393.602C41.6409 393.713 42.3649 393.765 43.0884 393.762L44.4634 393.758L45.8384 393.75C46.5948 393.747 47.3515 393.758 48.1079 393.785L50.8579 393.887C51.5703 393.913 52.2843 393.86 52.9985 393.727L54.3735 393.469L55.7485 393.215C56.531 393.069 57.3159 393.002 58.1001 393.016L60.8501 393.062C61.6066 393.076 62.3632 393.104 63.1196 393.148L65.8696 393.312C66.6392 393.358 67.4094 393.446 68.1782 393.582L69.5532 393.828L70.9282 394.07C71.6434 394.197 72.3591 394.247 73.0728 394.219L75.8228 394.109C76.5884 394.08 77.354 394.09 78.1196 394.137L79.4946 394.219L80.8696 394.305C81.5863 394.348 82.3045 394.318 83.022 394.219L84.397 394.031L85.772 393.84C86.5423 393.733 87.3135 393.674 88.0845 393.664L89.4595 393.648L90.8345 393.629C91.5963 393.619 92.3579 393.641 93.1196 393.688L94.4946 393.77L95.8696 393.855C96.6191 393.901 97.3702 393.947 98.1196 393.992L100.87 394.156C101.596 394.2 102.323 394.193 103.049 394.133L105.799 393.906C106.571 393.843 107.344 393.831 108.116 393.871L109.491 393.941L110.866 394.016C111.581 394.053 112.298 394.015 113.014 393.902L114.389 393.684L115.764 393.469C116.542 393.346 117.321 393.288 118.1 393.301L120.85 393.348C121.6 393.36 122.35 393.374 123.1 393.387L125.85 393.434C126.614 393.446 127.379 393.494 128.143 393.574L129.518 393.715L130.893 393.859C131.63 393.937 132.367 393.985 133.104 394.004L134.479 394.043L135.854 394.078C136.603 394.098 137.355 394.115 138.104 394.133L139.479 394.168L140.854 394.199C141.569 394.216 142.286 394.161 143.002 394.031L145.752 393.531C146.562 393.385 147.373 393.39 148.182 393.543L150.932 394.066C151.656 394.204 152.382 394.28 153.104 394.297L154.479 394.328L155.854 394.363C156.567 394.38 157.28 394.32 157.995 394.184L159.37 393.918L160.745 393.656C161.528 393.506 162.315 393.437 163.1 393.453L165.85 393.508C166.587 393.523 167.324 393.508 168.061 393.465L170.811 393.301C171.576 393.256 172.343 393.246 173.108 393.27L175.858 393.355C176.627 393.379 177.398 393.45 178.167 393.566L180.917 393.98C181.646 394.091 182.375 394.158 183.104 394.18L184.479 394.223L185.854 394.262C186.599 394.284 187.347 394.299 188.092 394.301H189.467L190.842 394.305C191.56 394.306 192.279 394.239 192.999 394.102L195.749 393.578C196.53 393.429 197.313 393.359 198.096 393.367L200.846 393.398C201.614 393.407 202.383 393.456 203.151 393.547L204.526 393.711L205.901 393.871C206.602 393.954 207.304 393.936 208.006 393.816L210.756 393.348C211.551 393.213 212.347 393.187 213.143 393.27L214.518 393.414L215.893 393.555C216.624 393.631 217.354 393.666 218.084 393.656L219.459 393.637L220.834 393.621C221.608 393.611 222.382 393.652 223.155 393.75L224.53 393.926L225.905 394.098C226.634 394.19 227.363 394.239 228.092 394.242L229.467 394.246L230.842 394.254C231.584 394.257 232.327 394.24 233.069 394.207L235.819 394.082C236.575 394.048 237.332 394.033 238.088 394.031L240.838 394.023C241.568 394.022 242.299 393.976 243.03 393.887L245.78 393.551C246.577 393.453 247.374 393.466 248.17 393.594L249.545 393.816L250.92 394.035C251.64 394.15 252.358 394.199 253.077 394.18L255.827 394.109C256.566 394.09 257.306 394.046 258.045 393.98L259.42 393.855L260.795 393.734C261.545 393.667 262.296 393.6 263.045 393.531L264.42 393.402L265.795 393.277C266.581 393.205 267.366 393.213 268.151 393.309L270.901 393.645C271.631 393.734 272.362 393.782 273.092 393.785L274.467 393.789L275.842 393.797C276.571 393.8 277.3 393.753 278.03 393.664L280.78 393.328C281.588 393.229 282.396 393.276 283.202 393.461L285.952 394.094C286.629 394.25 287.306 394.253 287.983 394.102L289.358 393.797L290.733 393.488C291.51 393.315 292.29 393.209 293.069 393.172L294.444 393.109L295.819 393.043C296.616 393.005 297.412 393.083 298.206 393.273L299.581 393.602L300.956 393.934C301.646 394.099 302.335 394.132 303.022 394.035L304.397 393.844L305.772 393.648C306.537 393.541 307.303 393.471 308.069 393.438L309.444 393.375L310.819 393.316C311.587 393.282 312.356 393.29 313.124 393.34L314.499 393.426L315.874 393.516C316.626 393.564 317.379 393.617 318.131 393.676L319.506 393.785L320.881 393.891C321.619 393.949 322.358 393.982 323.096 393.988L325.846 394.012C326.597 394.018 327.349 394.027 328.1 394.039L329.475 394.059L330.85 394.082C331.575 394.093 332.3 394.048 333.026 393.953L335.776 393.594C336.54 393.494 337.304 393.429 338.069 393.398L340.819 393.289C341.581 393.259 342.346 393.255 343.108 393.281L345.858 393.375C346.629 393.401 347.4 393.475 348.17 393.598L349.545 393.82L350.92 394.039C351.647 394.155 352.374 394.219 353.1 394.23L354.475 394.25L355.85 394.273C356.58 394.285 357.311 394.256 358.042 394.184L360.792 393.91C361.569 393.833 362.349 393.824 363.127 393.879L364.502 393.977L365.877 394.07C366.578 394.119 367.279 394.069 367.983 393.914L369.358 393.609L370.733 393.309C371.546 393.13 372.363 393.111 373.178 393.254L375.928 393.738C376.639 393.863 377.348 393.902 378.057 393.855L379.432 393.766L380.807 393.672C381.549 393.623 382.292 393.56 383.034 393.477L385.784 393.164C386.566 393.076 387.349 393.065 388.131 393.129L389.506 393.238L390.881 393.352C391.636 393.413 392.392 393.483 393.147 393.566L395.897 393.871C396.62 393.951 397.342 393.973 398.065 393.938L399.44 393.871L400.815 393.801C401.584 393.763 402.354 393.77 403.124 393.82L405.874 394C406.619 394.049 407.366 394.091 408.112 394.121L409.487 394.176L410.862 394.234C411.596 394.264 412.331 394.262 413.065 394.227L415.815 394.094C416.581 394.057 417.35 394.053 418.116 394.09L420.866 394.223C421.61 394.258 422.355 394.284 423.1 394.297L425.85 394.344C426.551 394.356 427.254 394.27 427.959 394.078L430.709 393.328C431.54 393.103 432.377 393.093 433.209 393.297L434.584 393.633L435.959 393.973C436.653 394.143 437.344 394.185 438.034 394.105L440.784 393.793C441.534 393.707 442.284 393.618 443.034 393.531L444.409 393.375L445.784 393.215C446.595 393.121 447.406 393.177 448.213 393.383L449.588 393.734L450.963 394.082C451.643 394.255 452.321 394.277 452.999 394.148L454.374 393.891L455.749 393.629C456.543 393.478 457.339 393.438 458.135 393.512L459.51 393.637L460.885 393.766C461.604 393.832 462.326 393.829 463.045 393.762L465.795 393.504C466.575 393.431 467.356 393.429 468.135 393.496L469.51 393.617L470.885 393.734C471.63 393.799 472.375 393.854 473.12 393.895L475.87 394.043C476.581 394.082 477.293 394.041 478.006 393.918L479.381 393.684L480.756 393.445C481.534 393.311 482.313 393.247 483.092 393.25L484.467 393.254L485.842 393.262C486.607 393.265 487.374 393.302 488.139 393.375L490.889 393.641L494.514 393.98L495.889 394.113C496.591 394.179 497.293 394.145 497.995 394.012L499.366 393.75L500.733 393.488C501.516 393.339 502.311 393.275 503.112 393.297L504.514 393.336L505.917 393.371C506.603 393.39 507.254 393.254 507.877 392.961L509.151 392.363L510.424 391.762C511.059 391.463 511.608 391.057 512.073 390.543L513.006 389.508L513.94 388.477C514.454 387.907 514.977 387.351 515.51 386.812L516.479 385.832L517.448 384.855C517.912 384.386 518.22 383.833 518.377 383.191L519.034 380.52C519.211 379.797 519.374 379.08 519.514 378.371L519.772 377.059L520.034 375.746C520.173 375.044 520.285 374.325 520.366 373.59L520.514 372.219L520.667 370.848C520.746 370.129 520.763 369.408 520.713 368.688L520.616 367.312L520.522 365.938C520.469 365.175 520.447 364.411 520.456 363.648L520.487 360.898C520.495 360.124 520.562 359.348 520.686 358.574L520.909 357.199L521.127 355.824C521.243 355.108 521.288 354.391 521.256 353.676L521.131 350.926C521.099 350.195 521.025 349.462 520.909 348.73L520.471 345.98C520.346 345.192 520.315 344.403 520.377 343.613L520.596 340.863C520.656 340.109 520.725 339.352 520.807 338.598L520.956 337.223L521.108 335.848C521.186 335.129 521.197 334.41 521.143 333.691L520.94 330.941C520.883 330.178 520.857 329.412 520.862 328.648L520.877 325.898C520.882 325.159 520.865 324.419 520.827 323.68L520.686 320.93C520.648 320.187 520.597 319.442 520.53 318.699L520.28 315.949C520.21 315.169 520.213 314.386 520.288 313.605L520.42 312.23L520.549 310.855C520.62 310.113 520.673 309.371 520.709 308.629L520.78 307.254L520.846 305.879C520.881 305.168 520.836 304.455 520.709 303.742L520.463 302.367L520.221 300.992C520.08 300.198 520.042 299.401 520.116 298.605L520.374 295.855C520.443 295.104 520.518 294.353 520.596 293.602L520.741 292.227L520.881 290.852C520.955 290.142 520.945 289.433 520.846 288.723L520.655 287.348L520.459 285.973C520.347 285.17 520.365 284.364 520.51 283.562L521.01 280.812C521.133 280.135 521.107 279.458 520.932 278.777L520.577 277.402L520.225 276.027C520.021 275.234 519.928 274.438 519.948 273.641L519.979 272.266L520.014 270.891C520.033 270.107 520.133 269.324 520.311 268.543L520.936 265.793C521.095 265.095 521.14 264.398 521.073 263.703L520.94 262.328L520.803 260.953C520.727 260.166 520.741 259.377 520.842 258.59L521.194 255.84C521.287 255.12 521.316 254.399 521.28 253.68L521.139 250.93C521.102 250.207 521.007 249.482 520.85 248.758L520.553 247.383L520.252 246.008C520.081 245.218 520.015 244.426 520.049 243.633L520.167 240.883C520.2 240.115 520.278 239.346 520.397 238.578L520.612 237.203L520.823 235.828C520.933 235.118 520.957 234.408 520.893 233.699L520.643 230.949C520.571 230.158 520.6 229.365 520.725 228.574L520.944 227.199L521.159 225.824C521.27 225.124 521.276 224.426 521.174 223.727L520.776 220.977C520.662 220.191 520.63 219.403 520.686 218.617L520.881 215.867C520.931 215.158 520.896 214.449 520.776 213.738L520.307 210.988C520.173 210.195 520.144 209.4 520.221 208.605L520.354 207.23L520.491 205.855C520.563 205.106 520.634 204.355 520.706 203.605L520.838 202.23L520.967 200.855C521.038 200.114 521.093 199.371 521.127 198.629L521.252 195.879C521.286 195.141 521.297 194.402 521.28 193.664L521.245 192.289L521.213 190.914C521.196 190.198 521.109 189.48 520.952 188.762L520.651 187.387L520.354 186.012C520.176 185.199 520.158 184.381 520.303 183.566L520.795 180.816C520.921 180.113 520.944 179.409 520.87 178.707L520.725 177.332L520.577 175.957C520.495 175.193 520.448 174.428 520.432 173.664L520.405 172.289L520.374 170.914C520.358 170.138 520.406 169.361 520.514 168.586L520.897 165.836C520.998 165.112 521.04 164.387 521.026 163.664L520.999 162.289L520.975 160.914C520.961 160.193 520.884 159.468 520.745 158.746L520.213 155.996C520.06 155.203 520.015 154.408 520.081 153.613L520.307 150.863C520.37 150.099 520.469 149.334 520.6 148.57L520.834 147.195L521.073 145.82C521.192 145.126 521.189 144.432 521.069 143.738L520.834 142.363L520.596 140.988C520.463 140.217 520.381 139.444 520.35 138.672L520.241 135.922C520.211 135.167 520.193 134.411 520.186 133.656L520.174 132.281L520.159 130.906C520.151 130.116 520.239 129.326 520.42 128.539L520.741 127.164L521.057 125.789C521.217 125.093 521.26 124.4 521.186 123.707L520.889 120.957C520.805 120.175 520.796 119.391 520.862 118.609L521.096 115.859C521.158 115.122 521.191 114.385 521.198 113.648L521.209 112.273L521.225 110.898C521.232 110.178 521.177 109.456 521.061 108.734L520.838 107.359L520.62 105.984C520.497 105.224 520.396 104.46 520.323 103.699L520.057 100.949C519.982 100.171 519.978 99.3919 520.042 98.6133L520.151 97.2383L520.264 95.8633C520.325 95.1165 520.378 94.3678 520.424 93.6211L520.51 92.2461L520.592 90.8711C520.637 90.1465 520.629 89.4201 520.565 88.6953L520.444 87.3203L520.319 85.9453C520.249 85.1552 520.278 84.3633 520.401 83.5742L520.831 80.8242C520.941 80.1144 520.967 79.4042 520.905 78.6953L520.663 75.9453C520.596 75.1878 520.551 74.4295 520.522 73.6719L520.413 70.9219C520.384 70.1738 520.352 69.4238 520.315 68.6758L520.249 67.3008L520.178 65.9258C520.141 65.1589 520.143 64.3918 520.186 63.625L520.342 60.875C520.386 60.1037 520.48 59.3328 520.624 58.5625L521.139 55.8125C521.272 55.1009 521.319 54.3895 521.284 53.6797L521.213 52.3047L521.147 50.9297C521.109 50.164 521.105 49.3946 521.139 48.6289L521.264 45.8789C521.296 45.1702 521.24 44.4608 521.1 43.75L520.831 42.375L520.557 41C520.406 40.2322 520.296 39.464 520.233 38.6953L520.12 37.3203L520.01 35.9453C519.944 35.1376 520.014 34.3299 520.225 33.5273L520.588 32.1523L520.948 30.7773C521.133 30.0721 521.218 29.3685 521.198 28.668L521.155 27.293L521.116 25.918C521.094 25.1619 521.087 24.4023 521.092 23.6406L521.1 22.2539L521.112 20.8711C521.117 20.1675 521.013 19.4763 520.803 18.7969L520.389 17.4609L519.979 16.125C519.763 15.4278 519.484 14.7675 519.143 14.1445L518.491 12.9492L517.834 11.75C517.49 11.1201 517.099 10.5206 516.663 9.95312L515.834 8.875L515.002 7.79688C514.571 7.23591 514.082 6.71801 513.534 6.24609L512.483 5.34375L511.432 4.4375C510.909 3.98695 510.32 3.65331 509.663 3.4375L507.022 2.57031C506.317 2.33895 505.6 2.13993 504.87 1.97266L503.502 1.66016L502.139 1.34766C501.433 1.18573 500.723 1.10882 500.014 1.11719L497.264 1.14844C496.523 1.15734 495.779 1.18514 495.038 1.23047L493.663 1.31641L492.288 1.39844C491.512 1.44588 490.735 1.43254 489.959 1.35938L487.209 1.10156C486.498 1.03442 485.785 1.04818 485.073 1.14453L482.323 1.51953C481.555 1.62329 480.786 1.68245 480.018 1.70312L478.643 1.74219L477.268 1.77734C476.53 1.79726 475.792 1.84424 475.053 1.91406L472.303 2.17188C471.539 2.24415 470.775 2.28517 470.01 2.28906L468.635 2.29297L467.26 2.30078C466.507 2.30457 465.752 2.30065 464.999 2.28906L463.624 2.26953L462.249 2.24609C461.465 2.23403 460.682 2.14227 459.901 1.97266L457.151 1.37891C456.444 1.22546 455.738 1.16755 455.034 1.20703L453.659 1.28516L452.284 1.35938C451.545 1.40078 450.807 1.47055 450.069 1.5625L448.694 1.73438L447.319 1.90234C446.546 1.99859 445.772 2.04149 444.999 2.02734L443.624 2L442.249 1.97656C441.485 1.96253 440.719 1.91652 439.956 1.83594L438.581 1.6875L437.206 1.54297C436.493 1.46775 435.778 1.47567 435.065 1.5625L432.315 1.89844C431.546 1.99208 430.776 2.03898 430.006 2.03906H427.256C426.476 2.03914 425.696 1.96677 424.917 1.82422L423.542 1.57031L422.167 1.32031C421.486 1.19585 420.806 1.21726 420.124 1.38281L417.374 2.04688C416.573 2.24104 415.768 2.30611 414.963 2.23828L413.588 2.12109L412.213 2.00781C411.45 1.94347 410.687 1.84735 409.924 1.71875L408.549 1.48438L407.174 1.25391C406.472 1.13548 405.77 1.11968 405.069 1.20703L402.319 1.55078C401.525 1.64974 400.73 1.64301 399.936 1.53125L398.561 1.33594L397.186 1.14453C396.507 1.049 395.828 1.09509 395.143 1.28906L392.393 2.07031C391.592 2.29733 390.786 2.38953 389.979 2.34375L388.604 2.26562L387.229 2.18359C386.465 2.14013 385.7 2.06456 384.936 1.95312L383.561 1.75391L382.186 1.55078C381.45 1.44327 380.711 1.36686 379.975 1.32031L377.225 1.14844C376.518 1.10373 375.809 1.14526 375.1 1.28125L373.725 1.54688L372.35 1.80859C371.558 1.96042 370.765 2.00925 369.971 1.95312L368.596 1.85547L367.221 1.76172C366.476 1.70901 365.729 1.66575 364.983 1.63281L363.608 1.57031L362.233 1.51172C361.505 1.47963 360.777 1.49491 360.049 1.55859L358.674 1.67578L357.299 1.79688C356.536 1.86369 355.77 1.90007 355.006 1.90234L352.256 1.91016C351.495 1.91238 350.732 1.88691 349.971 1.83594L348.596 1.74609L347.221 1.65234C346.493 1.60367 345.766 1.60336 345.038 1.64844L343.663 1.73047L342.288 1.81641C341.512 1.86444 340.735 1.85233 339.959 1.78125L337.209 1.53125C336.467 1.46324 335.725 1.41295 334.983 1.37891L333.608 1.3125L332.233 1.25C331.523 1.21747 330.812 1.26795 330.1 1.40234L328.725 1.66406L327.35 1.92188C326.555 2.07203 325.756 2.11146 324.959 2.03906L322.209 1.78906C321.457 1.72069 320.704 1.64804 319.952 1.56641L318.577 1.41797L317.202 1.26562C316.467 1.18596 315.733 1.14142 314.999 1.12891L312.249 1.08203C311.511 1.06948 310.772 1.0835 310.034 1.125L307.284 1.28125C306.515 1.32446 305.744 1.32249 304.975 1.27734L303.6 1.19531L302.225 1.11719C301.522 1.07606 300.818 1.12805 300.112 1.27734L298.737 1.57031L297.362 1.85938C296.586 2.02363 295.807 2.12501 295.03 2.16016L292.28 2.28516C291.493 2.32068 290.706 2.26639 289.92 2.12891L288.545 1.89062L287.17 1.64844C286.443 1.52116 285.717 1.44331 284.991 1.41797L282.241 1.32422C281.525 1.29931 280.806 1.34787 280.088 1.46875L277.338 1.92969C276.533 2.06541 275.726 2.06351 274.92 1.92188L272.17 1.4375C271.478 1.31564 270.785 1.31438 270.092 1.43359L267.342 1.91016C266.527 2.05057 265.71 2.02925 264.897 1.84766L263.522 1.53906L262.147 1.23438C261.433 1.07494 260.721 0.995964 260.01 1L257.26 1.01562Z" fill="#3F2D2A"/>
</svg>
