<svg width="680" height="655" viewBox="0 0 680 655" fill="none" xmlns="http://www.w3.org/2000/svg">
<path d="M1.11865 21.1953C1.11865 10.1496 10.073 1.19531 21.1187 1.19531H658.119C669.164 1.19531 678.119 10.1496 678.119 21.1953V633.195C678.119 644.241 669.164 653.195 658.119 653.195H21.1186C10.073 653.195 1.11865 644.241 1.11865 633.195V21.1953Z" fill="#FFFDF8"/>
<path d="M677.947 508.902C677.945 508.173 677.9 507.444 677.81 506.715L677.474 503.965C677.376 503.168 677.39 502.37 677.517 501.574L677.74 500.199L677.958 498.824C678.074 498.105 678.122 497.386 678.103 496.668L678.033 493.918C678.013 493.179 677.97 492.438 677.904 491.699L677.779 490.324L677.658 488.949C677.591 488.2 677.524 487.449 677.455 486.699L677.326 485.324L677.201 483.949C677.128 483.164 677.136 482.379 677.232 481.594L677.568 478.844C677.657 478.113 677.705 477.382 677.708 476.652L677.712 475.277L677.72 473.902L677.689 472.809C677.667 472.444 677.632 472.08 677.587 471.715L677.251 468.965C677.153 468.156 677.199 467.345 677.384 466.539L678.017 463.789C678.173 463.112 678.176 462.438 678.025 461.762L677.72 460.387L677.412 459.012C677.238 458.234 677.132 457.455 677.095 456.676L677.033 455.301L676.966 453.926C676.929 453.128 677.006 452.329 677.197 451.535L677.525 450.16L677.857 448.785C678.022 448.095 678.055 447.409 677.958 446.723L677.767 445.348L677.572 443.973C677.464 443.207 677.395 442.442 677.361 441.676L677.298 440.301L677.24 438.926C677.206 438.158 677.214 437.389 677.263 436.621L677.349 435.246L677.439 433.871C677.487 433.119 677.54 432.366 677.599 431.613L677.708 430.238L677.814 428.863C677.872 428.125 677.906 427.386 677.912 426.648L677.935 423.898C677.941 423.147 677.951 422.396 677.962 421.645L677.982 420.27L678.005 418.895C678.017 418.169 677.972 417.444 677.876 416.719L677.517 413.969C677.417 413.204 677.352 412.437 677.322 411.672L677.212 408.922C677.182 408.16 677.179 407.398 677.205 406.637L677.298 403.887C677.325 403.116 677.398 402.344 677.521 401.574L677.744 400.199L677.962 398.824C678.078 398.097 678.142 397.37 678.154 396.645L678.173 395.27L678.197 393.895C678.209 393.164 678.179 392.434 678.107 391.703L677.833 388.953C677.757 388.175 677.747 387.395 677.802 386.617L677.9 385.242L677.994 383.867C678.043 383.167 677.992 382.465 677.837 381.762L677.533 380.387L677.232 379.012C677.053 378.199 677.034 377.381 677.177 376.566L677.662 373.816C677.786 373.106 677.825 372.396 677.779 371.688L677.689 370.312L677.595 368.938C677.547 368.196 677.483 367.453 677.4 366.711L677.087 363.961C676.999 363.179 676.989 362.395 677.052 361.613L677.162 360.238L677.275 358.863C677.336 358.108 677.406 357.352 677.49 356.598L677.794 353.848C677.874 353.125 677.896 352.402 677.861 351.68L677.794 350.305L677.724 348.93C677.686 348.161 677.693 347.39 677.744 346.621L677.923 343.871C677.972 343.125 678.014 342.379 678.044 341.633L678.099 340.258L678.158 338.883C678.188 338.148 678.185 337.411 678.15 336.676L678.017 333.926C677.98 333.16 677.977 332.394 678.013 331.629L678.146 328.879C678.182 328.134 678.207 327.389 678.22 326.645L678.267 323.895C678.28 323.194 678.193 322.491 678.001 321.785L677.251 319.035C677.026 318.204 677.016 317.368 677.22 316.535L677.556 315.16L677.896 313.785C678.066 313.092 678.108 312.4 678.029 311.711L677.716 308.961C677.63 308.211 677.541 307.461 677.455 306.711L677.298 305.336L677.138 303.961C677.044 303.149 677.101 302.338 677.306 301.531L677.658 300.156L678.005 298.781C678.179 298.101 678.2 297.423 678.072 296.746L677.814 295.371L677.552 293.996C677.401 293.201 677.362 292.403 677.435 291.605L677.56 290.23L677.689 288.855C677.755 288.137 677.752 287.418 677.685 286.699L677.427 283.949C677.354 283.17 677.352 282.389 677.419 281.609L677.541 280.234L677.658 278.859C677.722 278.115 677.777 277.37 677.818 276.625L677.966 273.875C678.005 273.163 677.964 272.451 677.841 271.738L677.607 270.363L677.369 268.988C677.302 268.599 677.253 268.21 677.22 267.82L677.173 266.652L677.177 265.277L677.185 263.902C677.189 263.137 677.225 262.37 677.298 261.605L677.564 258.855L677.904 255.23L678.037 253.855C678.103 253.153 678.07 252.45 677.939 251.746L677.423 248.996C677.272 248.184 677.275 247.367 677.435 246.555L677.708 245.18L677.978 243.805C678.119 243.09 678.182 242.377 678.166 241.664L678.134 240.289L678.099 238.914C678.082 238.189 678.013 237.464 677.888 236.738L677.65 235.363L677.416 233.988C677.278 233.19 677.26 232.389 677.361 231.59L677.533 230.215L677.708 228.84C677.797 228.138 677.781 227.437 677.666 226.734L677.439 225.359L677.216 223.984C677.088 223.201 677.039 222.417 677.072 221.633L677.126 220.258L677.185 218.883C677.217 218.122 677.274 217.359 677.357 216.598L677.505 215.223L677.658 213.848C677.736 213.127 677.75 212.407 677.701 211.688L677.603 210.312L677.509 208.938C677.457 208.175 677.434 207.411 677.443 206.648L677.474 203.898C677.483 203.124 677.549 202.348 677.673 201.574L677.896 200.199L678.115 198.824C678.23 198.108 678.275 197.391 678.244 196.676L678.119 193.926C678.086 193.195 678.013 192.462 677.896 191.73L677.458 188.98C677.333 188.192 677.302 187.403 677.365 186.613L677.583 183.863C677.643 183.109 677.712 182.352 677.794 181.598L677.943 180.223L678.095 178.848C678.173 178.129 678.184 177.41 678.13 176.691L677.927 173.941C677.87 173.178 677.844 172.412 677.849 171.648L677.865 168.898C677.869 168.159 677.852 167.419 677.814 166.68L677.673 163.93C677.635 163.187 677.584 162.442 677.517 161.699L677.267 158.949C677.197 158.169 677.201 157.386 677.275 156.605L677.408 155.23L677.537 153.855C677.607 153.113 677.66 152.371 677.697 151.629L677.767 150.254L677.833 148.879C677.869 148.168 677.824 147.455 677.697 146.742L677.451 145.367L677.208 143.992C677.067 143.198 677.029 142.401 677.103 141.605L677.361 138.855C677.431 138.104 677.505 137.353 677.583 136.602L677.728 135.227L677.869 133.852C677.943 133.142 677.933 132.433 677.833 131.723L677.642 130.348L677.447 128.973C677.335 128.17 677.352 127.364 677.498 126.562L677.998 123.812C678.12 123.135 678.095 122.458 677.919 121.777L677.564 120.402L677.212 119.027C677.008 118.234 676.916 117.438 676.935 116.641L676.966 115.266L677.001 113.891C677.021 113.107 677.121 112.324 677.298 111.543L677.923 108.793C678.082 108.095 678.128 107.398 678.06 106.703L677.927 105.328L677.791 103.953C677.714 103.166 677.728 102.377 677.83 101.59L678.181 98.8398C678.274 98.1196 678.304 97.3993 678.267 96.6797L678.126 93.9297C678.09 93.2073 677.994 92.4819 677.837 91.7578L677.541 90.3828L677.24 89.0078C677.069 88.2178 677.002 87.4257 677.037 86.6328L677.154 83.8828C677.187 83.1147 677.265 82.3456 677.384 81.5781L677.599 80.2031L677.81 78.8281C677.92 78.1185 677.945 77.4079 677.88 76.6992L677.63 73.9492C677.559 73.1577 677.587 72.3647 677.712 71.5742L677.931 70.1992L678.146 68.8242C678.257 68.1245 678.263 67.426 678.162 66.7266L677.763 63.9766C677.649 63.1913 677.618 62.4033 677.673 61.6172L677.869 58.8672C677.919 58.1581 677.884 57.4487 677.763 56.7383L677.294 53.9883C677.16 53.1954 677.132 52.3996 677.208 51.6055L677.341 50.2305L677.478 48.8555C677.551 48.1057 677.621 47.3553 677.693 46.6055L677.826 45.2305L677.955 43.8555C678.026 43.1136 678.081 42.3706 678.115 41.6289L678.24 38.8789C678.274 38.1409 678.284 37.4021 678.267 36.6641L678.232 35.2891L678.201 33.9141C678.184 33.1975 678.096 32.4804 677.939 31.7617L677.638 30.3867L677.341 29.0117C677.164 28.1986 677.145 27.381 677.291 26.5664L677.783 23.8164C677.907 23.1223 677.911 22.4321 677.798 21.7461L677.345 19.0195C677.227 18.3016 677.059 17.6034 676.837 16.9258L675.994 14.3477C675.769 13.6599 675.508 12.974 675.212 12.293L674.103 9.74609C673.828 9.11354 673.44 8.55883 672.935 8.08203L671.919 7.125L670.904 6.16406C670.401 5.68965 669.827 5.34175 669.181 5.11719L667.873 4.66406L666.564 4.20703C665.846 3.9577 665.142 3.70405 664.451 3.44531L663.189 2.97266L661.931 2.5C661.267 2.25145 660.573 2.05128 659.853 1.89453L657.126 1.30078C656.447 1.15299 655.766 1.1395 655.08 1.25781L653.705 1.49219L652.33 1.73047C651.558 1.86357 650.785 1.94614 650.013 1.97656L647.263 2.08594C646.508 2.11567 645.752 2.13348 644.998 2.14062L643.623 2.15234L642.248 2.16797C641.457 2.17538 640.667 2.08774 639.88 1.90625L638.505 1.58594L637.13 1.26953C636.434 1.10918 635.741 1.06658 635.048 1.14062L632.298 1.4375C631.517 1.52124 630.732 1.53057 629.951 1.46484L627.201 1.23047C626.464 1.16853 625.727 1.13593 624.99 1.12891L623.615 1.11719L622.24 1.10156C621.518 1.09471 620.794 1.14939 620.072 1.26562L618.697 1.48828L617.322 1.70703C616.562 1.82928 615.801 1.93057 615.041 2.00391L612.291 2.26953C611.512 2.34455 610.733 2.34831 609.955 2.28516L608.58 2.17578L607.205 2.0625C606.458 2.00185 605.709 1.94826 604.962 1.90234L603.587 1.81641L602.212 1.73438C601.488 1.68982 600.762 1.69758 600.037 1.76172L598.662 1.88281L597.287 2.00781C596.496 2.07763 595.705 2.04914 594.916 1.92578L592.166 1.49609C591.455 1.38519 590.746 1.35988 590.037 1.42188L587.287 1.66406C586.529 1.7303 585.771 1.77525 585.013 1.80469L582.263 1.91406C581.515 1.94313 580.765 1.97495 580.017 2.01172L578.642 2.07812L577.267 2.14844C576.5 2.18608 575.733 2.18389 574.966 2.14062L572.216 1.98438C571.445 1.94085 570.674 1.84671 569.904 1.70312L567.154 1.1875C566.442 1.05462 565.727 1.00758 565.017 1.04297L563.642 1.11328L562.267 1.17969C561.502 1.21777 560.735 1.22168 559.97 1.1875L557.22 1.0625C556.512 1.03094 555.802 1.08624 555.091 1.22656L553.716 1.49609L552.341 1.76953C551.573 1.92122 550.802 2.03047 550.033 2.09375L548.658 2.20703L547.283 2.31641C546.475 2.38266 545.667 2.31255 544.865 2.10156L543.49 1.73828L542.115 1.37891C541.41 1.1938 540.709 1.10864 540.009 1.12891L538.634 1.17188L537.259 1.21094C536.502 1.23299 535.743 1.23582 534.986 1.22266L532.236 1.17578C531.507 1.16311 530.777 1.19522 530.048 1.27344L527.298 1.57031C526.54 1.65177 525.78 1.71317 525.021 1.75391L522.271 1.90234C521.506 1.94343 520.74 1.94875 519.974 1.91797L518.599 1.85938L517.224 1.80469C516.466 1.7742 515.708 1.72575 514.951 1.66016L513.576 1.54297L512.201 1.42188C511.475 1.35907 510.75 1.35182 510.025 1.39453L508.65 1.47266L507.275 1.55469C506.498 1.60053 505.719 1.58444 504.943 1.50391L503.568 1.35938L502.193 1.21875C501.463 1.14296 500.732 1.10849 500.001 1.11719L497.251 1.14844C496.51 1.15734 495.766 1.18513 495.025 1.23047L493.65 1.31641L492.275 1.39844C491.499 1.44588 490.722 1.43254 489.947 1.35938L487.197 1.10156C486.485 1.03442 485.772 1.04818 485.06 1.14453L482.31 1.51953C481.543 1.62328 480.773 1.68245 480.005 1.70312L478.63 1.74219L477.255 1.77734C476.517 1.79726 475.779 1.84424 475.041 1.91406L472.291 2.17188C471.526 2.24415 470.762 2.28517 469.998 2.28906L468.623 2.29297L467.248 2.30078C466.494 2.30457 465.739 2.30065 464.986 2.28906L463.611 2.26953L462.236 2.24609C461.452 2.23402 460.67 2.14227 459.888 1.97266L457.138 1.37891C456.431 1.22546 455.725 1.16755 455.021 1.20703L453.646 1.28516L452.271 1.35938C451.533 1.40078 450.795 1.47055 450.056 1.5625L448.681 1.73438L447.306 1.90234C446.533 1.99859 445.759 2.04149 444.986 2.02734L443.611 2L442.236 1.97656C441.472 1.96253 440.707 1.91652 439.943 1.83594L438.568 1.6875L437.193 1.54297C436.481 1.46775 435.765 1.47567 435.052 1.5625L432.302 1.89844C431.533 1.99208 430.763 2.03898 429.994 2.03906H427.244C426.463 2.03914 425.683 1.96677 424.904 1.82422L423.529 1.57031L422.154 1.32031C421.474 1.19585 420.794 1.21726 420.111 1.38281L417.361 2.04688C416.56 2.24104 415.756 2.30611 414.951 2.23828L413.576 2.12109L412.201 2.00781C411.437 1.94347 410.674 1.84736 409.912 1.71875L408.537 1.48438L407.162 1.25391C406.459 1.13548 405.757 1.11967 405.056 1.20703L402.306 1.55078C401.512 1.64974 400.717 1.64301 399.923 1.53125L398.548 1.33594L397.173 1.14453C396.495 1.049 395.815 1.09509 395.13 1.28906L392.38 2.07031C391.579 2.29733 390.774 2.38954 389.966 2.34375L388.591 2.26562L387.216 2.18359C386.452 2.14013 385.687 2.06456 384.923 1.95312L383.548 1.75391L382.173 1.55078C381.437 1.44327 380.699 1.36686 379.962 1.32031L377.212 1.14844C376.505 1.10373 375.797 1.14526 375.087 1.28125L373.712 1.54688L372.337 1.80859C371.545 1.96042 370.752 2.00925 369.958 1.95312L368.583 1.85547L367.208 1.76172C366.463 1.70901 365.716 1.66575 364.97 1.63281L363.595 1.57031L362.22 1.51172C361.493 1.47963 360.764 1.49491 360.037 1.55859L358.662 1.67578L357.287 1.79688C356.523 1.86369 355.758 1.90007 354.994 1.90234L352.244 1.91016C351.482 1.91238 350.72 1.88691 349.958 1.83594L348.583 1.74609L347.208 1.65234C346.481 1.60367 345.753 1.60336 345.025 1.64844L343.65 1.73047L342.275 1.81641C341.499 1.86444 340.722 1.85233 339.947 1.78125L337.197 1.53125C336.455 1.46324 335.712 1.41295 334.97 1.37891L333.595 1.3125L332.22 1.25C331.51 1.21747 330.799 1.26795 330.087 1.40234L328.712 1.66406L327.337 1.92188C326.543 2.07203 325.744 2.11146 324.947 2.03906L322.197 1.78906C321.444 1.72069 320.691 1.64804 319.939 1.56641L318.564 1.41797L317.189 1.26562C316.455 1.18596 315.72 1.14142 314.986 1.12891L312.236 1.08203C311.498 1.06948 310.759 1.0835 310.021 1.125L307.271 1.28125C306.502 1.32446 305.731 1.32249 304.962 1.27734L303.587 1.19531L302.212 1.11719C301.509 1.07606 300.805 1.12805 300.099 1.27734L298.724 1.57031L297.349 1.85938C296.573 2.02363 295.795 2.12501 295.017 2.16016L292.267 2.28516C291.48 2.32068 290.693 2.26639 289.908 2.12891L288.533 1.89062L287.158 1.64844C286.431 1.52116 285.704 1.4433 284.978 1.41797L282.228 1.32422C281.512 1.29931 280.793 1.34787 280.076 1.46875L277.326 1.92969C276.52 2.0654 275.713 2.06351 274.908 1.92188L272.158 1.4375C271.465 1.31563 270.772 1.31438 270.08 1.43359L267.33 1.91016C266.515 2.05057 265.697 2.02925 264.884 1.84766L263.509 1.53906L262.134 1.23438C261.42 1.07494 260.709 0.995964 259.998 1L257.248 1.01562C256.511 1.01989 255.773 1.05489 255.037 1.11719L253.662 1.23047L252.287 1.34766C251.541 1.4107 250.794 1.48627 250.048 1.57031L248.673 1.72266L247.298 1.87891C246.504 1.96837 245.709 1.94807 244.916 1.82031L243.541 1.60156L242.166 1.37891C241.47 1.26678 240.772 1.26902 240.076 1.38672L238.701 1.61719L237.326 1.85156C236.523 1.98712 235.719 1.99318 234.916 1.86719L233.541 1.64844L232.166 1.43359C231.437 1.31936 230.709 1.25587 229.982 1.23828L228.607 1.20312L227.232 1.17188C226.494 1.15404 225.755 1.16044 225.017 1.19531L223.642 1.26172L222.267 1.32422C221.534 1.35884 220.801 1.43311 220.068 1.54297L218.693 1.75L217.318 1.95312C216.518 2.07299 215.716 2.06998 214.916 1.94531L213.541 1.73438L212.166 1.51953C211.474 1.4119 210.784 1.42638 210.091 1.5625L207.341 2.10156C206.532 2.26073 205.718 2.27106 204.908 2.13281L202.158 1.66406C201.436 1.54105 200.714 1.48202 199.994 1.48438L197.244 1.49219C196.492 1.49464 195.741 1.49314 194.99 1.48438L193.615 1.46484L192.24 1.44922C191.506 1.44066 190.77 1.47149 190.037 1.53516L188.662 1.65234L187.287 1.77344C186.538 1.8384 185.789 1.90441 185.041 1.97266L182.291 2.22266C181.527 2.29222 180.761 2.33098 179.998 2.33984L177.248 2.37109C176.464 2.38006 175.682 2.30773 174.9 2.15625L172.15 1.625C171.457 1.49061 170.764 1.47647 170.072 1.58594L167.322 2.02344C166.547 2.14608 165.77 2.20571 164.994 2.20703L162.244 2.21484C161.461 2.21612 160.677 2.13789 159.896 1.98438L157.146 1.44531C156.462 1.31098 155.78 1.31351 155.095 1.45312L152.345 2.01562C151.541 2.17983 150.733 2.20645 149.927 2.09766L148.552 1.91016L147.177 1.72656C146.477 1.632 145.777 1.64111 145.076 1.75781L142.326 2.21875C141.528 2.35148 140.729 2.36516 139.931 2.26172L137.181 1.90234C136.459 1.80854 135.735 1.77642 135.013 1.80469L132.263 1.91406C131.487 1.94447 130.711 1.91023 129.935 1.81641L128.56 1.65234L127.185 1.48438C126.486 1.39976 125.784 1.42469 125.083 1.55469L122.333 2.0625C121.556 2.20669 120.776 2.28469 119.998 2.29297L118.623 2.30859L117.248 2.32031C116.472 2.32848 115.698 2.27851 114.923 2.16797L113.548 1.97266L112.173 1.77344C111.444 1.6693 110.715 1.61261 109.986 1.60156L107.236 1.5625C106.49 1.5512 105.743 1.54647 104.998 1.55469L102.248 1.58594C101.51 1.59411 100.771 1.62768 100.033 1.6875L98.6577 1.80078L97.2827 1.91016C96.5 1.97353 95.7174 1.95982 94.9351 1.86719L93.5601 1.70312L92.1851 1.54297C91.4532 1.45631 90.7212 1.40768 89.9897 1.40234L88.6147 1.39453L87.2397 1.38281C86.4954 1.37739 85.7497 1.38689 85.0054 1.40625L82.2554 1.47656C81.4955 1.4963 80.7339 1.49185 79.9741 1.46484L78.5991 1.41797L77.2241 1.36719C76.5143 1.34209 75.8033 1.40055 75.0913 1.54297L73.7163 1.81641L72.3413 2.09375C71.515 2.25894 70.6875 2.22918 69.8647 2.00781L67.1147 1.26562C66.4167 1.07768 65.7214 1.01013 65.0288 1.05859L63.6538 1.15625L62.2788 1.25C61.5487 1.30112 60.8183 1.39854 60.0874 1.53516L58.7124 1.78906L57.3374 2.04688C56.5189 2.19991 55.697 2.18141 54.8804 1.99219L53.5054 1.67578L52.1304 1.35547C51.4429 1.19623 50.7566 1.17406 50.0718 1.28516L47.3218 1.73047C46.5454 1.8563 45.7672 1.91856 44.9897 1.91406L42.2397 1.89844C41.4664 1.89392 40.692 1.83243 39.9194 1.71875L38.5444 1.51562L37.1694 1.31641C36.4475 1.21024 35.7264 1.16436 35.0054 1.17969L33.6304 1.20703L32.2554 1.23828C31.5268 1.25383 30.7971 1.31531 30.0679 1.42188L28.6929 1.62109L27.3179 1.82422C26.5344 1.93878 25.7468 1.97235 24.9624 1.92578L22.2124 1.76172C21.9585 1.74667 21.7598 1.74826 21.6108 1.75C21.5993 2.01809 21.4162 2.16542 21.3179 2.22266C21.2145 2.28262 21.1032 2.31471 21.0171 2.33203C20.8353 2.36847 20.5938 2.38403 20.3179 2.38672L19.3335 2.39453L18.3491 2.40625C17.8827 2.41092 17.325 2.51727 16.6694 2.74609L14.1382 3.62891C13.4874 3.85608 12.8772 4.15841 12.3062 4.53516L11.1929 5.26953L10.0835 6.00391C9.49599 6.3917 8.93054 6.82041 8.39209 7.28906L7.37646 8.17188L6.35693 9.05859C5.82615 9.52065 5.33088 10.041 4.87256 10.6172L4.00146 11.7148L3.12646 12.8125C2.71617 13.3283 2.50116 13.9117 2.47412 14.5742L2.41553 15.9844L2.35693 17.3906C2.32537 18.1664 2.2779 18.9292 2.2124 19.6758L2.09521 21.0273L1.97412 22.3828C1.90907 23.1243 1.83886 23.8721 1.75928 24.625L1.61084 26L1.46631 27.375C1.38985 28.0987 1.37328 28.8236 1.41162 29.5469L1.48193 30.9219L1.55615 32.2969C1.59558 33.0403 1.64768 33.7838 1.7124 34.5273L1.8335 35.9023L1.95068 37.2773C2.01658 38.0342 2.06841 38.7939 2.10303 39.5508L2.22803 42.3008C2.2626 43.0573 2.28035 43.8138 2.28271 44.5703L2.29053 47.3203C2.29297 48.1032 2.22218 48.8869 2.07178 49.668L1.54053 52.418C1.40405 53.1274 1.35833 53.8356 1.3999 54.543L1.47803 55.918L1.56006 57.293C1.60596 58.0745 1.57722 58.8559 1.47412 59.6367L1.29053 61.0117L1.11084 62.3867C1.02047 63.0709 1.06166 63.7566 1.23975 64.4453L1.59912 65.8203L1.95459 67.1953C2.15909 67.9853 2.2615 68.7801 2.25928 69.5742L2.25146 72.3242C2.24935 73.0778 2.23615 73.8323 2.21631 74.5859L2.146 77.3359C2.12592 78.0975 2.07556 78.8597 2.00146 79.6211L1.73584 82.3711C1.66559 83.0934 1.65506 83.8169 1.70459 84.5391L1.89209 87.2891C1.94542 88.0678 1.93137 88.8466 1.84521 89.625L1.54053 92.375C1.46164 93.0867 1.46289 93.7999 1.54834 94.5117L1.7124 95.8867L1.88037 97.2617C1.97223 98.0266 2.026 98.7934 2.04834 99.5586L2.09131 100.934L2.13037 102.309C2.15261 103.072 2.14281 103.835 2.10303 104.598L1.9624 107.348C1.92316 108.1 1.87747 108.853 1.82568 109.605L1.72803 110.98L1.63428 112.355C1.58243 113.109 1.52532 113.864 1.4585 114.617L1.3335 115.992L1.2124 117.367C1.14788 118.095 1.13178 118.823 1.16162 119.551L1.21631 120.926L1.2749 122.301C1.30562 123.049 1.3392 123.798 1.37646 124.547L1.44287 125.922L1.51318 127.297C1.54992 128.035 1.61426 128.774 1.70459 129.512L2.04053 132.262C2.1348 133.032 2.1774 133.803 2.17334 134.574L2.16943 135.949L2.16162 137.324C2.15745 138.114 2.05712 138.905 1.86475 139.691L1.19287 142.441C1.02894 143.113 1.0303 143.782 1.19678 144.453L1.53662 145.828L1.88037 147.203C2.07625 147.994 2.165 148.788 2.1499 149.582L2.12646 150.957L2.09912 152.332C2.08413 153.118 1.9854 153.904 1.80225 154.688L1.47803 156.062L1.15771 157.438C1.00211 158.104 1.0149 158.768 1.20068 159.438L1.96631 162.188C2.18822 162.986 2.28379 163.789 2.24756 164.594L2.12256 167.344C2.08763 168.118 1.9953 168.891 1.84912 169.664L1.59131 171.039L1.32959 172.414C1.19274 173.137 1.11513 173.86 1.09912 174.582L1.06787 175.957L1.04053 177.332C1.025 178.034 1.1076 178.739 1.29053 179.445L2.00146 182.195C2.20708 182.989 2.3007 183.788 2.27881 184.586L2.23975 185.961L2.20459 187.336C2.18396 188.089 2.15353 188.841 2.11865 189.594L1.99365 192.344C1.95882 193.095 1.91852 193.85 1.87646 194.602L1.79834 195.977L1.72412 197.352C1.68354 198.078 1.68989 198.805 1.74756 199.531L1.96631 202.281C2.02983 203.081 1.97504 203.883 1.80225 204.68L1.50537 206.055L1.20459 207.43C1.05094 208.139 0.987335 208.848 1.01318 209.555L1.11475 212.305C1.14191 213.047 1.18547 213.789 1.24365 214.531L1.35303 215.906L1.4585 217.281C1.51775 218.037 1.56521 218.795 1.59912 219.551L1.72412 222.301C1.75799 223.056 1.77769 223.811 1.78662 224.566L1.81787 227.316C1.8268 228.071 1.82425 228.827 1.81006 229.582L1.78662 230.957L1.75928 232.332C1.74518 233.082 1.72874 233.832 1.7124 234.582L1.68506 235.957L1.65381 237.332C1.63782 238.066 1.65684 238.801 1.7085 239.535L1.80615 240.91L1.8999 242.285C1.95459 243.062 1.9498 243.841 1.88037 244.617L1.75537 245.992L1.63428 247.367C1.5683 248.105 1.5267 248.844 1.51318 249.582L1.48975 250.957L1.4624 252.332C1.44848 253.091 1.41399 253.85 1.35693 254.609L1.25537 255.984L1.1499 257.359C1.09561 258.082 1.10357 258.805 1.16943 259.527L1.41943 262.277C1.48942 263.045 1.51603 263.814 1.49756 264.582L1.4624 265.957L1.43115 267.332C1.41388 268.048 1.46969 268.767 1.59912 269.484L1.84521 270.859L2.09521 272.234C2.23814 273.027 2.27499 273.823 2.20459 274.617L2.07959 275.992L1.9585 277.367C1.89069 278.132 1.7874 278.896 1.6499 279.66L1.15771 282.41C1.02916 283.125 0.979251 283.838 1.00928 284.551L1.12646 287.301C1.15806 288.051 1.18575 288.801 1.21631 289.551L1.2749 290.926L1.32959 292.301C1.36077 293.066 1.35494 293.832 1.31396 294.598L1.23975 295.973L1.16943 297.348C1.13004 298.083 1.12086 298.819 1.146 299.555L1.23975 302.305C1.26579 303.066 1.26738 303.828 1.23975 304.59L1.13818 307.34C1.1115 308.075 1.11616 308.811 1.15381 309.547L1.29443 312.297C1.33296 313.05 1.36692 313.802 1.39209 314.555L1.43896 315.93L1.48193 317.305C1.50736 318.065 1.51117 318.826 1.48975 319.586L1.41162 322.336C1.39035 323.091 1.35737 323.847 1.31396 324.602L1.15771 327.352C1.11582 328.081 1.11647 328.81 1.16162 329.539L1.3335 332.289C1.38141 333.062 1.37506 333.837 1.31787 334.609L1.11475 337.359C1.06287 338.061 1.11296 338.764 1.26318 339.469L1.84912 342.219C2.01457 342.995 2.11194 343.773 2.146 344.551L2.2085 345.926L2.26709 347.301C2.30092 348.074 2.28169 348.848 2.20459 349.621L2.06787 350.996L1.92725 352.371C1.85339 353.112 1.80212 353.853 1.771 354.594L1.7124 355.969L1.65771 357.344C1.62563 358.107 1.56222 358.87 1.47021 359.633L1.30225 361.008L1.13818 362.383C1.05345 363.086 1.06863 363.788 1.18115 364.492L1.61865 367.242C1.74428 368.028 1.78285 368.815 1.73584 369.602L1.57178 372.352C1.52689 373.103 1.48178 373.854 1.43115 374.605L1.24365 377.355C1.19597 378.063 1.23687 378.771 1.36865 379.48L1.62646 380.855L1.88037 382.23C2.02375 383.002 2.11401 383.774 2.1499 384.547L2.2124 385.922L2.27881 387.297C2.31559 388.091 2.24607 388.885 2.07568 389.676L1.48193 392.426C1.33419 393.111 1.32627 393.796 1.45459 394.48L1.97021 397.23C2.12243 398.043 2.11876 398.856 1.9585 399.668L1.68506 401.043L1.41553 402.418C1.27893 403.11 1.26632 403.802 1.38037 404.492L1.60693 405.867L1.8374 407.242C1.96515 408.016 2.02972 408.791 2.03662 409.566L2.05225 410.941L2.06396 412.316C2.07057 413.065 2.08049 413.814 2.09521 414.562L2.1499 417.312C2.16471 418.065 2.17087 418.818 2.17334 419.57L2.17725 420.945L2.18506 422.32C2.18764 423.106 2.10494 423.892 1.93896 424.676L1.646 426.051L1.35693 427.426C1.20529 428.142 1.1289 428.856 1.13037 429.57L1.13818 432.32C1.13971 433.048 1.1877 433.776 1.28662 434.504L1.66162 437.254C1.76732 438.032 1.80876 438.812 1.78271 439.59L1.68896 442.34C1.66374 443.093 1.62996 443.848 1.5874 444.602L1.43115 447.352C1.39026 448.077 1.40014 448.802 1.4624 449.527L1.5835 450.902L1.70068 452.277C1.76843 453.065 1.74707 453.857 1.63428 454.645L1.43506 456.02L1.23975 457.395C1.13549 458.123 1.07562 458.85 1.06396 459.578L1.04443 460.953L1.021 462.328C1.00971 463.037 1.08265 463.749 1.24365 464.461L1.86865 467.211C2.05392 468.03 2.06179 468.852 1.89209 469.672L1.32178 472.422C1.17909 473.11 1.16644 473.797 1.28662 474.484L1.52881 475.859L1.76709 477.234C1.90621 478.029 1.93766 478.825 1.85693 479.621L1.57568 482.371C1.50377 483.079 1.52291 483.788 1.63037 484.496L1.8374 485.871L2.04834 487.246C2.16756 488.032 2.19869 488.819 2.146 489.605L2.05615 490.98L1.9624 492.355C1.91224 493.104 1.8635 493.853 1.81787 494.602L1.65381 497.352C1.60948 498.079 1.61081 498.808 1.66553 499.535L1.771 500.91L1.87256 502.285C1.93219 503.079 1.89141 503.872 1.74365 504.664L1.22803 507.414C1.10172 508.091 1.12461 508.769 1.29834 509.449L2.00146 512.199C2.20867 513.011 2.25272 513.828 2.13428 514.645L1.73584 517.395C1.62965 518.127 1.56139 518.858 1.53271 519.59L1.48193 520.965L1.42725 522.34C1.39817 523.083 1.38101 523.827 1.38037 524.57V527.32C1.37977 528.054 1.4127 528.79 1.48193 529.523L1.61084 530.898L1.74365 532.273C1.81737 533.054 1.81558 533.836 1.74365 534.617L1.61865 535.992L1.48975 537.367C1.42101 538.113 1.36479 538.86 1.31396 539.605L1.12646 542.355C1.07883 543.054 1.13553 543.754 1.29834 544.457L1.61475 545.832L1.93506 547.207C2.12261 548.016 2.16137 548.829 2.04834 549.641L1.66553 552.391C1.56754 553.094 1.56872 553.797 1.66943 554.5L1.86475 555.875L2.06396 557.25C2.17469 558.023 2.23019 558.797 2.23193 559.57L2.23584 560.945V562.32C2.23753 563.078 2.2233 563.836 2.18896 564.594L2.06396 567.344C2.02956 568.103 1.97532 568.862 1.8999 569.621L1.62646 572.371C1.55442 573.096 1.53693 573.822 1.57568 574.547L1.72412 577.297C1.76384 578.039 1.81805 578.781 1.88818 579.523L2.146 582.273C2.22146 583.072 2.18273 583.872 2.0249 584.668L1.47803 587.418C1.33836 588.122 1.30054 588.825 1.36084 589.527L1.59521 592.277C1.66165 593.049 1.67848 593.822 1.64209 594.594L1.57568 595.969L1.51318 597.344C1.47841 598.08 1.47346 598.819 1.50146 599.555L1.55225 600.93L1.60693 602.305C1.63534 603.051 1.66798 603.797 1.7085 604.543L1.85693 607.293C1.89834 608.055 1.91497 608.82 1.8999 609.582L1.84521 612.332C1.82994 613.104 1.76353 613.877 1.646 614.648L1.22412 617.398C1.1197 618.085 1.14866 618.772 1.30615 619.461L1.93115 622.211C2.11798 623.028 2.13384 623.849 1.97412 624.668L1.70459 626.043L1.43896 627.418C1.30061 628.127 1.25289 628.835 1.29443 629.543L1.37256 630.918L1.45459 632.293C1.49706 633.017 1.59785 633.732 1.75537 634.434L2.05225 635.766L2.35303 637.102C2.5096 637.799 2.72761 638.471 3.00928 639.113L3.55225 640.344L4.09131 641.574C4.36764 642.204 4.72377 642.784 5.15771 643.309L6.00928 644.336L6.85693 645.363C7.30569 645.906 7.79026 646.415 8.31006 646.891L9.29443 647.793L10.2827 648.695C10.7768 649.147 11.3322 649.502 11.9507 649.762L13.1851 650.281L14.4155 650.797C15.0549 651.065 15.7144 651.261 16.3921 651.387L19.0093 651.871C19.727 652.004 20.4599 652.152 21.2085 652.312L22.5757 652.605L23.939 652.898C24.6331 653.048 25.3315 653.087 26.0288 653.016L28.7788 652.734C29.556 652.655 30.3334 652.642 31.1108 652.695L32.4858 652.789L33.8608 652.887C34.5973 652.938 35.3354 652.958 36.0718 652.949L38.8218 652.918C39.5843 652.909 40.3484 652.928 41.1108 652.977L42.4858 653.066L43.8608 653.152C44.5696 653.198 45.2793 653.156 45.9897 653.027L47.3647 652.781L48.7397 652.531C49.5113 652.392 50.2836 652.306 51.0562 652.273L53.8062 652.156C54.5863 652.123 55.3667 652.162 56.146 652.27L57.521 652.457L58.896 652.648C59.6112 652.747 60.326 652.77 61.0405 652.719L63.7905 652.523C64.5699 652.468 65.3513 652.482 66.1304 652.566L67.5054 652.719L68.8804 652.867C69.6026 652.946 70.3264 652.965 71.0483 652.922L73.7983 652.758C74.5379 652.714 75.2774 652.645 76.0171 652.555L78.7671 652.219C79.5823 652.119 80.3985 652.178 81.2085 652.395L83.9585 653.129C84.6271 653.307 85.2911 653.313 85.9585 653.148L87.3335 652.812L88.7085 652.473C89.5278 652.271 90.3516 652.248 91.1733 652.406L92.5483 652.668L93.9233 652.934C94.614 653.066 95.3036 653.072 95.9937 652.953L97.3687 652.715L98.7437 652.48C99.548 652.342 100.353 652.338 101.158 652.469L103.908 652.914C104.611 653.028 105.315 653.041 106.017 652.953L108.767 652.609C109.555 652.511 110.346 652.508 111.134 652.594L112.509 652.742L113.884 652.895C114.622 652.975 115.361 653.028 116.099 653.059L117.474 653.117L118.849 653.172C119.587 653.202 120.326 653.209 121.064 653.191L122.439 653.156L123.814 653.125C124.536 653.108 125.262 653.028 125.986 652.891L127.361 652.633L128.736 652.371C129.535 652.22 130.337 652.192 131.138 652.289L132.513 652.453L133.888 652.621C134.623 652.71 135.357 652.761 136.091 652.781L138.841 652.859C139.569 652.879 140.297 652.848 141.025 652.77L143.775 652.473C144.532 652.391 145.291 652.327 146.048 652.281L147.423 652.199L148.798 652.113C149.596 652.065 150.394 652.13 151.189 652.309L153.939 652.926C154.618 653.078 155.295 653.083 155.974 652.938L157.349 652.641L158.724 652.348C159.543 652.172 160.366 652.174 161.185 652.352L163.935 652.945C164.615 653.092 165.294 653.094 165.974 652.949L168.724 652.363C169.504 652.197 170.286 652.105 171.068 652.09L173.818 652.035C174.597 652.02 175.376 652.073 176.154 652.191L177.529 652.398L178.904 652.609C179.603 652.716 180.302 652.716 181.001 652.609L182.376 652.398L183.751 652.191C184.556 652.069 185.365 652.08 186.169 652.227L187.544 652.477L188.919 652.73C189.644 652.863 190.368 652.94 191.091 652.961L193.841 653.039C194.552 653.06 195.265 652.998 195.978 652.852L198.728 652.289C199.541 652.122 200.356 652.112 201.169 652.266L202.544 652.527L203.919 652.785C204.627 652.919 205.335 652.96 206.041 652.906L207.416 652.801L208.791 652.691C209.548 652.633 210.306 652.598 211.064 652.578L212.439 652.539L213.814 652.504C214.576 652.484 215.341 652.492 216.103 652.527L217.478 652.594L218.853 652.656C219.599 652.691 220.345 652.719 221.091 652.738L223.841 652.809C224.604 652.828 225.368 652.877 226.13 652.957L228.88 653.246C229.58 653.319 230.28 653.288 230.982 653.152L233.732 652.621C234.525 652.467 235.32 652.417 236.115 652.477L237.49 652.582L238.865 652.684C239.586 652.737 240.307 652.73 241.029 652.66L243.779 652.395C244.561 652.319 245.345 652.319 246.126 652.395L247.501 652.531L248.876 652.664C249.619 652.736 250.361 652.789 251.103 652.828L252.478 652.902L253.853 652.973C254.559 653.01 255.266 652.956 255.974 652.809L257.349 652.523L258.724 652.234C259.527 652.067 260.333 652.032 261.138 652.129L262.513 652.297L263.888 652.461C264.625 652.55 265.362 652.611 266.099 652.645L267.474 652.707L268.849 652.766C269.587 652.799 270.327 652.808 271.064 652.785L273.814 652.699C274.593 652.676 275.372 652.724 276.15 652.84L277.525 653.043L278.9 653.25C279.601 653.355 280.304 653.353 281.005 653.25L282.38 653.047L283.755 652.848C284.528 652.734 285.302 652.675 286.076 652.672L288.826 652.664C289.57 652.661 290.315 652.645 291.06 652.621L293.81 652.535C294.578 652.511 295.347 652.527 296.115 652.586L297.49 652.691L298.865 652.801C299.615 652.859 300.369 652.914 301.119 652.973L302.494 653.082L303.869 653.188C304.569 653.242 305.271 653.195 305.974 653.047L308.724 652.469C309.511 652.303 310.302 652.23 311.091 652.25L312.466 652.285L313.841 652.316C314.576 652.335 315.31 652.319 316.044 652.27L317.419 652.18L318.794 652.086C319.583 652.033 320.371 652.072 321.158 652.199L322.533 652.422L323.908 652.641C324.618 652.755 325.327 652.784 326.037 652.727L328.787 652.508C329.583 652.444 330.379 652.491 331.173 652.648L332.548 652.918L333.923 653.191C334.623 653.33 335.323 653.357 336.021 653.277L338.771 652.965C339.549 652.876 340.329 652.852 341.107 652.895L343.857 653.043C344.599 653.083 345.342 653.104 346.083 653.109L348.833 653.133C349.554 653.138 350.276 653.08 350.998 652.965L352.373 652.746L353.748 652.523C354.514 652.401 355.282 652.316 356.048 652.27L358.798 652.105C359.604 652.057 360.408 652.142 361.208 652.359L362.583 652.734L363.958 653.105C364.645 653.292 365.328 653.338 366.009 653.246L367.384 653.062L368.759 652.875C369.521 652.772 370.286 652.696 371.048 652.648L372.423 652.566L373.798 652.48C374.573 652.432 375.348 652.444 376.123 652.516L377.498 652.641L378.873 652.77C379.614 652.838 380.358 652.888 381.099 652.918L383.849 653.027C384.586 653.057 385.323 653.061 386.06 653.035L387.435 652.984L388.81 652.938C389.557 652.911 390.305 652.878 391.052 652.84L393.802 652.699C394.583 652.659 395.366 652.693 396.146 652.797L397.517 652.98L398.892 653.164C399.599 653.258 400.307 653.257 401.013 653.164L403.763 652.805C404.545 652.702 405.328 652.678 406.111 652.73L407.486 652.824L408.861 652.914C409.568 652.962 410.277 652.919 410.986 652.785L413.736 652.27C414.519 652.122 415.306 652.056 416.091 652.074L418.841 652.137C419.626 652.155 420.411 652.259 421.193 652.441L423.943 653.082C424.618 653.239 425.291 653.238 425.966 653.082L428.716 652.449C429.525 652.263 430.338 652.228 431.15 652.344L433.9 652.734C434.602 652.835 435.303 652.834 436.005 652.73L438.755 652.324C439.529 652.21 440.305 652.151 441.08 652.152L442.455 652.156H443.83C444.607 652.157 445.385 652.223 446.162 652.352L447.537 652.582L448.912 652.809C449.635 652.928 450.357 652.991 451.08 652.996L453.83 653.012C454.572 653.017 455.317 653.01 456.06 652.984L458.81 652.891C459.541 652.866 460.274 652.8 461.005 652.691L462.38 652.484L463.755 652.281C464.556 652.163 465.358 652.169 466.158 652.301L468.908 652.754C469.628 652.873 470.349 652.926 471.068 652.914L473.818 652.867C474.557 652.854 475.298 652.817 476.037 652.754L478.787 652.52C479.544 652.455 480.302 652.41 481.06 652.383L483.81 652.281C484.573 652.254 485.336 652.255 486.099 652.285L487.474 652.34L488.849 652.398C489.61 652.429 490.37 652.484 491.13 652.566L493.88 652.863C494.622 652.944 495.365 653.004 496.107 653.047L497.482 653.129L498.857 653.207C499.567 653.248 500.278 653.204 500.99 653.078L502.365 652.836L503.74 652.59C504.514 652.453 505.289 652.375 506.064 652.355L507.439 652.324L508.814 652.289C509.594 652.27 510.375 652.322 511.154 652.441L513.904 652.863C514.635 652.976 515.365 653.045 516.095 653.07L517.47 653.117L518.845 653.168C519.559 653.193 520.274 653.142 520.99 653.016L522.365 652.773L523.74 652.527C524.524 652.389 525.31 652.335 526.095 652.363L527.47 652.414L528.845 652.461C529.612 652.489 530.38 652.557 531.146 652.66L532.521 652.848L533.896 653.031C534.604 653.127 535.313 653.134 536.021 653.051L538.771 652.73C539.538 652.641 540.305 652.59 541.072 652.582L542.447 652.566L543.822 652.555C544.559 652.547 545.299 652.512 546.037 652.449L548.787 652.215C549.558 652.149 550.331 652.136 551.103 652.172L553.853 652.297C554.586 652.331 555.319 652.328 556.052 652.289L557.427 652.219L558.802 652.145C559.559 652.104 560.315 652.08 561.072 652.07L562.447 652.051L563.822 652.035C564.601 652.026 565.38 652.082 566.158 652.207L568.908 652.652C569.627 652.768 570.346 652.814 571.064 652.793L572.439 652.754L573.814 652.711C574.549 652.689 575.285 652.639 576.021 652.555L577.396 652.395L578.771 652.238C579.559 652.148 580.347 652.145 581.134 652.234L583.884 652.547C584.607 652.629 585.33 652.653 586.052 652.613L587.427 652.535L588.802 652.461C589.565 652.419 590.329 652.407 591.091 652.426L592.466 652.457L593.841 652.492C594.612 652.511 595.383 652.577 596.154 652.695L597.529 652.91L598.904 653.121C599.629 653.233 600.355 653.29 601.08 653.289L602.455 653.285H603.83C604.536 653.285 605.245 653.195 605.955 653.012L607.33 652.656L608.705 652.305C609.518 652.095 610.336 652.05 611.154 652.176L612.529 652.387L613.904 652.602C614.628 652.713 615.352 652.765 616.076 652.762L617.451 652.758L618.826 652.75C619.582 652.747 620.339 652.758 621.095 652.785L623.845 652.887C624.558 652.913 625.272 652.86 625.986 652.727L627.361 652.469L628.736 652.215C629.518 652.069 630.303 652.002 631.087 652.016L633.837 652.062C634.594 652.076 635.35 652.104 636.107 652.148L638.857 652.312C639.627 652.358 640.397 652.446 641.166 652.582L642.541 652.828L643.916 653.07C644.631 653.197 645.346 653.247 646.06 653.219L648.81 653.109C649.576 653.08 650.341 653.09 651.107 653.137L652.482 653.219L653.857 653.305C654.571 653.348 655.287 653.314 656.001 653.203L657.376 652.988L658.748 652.777C659.485 652.663 660.213 652.522 660.927 652.355L662.259 652.047L663.591 651.734C664.289 651.572 664.97 651.348 665.634 651.062L666.9 650.52L668.169 649.973C668.82 649.692 669.431 649.332 670.001 648.891L671.107 648.031L672.216 647.176C672.769 646.748 673.219 646.233 673.568 645.629L674.267 644.422L674.966 643.211C675.338 642.568 675.671 641.905 675.962 641.227L676.509 639.949L677.06 638.672C677.329 638.046 677.447 637.395 677.412 636.715L677.337 635.328L677.267 633.941C677.227 633.173 677.211 632.406 677.224 631.645L677.271 628.895C677.284 628.145 677.297 627.394 677.31 626.645L677.357 623.895C677.37 623.13 677.417 622.366 677.498 621.602L677.638 620.227L677.783 618.852C677.86 618.115 677.908 617.377 677.927 616.641L677.966 615.266L678.001 613.891C678.021 613.141 678.039 612.39 678.056 611.641L678.091 610.266L678.123 608.891C678.139 608.175 678.084 607.459 677.955 606.742L677.455 603.992C677.308 603.182 677.313 602.369 677.466 601.559L677.99 598.809C678.127 598.085 678.203 597.362 678.22 596.641L678.251 595.266L678.287 593.891C678.304 593.177 678.244 592.462 678.107 591.746L677.841 590.371L677.58 588.996C677.43 588.213 677.361 587.429 677.376 586.645L677.431 583.895C677.446 583.158 677.432 582.42 677.388 581.684L677.224 578.934C677.179 578.169 677.169 577.402 677.193 576.637L677.279 573.887C677.303 573.117 677.373 572.347 677.49 571.578L677.904 568.828C678.015 568.098 678.081 567.366 678.103 566.637L678.146 565.262L678.185 563.887C678.207 563.142 678.222 562.397 678.224 561.652V560.277L678.228 558.902C678.23 558.185 678.162 557.465 678.025 556.746L677.501 553.996C677.353 553.215 677.282 552.432 677.291 551.648L677.322 548.898C677.33 548.131 677.379 547.361 677.47 546.594L677.634 545.219L677.794 543.844C677.877 543.142 677.859 542.441 677.74 541.738L677.271 538.988C677.136 538.194 677.11 537.397 677.193 536.602L677.337 535.227L677.478 533.852C677.554 533.121 677.589 532.39 677.58 531.66L677.56 530.285L677.544 528.91C677.534 528.137 677.576 527.363 677.673 526.59L677.849 525.215L678.021 523.84C678.113 523.11 678.162 522.381 678.166 521.652L678.169 520.277L678.177 518.902L678.13 516.676L678.005 513.926C677.971 513.169 677.956 512.409 677.955 511.652L677.947 508.902ZM678.955 511.652C678.956 512.395 678.972 513.137 679.005 513.879L679.13 516.629C679.165 517.387 679.181 518.148 679.177 518.906L679.169 520.281L679.166 521.656C679.162 522.426 679.11 523.196 679.013 523.965L678.841 525.34L678.666 526.715C678.574 527.442 678.535 528.172 678.544 528.898L678.56 530.273L678.58 531.648C678.59 532.417 678.554 533.185 678.474 533.953L678.33 535.328L678.189 536.703C678.116 537.408 678.139 538.115 678.259 538.82L678.728 541.57C678.863 542.366 678.881 543.164 678.787 543.961L678.626 545.336L678.462 546.711C678.376 547.443 678.33 548.178 678.322 548.91L678.291 551.66C678.283 552.376 678.349 553.091 678.486 553.809L679.009 556.559C679.158 557.339 679.23 558.121 679.228 558.902L679.224 560.277V561.652C679.222 562.407 679.208 563.163 679.185 563.918L679.146 565.293L679.103 566.668C679.08 567.438 679.013 568.207 678.896 568.977L678.685 570.352L678.478 571.727C678.367 572.457 678.301 573.188 678.279 573.918L678.193 576.668C678.17 577.403 678.181 578.14 678.224 578.875L678.388 581.625C678.433 582.388 678.447 583.151 678.431 583.914L678.376 586.664C678.362 587.378 678.423 588.093 678.56 588.809L678.822 590.184L679.087 591.559C679.238 592.343 679.305 593.128 679.287 593.914L679.251 595.289L679.22 596.664C679.202 597.442 679.117 598.22 678.97 598.996L678.708 600.371L678.451 601.746C678.32 602.435 678.315 603.123 678.439 603.812L678.689 605.188L678.935 606.562C679.076 607.345 679.141 608.13 679.123 608.914L679.087 610.289L679.056 611.664C679.039 612.415 679.021 613.168 679.001 613.918L678.966 615.293L678.927 616.668C678.907 617.43 678.859 618.195 678.779 618.957L678.49 621.707C678.413 622.442 678.369 623.176 678.357 623.91L678.31 626.66C678.298 627.41 678.284 628.161 678.271 628.91L678.224 631.66C678.212 632.398 678.225 633.141 678.263 633.887L678.337 635.277L678.408 636.664C678.451 637.497 678.307 638.3 677.978 639.066L677.431 640.344L676.88 641.621C676.573 642.336 676.225 643.034 675.833 643.711L674.435 646.133C674.021 646.849 673.484 647.462 672.83 647.969L671.72 648.824L670.615 649.68C669.978 650.172 669.294 650.576 668.564 650.891L667.298 651.438L666.029 651.98C665.311 652.29 664.574 652.535 663.818 652.711L661.154 653.328C660.415 653.5 659.665 653.648 658.904 653.766L657.529 653.977L656.154 654.191C655.37 654.313 654.584 654.349 653.798 654.301L652.423 654.219L651.048 654.133C650.315 654.088 649.582 654.081 648.849 654.109L647.474 654.164L646.099 654.215C645.313 654.245 644.524 654.193 643.74 654.055L640.99 653.57C640.259 653.441 639.528 653.352 638.798 653.309L637.423 653.23L636.048 653.148C635.305 653.105 634.561 653.075 633.818 653.062L631.068 653.016C630.353 653.003 629.636 653.066 628.919 653.199L627.544 653.453L626.169 653.711C625.384 653.857 624.597 653.915 623.81 653.887L621.06 653.785C620.317 653.758 619.573 653.747 618.83 653.75L617.455 653.758L616.08 653.762C615.303 653.765 614.527 653.709 613.751 653.59L612.376 653.375L611.001 653.164C610.32 653.059 609.64 653.097 608.955 653.273L607.58 653.625L606.205 653.98C605.416 654.184 604.622 654.285 603.83 654.285H602.455L601.08 654.289C600.304 654.29 599.526 654.229 598.751 654.109L597.376 653.898L596.001 653.684C595.273 653.571 594.545 653.51 593.818 653.492L592.443 653.457L591.068 653.426C590.332 653.408 589.593 653.416 588.857 653.457L587.482 653.535L586.107 653.609C585.329 653.652 584.549 653.631 583.771 653.543L581.021 653.23C580.309 653.15 579.596 653.149 578.884 653.23L577.509 653.391L576.134 653.547C575.371 653.635 574.605 653.689 573.841 653.711L572.466 653.754L571.091 653.793C570.31 653.816 569.528 653.762 568.748 653.637L567.373 653.418L565.998 653.195C565.276 653.079 564.554 653.026 563.833 653.035L562.458 653.051L561.083 653.07C560.341 653.079 559.596 653.101 558.853 653.141L556.103 653.289C555.337 653.33 554.572 653.332 553.806 653.297L552.431 653.234L551.056 653.168C550.328 653.134 549.597 653.149 548.869 653.211L546.119 653.445C545.357 653.51 544.595 653.547 543.833 653.555L542.458 653.566L541.083 653.582C540.351 653.59 539.617 653.637 538.884 653.723L536.134 654.043C535.343 654.135 534.55 654.13 533.759 654.023L532.384 653.836L531.009 653.652C530.276 653.553 529.543 653.487 528.81 653.461L527.435 653.414L526.06 653.363C525.346 653.337 524.631 653.385 523.916 653.512L522.541 653.758L521.166 654C520.382 654.139 519.596 654.192 518.81 654.164L516.06 654.07C515.29 654.043 514.52 653.97 513.751 653.852L511.001 653.43C510.281 653.319 509.561 653.271 508.841 653.289L507.466 653.324L506.091 653.355C505.367 653.373 504.641 653.446 503.916 653.574L502.541 653.82L501.166 654.062C500.378 654.202 499.588 654.249 498.798 654.203L496.048 654.047C495.291 654.003 494.533 653.941 493.775 653.859L492.4 653.711L491.025 653.559C490.286 653.479 489.545 653.424 488.806 653.395L486.056 653.285C485.319 653.256 484.582 653.254 483.845 653.281L481.095 653.383C480.354 653.41 479.61 653.453 478.869 653.516L476.119 653.75C475.358 653.814 474.598 653.854 473.837 653.867L471.087 653.914C470.307 653.928 469.527 653.87 468.748 653.742L465.998 653.289C465.299 653.174 464.598 653.17 463.9 653.273L461.15 653.68C460.382 653.794 459.614 653.865 458.845 653.891L456.095 653.984C455.339 654.01 454.582 654.017 453.826 654.012L451.076 653.996C450.299 653.991 449.523 653.921 448.748 653.793L445.998 653.34C445.274 653.22 444.548 653.157 443.826 653.156H442.451L441.076 653.152C440.351 653.152 439.625 653.205 438.9 653.312L436.15 653.719C435.353 653.837 434.553 653.841 433.755 653.727L432.38 653.527L431.005 653.332C430.318 653.234 429.629 653.263 428.939 653.422L427.564 653.742L426.189 654.059C425.366 654.248 424.54 654.246 423.716 654.055L420.966 653.414C420.249 653.247 419.532 653.153 418.818 653.137L416.068 653.074C415.353 653.058 414.636 653.115 413.919 653.25L412.544 653.512L411.169 653.77C410.379 653.918 409.587 653.968 408.794 653.914L406.044 653.727C405.328 653.678 404.61 653.703 403.892 653.797L401.142 654.156C400.349 654.26 399.556 654.262 398.763 654.156L396.013 653.789C395.293 653.693 394.572 653.663 393.853 653.699L391.103 653.84C390.351 653.878 389.598 653.911 388.845 653.938L387.47 653.984L386.095 654.035C385.333 654.062 384.569 654.058 383.806 654.027L381.056 653.918C380.298 653.887 379.541 653.836 378.783 653.766L377.408 653.637L376.033 653.512C375.309 653.445 374.584 653.432 373.861 653.477L371.111 653.648C370.373 653.694 369.634 653.767 368.896 653.867L367.521 654.051L366.146 654.238C365.328 654.349 364.51 654.291 363.697 654.07L362.322 653.699L360.947 653.324C360.247 653.134 359.551 653.06 358.857 653.102L357.482 653.188L356.107 653.27C355.374 653.314 354.641 653.394 353.908 653.512L352.533 653.73L351.158 653.953C350.381 654.077 349.603 654.138 348.826 654.133L346.076 654.109C345.318 654.104 344.56 654.084 343.802 654.043L342.427 653.969L341.052 653.891C340.33 653.852 339.607 653.874 338.884 653.957L337.509 654.113L336.134 654.273C335.333 654.365 334.531 654.33 333.732 654.172L332.357 653.898L330.982 653.629C330.277 653.489 329.572 653.447 328.869 653.504L327.494 653.613L326.119 653.727C325.328 653.79 324.537 653.756 323.748 653.629L320.998 653.184C320.285 653.069 319.572 653.038 318.861 653.086L317.486 653.176L316.111 653.27C315.346 653.321 314.579 653.335 313.814 653.316L312.439 653.281L311.064 653.25C310.354 653.232 309.643 653.299 308.931 653.449L306.181 654.027C305.386 654.195 304.588 654.246 303.791 654.184L302.416 654.078L301.041 653.969C300.291 653.91 299.54 653.855 298.791 653.797L297.416 653.691L296.041 653.582C295.309 653.526 294.577 653.512 293.845 653.535L291.095 653.621C290.34 653.645 289.584 653.661 288.83 653.664L286.08 653.672C285.354 653.674 284.627 653.729 283.9 653.836L282.525 654.039L281.15 654.238C280.352 654.355 279.553 654.357 278.755 654.238L277.38 654.031L276.005 653.828C275.284 653.721 274.561 653.677 273.841 653.699L272.466 653.742L271.091 653.781C270.33 653.804 269.568 653.8 268.806 653.766L267.431 653.703L266.056 653.645C265.294 653.61 264.529 653.545 263.767 653.453L262.392 653.289L261.017 653.121C260.323 653.038 259.628 653.07 258.931 653.215L257.556 653.5L256.181 653.789C255.39 653.954 254.596 654.015 253.802 653.973L252.427 653.898L251.052 653.828C250.295 653.788 249.536 653.73 248.779 653.656L246.029 653.391C245.311 653.321 244.594 653.322 243.876 653.391L241.126 653.656C240.348 653.731 239.569 653.738 238.791 653.68L236.041 653.477C235.336 653.424 234.63 653.464 233.923 653.602L232.548 653.867L231.173 654.137C230.376 654.291 229.575 654.326 228.775 654.242L226.025 653.953C225.288 653.876 224.551 653.828 223.814 653.809L221.064 653.738C220.311 653.719 219.559 653.691 218.806 653.656L217.431 653.59L216.056 653.527C215.318 653.493 214.579 653.485 213.841 653.504L211.091 653.574C210.35 653.593 209.606 653.634 208.865 653.691L206.115 653.902C205.321 653.963 204.528 653.919 203.736 653.77L202.361 653.508L200.986 653.25C200.3 653.121 199.614 653.125 198.927 653.266L197.552 653.551L196.177 653.832C195.391 653.994 194.603 654.062 193.814 654.039L191.064 653.961C190.289 653.938 189.514 653.856 188.74 653.715L187.365 653.461L185.99 653.211C185.294 653.084 184.599 653.074 183.904 653.18L182.529 653.387L181.154 653.598C180.354 653.719 179.551 653.719 178.751 653.598L177.376 653.391L176.001 653.18C175.28 653.07 174.558 653.021 173.837 653.035L171.087 653.09C170.37 653.104 169.651 653.186 168.931 653.34L166.181 653.926C165.363 654.1 164.542 654.099 163.724 653.922L160.974 653.328C160.293 653.181 159.612 653.178 158.931 653.324L157.556 653.621L156.181 653.914C155.361 654.089 154.539 654.086 153.72 653.902L150.97 653.285C150.265 653.127 149.559 653.07 148.857 653.113L147.482 653.195L146.107 653.281C145.365 653.327 144.622 653.389 143.88 653.469L141.13 653.766C140.359 653.849 139.586 653.881 138.814 653.859L136.064 653.781C135.299 653.76 134.532 653.706 133.767 653.613L132.392 653.445L131.017 653.281C130.319 653.197 129.619 653.219 128.919 653.352L126.169 653.875C125.394 654.022 124.618 654.106 123.841 654.125L122.466 654.156L121.091 654.191C120.33 654.21 119.567 654.203 118.806 654.172L117.431 654.113L116.056 654.059C115.296 654.027 114.535 653.97 113.775 653.887L112.4 653.738L111.025 653.586C110.314 653.508 109.6 653.513 108.888 653.602L106.138 653.945C105.341 654.045 104.544 654.032 103.748 653.902L102.373 653.68L100.998 653.453C100.303 653.34 99.6069 653.345 98.9116 653.465L96.1616 653.941C95.3525 654.081 94.5404 654.069 93.7319 653.914L92.3569 653.652L90.9819 653.387C90.3042 653.257 89.6269 653.274 88.9468 653.441L86.1968 654.121C85.3653 654.326 84.5309 654.315 83.7007 654.094L80.9507 653.359C80.2607 653.175 79.573 653.127 78.8882 653.211L76.1382 653.547C75.3781 653.64 74.6172 653.709 73.8569 653.754L71.1069 653.918C70.3294 653.964 69.5521 653.944 68.7749 653.859L66.0249 653.562C65.305 653.484 64.5843 653.468 63.8647 653.52L62.4897 653.621L61.1147 653.719C60.3298 653.775 59.5435 653.749 58.7593 653.641L56.0093 653.258C55.2889 653.158 54.5687 653.126 53.8491 653.156L51.0991 653.273C50.3722 653.304 49.6435 653.384 48.9155 653.516L47.5405 653.766L46.1655 654.012C45.3766 654.154 44.585 654.203 43.7944 654.152L42.4194 654.062L41.0444 653.977C40.3074 653.93 39.5704 653.91 38.8335 653.918L36.0835 653.949C35.3204 653.958 34.5574 653.936 33.7944 653.883L32.4194 653.789L31.0444 653.691C30.3235 653.642 29.6015 653.653 28.8804 653.727L27.5054 653.867L26.1304 654.012C25.328 654.094 24.5272 654.046 23.7319 653.875L22.3647 653.582L21.0015 653.289C20.2611 653.13 19.534 652.986 18.8257 652.855L17.5171 652.613L16.2124 652.371C15.4637 652.233 14.734 652.015 14.0288 651.719L12.7983 651.203L11.564 650.684C10.8389 650.379 10.1864 649.96 9.60693 649.43L8.62256 648.531L7.63428 647.629C7.08048 647.122 6.5656 646.578 6.0874 646L5.23584 644.973L4.38818 643.945C3.89463 643.349 3.4905 642.691 3.17725 641.977L2.63428 640.746L2.09521 639.516C1.78729 638.814 1.54687 638.079 1.37646 637.32L1.07959 635.988L0.778809 634.652C0.609355 633.897 0.500209 633.129 0.45459 632.352L0.376465 630.977L0.294434 629.602C0.247915 628.809 0.300544 628.017 0.45459 627.227L0.993652 624.477C1.12644 623.796 1.11437 623.116 0.958496 622.434L0.64209 621.059L0.32959 619.684C0.14439 618.873 0.111958 618.059 0.23584 617.246L0.657715 614.496C0.768644 613.768 0.830813 613.04 0.845215 612.312L0.899902 609.562C0.914483 608.825 0.900911 608.085 0.86084 607.348L0.712402 604.598C0.671545 603.845 0.635567 603.092 0.606934 602.34L0.556152 600.965L0.501465 599.59C0.472421 598.826 0.477081 598.061 0.513184 597.297L0.575684 595.922L0.64209 594.547C0.676407 593.82 0.661764 593.091 0.599121 592.363L0.364746 589.613C0.29623 588.816 0.339873 588.018 0.497559 587.223L1.04443 584.473C1.18357 583.77 1.22 583.068 1.15381 582.367L1.021 580.992L0.89209 579.617C0.820645 578.861 0.764573 578.104 0.724121 577.348L0.575684 574.598C0.534288 573.823 0.553439 573.048 0.630371 572.273L0.903809 569.523C0.977419 568.783 1.03036 568.041 1.06396 567.301L1.18896 564.551C1.22259 563.809 1.23747 563.066 1.23584 562.324V560.949L1.23193 559.574C1.23031 558.848 1.17582 558.121 1.07178 557.395L0.876465 556.02L0.677246 554.645C0.563186 553.849 0.562534 553.05 0.67334 552.254L1.05615 549.504C1.15205 548.816 1.12278 548.125 0.962402 547.434L0.321777 544.684C0.137263 543.888 0.0721024 543.089 0.126465 542.289L0.313965 539.539C0.365316 538.785 0.428126 538.031 0.497559 537.277L0.747559 534.527C0.813826 533.808 0.815454 533.086 0.747559 532.367L0.618652 530.992L0.48584 529.617C0.413658 528.852 0.37974 528.086 0.380371 527.32V524.57C0.381009 523.814 0.397662 523.057 0.427246 522.301L0.536621 519.551C0.566697 518.784 0.636317 518.017 0.747559 517.25L1.146 514.5C1.24514 513.817 1.20826 513.133 1.03271 512.445L0.32959 509.695C0.120451 508.876 0.0940756 508.053 0.247559 507.23L0.501465 505.855L0.759277 504.48C0.891412 503.772 0.929581 503.066 0.876465 502.359L0.774902 500.984L0.669434 499.609C0.611363 498.837 0.606824 498.065 0.653809 497.293L0.73584 495.918L0.821777 494.543C0.867533 493.792 0.916005 493.04 0.966309 492.289L1.05615 490.914L1.1499 489.539C1.19767 488.826 1.16828 488.112 1.06006 487.398L0.849121 486.023L0.64209 484.648C0.521998 483.857 0.503007 483.062 0.583496 482.27L0.720215 480.895L0.86084 479.52C0.932157 478.816 0.906158 478.111 0.782715 477.406L0.544434 476.031L0.302246 474.656C0.160237 473.844 0.17317 473.03 0.341309 472.219L0.911621 469.469C1.05214 468.79 1.04566 468.113 0.89209 467.434L0.57959 466.059L0.270996 464.684C0.0927422 463.896 0.00840327 463.103 0.0209961 462.312L0.0444336 460.938L0.0639648 459.562C0.0762978 458.792 0.13723 458.02 0.247559 457.25L0.446777 455.875L0.64209 454.5C0.744062 453.788 0.765754 453.075 0.70459 452.363L0.587402 450.988L0.466309 449.613C0.399927 448.84 0.39138 448.066 0.435059 447.293L0.509277 445.918L0.587402 444.543C0.629537 443.797 0.664001 443.051 0.688965 442.305L0.782715 439.555C0.806819 438.834 0.767471 438.112 0.669434 437.391L0.481934 436.016L0.29834 434.641C0.193498 433.869 0.139865 433.096 0.138184 432.324L0.130371 429.574C0.12872 428.789 0.210625 428.002 0.376465 427.219L0.669434 425.844L0.958496 424.469C1.1101 423.753 1.18735 423.038 1.18506 422.324L1.17725 420.949L1.17334 419.574C1.17088 418.827 1.1646 418.079 1.1499 417.332L1.09521 414.582C1.08043 413.831 1.07061 413.079 1.06396 412.328L1.05225 410.953L1.03662 409.578C1.03023 408.854 0.968843 408.127 0.849121 407.402L0.395996 404.652C0.262517 403.844 0.275674 403.034 0.435059 402.227L0.70459 400.852L0.978027 399.477C1.11385 398.789 1.11857 398.101 0.989746 397.414L0.728027 396.039L0.470215 394.664C0.317298 393.848 0.329779 393.029 0.505371 392.215L1.09912 389.465C1.25165 388.757 1.3115 388.049 1.27881 387.344L1.21631 385.969L1.1499 384.594C1.1162 383.868 1.03495 383.141 0.899902 382.414L0.64209 381.039L0.388184 379.664C0.24132 378.874 0.194234 378.081 0.247559 377.289L0.337402 375.914L0.431152 374.539C0.481595 373.791 0.530959 373.041 0.575684 372.293L0.739746 369.543C0.78234 368.83 0.744462 368.116 0.630371 367.402L0.192871 364.652C0.0656235 363.857 0.0499064 363.058 0.145996 362.262L0.310059 360.887L0.478027 359.512C0.566941 358.775 0.626741 358.038 0.657715 357.301L0.716309 355.926L0.770996 354.551C0.802914 353.792 0.859367 353.033 0.935059 352.273L1.2085 349.523C1.28094 348.797 1.30278 348.07 1.271 347.344L1.2085 345.969L1.1499 344.594C1.11831 343.872 1.02295 343.149 0.868652 342.426L0.282715 339.676C0.113157 338.881 0.0595892 338.083 0.118652 337.285L0.321777 334.535C0.375627 333.808 0.378606 333.079 0.333496 332.352L0.161621 329.602C0.113957 328.832 0.113471 328.062 0.157715 327.293L0.23584 325.918L0.317871 324.543C0.360694 323.798 0.390629 323.053 0.411621 322.309L0.489746 319.559C0.510578 318.819 0.506632 318.079 0.481934 317.34L0.438965 315.965L0.39209 314.59C0.367112 313.843 0.336575 313.095 0.29834 312.348L0.157715 309.598C0.118594 308.833 0.110485 308.069 0.138184 307.305L0.239746 304.555C0.266521 303.817 0.264957 303.078 0.239746 302.34L0.145996 299.59C0.119874 298.826 0.128561 298.061 0.169434 297.297L0.317871 294.547C0.357179 293.813 0.359439 293.078 0.32959 292.344L0.220215 289.594C0.189681 288.844 0.158037 288.093 0.126465 287.344L0.00927734 284.594C-0.0238752 283.807 0.0320915 283.02 0.17334 282.234L0.665527 279.484C0.797869 278.749 0.897271 278.012 0.962402 277.277L1.0835 275.902L1.2085 274.527C1.27092 273.822 1.23833 273.117 1.11084 272.41L0.86084 271.035L0.614746 269.66C0.473529 268.877 0.412223 268.093 0.431152 267.309L0.462402 265.934L0.497559 264.559C0.515139 263.828 0.489946 263.098 0.42334 262.367L0.17334 259.617C0.102474 258.84 0.0954164 258.063 0.153809 257.285L0.255371 255.91L0.36084 254.535C0.416508 253.795 0.448837 253.053 0.462402 252.312L0.489746 250.938L0.513184 249.562C0.527143 248.801 0.570081 248.039 0.638184 247.277L0.759277 245.902L0.884277 244.527C0.948966 243.804 0.95475 243.079 0.903809 242.355L0.708496 239.605C0.654729 238.841 0.637207 238.077 0.653809 237.312L0.685059 235.938L0.712402 234.562C0.728729 233.813 0.745191 233.062 0.759277 232.312L0.786621 230.938L0.810059 229.562C0.824056 228.818 0.826679 228.073 0.817871 227.328L0.786621 224.578C0.777813 223.834 0.757537 223.088 0.724121 222.344L0.599121 219.594C0.565711 218.85 0.520769 218.104 0.462402 217.359L0.353027 215.984L0.247559 214.609C0.188261 213.853 0.142417 213.096 0.114746 212.34L0.0639648 210.965L0.0170898 209.59C-0.0118826 208.797 0.056761 208.005 0.228027 207.215L0.528809 205.84L0.825684 204.465C0.977864 203.763 1.02559 203.063 0.970215 202.363L0.751465 199.613C0.690109 198.841 0.68089 198.066 0.724121 197.293L0.880371 194.543C0.922229 193.795 0.958983 193.045 0.993652 192.297L1.05615 190.922L1.12256 189.547C1.15712 188.801 1.18413 188.055 1.20459 187.309L1.23975 185.934L1.27881 184.559C1.29804 183.857 1.2156 183.151 1.03271 182.445L0.321777 179.695C0.116845 178.903 0.0230738 178.109 0.0405273 177.312L0.0717773 175.938L0.0991211 174.562C0.116314 173.785 0.198481 173.006 0.345215 172.23L0.868652 169.48C1.00616 168.754 1.08974 168.026 1.12256 167.301L1.24756 164.551C1.27893 163.856 1.19605 163.158 1.00146 162.457L0.622559 161.082L0.239746 159.707C0.00915992 158.877 -0.00967777 158.04 0.185059 157.207L0.825684 154.457C0.99322 153.741 1.08554 153.026 1.09912 152.312L1.12646 150.938L1.1499 149.562C1.1633 148.858 1.0835 148.15 0.907715 147.441L0.228027 144.691C0.0226851 143.863 0.0177522 143.032 0.220215 142.203L0.89209 139.453C1.06634 138.74 1.15779 138.03 1.16162 137.32L1.16943 135.945L1.17334 134.57L1.146 133.477C1.12467 133.112 1.09295 132.747 1.04834 132.383L0.712402 129.633C0.619207 128.871 0.551132 128.109 0.513184 127.348L0.446777 125.973L0.376465 124.598C0.339075 123.847 0.305723 123.095 0.274902 122.344L0.216309 120.969L0.161621 119.594C0.129957 118.822 0.147875 118.049 0.216309 117.277L0.337402 115.902L0.462402 114.527C0.528584 113.781 0.586827 113.035 0.638184 112.289L0.825684 109.539C0.877088 108.792 0.923449 108.044 0.962402 107.297L1.03271 105.922L1.10693 104.547C1.14534 103.81 1.15187 103.072 1.13037 102.336L1.05225 99.5859C1.03079 98.8516 0.972476 98.1174 0.884277 97.3828L0.556152 94.6328C0.461503 93.8448 0.457064 93.0538 0.544434 92.2656L0.849121 89.5156C0.92888 88.7955 0.945362 88.0752 0.895996 87.3555L0.708496 84.6055C0.655202 83.828 0.664112 83.0507 0.739746 82.2734L0.872559 80.8984L1.00928 79.5234C1.08112 78.7852 1.12656 78.0467 1.146 77.3086L1.21631 74.5586C1.23595 73.8125 1.24938 73.0664 1.25146 72.3203L1.25928 69.5703L1.23975 69.0391C1.20649 68.5096 1.12353 67.9772 0.98584 67.4453L0.274902 64.6953C0.0654603 63.8855 0.0112784 63.0722 0.118652 62.2578L0.302246 60.8828L0.481934 59.5078C0.576865 58.7891 0.602244 58.0696 0.560059 57.3516L0.481934 55.9766L0.399902 54.6016C0.353342 53.8094 0.407915 53.0167 0.560059 52.2266L0.821777 50.8516L1.0874 49.4766C1.2257 48.7581 1.29272 48.0409 1.29053 47.3242L1.28271 44.5742C1.28039 43.8313 1.26201 43.0867 1.22803 42.3438L1.10303 39.5938C1.06904 38.8509 1.01927 38.1062 0.95459 37.3633L0.837402 35.9883L0.716309 34.6133C0.650596 33.8583 0.596179 33.1027 0.556152 32.3477L0.48584 30.9727L0.411621 29.5977C0.370505 28.8214 0.392107 28.0454 0.474121 27.2695L0.763184 24.5195C0.842102 23.7729 0.913534 23.0319 0.978027 22.2969L1.09912 20.9414L1.21631 19.5859C1.2803 18.8563 1.32601 18.1114 1.35693 17.3516L1.41553 15.9414L1.47412 14.5352C1.50967 13.6614 1.80218 12.8741 2.34521 12.1914L3.21631 11.0938L4.09131 9.99219C4.58576 9.37068 5.12247 8.80803 5.70068 8.30469L6.72021 7.41797L7.73584 6.53516C8.30726 6.0378 8.90779 5.58046 9.53271 5.16797L10.6421 4.43359L11.7554 3.70312C12.3962 3.28015 13.0812 2.93798 13.8101 2.68359L16.3413 1.80078C17.0649 1.54836 17.7348 1.41216 18.3413 1.40625L19.3257 1.39453L20.3101 1.38672C20.4348 1.38548 20.5364 1.36904 20.6187 1.36328V1.34766C20.6191 1.16159 20.7112 1.02304 20.8022 0.941406C20.8831 0.868945 20.9712 0.831304 21.0249 0.8125C21.1338 0.77462 21.2556 0.758133 21.3608 0.75C21.5836 0.732819 21.8949 0.739155 22.2749 0.761719L25.0249 0.925781C25.7395 0.9681 26.454 0.936533 27.1694 0.832031L28.5444 0.632812L29.9194 0.429688C30.6893 0.317113 31.4614 0.254764 32.2319 0.238281L33.6069 0.207031L34.9819 0.179688C35.7601 0.163085 36.5405 0.209835 37.3179 0.324219L40.0679 0.730469C40.7945 0.837319 41.5217 0.894243 42.2476 0.898438L44.9976 0.914062C45.7191 0.918174 46.4429 0.8594 47.1655 0.742188L49.9155 0.296875C50.7299 0.165027 51.5451 0.1947 52.3569 0.382812L53.7319 0.699219L55.1069 1.01953C55.7895 1.17761 56.4692 1.19339 57.1499 1.06641L59.8999 0.550781C60.6684 0.407091 61.4392 0.307778 62.2085 0.253906L63.5835 0.15625L64.9585 0.0625C65.7654 0.00600738 66.5711 0.0851158 67.3726 0.300781L70.1226 1.04297C70.7993 1.2252 71.4728 1.24794 72.146 1.11328L73.521 0.835938L74.896 0.5625C75.6832 0.405069 76.4737 0.339125 77.2632 0.367188L78.6382 0.417969L80.0132 0.464844C80.7524 0.491084 81.4928 0.49579 82.2319 0.476562L84.9819 0.40625C85.7371 0.386621 86.4924 0.377306 87.2476 0.382812L88.6226 0.394531L89.9976 0.402344C90.7659 0.407956 91.5343 0.455948 92.3022 0.546875L95.0522 0.875C95.7694 0.959931 96.4878 0.972177 97.2046 0.914062L98.5796 0.804688L99.9546 0.691406C100.716 0.629732 101.479 0.594331 102.24 0.585938L104.99 0.554688C105.744 0.54639 106.498 0.551071 107.251 0.5625L110.001 0.601562C110.773 0.613263 111.543 0.675153 112.314 0.785156L115.064 1.17578C115.789 1.27931 116.515 1.32801 117.24 1.32031L118.615 1.30859L119.99 1.29297C120.71 1.28523 121.432 1.21204 122.154 1.07812L124.904 0.570312C125.702 0.422261 126.502 0.395512 127.302 0.492188L128.677 0.660156L130.052 0.824219C130.776 0.911817 131.501 0.942391 132.224 0.914062L134.974 0.804688C135.752 0.774238 136.529 0.809396 137.306 0.910156L140.056 1.26953C140.757 1.36056 141.46 1.34733 142.162 1.23047L143.537 1L144.912 0.773438C145.71 0.640419 146.51 0.626448 147.31 0.734375L148.685 0.921875L150.06 1.10547C150.753 1.19909 151.447 1.17692 152.142 1.03516L154.892 0.472656C155.707 0.30629 156.526 0.304681 157.341 0.464844L160.091 1.00391C160.809 1.14496 161.527 1.21606 162.244 1.21484L164.994 1.20703C165.717 1.20575 166.441 1.14977 167.166 1.03516L168.541 0.816406L169.916 0.601562C170.723 0.473804 171.531 0.488296 172.337 0.644531L175.087 1.17578C175.805 1.31487 176.524 1.3794 177.24 1.37109L179.99 1.33984C180.725 1.33125 181.461 1.29359 182.197 1.22656L184.947 0.976562C185.697 0.908129 186.45 0.842483 187.201 0.777344L189.951 0.535156C190.716 0.468751 191.482 0.440345 192.248 0.449219L193.623 0.464844L194.998 0.484375C195.745 0.493101 196.496 0.494632 197.244 0.492188L199.994 0.484375C200.772 0.481923 201.552 0.547032 202.33 0.679688L205.08 1.14844C205.768 1.26576 206.456 1.2566 207.146 1.12109L208.521 0.851562L209.896 0.578125C210.703 0.419445 211.514 0.405331 212.322 0.53125L215.072 0.960938C215.771 1.06981 216.47 1.06961 217.169 0.964844L218.544 0.757812L219.919 0.554688C220.686 0.439853 221.453 0.364362 222.22 0.328125L224.97 0.195312C225.732 0.159335 226.494 0.15348 227.255 0.171875L228.63 0.203125L230.005 0.238281C230.778 0.256937 231.55 0.324273 232.322 0.445312L233.697 0.664062L235.072 0.878906C235.768 0.98809 236.465 0.984963 237.162 0.867188L238.537 0.632812L239.912 0.402344C240.715 0.266692 241.519 0.261373 242.322 0.390625L243.697 0.613281L245.072 0.832031C245.777 0.945688 246.484 0.966157 247.189 0.886719L249.939 0.574219C250.693 0.489238 251.447 0.415336 252.201 0.351562L253.576 0.234375L254.951 0.121094C255.713 0.0565865 256.477 0.0200641 257.24 0.015625L259.99 0C260.778 -0.00456116 261.567 0.0823023 262.353 0.257812L263.728 0.5625L265.103 0.871094C265.79 1.02438 266.473 1.03974 267.158 0.921875L268.533 0.6875L269.908 0.449219C270.714 0.310259 271.523 0.311383 272.33 0.453125L275.08 0.9375C275.774 1.05955 276.468 1.06223 277.162 0.945312L278.537 0.714844L279.912 0.480469C280.693 0.348814 281.476 0.297098 282.259 0.324219L283.634 0.371094L285.009 0.421875C285.783 0.448778 286.557 0.528861 287.33 0.664062L288.705 0.90625L290.08 1.14453C290.794 1.26958 291.507 1.31726 292.22 1.28516L294.97 1.16016C295.692 1.12759 296.415 1.03581 297.138 0.882812L298.513 0.589844L299.888 0.300781C300.681 0.132949 301.479 0.0704827 302.275 0.117188L303.65 0.199219L305.025 0.277344C305.755 0.320151 306.486 0.322321 307.216 0.28125L309.966 0.125C310.728 0.0821838 311.49 0.069091 312.251 0.0820312L315.001 0.128906C315.767 0.141924 316.533 0.190429 317.298 0.273438L320.048 0.570312C320.795 0.651352 321.544 0.725103 322.291 0.792969L325.041 1.04297C325.743 1.10666 326.446 1.07436 327.15 0.941406L328.525 0.679688L329.9 0.421875C330.687 0.273114 331.478 0.217691 332.267 0.253906L335.017 0.378906C335.775 0.413663 336.533 0.465729 337.291 0.535156L340.041 0.785156C340.765 0.851481 341.488 0.865132 342.212 0.820312L344.962 0.648438C345.734 0.600655 346.507 0.604586 347.279 0.65625L348.654 0.746094L350.029 0.839844C350.767 0.889215 351.506 0.91235 352.244 0.910156L354.994 0.902344C355.729 0.900116 356.465 0.865142 357.201 0.800781L358.576 0.679688L359.951 0.5625C360.722 0.495006 361.495 0.477624 362.267 0.511719L363.642 0.570312L365.017 0.632812C365.771 0.666129 366.525 0.708426 367.279 0.761719L370.029 0.957031C370.735 1.00694 371.442 0.963876 372.15 0.828125L373.525 0.566406L374.9 0.300781C375.69 0.149264 376.482 0.0983677 377.275 0.148438L378.65 0.234375L380.025 0.324219C380.788 0.372458 381.551 0.451204 382.314 0.5625L383.689 0.761719L385.064 0.964844C385.799 1.07217 386.536 1.14567 387.271 1.1875L390.021 1.34375C390.713 1.38313 391.408 1.30342 392.107 1.10547L393.482 0.71875L394.857 0.328125C395.672 0.0971779 396.493 0.0367251 397.314 0.152344L398.689 0.347656L400.064 0.539062C400.77 0.63847 401.475 0.646514 402.181 0.558594L404.931 0.214844C405.729 0.115354 406.529 0.131316 407.326 0.265625L408.701 0.5L410.076 0.730469C410.812 0.854684 411.551 0.949684 412.287 1.01172L413.662 1.125L415.037 1.24219C415.731 1.30063 416.428 1.24756 417.126 1.07812L418.501 0.742188L419.876 0.410156C420.693 0.212136 421.514 0.186034 422.333 0.335938L423.708 0.589844L425.083 0.839844C425.804 0.971731 426.524 1.03914 427.244 1.03906H429.994C430.723 1.03898 431.455 0.991306 432.185 0.902344L433.56 0.738281L434.935 0.570312C435.721 0.474621 436.508 0.467849 437.294 0.550781L440.044 0.839844C440.78 0.917475 441.516 0.96302 442.251 0.976562L443.626 1.00391L445.001 1.02734C445.727 1.04068 446.455 1.0006 447.181 0.910156L448.556 0.742188L449.931 0.570312C450.692 0.475525 451.455 0.405973 452.216 0.363281L454.966 0.207031C455.762 0.162499 456.557 0.226518 457.349 0.398438L458.724 0.699219L460.099 0.996094C460.818 1.15203 461.535 1.23507 462.251 1.24609L463.626 1.26953L465.001 1.28906C465.748 1.30054 466.494 1.30453 467.24 1.30078L468.615 1.29297L469.99 1.28906C470.725 1.28536 471.462 1.24532 472.197 1.17578L474.947 0.917969C475.708 0.845994 476.471 0.797845 477.232 0.777344L478.607 0.742188L479.982 0.703125C480.713 0.683364 481.445 0.626324 482.177 0.527344L483.552 0.339844L484.927 0.15625C485.715 0.049778 486.503 0.0311619 487.291 0.105469L488.666 0.234375L490.041 0.367188C490.765 0.435476 491.489 0.446566 492.212 0.402344L493.587 0.316406L494.962 0.234375C495.72 0.188052 496.478 0.161467 497.236 0.152344L498.611 0.132812L499.986 0.117188C500.755 0.107957 501.526 0.142913 502.294 0.222656L503.669 0.367188L505.044 0.507812C505.767 0.582796 506.49 0.601115 507.212 0.558594L509.962 0.394531C510.737 0.348847 511.513 0.358778 512.287 0.425781L513.662 0.546875L515.037 0.664062C515.779 0.728321 516.521 0.774819 517.263 0.804688L518.638 0.863281L520.013 0.917969C520.747 0.947509 521.482 0.941736 522.216 0.902344L524.966 0.753906C525.707 0.714148 526.448 0.653741 527.189 0.574219L528.564 0.429688L529.939 0.28125C530.709 0.198551 531.481 0.162415 532.251 0.175781L535.001 0.222656C535.743 0.235561 536.486 0.232518 537.228 0.210938L539.978 0.132812C540.777 0.109543 541.578 0.201235 542.373 0.410156L543.748 0.773438L545.123 1.13281C545.819 1.31571 546.513 1.3772 547.205 1.32031L549.955 1.09375C550.685 1.0336 551.415 0.933353 552.146 0.789062L553.521 0.515625L554.896 0.246094C555.684 0.0903844 556.476 0.0271874 557.267 0.0625L560.017 0.1875C560.751 0.220241 561.486 0.216255 562.22 0.179688L563.595 0.113281L564.97 0.0429688C565.759 0.0037946 566.547 0.0603723 567.333 0.207031L568.708 0.460938L570.083 0.71875C570.813 0.854774 571.543 0.943234 572.271 0.984375L575.021 1.14062C575.753 1.18198 576.488 1.18443 577.22 1.14844L578.595 1.08203L579.97 1.01172C580.721 0.974804 581.473 0.943243 582.224 0.914062L583.599 0.859375L584.974 0.808594C585.716 0.779778 586.459 0.732842 587.201 0.667969L589.951 0.425781C590.741 0.356726 591.532 0.384448 592.322 0.507812L595.072 0.9375C595.782 1.04837 596.492 1.07443 597.201 1.01172L598.576 0.886719L599.951 0.765625C600.725 0.697175 601.5 0.686745 602.275 0.734375L603.65 0.820312L605.025 0.902344C605.778 0.948631 606.53 1.00529 607.283 1.06641L608.658 1.17578L610.033 1.28906C610.753 1.34758 611.476 1.34295 612.197 1.27344L614.947 1.00781C615.686 0.936495 616.426 0.841596 617.166 0.722656L619.916 0.277344C620.692 0.152482 621.47 0.0942235 622.248 0.101562L623.623 0.117188L624.998 0.128906C625.76 0.136148 626.524 0.170281 627.287 0.234375L630.037 0.46875C630.754 0.52899 631.471 0.518211 632.189 0.441406L633.564 0.292969L634.939 0.148438C635.745 0.0620206 636.554 0.111689 637.357 0.296875L640.107 0.929688C640.819 1.09388 641.53 1.17468 642.24 1.16797L643.615 1.15234L644.99 1.14062C645.734 1.13357 646.479 1.11527 647.224 1.08594L649.974 0.976562C650.702 0.947902 651.429 0.871734 652.158 0.746094L654.908 0.269531C655.721 0.129166 656.535 0.148839 657.341 0.324219L658.701 0.621094L660.064 0.917969C660.83 1.0845 661.568 1.30051 662.279 1.56641L663.541 2.03906L664.802 2.50781C665.486 2.76359 666.182 3.01501 666.892 3.26172L668.201 3.71875L669.509 4.17188C670.29 4.44332 670.986 4.86652 671.591 5.4375L672.607 6.39844L673.623 7.35547C674.226 7.92462 674.692 8.59025 675.021 9.34766L676.13 11.8945C676.438 12.6033 676.708 13.3173 676.943 14.0352L677.787 16.6133C678.025 17.3405 678.207 18.088 678.333 18.8555L678.56 20.2188L678.783 21.582C678.915 22.382 678.911 23.1869 678.767 23.9922L678.275 26.7422C678.153 27.4268 678.168 28.1108 678.318 28.7969L678.619 30.1719L678.916 31.5469C679.086 32.3271 679.182 33.1082 679.201 33.8906L679.232 35.2656L679.267 36.6406C679.285 37.4021 679.275 38.1643 679.24 38.9258L679.115 41.6758C679.08 42.4335 679.023 43.1915 678.951 43.9492L678.822 45.3242L678.689 46.6992C678.617 47.4494 678.543 48.2029 678.47 48.9531L678.205 51.7031C678.136 52.4081 678.163 53.114 678.283 53.8203L678.517 55.1953L678.748 56.5703C678.881 57.3586 678.921 58.1478 678.865 58.9375L678.669 61.6875C678.619 62.4014 678.647 63.1173 678.751 63.832L679.15 66.582C679.266 67.3815 679.261 68.1813 679.134 68.9805L678.916 70.3555L678.701 71.7305C678.588 72.4399 678.562 73.1509 678.626 73.8594L678.876 76.6094C678.948 77.3999 678.921 78.1909 678.798 78.9805L678.587 80.3555L678.373 81.7305C678.259 82.4623 678.186 83.1946 678.154 83.9258L678.095 85.3008L678.033 86.6758C678.002 87.3814 678.063 88.0884 678.216 88.7969L678.517 90.1719L678.814 91.5469C678.982 92.3228 679.087 93.1013 679.126 93.8789L679.267 96.6289C679.307 97.4085 679.274 98.1898 679.173 98.9688L678.822 101.719C678.73 102.431 678.717 103.144 678.787 103.855L678.919 105.23L679.056 106.605C679.134 107.41 679.082 108.215 678.9 109.016L678.583 110.391L678.271 111.766C678.108 112.483 678.019 113.199 678.001 113.914L677.966 115.289L677.935 116.664C677.918 117.366 678 118.071 678.181 118.777L678.533 120.152L678.888 121.527C679.099 122.346 679.131 123.17 678.982 123.992L678.482 126.742C678.356 127.44 678.342 128.136 678.439 128.832L678.822 131.582C678.932 132.372 678.947 133.167 678.865 133.957L678.576 136.707C678.498 137.454 678.426 138.202 678.357 138.949L678.099 141.699C678.034 142.404 678.067 143.11 678.193 143.816L678.435 145.191L678.681 146.566C678.821 147.353 678.872 148.142 678.833 148.93L678.767 150.305L678.697 151.68C678.659 152.436 678.605 153.193 678.533 153.949L678.4 155.324L678.271 156.699C678.202 157.419 678.198 158.14 678.263 158.859L678.513 161.609C678.581 162.365 678.635 163.123 678.673 163.879L678.814 166.629C678.853 167.388 678.869 168.147 678.865 168.906L678.849 171.656C678.845 172.393 678.868 173.131 678.923 173.867L679.025 175.242L679.13 176.617C679.188 177.397 679.172 178.177 679.087 178.957L678.791 181.707C678.71 182.452 678.639 183.197 678.58 183.941L678.361 186.691C678.304 187.402 678.333 188.113 678.447 188.824L678.884 191.574C679.007 192.343 679.085 193.114 679.119 193.883L679.181 195.258L679.24 196.633C679.274 197.417 679.229 198.202 679.103 198.984L678.884 200.359L678.662 201.734C678.545 202.46 678.482 203.186 678.474 203.91L678.443 206.66C678.435 207.396 678.459 208.131 678.509 208.867L678.697 211.617C678.75 212.397 678.735 213.178 678.65 213.957L678.353 216.707C678.273 217.446 678.216 218.187 678.185 218.926L678.126 220.301L678.072 221.676C678.042 222.39 678.083 223.105 678.201 223.82L678.654 226.57C678.785 227.367 678.801 228.167 678.701 228.965L678.525 230.34L678.353 231.715C678.265 232.415 678.279 233.115 678.4 233.816L678.638 235.191L678.873 236.566C679.006 237.34 679.081 238.116 679.099 238.891L679.134 240.266L679.166 241.641C679.184 242.428 679.113 243.215 678.958 244L678.419 246.75C678.284 247.438 678.279 248.125 678.408 248.812L678.666 250.188L678.919 251.562C679.068 252.357 679.108 253.153 679.033 253.949L678.9 255.324L678.771 256.699C678.7 257.449 678.628 258.199 678.556 258.949L678.427 260.324L678.294 261.699C678.224 262.434 678.188 263.171 678.185 263.906L678.177 265.281L678.173 266.656C678.17 267.376 678.229 268.096 678.353 268.816L678.83 271.566C678.965 272.353 679.01 273.142 678.966 273.93L678.892 275.305L678.814 276.68C678.772 277.435 678.719 278.19 678.654 278.945L678.537 280.32L678.416 281.695C678.353 282.415 678.356 283.136 678.423 283.855L678.681 286.605C678.754 287.386 678.757 288.168 678.685 288.949L678.556 290.324L678.431 291.699C678.366 292.402 678.399 293.104 678.533 293.809L679.056 296.559C679.212 297.382 679.187 298.207 678.978 299.027L678.275 301.777C678.099 302.469 678.051 303.157 678.13 303.844L678.451 306.594C678.538 307.344 678.622 308.098 678.708 308.848L678.865 310.223L679.025 311.598C679.118 312.407 679.062 313.218 678.865 314.023L678.193 316.773C678.029 317.44 678.039 318.105 678.22 318.773L678.591 320.148L678.966 321.523C679.181 322.316 679.281 323.112 679.267 323.91L679.22 326.66C679.207 327.415 679.182 328.171 679.146 328.926L679.013 331.676C678.978 332.41 678.978 333.145 679.013 333.879L679.146 336.629C679.183 337.393 679.189 338.158 679.158 338.922L679.099 340.297L679.044 341.672C679.014 342.426 678.973 343.183 678.923 343.938L678.744 346.688C678.696 347.418 678.688 348.149 678.724 348.879L678.791 350.254L678.861 351.629C678.899 352.405 678.876 353.181 678.791 353.957L678.486 356.707C678.404 357.452 678.331 358.2 678.271 358.945L678.162 360.32L678.048 361.695C677.99 362.413 678.003 363.13 678.083 363.848L678.236 365.223L678.392 366.598C678.478 367.355 678.546 368.113 678.595 368.871L678.775 371.621C678.827 372.411 678.784 373.2 678.646 373.988L678.162 376.738C678.041 377.423 678.057 378.11 678.208 378.797L678.509 380.172L678.814 381.547C678.989 382.342 679.05 383.139 678.994 383.938L678.798 386.688C678.748 387.409 678.758 388.133 678.83 388.855L679.103 391.605C679.179 392.374 679.209 393.142 679.197 393.91L679.173 395.285L679.154 396.66C679.141 397.434 679.07 398.208 678.947 398.98L678.509 401.73C678.393 402.46 678.323 403.193 678.298 403.922L678.205 406.672C678.179 407.409 678.183 408.146 678.212 408.883L678.322 411.633C678.351 412.368 678.413 413.105 678.509 413.84L678.869 416.59C678.97 417.363 679.018 418.136 679.005 418.91L678.982 420.285L678.962 421.66C678.951 422.409 678.941 423.158 678.935 423.906L678.912 426.656C678.905 427.418 678.874 428.18 678.814 428.941L678.595 431.691C678.537 432.439 678.483 433.186 678.435 433.934L678.349 435.309L678.259 436.684C678.212 437.416 678.203 438.151 678.236 438.883L678.361 441.633C678.393 442.366 678.461 443.099 678.564 443.832L678.755 445.207L678.951 446.582C679.065 447.395 679.024 448.21 678.83 449.02L678.498 450.395L678.169 451.77C678 452.475 677.933 453.178 677.966 453.879L678.029 455.254L678.095 456.629C678.129 457.349 678.227 458.071 678.388 458.793L678.693 460.168L679.001 461.543C679.185 462.366 679.183 463.193 678.994 464.016L678.677 465.391L678.357 466.766C678.197 467.46 678.163 468.153 678.248 468.844L678.583 471.594C678.678 472.364 678.723 473.136 678.72 473.906L678.712 475.281L678.708 476.656C678.705 477.426 678.654 478.196 678.56 478.965L678.392 480.34L678.228 481.715C678.141 482.429 678.127 483.142 678.193 483.855L678.322 485.23L678.447 486.605C678.516 487.356 678.587 488.109 678.654 488.859L678.775 490.234L678.9 491.609C678.968 492.369 679.009 493.13 679.029 493.891L679.068 495.266L679.103 496.641C679.124 497.421 679.072 498.201 678.947 498.98L678.724 500.355L678.505 501.73C678.393 502.434 678.38 503.141 678.466 503.844L678.802 506.594C678.897 507.363 678.945 508.133 678.947 508.902L678.955 511.652Z" fill="#3F2D2A"/>
</svg>
