<svg width="523" height="463" viewBox="0 0 523 463" fill="none" xmlns="http://www.w3.org/2000/svg">
<path d="M1.13135 21.1953C1.13135 10.1496 10.0857 1.19531 21.1313 1.19531H501.131C512.177 1.19531 521.131 10.1496 521.131 21.1953V441.195C521.131 452.241 512.177 461.195 501.131 461.195H21.1314C10.0857 461.195 1.13135 452.241 1.13135 441.195V21.1953Z" fill="#FFFDF8"/>
<path d="M260.002 0C260.791 -0.00456116 261.58 0.0823023 262.366 0.257812L263.741 0.5625L265.116 0.871094C265.802 1.02438 266.486 1.03974 267.17 0.921875L268.545 0.6875L269.92 0.449219C270.727 0.310258 271.536 0.311381 272.342 0.453125L275.092 0.9375C275.786 1.05955 276.481 1.06223 277.174 0.945312L278.549 0.714844L279.924 0.480469C280.706 0.348815 281.489 0.297097 282.272 0.324219L283.647 0.371094L285.022 0.421875C285.795 0.448779 286.57 0.528859 287.342 0.664062L288.717 0.90625L290.092 1.14453C290.807 1.26958 291.52 1.31726 292.233 1.28516L294.983 1.16016C295.704 1.12759 296.428 1.03581 297.151 0.882812L298.526 0.589844L299.901 0.300781C300.693 0.133086 301.489 0.0706965 302.284 0.117188L303.659 0.199219L305.038 0.277344C305.768 0.320151 306.499 0.322321 307.229 0.28125L309.979 0.125C310.741 0.0821838 311.502 0.0690908 312.264 0.0820312L315.014 0.128906C315.779 0.141924 316.546 0.190429 317.311 0.273438L320.061 0.570312C320.808 0.651351 321.556 0.725104 322.303 0.792969L325.053 1.04297C325.756 1.10666 326.458 1.07436 327.163 0.941406L328.538 0.679688L329.913 0.421875C330.7 0.273113 331.49 0.217691 332.28 0.253906L335.03 0.378906C335.787 0.413663 336.546 0.46573 337.303 0.535156L340.053 0.785156C340.777 0.851481 341.501 0.865132 342.225 0.820312L344.975 0.648438C345.747 0.600655 346.52 0.604586 347.292 0.65625L348.667 0.746094L350.042 0.839844C350.779 0.889215 351.519 0.91235 352.256 0.910156L355.006 0.902344C355.742 0.900115 356.478 0.865142 357.213 0.800781L358.588 0.679688L359.963 0.5625C360.735 0.495008 361.508 0.477624 362.28 0.511719L363.655 0.570312L365.03 0.632812C365.784 0.666129 366.538 0.708426 367.292 0.761719L370.042 0.957031C370.748 1.00694 371.455 0.963876 372.163 0.828125L373.538 0.566406L374.913 0.300781C375.703 0.149266 376.495 0.0983656 377.288 0.148438L378.663 0.234375L380.038 0.324219C380.801 0.372458 381.564 0.451203 382.327 0.5625L383.702 0.761719L385.077 0.964844C385.812 1.07217 386.549 1.14567 387.284 1.1875L390.034 1.34375C390.726 1.38313 391.421 1.30342 392.12 1.10547L393.495 0.71875L394.87 0.328125C395.685 0.097178 396.506 0.0367252 397.327 0.152344L398.702 0.347656L400.077 0.539062C400.783 0.63847 401.488 0.646514 402.194 0.558594L404.944 0.214844C405.742 0.115353 406.541 0.131311 407.338 0.265625L408.713 0.5L410.088 0.730469C410.825 0.854684 411.563 0.949684 412.299 1.01172L413.674 1.125L415.049 1.24219C415.744 1.30063 416.44 1.24756 417.139 1.07812L418.514 0.742188L419.889 0.410156C420.706 0.212136 421.527 0.186032 422.346 0.335938L423.721 0.589844L425.096 0.839844C425.817 0.97173 426.537 1.03914 427.256 1.03906H430.006C430.736 1.03898 431.468 0.991305 432.198 0.902344L433.573 0.738281L434.948 0.570312C435.734 0.474622 436.521 0.467848 437.307 0.550781L440.057 0.839844C440.792 0.917475 441.529 0.963021 442.264 0.976562L443.639 1.00391L445.014 1.02734C445.74 1.04068 446.467 1.0006 447.194 0.910156L448.569 0.742188L449.944 0.570312C450.705 0.475525 451.468 0.405973 452.229 0.363281L454.979 0.207031C455.774 0.162502 456.569 0.226516 457.362 0.398438L458.737 0.699219L460.112 0.996094C460.83 1.15203 461.548 1.23507 462.264 1.24609L463.639 1.26953L465.014 1.28906C465.76 1.30054 466.506 1.30453 467.252 1.30078L468.627 1.29297L470.002 1.28906C470.737 1.28536 471.474 1.24532 472.209 1.17578L474.959 0.917969C475.721 0.845995 476.483 0.797845 477.245 0.777344L478.62 0.742188L479.995 0.703125C480.726 0.683363 481.458 0.626323 482.19 0.527344L483.565 0.339844L484.94 0.15625C485.727 0.0497789 486.515 0.0311611 487.303 0.105469L488.678 0.234375L490.053 0.367188C490.777 0.435475 491.501 0.446567 492.225 0.402344L493.6 0.316406L494.975 0.234375C495.733 0.188052 496.491 0.161466 497.249 0.152344L498.624 0.132812L499.999 0.117188C500.789 0.107702 501.579 0.191682 502.362 0.371094L503.725 0.6875L505.092 1C505.852 1.17413 506.6 1.37996 507.334 1.62109L509.975 2.48828C510.757 2.74511 511.462 3.14326 512.084 3.67969L513.135 4.58594L514.186 5.48828C514.785 6.00374 515.321 6.57162 515.795 7.1875L516.624 8.26562L517.456 9.34375C517.924 9.95251 518.344 10.5941 518.713 11.2695L519.366 12.4688L520.022 13.6641C520.395 14.3466 520.697 15.0693 520.932 15.8281L521.76 18.5C522.001 19.2768 522.118 20.0716 522.112 20.8789L522.1 22.2617L522.092 23.6484C522.087 24.3974 522.094 25.1435 522.116 25.8867L522.194 28.6367C522.217 29.4361 522.125 30.2366 521.917 31.0312L521.553 32.4062L521.194 33.7812C521.011 34.4779 520.949 35.1718 521.006 35.8633L521.233 38.6133C521.293 39.3433 521.393 40.0738 521.538 40.8047L521.811 42.1797L522.081 43.5547C522.236 44.3432 522.299 45.1351 522.264 45.9258L522.139 48.6758C522.106 49.4099 522.11 50.1447 522.147 50.8789L522.213 52.2539L522.284 53.6289C522.323 54.4183 522.267 55.2085 522.12 55.9961L521.866 57.3711L521.608 58.7461C521.472 59.4745 521.383 60.2023 521.342 60.9297L521.186 63.6797C521.145 64.4121 521.142 65.1465 521.178 65.8789L521.245 67.2539L521.315 68.6289C521.352 69.3802 521.383 70.1315 521.413 70.8828L521.467 72.2578L521.518 73.6328C521.547 74.3746 521.594 75.1175 521.659 75.8594L521.901 78.6094C521.97 79.4 521.942 80.1909 521.819 80.9805L521.389 83.7305C521.278 84.4407 521.252 85.1502 521.315 85.8594L521.44 87.2344L521.561 88.6094C521.63 89.384 521.64 90.1589 521.592 90.9336L521.506 92.3086L521.424 93.6836C521.378 94.4369 521.321 95.1921 521.26 95.9453L521.151 97.3203L521.038 98.6953C520.979 99.4152 520.984 100.135 521.053 100.855L521.319 103.605C521.39 104.345 521.485 105.085 521.604 105.824L522.049 108.574C522.174 109.351 522.232 110.129 522.225 110.906L522.209 112.281L522.198 113.656C522.191 114.419 522.156 115.183 522.092 115.945L521.858 118.695C521.798 119.413 521.808 120.133 521.885 120.852L522.034 122.227L522.178 123.602C522.264 124.408 522.215 125.213 522.03 126.016L521.397 128.766C521.233 129.478 521.152 130.189 521.159 130.898L521.174 132.273L521.186 133.648C521.193 134.393 521.211 135.138 521.241 135.883L521.35 138.633C521.379 139.36 521.455 140.088 521.581 140.816L522.057 143.566C522.196 144.373 522.196 145.182 522.057 145.988L521.819 147.363L521.584 148.738C521.458 149.474 521.364 150.21 521.303 150.945L521.077 153.695C521.019 154.399 521.058 155.103 521.194 155.809L521.725 158.559C521.875 159.336 521.96 160.115 521.975 160.895L521.999 162.27L522.026 163.645C522.041 164.421 521.993 165.197 521.885 165.973L521.502 168.723C521.402 169.446 521.359 170.172 521.374 170.895L521.405 172.27L521.432 173.645C521.447 174.38 521.494 175.116 521.573 175.852L521.717 177.227L521.866 178.602C521.95 179.398 521.922 180.197 521.78 180.992L521.288 183.742C521.166 184.427 521.181 185.111 521.331 185.797L521.631 187.172L521.928 188.547C522.099 189.327 522.195 190.108 522.213 190.891L522.245 192.266L522.28 193.641C522.298 194.402 522.288 195.164 522.252 195.926L522.127 198.676C522.092 199.434 522.036 200.192 521.963 200.949L521.834 202.324L521.702 203.699C521.63 204.449 521.556 205.203 521.483 205.953L521.217 208.703C521.149 209.408 521.176 210.114 521.295 210.82L521.53 212.195L521.76 213.57C521.894 214.359 521.933 215.148 521.877 215.938L521.682 218.688C521.632 219.401 521.66 220.117 521.764 220.832L522.163 223.582C522.279 224.382 522.274 225.181 522.147 225.98L521.928 227.355L521.713 228.73C521.601 229.44 521.575 230.151 521.639 230.859L521.889 233.609C521.961 234.4 521.934 235.191 521.811 235.98L521.6 237.355L521.385 238.73C521.272 239.462 521.198 240.195 521.167 240.926L521.108 242.301L521.045 243.676C521.015 244.381 521.076 245.088 521.229 245.797L521.53 247.172L521.827 248.547C521.995 249.323 522.1 250.101 522.139 250.879L522.28 253.629C522.319 254.409 522.286 255.19 522.186 255.969L521.834 258.719C521.743 259.431 521.73 260.144 521.799 260.855L521.932 262.23L522.069 263.605C522.147 264.41 522.095 265.215 521.913 266.016L521.596 267.391L521.284 268.766C521.121 269.483 521.032 270.199 521.014 270.914L520.979 272.289L520.948 273.664C520.931 274.366 521.012 275.071 521.194 275.777L521.545 277.152L521.901 278.527C522.111 279.346 522.143 280.17 521.995 280.992L521.495 283.742C521.368 284.44 521.355 285.136 521.452 285.832L521.834 288.582C521.945 289.372 521.96 290.167 521.877 290.957L521.588 293.707C521.51 294.454 521.439 295.202 521.37 295.949L521.112 298.699C521.046 299.404 521.08 300.11 521.206 300.816L521.448 302.191L521.694 303.566C521.834 304.353 521.885 305.142 521.846 305.93L521.78 307.305L521.709 308.68C521.672 309.436 521.617 310.193 521.545 310.949L521.413 312.324L521.284 313.699C521.215 314.419 521.211 315.14 521.276 315.859L521.526 318.609C521.594 319.365 521.647 320.123 521.686 320.879L521.827 323.629C521.866 324.388 521.882 325.147 521.877 325.906L521.862 328.656C521.857 329.393 521.881 330.131 521.936 330.867L522.038 332.242L522.143 333.617C522.201 334.397 522.185 335.177 522.1 335.957L521.803 338.707C521.722 339.452 521.651 340.197 521.592 340.941L521.374 343.691C521.317 344.402 521.346 345.113 521.459 345.824L521.897 348.574C522.02 349.343 522.097 350.114 522.131 350.883L522.194 352.258L522.252 353.633C522.287 354.417 522.242 355.202 522.116 355.984L521.897 357.359L521.674 358.734C521.558 359.46 521.495 360.186 521.487 360.91L521.456 363.66C521.447 364.396 521.471 365.131 521.522 365.867L521.709 368.617C521.763 369.397 521.747 370.178 521.663 370.957L521.366 373.707C521.285 374.446 521.229 375.187 521.198 375.926L521.139 377.301L521.084 378.676C521.055 379.39 521.096 380.105 521.213 380.82L521.667 383.57C521.797 384.367 521.814 385.167 521.713 385.965L521.538 387.34L521.366 388.715C521.277 389.415 521.292 390.115 521.413 390.816L521.651 392.191L521.885 393.566C522.018 394.34 522.094 395.116 522.112 395.891L522.147 397.266L522.178 398.641C522.197 399.428 522.126 400.215 521.971 401L521.432 403.75C521.297 404.438 521.292 405.125 521.42 405.812L521.678 407.188L521.932 408.562C522.08 409.357 522.12 410.153 522.045 410.949L521.913 412.324L521.784 413.699C521.713 414.449 521.641 415.199 521.569 415.949L521.44 417.324L521.307 418.699C521.237 419.434 521.201 420.171 521.198 420.906L521.19 422.281L521.186 423.656C521.183 424.376 521.242 425.096 521.366 425.816L521.842 428.566C521.978 429.353 522.022 430.142 521.979 430.93L521.905 432.305L521.827 433.68C521.785 434.435 521.732 435.19 521.667 435.945L521.549 437.32L521.428 438.695C521.365 439.426 521.344 440.158 521.366 440.891L521.409 442.27L521.448 443.648C521.472 444.471 521.326 445.263 521.01 446.02L520.483 447.289L519.952 448.555C519.665 449.241 519.384 449.941 519.108 450.652L518.092 453.277C517.773 454.101 517.218 454.74 516.448 455.18L515.217 455.883L513.991 456.586C513.336 456.96 512.716 457.362 512.135 457.789L511.042 458.59L509.948 459.395C509.316 459.859 508.624 460.242 507.877 460.539L506.581 461.055L505.28 461.57C504.48 461.888 503.648 461.961 502.795 461.789L500.006 461.227C499.323 461.089 498.646 461.114 497.971 461.297L496.596 461.668L495.221 462.043C494.428 462.258 493.629 462.358 492.831 462.344L490.081 462.297C489.326 462.283 488.57 462.259 487.815 462.223L485.065 462.09C484.332 462.055 483.599 462.054 482.866 462.09L480.116 462.223C479.351 462.26 478.584 462.266 477.819 462.234L476.444 462.176L475.069 462.121C474.315 462.09 473.561 462.05 472.807 462L470.057 461.82C469.327 461.772 468.596 461.765 467.866 461.801L466.491 461.867L465.116 461.938C464.34 461.976 463.563 461.953 462.788 461.867L460.038 461.562C459.292 461.48 458.544 461.408 457.799 461.348L456.424 461.238L455.049 461.125C454.332 461.067 453.615 461.079 452.897 461.16L451.522 461.312L450.147 461.469C449.389 461.554 448.631 461.622 447.874 461.672L445.124 461.852C444.333 461.903 443.541 461.861 442.752 461.723L440.002 461.238C439.318 461.118 438.634 461.134 437.948 461.285L436.573 461.586L435.198 461.891C434.403 462.066 433.605 462.126 432.807 462.07L430.057 461.875C429.335 461.824 428.611 461.835 427.889 461.906L425.139 462.18C424.371 462.256 423.603 462.286 422.834 462.273L421.459 462.25L420.084 462.23C419.311 462.218 418.533 462.147 417.76 462.023L415.01 461.586C414.281 461.47 413.551 461.4 412.823 461.375L410.073 461.281C409.336 461.256 408.599 461.26 407.862 461.289L405.112 461.398C404.377 461.428 403.64 461.49 402.905 461.586L400.155 461.945C399.382 462.047 398.608 462.094 397.834 462.082L396.459 462.059L395.084 462.039C394.336 462.027 393.587 462.018 392.838 462.012L390.088 461.988C389.327 461.982 388.564 461.95 387.803 461.891L385.053 461.672C384.306 461.613 383.555 461.56 382.807 461.512L381.432 461.426L380.057 461.336C379.326 461.289 378.593 461.28 377.862 461.312L375.112 461.438C374.378 461.47 373.643 461.538 372.909 461.641L371.534 461.832L370.159 462.027C369.346 462.141 368.534 462.1 367.725 461.906L366.35 461.574L364.975 461.246C364.27 461.077 363.567 461.01 362.866 461.043L361.491 461.105L360.116 461.172C359.395 461.206 358.67 461.304 357.948 461.465L356.573 461.77L355.198 462.078C354.376 462.261 353.551 462.259 352.729 462.07L351.354 461.754L349.979 461.434C349.285 461.274 348.592 461.24 347.901 461.324L345.151 461.66C344.38 461.754 343.609 461.8 342.838 461.797L341.463 461.789L340.088 461.785C339.319 461.782 338.549 461.731 337.78 461.637L336.405 461.469L335.03 461.305C334.315 461.218 333.6 461.204 332.885 461.27L331.51 461.398L330.135 461.523C329.385 461.593 328.635 461.663 327.885 461.73L326.51 461.852L325.135 461.977C324.375 462.044 323.614 462.085 322.854 462.105L321.479 462.145L320.104 462.18C319.323 462.2 318.54 462.149 317.76 462.023L316.385 461.801L315.01 461.582C314.307 461.469 313.604 461.457 312.901 461.543L310.151 461.879C309.382 461.973 308.612 462.022 307.842 462.023L305.092 462.031C304.349 462.033 303.605 462.049 302.862 462.082L300.112 462.207C299.354 462.241 298.596 462.257 297.838 462.254L296.463 462.246L295.088 462.242C294.319 462.239 293.549 462.187 292.78 462.09L291.405 461.918L290.03 461.742C289.303 461.65 288.573 461.611 287.846 461.621L286.471 461.637L285.096 461.656C284.327 461.666 283.556 461.631 282.788 461.551L281.413 461.406L280.038 461.266C279.334 461.193 278.629 461.216 277.924 461.336L275.174 461.805C274.378 461.94 273.581 461.957 272.784 461.863L271.409 461.703L270.034 461.539C269.301 461.452 268.567 461.406 267.834 461.398L265.084 461.367C264.369 461.359 263.653 461.426 262.936 461.562L260.186 462.086C259.405 462.235 258.621 462.306 257.838 462.305L256.463 462.301H255.088C254.334 462.299 253.581 462.284 252.827 462.262L251.452 462.223L250.077 462.18C249.306 462.157 248.534 462.089 247.764 461.973L246.389 461.762L245.014 461.555C244.285 461.444 243.556 461.378 242.827 461.355L240.077 461.27C239.342 461.247 238.605 461.257 237.87 461.301L235.12 461.465C234.357 461.51 233.594 461.523 232.831 461.508L230.081 461.453C229.367 461.439 228.652 461.5 227.936 461.637L226.561 461.898L225.186 462.164C224.402 462.314 223.616 462.382 222.831 462.363L221.456 462.328L220.081 462.297C219.303 462.278 218.525 462.194 217.749 462.047L216.374 461.785L214.999 461.527C214.309 461.397 213.618 461.391 212.928 461.516L211.553 461.766L210.178 462.012C209.396 462.153 208.614 462.217 207.831 462.199L206.456 462.164L205.081 462.133C204.33 462.115 203.577 462.098 202.827 462.078L201.452 462.043L200.077 462.004C199.314 461.984 198.55 461.935 197.788 461.855L195.038 461.566C194.302 461.489 193.566 461.446 192.831 461.434L190.081 461.387C189.331 461.374 188.58 461.36 187.831 461.348L185.081 461.301C184.361 461.289 183.641 461.339 182.92 461.453L180.17 461.891C179.386 462.014 178.6 462.053 177.815 462.012L176.44 461.941L175.065 461.867C174.337 461.829 173.609 461.842 172.881 461.902L170.131 462.129C169.358 462.193 168.584 462.203 167.811 462.156L166.436 462.07L165.061 461.988C164.311 461.943 163.561 461.898 162.811 461.852L161.436 461.77L160.061 461.684C159.323 461.638 158.584 461.619 157.846 461.629L156.471 461.648L155.096 461.664C154.367 461.673 153.638 461.731 152.909 461.832L151.534 462.02L150.159 462.211C149.377 462.319 148.594 462.348 147.811 462.301L146.436 462.219L145.061 462.133C144.328 462.088 143.595 462.081 142.862 462.109L141.487 462.164L140.112 462.215C139.326 462.245 138.537 462.193 137.752 462.055L135.002 461.57C134.272 461.441 133.541 461.352 132.811 461.309L131.436 461.23L130.061 461.148C129.318 461.105 128.574 461.075 127.831 461.062L125.081 461.016C124.365 461.003 123.649 461.066 122.932 461.199L121.557 461.453L120.182 461.711C119.397 461.857 118.61 461.915 117.823 461.887L115.073 461.785C114.33 461.758 113.585 461.747 112.842 461.75L111.467 461.758L110.092 461.762C109.316 461.765 108.54 461.709 107.764 461.59L106.389 461.375L105.014 461.164C104.333 461.059 103.652 461.097 102.967 461.273L101.592 461.625L100.217 461.98C99.4284 462.184 98.6352 462.285 97.8423 462.285H96.4673L95.0923 462.289C94.3164 462.29 93.5392 462.229 92.7642 462.109L91.3892 461.898L90.0142 461.684C89.286 461.571 88.558 461.51 87.8306 461.492L86.4556 461.457L85.0806 461.426C84.3443 461.408 83.606 461.416 82.8696 461.457L81.4946 461.535L80.1196 461.609C79.3415 461.652 78.5614 461.631 77.7837 461.543L75.0337 461.23C74.3216 461.15 73.6091 461.149 72.897 461.23L71.522 461.391L70.147 461.547C69.3832 461.635 68.618 461.689 67.854 461.711L66.479 461.754L65.104 461.793C64.3226 461.816 63.5405 461.762 62.7603 461.637L61.3853 461.418L60.0103 461.195C59.2885 461.079 58.5668 461.026 57.8462 461.035L56.4712 461.051L55.0962 461.07C54.3533 461.079 53.6086 461.101 52.8657 461.141L50.1157 461.289C49.3501 461.33 48.5845 461.332 47.8188 461.297L46.4438 461.234L45.0688 461.168C44.3407 461.134 43.6096 461.149 42.8813 461.211L40.1313 461.445C39.3697 461.51 38.608 461.547 37.8462 461.555L36.4712 461.566L35.0962 461.582C34.364 461.59 33.6295 461.637 32.897 461.723L30.147 462.043C29.3558 462.135 28.5628 462.13 27.772 462.023L26.397 461.836L25.022 461.652C24.2854 461.553 23.5524 461.481 22.8228 461.438L20.0962 461.273L15.0493 460.977C14.2116 460.927 13.4244 460.69 12.6938 460.273L11.4751 459.582L10.2603 458.887C9.54355 458.478 8.92185 457.957 8.40479 457.324L7.52979 456.25L6.65479 455.18C6.17017 454.587 5.71316 453.985 5.28369 453.375L4.50635 452.273L3.73291 451.172C3.29993 450.557 2.89206 449.908 2.51025 449.227L1.82666 448.004L1.13916 446.781C0.726856 446.045 0.503685 445.253 0.475098 444.41L0.428223 443.008L0.381348 441.609C0.354871 440.823 0.383652 440.043 0.467285 439.27L0.615723 437.895L0.768066 436.52C0.848054 435.781 0.902463 435.039 0.932129 434.301L1.0415 431.551C1.07107 430.814 1.0722 430.077 1.04541 429.34L0.943848 426.59C0.916871 425.848 0.873943 425.105 0.811035 424.363L0.57666 421.613C0.512211 420.853 0.472744 420.092 0.459473 419.332L0.412598 416.582C0.399019 415.802 0.45632 415.021 0.584473 414.242L1.0376 411.492C1.15271 410.793 1.15684 410.093 1.05322 409.395L0.646973 406.645C0.533097 405.877 0.462081 405.108 0.436035 404.34L0.342285 401.59L0.314941 399.32L0.330566 396.57C0.335682 395.794 0.405089 395.014 0.533691 394.238L0.986816 391.488C1.10662 390.765 1.1695 390.042 1.17041 389.32V387.945L1.17432 386.57L1.13525 385.484C1.10866 385.121 1.06788 384.758 1.01416 384.395L0.60791 381.645C0.489977 380.847 0.485912 380.048 0.600098 379.25L0.799316 377.875L0.994629 376.5C1.09293 375.812 1.06418 375.124 0.904785 374.434L0.584473 373.059L0.268066 371.684C0.0779531 370.859 0.0797872 370.031 0.271973 369.207L0.912598 366.457C1.07976 365.74 1.17334 365.023 1.18994 364.309L1.25244 361.559C1.26891 360.845 1.21151 360.13 1.07666 359.414L0.814941 358.039L0.557129 356.664C0.408212 355.874 0.359208 355.082 0.412598 354.289L0.600098 351.539C0.648467 350.822 0.623885 350.104 0.529785 349.387L0.17041 346.637C0.0663503 345.843 0.0646855 345.047 0.17041 344.254L0.537598 341.504C0.633325 340.785 0.664095 340.066 0.627441 339.348L0.486816 336.598C0.44841 335.845 0.415697 335.092 0.38916 334.34L0.342285 332.965L0.291504 331.59C0.264614 330.827 0.268588 330.063 0.299316 329.301L0.408691 326.551C0.439246 325.793 0.49073 325.035 0.561035 324.277L0.689941 322.902L0.814941 321.527C0.882177 320.803 0.895048 320.076 0.850098 319.352L0.678223 316.602C0.632454 315.865 0.559171 315.128 0.459473 314.391L0.275879 313.016L0.0883789 311.641C-0.022295 310.823 0.035438 310.004 0.256348 309.191L0.627441 307.816L1.00244 306.441C1.19257 305.742 1.26709 305.045 1.2251 304.352L1.13916 302.977L1.05713 301.602C1.01276 300.869 0.932329 300.136 0.814941 299.402L0.596191 298.027L0.373535 296.652C0.249107 295.875 0.188232 295.094 0.193848 294.316L0.217285 291.566C0.22278 290.809 0.242697 290.05 0.283691 289.293L0.35791 287.918L0.436035 286.543C0.474969 285.822 0.452161 285.1 0.369629 284.379L0.213379 283.004L0.0532227 281.629C-0.0384623 280.827 -0.00330791 280.026 0.154785 279.227L0.428223 277.852L0.697754 276.477C0.837357 275.771 0.879242 275.066 0.822754 274.363L0.713379 272.988L0.600098 271.613C0.536455 270.823 0.570389 270.031 0.697754 269.242L1.14307 266.492C1.2581 265.779 1.28846 265.067 1.24072 264.355L1.15088 262.98L1.05713 261.605C1.0058 260.84 0.991198 260.074 1.01025 259.309L1.04541 257.934L1.07666 256.559C1.09428 255.849 1.02751 255.138 0.877441 254.426L0.299316 251.676C0.131665 250.88 0.0807911 250.08 0.143066 249.281L0.248535 247.906L0.35791 246.531C0.416302 245.783 0.471996 245.034 0.529785 244.285L0.635254 242.91L0.744629 241.535C0.801127 240.803 0.81496 240.068 0.791504 239.336L0.705566 236.586C0.681419 235.832 0.665266 235.078 0.662598 234.324L0.654785 231.574C0.652221 230.848 0.597388 230.121 0.490723 229.395L0.287598 228.02L0.0883789 226.645C-0.0287304 225.847 -0.0303334 225.048 0.0883789 224.25L0.29541 222.875L0.498535 221.5C0.605975 220.779 0.649398 220.056 0.627441 219.336L0.584473 217.961L0.54541 216.586C0.522206 215.824 0.526823 215.063 0.561035 214.301L0.623535 212.926L0.682129 211.551C0.716412 210.788 0.781705 210.024 0.873535 209.262L1.0376 207.887L1.20557 206.512C1.28918 205.817 1.25694 205.123 1.11182 204.426L0.82666 203.051L0.537598 201.676C0.37266 200.885 0.312181 200.09 0.354004 199.297L0.428223 197.922L0.498535 196.547C0.538566 195.79 0.597147 195.031 0.67041 194.273L0.936035 191.523C1.00543 190.806 1.00501 190.089 0.936035 189.371L0.67041 186.621C0.595513 185.843 0.588831 185.063 0.646973 184.285L0.850098 181.535C0.902768 180.83 0.862056 180.125 0.725098 179.418L0.459473 178.043L0.189941 176.668C0.0352385 175.87 0.000640748 175.069 0.0844727 174.27L0.373535 171.52C0.450779 170.783 0.498859 170.045 0.518066 169.309L0.588379 166.559C0.608018 165.805 0.63553 165.05 0.67041 164.297L0.736816 162.922L0.799316 161.547C0.833397 160.81 0.841752 160.073 0.822754 159.336L0.752441 156.586C0.733297 155.844 0.692252 155.101 0.635254 154.359L0.424316 151.609C0.363388 150.816 0.407841 150.022 0.557129 149.23L0.818848 147.855L1.07666 146.48C1.20608 145.795 1.20213 145.108 1.06104 144.422L0.775879 143.047L0.494629 141.672C0.333018 140.885 0.264513 140.097 0.287598 139.309L0.365723 136.559C0.388526 135.783 0.470441 135.005 0.611816 134.23L0.865723 132.855L1.11572 131.48C1.24239 130.786 1.2524 130.092 1.14697 129.398L0.939941 128.023L0.729004 126.648C0.607336 125.849 0.607409 125.046 0.729004 124.246L0.936035 122.871L1.14697 121.496C1.25668 120.774 1.30543 120.053 1.2915 119.332L1.23682 116.582C1.22293 115.865 1.14029 115.145 0.986816 114.426L0.400879 111.676C0.226177 110.857 0.227549 110.034 0.404785 109.215L0.998535 106.465C1.14557 105.785 1.14808 105.106 1.00244 104.426L0.705566 103.051L0.412598 101.676C0.237009 100.855 0.240254 100.031 0.424316 99.2109L1.0415 96.4609C1.19957 95.7562 1.25619 95.0531 1.21338 94.3516L1.13135 92.9766L1.04541 91.6016C1.00012 90.8596 0.938032 90.117 0.85791 89.375L0.561035 86.625C0.477717 85.8531 0.446156 85.0808 0.467285 84.3086L0.54541 81.5586C0.566377 80.793 0.620982 80.027 0.713379 79.2617L0.881348 77.8867L1.04541 76.5117C1.12972 75.8133 1.10786 75.1141 0.975098 74.4141L0.45166 71.6641C0.30455 70.8881 0.220445 70.1094 0.20166 69.332L0.17041 67.957L0.135254 66.582C0.116926 65.8218 0.123718 65.061 0.154785 64.3008L0.213379 62.9258L0.268066 61.5508C0.299189 60.7896 0.356772 60.0266 0.439941 59.2656L0.588379 57.8906L0.740723 56.5156C0.818232 55.805 0.813862 55.0936 0.725098 54.3828L0.381348 51.6328C0.281892 50.8358 0.294877 50.0385 0.424316 49.2422L0.646973 47.8672L0.873535 46.4922C0.98659 45.7971 0.981866 45.1017 0.861816 44.4062L0.385254 41.6562C0.245657 40.8469 0.257127 40.0353 0.412598 39.2266L0.674316 37.8516L0.939941 36.4766C1.07012 35.7987 1.05293 35.1217 0.885254 34.4414L0.205566 31.6914C0.000509261 30.8593 0.0111473 30.0222 0.23291 29.1914L0.967285 26.4414C1.15098 25.7523 1.20096 25.0669 1.11963 24.3828L0.955566 23.0039L0.791504 21.6289C0.697844 20.8428 0.690982 20.0563 0.771973 19.2695L0.912598 17.8906L1.05322 16.5156C1.13773 15.6957 1.38607 14.925 1.79541 14.2109L2.48291 13.0156L3.17041 11.8164C3.5507 11.1531 3.95018 10.5048 4.37354 9.875L5.90479 7.60156C6.36424 6.91843 6.95308 6.37028 7.6665 5.96094L8.854 5.28125L10.0376 4.59766C10.6944 4.22078 11.3582 3.87118 12.0259 3.54688L13.2329 2.96094L14.436 2.375C15.1115 2.04693 15.8191 1.75648 16.5571 1.5L17.8774 1.03906L19.1978 0.582031C19.5638 0.454835 19.8711 0.362334 20.1079 0.3125C20.225 0.28793 20.3461 0.267499 20.4556 0.265625C20.5178 0.264587 20.6429 0.266087 20.772 0.320312L20.9009 0.394531L21.0884 0.539062L21.2759 0.679688C21.219 0.637133 21.1844 0.63359 21.2407 0.648438C21.2811 0.659017 21.3472 0.67364 21.4438 0.6875C21.637 0.715154 21.9179 0.739767 22.2876 0.761719L25.0376 0.925781C25.7521 0.9681 26.4667 0.936533 27.1821 0.832031L28.5571 0.632812L29.9321 0.429688C30.702 0.317113 31.4741 0.254764 32.2446 0.238281L33.6196 0.207031L34.9946 0.179688C35.7728 0.163085 36.5532 0.209835 37.3306 0.324219L40.0806 0.730469C40.8072 0.837319 41.5344 0.894243 42.2603 0.898438L45.0103 0.914062C45.7318 0.918174 46.4556 0.8594 47.1782 0.742188L49.9282 0.296875C50.7426 0.165027 51.5578 0.1947 52.3696 0.382812L53.7446 0.699219L55.1196 1.01953C55.8021 1.17761 56.4819 1.19339 57.1626 1.06641L59.9126 0.550781C60.6811 0.407091 61.4519 0.307778 62.2212 0.253906L63.5962 0.15625L64.9712 0.0625C65.7781 0.00600737 66.5838 0.0851157 67.3853 0.300781L70.1353 1.04297C70.812 1.2252 71.4855 1.24794 72.1587 1.11328L73.5337 0.835938L74.9087 0.5625C75.6959 0.40507 76.4864 0.339125 77.2759 0.367188L78.6509 0.417969L80.0259 0.464844C80.7651 0.491084 81.5055 0.49579 82.2446 0.476562L84.9946 0.40625C85.7498 0.386621 86.5051 0.377306 87.2603 0.382812L88.6353 0.394531L90.0103 0.402344C90.7786 0.407956 91.547 0.455948 92.3149 0.546875L95.0649 0.875C95.7821 0.959931 96.5005 0.972177 97.2173 0.914062L98.5923 0.804688L99.9673 0.691406C100.728 0.629732 101.491 0.594331 102.252 0.585938L105.002 0.554688C105.756 0.54639 106.51 0.551071 107.264 0.5625L110.014 0.601562C110.785 0.613264 111.556 0.675153 112.327 0.785156L115.077 1.17578C115.802 1.27931 116.528 1.32801 117.252 1.32031L118.627 1.30859L120.002 1.29297C120.723 1.28523 121.445 1.21204 122.167 1.07812L124.917 0.570312C125.715 0.422262 126.515 0.395511 127.315 0.492188L128.69 0.660156L130.065 0.824219C130.789 0.911817 131.514 0.942391 132.237 0.914062L134.987 0.804688C135.764 0.774238 136.542 0.809396 137.319 0.910156L140.069 1.26953C140.77 1.36056 141.472 1.34733 142.174 1.23047L143.549 1L144.924 0.773438C145.723 0.640418 146.523 0.626447 147.323 0.734375L148.698 0.921875L150.073 1.10547C150.766 1.19909 151.46 1.17692 152.155 1.03516L154.905 0.472656C155.719 0.30629 156.539 0.304681 157.354 0.464844L160.104 1.00391C160.822 1.14495 161.54 1.21606 162.256 1.21484L165.006 1.20703C165.73 1.20575 166.454 1.14977 167.178 1.03516L168.553 0.816406L169.928 0.601562C170.736 0.473804 171.544 0.488295 172.35 0.644531L175.1 1.17578C175.817 1.31487 176.537 1.3794 177.252 1.37109L180.002 1.33984C180.738 1.33125 181.474 1.29359 182.209 1.22656L184.959 0.976562C185.71 0.908129 186.463 0.842483 187.213 0.777344L189.963 0.535156C190.729 0.468751 191.495 0.440345 192.26 0.449219L193.635 0.464844L195.01 0.484375C195.758 0.493101 196.509 0.494632 197.256 0.492188L200.006 0.484375C200.785 0.481923 201.565 0.547032 202.342 0.679688L205.092 1.14844C205.781 1.26576 206.469 1.25661 207.159 1.12109L208.534 0.851562L209.909 0.578125C210.715 0.419445 211.526 0.405331 212.334 0.53125L215.084 0.960938C215.784 1.06981 216.483 1.06961 217.182 0.964844L218.557 0.757812L219.932 0.554688C220.699 0.439853 221.466 0.364362 222.233 0.328125L224.983 0.195312C225.745 0.159335 226.506 0.15348 227.268 0.171875L228.643 0.203125L230.018 0.238281C230.79 0.256937 231.563 0.324273 232.334 0.445312L233.709 0.664062L235.084 0.878906C235.781 0.988088 236.478 0.984962 237.174 0.867188L238.549 0.632812L239.924 0.402344C240.727 0.266693 241.531 0.261373 242.334 0.390625L243.709 0.613281L245.084 0.832031C245.79 0.945688 246.497 0.966156 247.202 0.886719L249.952 0.574219C250.706 0.489238 251.459 0.415336 252.213 0.351562L253.588 0.234375L254.963 0.121094C255.726 0.0565862 256.49 0.0200638 257.252 0.015625L260.002 0ZM257.26 1.01562C256.524 1.01989 255.786 1.05489 255.049 1.11719L253.674 1.23047L252.299 1.34766C251.554 1.4107 250.806 1.48627 250.061 1.57031L248.686 1.72266L247.311 1.87891C246.516 1.96837 245.722 1.94807 244.928 1.82031L243.553 1.60156L242.178 1.37891C241.482 1.26678 240.785 1.26902 240.088 1.38672L238.713 1.61719L237.338 1.85156C236.536 1.98712 235.731 1.99318 234.928 1.86719L233.553 1.64844L232.178 1.43359C231.45 1.31936 230.722 1.25587 229.995 1.23828L228.62 1.20312L227.245 1.17188C226.507 1.15404 225.768 1.16044 225.03 1.19531L223.655 1.26172L222.28 1.32422C221.547 1.35884 220.814 1.43311 220.081 1.54297L218.706 1.75L217.331 1.95312C216.53 2.07299 215.728 2.06998 214.928 1.94531L213.553 1.73438L212.178 1.51953C211.487 1.4119 210.797 1.42638 210.104 1.5625L207.354 2.10156C206.545 2.26073 205.731 2.27106 204.92 2.13281L202.17 1.66406C201.449 1.54105 200.727 1.48202 200.006 1.48438L197.256 1.49219C196.505 1.49464 195.754 1.49314 195.002 1.48438L193.627 1.46484L192.252 1.44922C191.519 1.44066 190.783 1.47149 190.049 1.53516L188.674 1.65234L187.299 1.77344C186.551 1.8384 185.802 1.90441 185.053 1.97266L182.303 2.22266C181.54 2.29222 180.774 2.33098 180.01 2.33984L177.26 2.37109C176.477 2.38006 175.694 2.30773 174.913 2.15625L172.163 1.625C171.469 1.49061 170.777 1.47647 170.084 1.58594L167.334 2.02344C166.559 2.14608 165.783 2.20571 165.006 2.20703L162.256 2.21484C161.473 2.21612 160.69 2.13789 159.909 1.98438L157.159 1.44531C156.474 1.31098 155.792 1.31351 155.108 1.45312L152.358 2.01562C151.554 2.17983 150.746 2.20645 149.94 2.09766L148.565 1.91016L147.19 1.72656C146.49 1.632 145.789 1.64111 145.088 1.75781L142.338 2.21875C141.541 2.35148 140.742 2.36516 139.944 2.26172L137.194 1.90234C136.471 1.80854 135.748 1.77642 135.026 1.80469L132.276 1.91406C131.5 1.94447 130.724 1.91023 129.948 1.81641L128.573 1.65234L127.198 1.48438C126.499 1.39976 125.797 1.42469 125.096 1.55469L122.346 2.0625C121.569 2.20669 120.789 2.28469 120.01 2.29297L118.635 2.30859L117.26 2.32031C116.485 2.32848 115.71 2.27851 114.936 2.16797L113.561 1.97266L112.186 1.77344C111.457 1.6693 110.727 1.61261 109.999 1.60156L107.249 1.5625C106.503 1.5512 105.756 1.54647 105.01 1.55469L102.26 1.58594C101.522 1.59411 100.783 1.62768 100.045 1.6875L98.6704 1.80078L97.2954 1.91016C96.5127 1.97353 95.7301 1.95982 94.9478 1.86719L93.5728 1.70312L92.1978 1.54297C91.4659 1.45631 90.7339 1.40768 90.0024 1.40234L88.6274 1.39453L87.2524 1.38281C86.5081 1.37739 85.7624 1.38689 85.0181 1.40625L82.2681 1.47656C81.5082 1.4963 80.7466 1.49185 79.9868 1.46484L78.6118 1.41797L77.2368 1.36719C76.527 1.34209 75.816 1.40055 75.104 1.54297L73.729 1.81641L72.354 2.09375C71.5277 2.25894 70.7002 2.22918 69.8774 2.00781L67.1274 1.26562C66.4294 1.07768 65.7341 1.01013 65.0415 1.05859L63.6665 1.15625L62.2915 1.25C61.5614 1.30112 60.831 1.39854 60.1001 1.53516L58.7251 1.78906L57.3501 2.04688C56.5316 2.19991 55.7097 2.18141 54.8931 1.99219L53.5181 1.67578L52.1431 1.35547C51.4556 1.19623 50.7693 1.17406 50.0845 1.28516L47.3345 1.73047C46.5581 1.8563 45.7799 1.91856 45.0024 1.91406L42.2524 1.89844C41.4791 1.89392 40.7047 1.83243 39.9321 1.71875L38.5571 1.51562L37.1821 1.31641C36.4602 1.21024 35.7391 1.16436 35.0181 1.17969L33.6431 1.20703L32.2681 1.23828C31.5395 1.25383 30.8098 1.31531 30.0806 1.42188L28.7056 1.62109L27.3306 1.82422C26.5471 1.93878 25.7595 1.97235 24.9751 1.92578L22.2251 1.76172C21.8457 1.73917 21.5362 1.71302 21.3032 1.67969C21.1871 1.66307 21.0787 1.64123 20.9868 1.61719C20.9122 1.59762 20.7829 1.55828 20.6743 1.47656L20.4868 1.33594L20.4048 1.27344C20.3811 1.27701 20.3513 1.28144 20.3149 1.28906C20.1402 1.32573 19.8794 1.4045 19.5259 1.52734L18.2056 1.98438L16.8853 2.44531C16.1827 2.68949 15.5122 2.96713 14.8735 3.27734L13.6665 3.85938L12.4634 4.44531C11.817 4.75926 11.1747 5.09931 10.5376 5.46484L9.3501 6.14844L8.1626 6.82812C7.58239 7.16121 7.10685 7.60387 6.73291 8.16016L5.97119 9.29688L5.20557 10.4336C4.79574 11.0433 4.40603 11.6699 4.0376 12.3125L2.6626 14.7109C2.32349 15.3028 2.11959 15.9369 2.04932 16.6172L1.90869 17.9961L1.76416 19.3711C1.69064 20.0849 1.69862 20.7983 1.78369 21.5117L2.11182 24.2617C2.20895 25.0761 2.14787 25.8902 1.93213 26.6992L1.19775 29.4492C1.01917 30.1183 1.01361 30.7853 1.17822 31.4531L1.51416 32.8281L1.854 34.2031C2.0558 35.0222 2.07835 35.8464 1.92041 36.668L1.65869 38.043L1.39307 39.418C1.26052 40.1084 1.25445 40.7985 1.37354 41.4883L1.61182 42.8633L1.84619 44.2383C1.98488 45.0425 1.98874 45.8479 1.85791 46.6523L1.4126 49.4023C1.29825 50.1055 1.28582 50.8093 1.37354 51.5117L1.71729 54.2617C1.81547 55.0492 1.81892 55.8373 1.73291 56.625L1.58447 58L1.43213 59.375C1.35139 60.1138 1.29825 60.8551 1.26807 61.5938L1.20947 62.9688L1.15479 64.3438C1.12464 65.082 1.11744 65.8203 1.13525 66.5586L1.17041 67.9336L1.20166 69.3086C1.21912 70.0309 1.29878 70.7567 1.43604 71.4805L1.69385 72.8555L1.95557 74.2305C2.10701 75.0299 2.13431 75.8318 2.0376 76.6328L1.87354 78.0078L1.70557 79.3828C1.61693 80.1172 1.56551 80.8519 1.54541 81.5859L1.46729 84.3359C1.44739 85.0632 1.47856 85.7919 1.55713 86.5195L1.854 89.2695C1.93575 90.0268 1.9992 90.7857 2.04541 91.543L2.12744 92.918L2.21338 94.293C2.26186 95.0899 2.19607 95.8859 2.01807 96.6797L1.40088 99.4297C1.24833 100.109 1.24374 100.79 1.38916 101.469L1.68604 102.844L1.979 104.219C2.15401 105.037 2.15194 105.857 1.9751 106.676L1.38135 109.426C1.23403 110.107 1.23226 110.788 1.37744 111.469L1.96338 114.219C2.12971 114.999 2.22168 115.78 2.23682 116.562L2.2915 119.312C2.30656 120.091 2.25348 120.871 2.13525 121.648L1.92822 123.023L1.71729 124.398C1.61109 125.098 1.61094 125.797 1.71729 126.496L1.92822 127.871L2.13525 129.246C2.25763 130.051 2.24663 130.856 2.1001 131.66L1.8501 133.035L1.59619 134.41C1.46376 135.136 1.38704 135.862 1.36572 136.586L1.2876 139.336C1.26671 140.046 1.32858 140.76 1.4751 141.473L2.0376 144.223C2.20454 145.036 2.21446 145.851 2.06104 146.664L1.79932 148.039L1.5415 149.414C1.408 150.122 1.36618 150.83 1.42041 151.535L1.52588 152.91L1.63525 154.285C1.69346 155.043 1.72896 155.801 1.74854 156.559L1.7876 157.934L1.82275 159.309C1.84242 160.07 1.83455 160.832 1.79932 161.594L1.73291 162.969L1.67041 164.344C1.63584 165.09 1.60784 165.839 1.58838 166.586L1.51807 169.336C1.49815 170.099 1.44956 170.862 1.36963 171.625L1.08057 174.375C1.0073 175.075 1.03824 175.775 1.17432 176.477L1.70557 179.227C1.85931 180.019 1.90952 180.814 1.8501 181.609L1.74463 182.984L1.64307 184.359C1.58917 185.081 1.59708 185.802 1.6665 186.523L1.93213 189.273C2.0074 190.055 2.00778 190.839 1.93213 191.621L1.79541 192.996L1.6626 194.371C1.59081 195.113 1.53777 195.856 1.49854 196.598L1.42432 197.973L1.354 199.348C1.3167 200.053 1.37042 200.76 1.51807 201.469L1.80322 202.844L2.09229 204.219C2.25963 205.021 2.29469 205.828 2.19775 206.633L2.02979 208.008L1.86572 209.383C1.77696 210.12 1.71527 210.857 1.68213 211.594L1.61963 212.969L1.56104 214.344C1.52791 215.081 1.51908 215.818 1.5415 216.555L1.62744 219.305C1.65122 220.084 1.60285 220.866 1.48682 221.645L1.28369 223.02L1.07666 224.395C0.972106 225.096 0.9737 225.799 1.07666 226.5L1.27979 227.875L1.479 229.25C1.59243 230.023 1.65205 230.797 1.65479 231.57L1.6626 234.32C1.66523 235.065 1.6817 235.81 1.70557 236.555L1.7915 239.305C1.81612 240.073 1.79995 240.842 1.74072 241.609L1.63525 242.984L1.52588 244.359C1.46801 245.109 1.41248 245.86 1.354 246.609L1.24463 247.984L1.13916 249.359C1.08444 250.061 1.13141 250.765 1.27979 251.469L1.85791 254.219C2.02375 255.006 2.09632 255.796 2.07666 256.586L2.0415 257.961L2.01025 259.336C1.99202 260.07 2.00788 260.805 2.05713 261.539L2.14697 262.914L2.24072 264.289C2.29352 265.077 2.25441 265.866 2.12744 266.652L1.90479 268.027L1.68604 269.402C1.57143 270.113 1.54301 270.822 1.6001 271.531L1.81885 274.281C1.88298 275.078 1.8354 275.874 1.67822 276.668L1.40869 278.043L1.13525 279.418C0.996675 280.118 0.969462 280.818 1.04932 281.516L1.36182 284.266C1.45069 285.043 1.47416 285.82 1.43213 286.598L1.28369 289.348C1.24353 290.089 1.22266 290.832 1.21729 291.574L1.19385 294.324C1.18864 295.046 1.24609 295.769 1.36182 296.492L1.58057 297.867L1.80322 299.242C1.92589 300.008 2.01073 300.776 2.05713 301.543L2.22119 304.293C2.26982 305.099 2.18487 305.903 1.96729 306.703L1.59229 308.078L1.22119 309.453C1.0344 310.14 0.988429 310.822 1.08057 311.504L1.26416 312.879L1.45166 314.254C1.55467 315.015 1.63091 315.777 1.67822 316.539L1.76025 317.914L1.84619 319.289C1.89433 320.065 1.88296 320.842 1.81104 321.617L1.68604 322.992L1.55713 324.367C1.48832 325.109 1.43856 325.852 1.40869 326.594L1.29932 329.344C1.26967 330.081 1.26552 330.818 1.2915 331.555L1.34229 332.93L1.38916 334.305C1.41551 335.052 1.44868 335.8 1.48682 336.547L1.62744 339.297C1.66723 340.077 1.63359 340.857 1.52979 341.637L1.1626 344.387C1.06846 345.093 1.06994 345.801 1.1626 346.508L1.52197 349.258C1.62449 350.04 1.64901 350.823 1.59619 351.605L1.50244 352.98L1.4126 354.355C1.36489 355.063 1.40791 355.771 1.5415 356.48L2.05713 359.23C2.20457 360.013 2.27057 360.797 2.25244 361.582L2.18994 364.332C2.17171 365.117 2.06757 365.901 1.88525 366.684L1.24463 369.434C1.08704 370.109 1.08868 370.785 1.24463 371.461L1.87744 374.211C2.06394 375.02 2.09908 375.833 1.98291 376.645L1.59229 379.395C1.492 380.096 1.49241 380.798 1.59619 381.5L2.00244 384.25C2.1168 385.024 2.17529 385.8 2.17432 386.574L2.17041 387.949V389.324C2.16934 390.101 2.1036 390.877 1.9751 391.652L1.74463 393.027L1.51807 394.402C1.398 395.126 1.33538 395.851 1.33057 396.574L1.31494 399.324C1.31005 400.067 1.31714 400.812 1.34229 401.555L1.43604 404.305C1.46077 405.036 1.52676 405.769 1.63525 406.5L1.84229 407.875L2.04541 409.25C2.16399 410.051 2.15756 410.852 2.02588 411.652L1.57275 414.402C1.45411 415.123 1.40012 415.843 1.4126 416.562L1.45947 419.312C1.47233 420.051 1.51011 420.792 1.57275 421.531L1.80713 424.281C1.87133 425.039 1.91631 425.797 1.94385 426.555L2.04541 429.305C2.0731 430.067 2.07212 430.831 2.0415 431.594L1.98682 432.969L1.92822 434.344C1.89764 435.104 1.84255 435.865 1.76025 436.625L1.46338 439.375C1.3848 440.101 1.35649 440.834 1.38135 441.574L1.42822 442.977L1.4751 444.375C1.49811 445.058 1.67583 445.696 2.01025 446.293L2.69775 447.516L3.38135 448.738C3.74712 449.391 4.1368 450.012 4.54932 450.598L5.32666 451.695L6.1001 452.797C6.51559 453.387 6.9581 453.971 7.42822 454.547L8.30322 455.617L9.18213 456.691C9.62023 457.227 10.1416 457.671 10.7524 458.02L11.9712 458.711L13.1899 459.406C13.7872 459.747 14.4244 459.936 15.1079 459.977L17.897 460.141C18.6578 460.186 19.4113 460.233 20.1548 460.277L21.5181 460.355L22.8813 460.438C23.6372 460.482 24.3969 460.557 25.1587 460.66L26.5337 460.848L27.9087 461.031C28.617 461.127 29.3257 461.134 30.0337 461.051L32.7837 460.73C33.5505 460.641 34.3173 460.59 35.0845 460.582L36.4595 460.566L37.8345 460.555C38.572 460.547 39.3116 460.512 40.0493 460.449L42.7993 460.215C43.5707 460.149 44.3441 460.136 45.1157 460.172L47.8657 460.297C48.5985 460.331 49.3321 460.328 50.0649 460.289L51.4399 460.219L52.8149 460.145C53.5715 460.104 54.3279 460.08 55.0845 460.07L56.4595 460.051L57.8345 460.035C58.6135 460.026 59.3925 460.082 60.1704 460.207L62.9204 460.652C63.6396 460.768 64.3587 460.814 65.0767 460.793L66.4517 460.754L67.8267 460.711C68.5622 460.689 69.2979 460.639 70.0337 460.555L71.4087 460.395L72.7837 460.238C73.5713 460.148 74.3594 460.145 75.147 460.234L77.897 460.547C78.6192 460.629 79.3431 460.653 80.0649 460.613L81.4399 460.535L82.8149 460.461C83.5775 460.419 84.3414 460.407 85.104 460.426L86.479 460.457L87.854 460.492C88.6251 460.511 89.3962 460.577 90.1665 460.695L91.5415 460.91L92.9165 461.121C93.6415 461.233 94.3682 461.29 95.0923 461.289L96.4673 461.285H97.8423C98.5484 461.285 99.2572 461.195 99.9673 461.012L101.342 460.656L102.717 460.305C103.531 460.095 104.349 460.05 105.167 460.176L106.542 460.387L107.917 460.602C108.641 460.713 109.365 460.765 110.088 460.762L111.463 460.758L112.838 460.75C113.595 460.747 114.351 460.758 115.108 460.785L117.858 460.887C118.57 460.913 119.284 460.86 119.999 460.727L121.374 460.469L122.749 460.215C123.531 460.069 124.316 460.002 125.1 460.016L127.85 460.062C128.607 460.076 129.363 460.104 130.12 460.148L132.87 460.312C133.639 460.358 134.409 460.446 135.178 460.582L136.553 460.828L137.928 461.07C138.643 461.197 139.359 461.247 140.073 461.219L142.823 461.109C143.588 461.08 144.354 461.09 145.12 461.137L146.495 461.219L147.87 461.305C148.586 461.348 149.305 461.318 150.022 461.219L151.397 461.031L152.772 460.84C153.542 460.733 154.314 460.674 155.084 460.664L156.459 460.648L157.834 460.629C158.596 460.619 159.358 460.641 160.12 460.688L161.495 460.77L162.87 460.855C163.619 460.901 164.37 460.947 165.12 460.992L167.87 461.156C168.596 461.2 169.323 461.193 170.049 461.133L172.799 460.906C173.571 460.843 174.344 460.831 175.116 460.871L176.491 460.941L177.866 461.016C178.581 461.053 179.298 461.015 180.014 460.902L181.389 460.684L182.764 460.469C183.542 460.346 184.321 460.288 185.1 460.301L187.85 460.348C188.6 460.36 189.35 460.374 190.1 460.387L192.85 460.434C193.614 460.446 194.379 460.494 195.143 460.574L196.518 460.715L197.893 460.859C198.63 460.937 199.367 460.985 200.104 461.004L201.479 461.043L202.854 461.078C203.603 461.098 204.355 461.115 205.104 461.133L206.479 461.168L207.854 461.199C208.569 461.216 209.286 461.161 210.002 461.031L212.752 460.531C213.562 460.385 214.373 460.39 215.182 460.543L217.932 461.066C218.656 461.204 219.382 461.28 220.104 461.297L221.479 461.328L222.854 461.363C223.567 461.38 224.28 461.32 224.995 461.184L226.37 460.918L227.745 460.656C228.528 460.506 229.315 460.437 230.1 460.453L232.85 460.508C233.587 460.523 234.324 460.508 235.061 460.465L237.811 460.301C238.576 460.256 239.343 460.246 240.108 460.27L242.858 460.355C243.627 460.379 244.398 460.45 245.167 460.566L247.917 460.98C248.646 461.091 249.375 461.158 250.104 461.18L251.479 461.223L252.854 461.262C253.599 461.284 254.347 461.299 255.092 461.301H256.467L257.842 461.305C258.56 461.306 259.279 461.239 259.999 461.102L262.749 460.578C263.53 460.429 264.313 460.359 265.096 460.367L267.846 460.398C268.614 460.407 269.383 460.456 270.151 460.547L271.526 460.711L272.901 460.871C273.602 460.954 274.304 460.936 275.006 460.816L277.756 460.348C278.551 460.213 279.347 460.187 280.143 460.27L281.518 460.414L282.893 460.555C283.624 460.631 284.354 460.666 285.084 460.656L286.459 460.637L287.834 460.621C288.608 460.611 289.382 460.652 290.155 460.75L291.53 460.926L292.905 461.098C293.634 461.19 294.363 461.239 295.092 461.242L296.467 461.246L297.842 461.254C298.584 461.257 299.327 461.24 300.069 461.207L302.819 461.082C303.575 461.048 304.332 461.033 305.088 461.031L307.838 461.023C308.568 461.022 309.3 460.976 310.03 460.887L312.78 460.551C313.577 460.453 314.374 460.466 315.17 460.594L316.545 460.816L317.92 461.035C318.64 461.15 319.358 461.199 320.077 461.18L322.827 461.109C323.566 461.09 324.306 461.046 325.045 460.98L326.42 460.855L327.795 460.734C328.545 460.667 329.296 460.6 330.045 460.531L331.42 460.402L332.795 460.277C333.581 460.205 334.366 460.213 335.151 460.309L337.901 460.645C338.631 460.734 339.362 460.782 340.092 460.785L341.467 460.789L342.842 460.797C343.571 460.8 344.3 460.753 345.03 460.664L347.78 460.328C348.588 460.229 349.396 460.276 350.202 460.461L352.952 461.094C353.629 461.25 354.306 461.253 354.983 461.102L356.358 460.797L357.733 460.488C358.51 460.315 359.29 460.209 360.069 460.172L361.444 460.109L362.819 460.043C363.616 460.005 364.412 460.083 365.206 460.273L366.581 460.602L367.956 460.934C368.646 461.099 369.335 461.132 370.022 461.035L371.397 460.844L372.772 460.648C373.537 460.541 374.303 460.471 375.069 460.438L376.444 460.375L377.819 460.316C378.587 460.282 379.356 460.29 380.124 460.34L381.499 460.426L382.874 460.516C383.626 460.564 384.379 460.617 385.131 460.676L386.506 460.785L387.881 460.891C388.619 460.949 389.358 460.982 390.096 460.988L392.846 461.012C393.597 461.018 394.349 461.027 395.1 461.039L396.475 461.059L397.85 461.082C398.575 461.093 399.3 461.048 400.026 460.953L402.776 460.594C403.54 460.494 404.304 460.429 405.069 460.398L407.819 460.289C408.581 460.259 409.346 460.255 410.108 460.281L412.858 460.375C413.629 460.401 414.4 460.475 415.17 460.598L416.545 460.82L417.92 461.039C418.647 461.155 419.374 461.219 420.1 461.23L421.475 461.25L422.85 461.273C423.58 461.285 424.311 461.256 425.042 461.184L427.792 460.91C428.569 460.833 429.349 460.824 430.127 460.879L431.502 460.977L432.877 461.07C433.578 461.119 434.279 461.069 434.983 460.914L436.358 460.609L437.733 460.309C438.546 460.13 439.363 460.111 440.178 460.254L442.928 460.738C443.639 460.863 444.348 460.902 445.057 460.855L446.432 460.766L447.807 460.672C448.549 460.623 449.292 460.56 450.034 460.477L452.784 460.164C453.566 460.076 454.349 460.065 455.131 460.129L456.506 460.238L457.881 460.352C458.636 460.413 459.392 460.483 460.147 460.566L462.897 460.871C463.62 460.951 464.342 460.973 465.065 460.938L466.44 460.871L467.815 460.801C468.584 460.763 469.354 460.77 470.124 460.82L472.874 461C473.619 461.049 474.366 461.091 475.112 461.121L476.487 461.176L477.862 461.234C478.596 461.264 479.331 461.262 480.065 461.227L482.815 461.094C483.581 461.057 484.35 461.053 485.116 461.09L487.866 461.223C488.61 461.258 489.355 461.284 490.1 461.297L492.85 461.344C493.551 461.356 494.254 461.27 494.959 461.078L497.709 460.328C498.534 460.104 499.369 460.077 500.206 460.246L501.6 460.527L502.991 460.809C503.657 460.943 504.293 460.889 504.909 460.645L506.209 460.125L507.506 459.609C508.176 459.343 508.792 459.003 509.354 458.59L511.542 456.98C512.155 456.53 512.808 456.111 513.495 455.719L514.725 455.016L515.952 454.312C516.524 453.986 516.923 453.526 517.159 452.918L517.667 451.605L518.178 450.293C518.457 449.573 518.74 448.863 519.03 448.168L519.561 446.902L520.088 445.637C520.349 445.012 520.468 444.36 520.448 443.68L520.409 442.301L520.366 440.922C520.343 440.151 520.365 439.379 520.432 438.609L520.553 437.234L520.67 435.859C520.735 435.115 520.79 434.37 520.831 433.625L520.979 430.875C521.018 430.163 520.977 429.451 520.854 428.738L520.62 427.363L520.381 425.988C520.314 425.599 520.266 425.21 520.233 424.82L520.186 423.652L520.19 422.277L520.198 420.902C520.201 420.137 520.238 419.37 520.311 418.605L520.577 415.855L520.917 412.23L521.049 410.855C521.116 410.153 521.083 409.45 520.952 408.746L520.436 405.996C520.284 405.184 520.288 404.367 520.448 403.555L520.721 402.18L520.991 400.805C521.131 400.09 521.195 399.377 521.178 398.664L521.147 397.289L521.112 395.914C521.095 395.189 521.026 394.464 520.901 393.738L520.663 392.363L520.428 390.988C520.291 390.19 520.273 389.389 520.374 388.59L520.545 387.215L520.721 385.84C520.81 385.138 520.794 384.437 520.678 383.734L520.452 382.359L520.229 380.984C520.1 380.201 520.052 379.417 520.084 378.633L520.139 377.258L520.198 375.883C520.23 375.122 520.287 374.359 520.37 373.598L520.518 372.223L520.67 370.848C520.749 370.127 520.763 369.407 520.713 368.688L520.616 367.312L520.522 365.938C520.469 365.175 520.447 364.411 520.456 363.648L520.487 360.898C520.495 360.124 520.562 359.348 520.686 358.574L520.909 357.199L521.127 355.824C521.243 355.108 521.288 354.391 521.256 353.676L521.131 350.926C521.099 350.195 521.025 349.462 520.909 348.73L520.471 345.98C520.346 345.192 520.315 344.403 520.377 343.613L520.596 340.863C520.656 340.109 520.725 339.352 520.807 338.598L520.956 337.223L521.108 335.848C521.186 335.129 521.197 334.41 521.143 333.691L520.94 330.941C520.883 330.178 520.857 329.412 520.862 328.648L520.877 325.898C520.882 325.159 520.865 324.419 520.827 323.68L520.686 320.93C520.648 320.187 520.597 319.442 520.53 318.699L520.28 315.949C520.21 315.169 520.213 314.386 520.288 313.605L520.42 312.23L520.549 310.855C520.62 310.113 520.673 309.371 520.709 308.629L520.78 307.254L520.846 305.879C520.881 305.168 520.836 304.455 520.709 303.742L520.463 302.367L520.221 300.992C520.08 300.199 520.042 299.401 520.116 298.605L520.374 295.855C520.443 295.104 520.518 294.353 520.596 293.602L520.741 292.227L520.881 290.852C520.955 290.142 520.945 289.433 520.846 288.723L520.655 287.348L520.459 285.973C520.347 285.17 520.365 284.364 520.51 283.562L521.01 280.812C521.133 280.135 521.107 279.458 520.932 278.777L520.577 277.402L520.225 276.027C520.021 275.234 519.928 274.438 519.948 273.641L519.979 272.266L520.014 270.891C520.033 270.107 520.133 269.324 520.311 268.543L520.936 265.793C521.095 265.095 521.14 264.398 521.073 263.703L520.94 262.328L520.803 260.953C520.727 260.166 520.741 259.377 520.842 258.59L521.194 255.84C521.287 255.12 521.316 254.399 521.28 253.68L521.139 250.93C521.102 250.207 521.007 249.482 520.85 248.758L520.553 247.383L520.252 246.008C520.081 245.218 520.015 244.426 520.049 243.633L520.167 240.883C520.2 240.115 520.278 239.346 520.397 238.578L520.612 237.203L520.823 235.828C520.933 235.118 520.957 234.408 520.893 233.699L520.643 230.949C520.571 230.158 520.6 229.365 520.725 228.574L520.944 227.199L521.159 225.824C521.27 225.124 521.276 224.426 521.174 223.727L520.776 220.977C520.662 220.191 520.63 219.403 520.686 218.617L520.881 215.867C520.931 215.158 520.896 214.449 520.776 213.738L520.307 210.988C520.173 210.195 520.144 209.4 520.221 208.605L520.354 207.23L520.491 205.855C520.563 205.106 520.634 204.355 520.706 203.605L520.838 202.23L520.967 200.855C521.038 200.114 521.093 199.371 521.127 198.629L521.252 195.879C521.286 195.141 521.297 194.402 521.28 193.664L521.245 192.289L521.213 190.914C521.196 190.198 521.109 189.48 520.952 188.762L520.651 187.387L520.354 186.012C520.176 185.199 520.158 184.381 520.303 183.566L520.795 180.816C520.921 180.113 520.944 179.409 520.87 178.707L520.725 177.332L520.577 175.957C520.495 175.193 520.448 174.428 520.432 173.664L520.405 172.289L520.374 170.914C520.358 170.138 520.406 169.361 520.514 168.586L520.897 165.836C520.998 165.112 521.04 164.387 521.026 163.664L520.999 162.289L520.975 160.914C520.961 160.193 520.884 159.468 520.745 158.746L520.213 155.996C520.06 155.203 520.015 154.408 520.081 153.613L520.307 150.863C520.37 150.099 520.469 149.334 520.6 148.57L520.834 147.195L521.073 145.82C521.192 145.126 521.189 144.432 521.069 143.738L520.834 142.363L520.596 140.988C520.463 140.217 520.381 139.444 520.35 138.672L520.241 135.922C520.211 135.167 520.193 134.411 520.186 133.656L520.174 132.281L520.159 130.906C520.151 130.116 520.239 129.326 520.42 128.539L520.741 127.164L521.057 125.789C521.217 125.093 521.26 124.4 521.186 123.707L520.889 120.957C520.805 120.175 520.796 119.391 520.862 118.609L521.096 115.859C521.158 115.122 521.191 114.385 521.198 113.648L521.209 112.273L521.225 110.898C521.232 110.178 521.177 109.456 521.061 108.734L520.838 107.359L520.62 105.984C520.497 105.224 520.396 104.46 520.323 103.699L520.057 100.949C519.982 100.171 519.978 99.3919 520.042 98.6133L520.151 97.2383L520.264 95.8633C520.325 95.1165 520.378 94.3678 520.424 93.6211L520.51 92.2461L520.592 90.8711C520.637 90.1465 520.629 89.4201 520.565 88.6953L520.444 87.3203L520.319 85.9453C520.249 85.1552 520.278 84.3633 520.401 83.5742L520.831 80.8242C520.941 80.1144 520.967 79.4042 520.905 78.6953L520.663 75.9453C520.596 75.1878 520.551 74.4295 520.522 73.6719L520.413 70.9219C520.384 70.1738 520.352 69.4238 520.315 68.6758L520.249 67.3008L520.178 65.9258C520.141 65.1589 520.143 64.3918 520.186 63.625L520.342 60.875C520.386 60.1037 520.48 59.3328 520.624 58.5625L521.139 55.8125C521.272 55.1009 521.319 54.3895 521.284 53.6797L521.213 52.3047L521.147 50.9297C521.109 50.164 521.105 49.3946 521.139 48.6289L521.264 45.8789C521.296 45.1702 521.24 44.4608 521.1 43.75L520.831 42.375L520.557 41C520.406 40.2322 520.296 39.464 520.233 38.6953L520.12 37.3203L520.01 35.9453C519.944 35.1376 520.014 34.3299 520.225 33.5273L520.588 32.1523L520.948 30.7773C521.133 30.0721 521.218 29.3685 521.198 28.668L521.155 27.293L521.116 25.918C521.094 25.1619 521.087 24.4023 521.092 23.6406L521.1 22.2539L521.112 20.8711C521.117 20.1675 521.013 19.4763 520.803 18.7969L520.389 17.4609L519.979 16.125C519.763 15.4278 519.484 14.7675 519.143 14.1445L518.491 12.9492L517.834 11.75C517.49 11.1201 517.099 10.5206 516.663 9.95312L515.834 8.875L515.002 7.79688C514.571 7.23591 514.082 6.71801 513.534 6.24609L512.483 5.34375L511.432 4.4375C510.909 3.98695 510.32 3.65331 509.663 3.4375L507.022 2.57031C506.317 2.33895 505.6 2.13993 504.87 1.97266L503.502 1.66016L502.139 1.34766C501.433 1.18573 500.723 1.10882 500.014 1.11719L497.264 1.14844C496.523 1.15734 495.779 1.18514 495.038 1.23047L493.663 1.31641L492.288 1.39844C491.512 1.44588 490.735 1.43254 489.959 1.35938L487.209 1.10156C486.498 1.03442 485.785 1.04818 485.073 1.14453L482.323 1.51953C481.555 1.62329 480.786 1.68245 480.018 1.70312L478.643 1.74219L477.268 1.77734C476.53 1.79726 475.792 1.84424 475.053 1.91406L472.303 2.17188C471.539 2.24415 470.775 2.28517 470.01 2.28906L468.635 2.29297L467.26 2.30078C466.507 2.30457 465.752 2.30065 464.999 2.28906L463.624 2.26953L462.249 2.24609C461.465 2.23403 460.682 2.14227 459.901 1.97266L457.151 1.37891C456.444 1.22546 455.738 1.16755 455.034 1.20703L453.659 1.28516L452.284 1.35938C451.545 1.40078 450.807 1.47055 450.069 1.5625L448.694 1.73438L447.319 1.90234C446.546 1.99859 445.772 2.04149 444.999 2.02734L443.624 2L442.249 1.97656C441.485 1.96253 440.719 1.91652 439.956 1.83594L438.581 1.6875L437.206 1.54297C436.493 1.46775 435.778 1.47567 435.065 1.5625L432.315 1.89844C431.546 1.99208 430.776 2.03898 430.006 2.03906H427.256C426.476 2.03914 425.696 1.96677 424.917 1.82422L423.542 1.57031L422.167 1.32031C421.486 1.19585 420.806 1.21726 420.124 1.38281L417.374 2.04688C416.573 2.24104 415.768 2.30611 414.963 2.23828L413.588 2.12109L412.213 2.00781C411.45 1.94347 410.687 1.84735 409.924 1.71875L408.549 1.48438L407.174 1.25391C406.472 1.13548 405.77 1.11968 405.069 1.20703L402.319 1.55078C401.525 1.64974 400.73 1.64301 399.936 1.53125L398.561 1.33594L397.186 1.14453C396.507 1.049 395.828 1.09509 395.143 1.28906L392.393 2.07031C391.592 2.29733 390.786 2.38953 389.979 2.34375L388.604 2.26562L387.229 2.18359C386.465 2.14013 385.7 2.06456 384.936 1.95312L383.561 1.75391L382.186 1.55078C381.45 1.44327 380.711 1.36686 379.975 1.32031L377.225 1.14844C376.518 1.10373 375.809 1.14526 375.1 1.28125L373.725 1.54688L372.35 1.80859C371.558 1.96042 370.765 2.00925 369.971 1.95312L368.596 1.85547L367.221 1.76172C366.476 1.70901 365.729 1.66575 364.983 1.63281L363.608 1.57031L362.233 1.51172C361.505 1.47963 360.777 1.49491 360.049 1.55859L358.674 1.67578L357.299 1.79688C356.536 1.86369 355.77 1.90007 355.006 1.90234L352.256 1.91016C351.495 1.91238 350.732 1.88691 349.971 1.83594L348.596 1.74609L347.221 1.65234C346.493 1.60367 345.766 1.60336 345.038 1.64844L343.663 1.73047L342.288 1.81641C341.512 1.86444 340.735 1.85233 339.959 1.78125L337.209 1.53125C336.467 1.46324 335.725 1.41295 334.983 1.37891L333.608 1.3125L332.233 1.25C331.523 1.21747 330.812 1.26795 330.1 1.40234L328.725 1.66406L327.35 1.92188C326.555 2.07203 325.756 2.11146 324.959 2.03906L322.209 1.78906C321.457 1.72069 320.704 1.64804 319.952 1.56641L318.577 1.41797L317.202 1.26562C316.467 1.18596 315.733 1.14142 314.999 1.12891L312.249 1.08203C311.511 1.06948 310.772 1.0835 310.034 1.125L307.284 1.28125C306.515 1.32446 305.744 1.32249 304.975 1.27734L303.6 1.19531L302.225 1.11719C301.522 1.07606 300.818 1.12805 300.112 1.27734L298.737 1.57031L297.362 1.85938C296.586 2.02363 295.807 2.12501 295.03 2.16016L292.28 2.28516C291.493 2.32068 290.706 2.26639 289.92 2.12891L288.545 1.89062L287.17 1.64844C286.443 1.52116 285.717 1.44331 284.991 1.41797L282.241 1.32422C281.525 1.29931 280.806 1.34787 280.088 1.46875L277.338 1.92969C276.533 2.06541 275.726 2.06351 274.92 1.92188L272.17 1.4375C271.478 1.31564 270.785 1.31438 270.092 1.43359L267.342 1.91016C266.527 2.05057 265.71 2.02925 264.897 1.84766L263.522 1.53906L262.147 1.23438C261.433 1.07494 260.721 0.995964 260.01 1L257.26 1.01562Z" fill="#3F2D2A"/>
</svg>
