<svg width="349" height="446" viewBox="0 0 349 446" fill="none" xmlns="http://www.w3.org/2000/svg">
<path d="M1.1709 21.1953C1.1709 10.1496 10.1252 1.19531 21.1709 1.19531H327.171C338.217 1.19531 347.171 10.1496 347.171 21.1953V424.195C347.171 435.241 338.217 444.195 327.171 444.195H21.1709C10.1252 444.195 1.1709 435.241 1.1709 424.195V21.1953Z" fill="#FFFDF8"/>
<path d="M346.327 92.6523V89.9023C346.327 89.1219 346.399 88.3414 346.542 87.5625L346.796 86.1875L347.046 84.8125C347.17 84.1325 347.149 83.4521 346.983 82.7695L346.319 80.0195C346.125 79.2189 346.06 78.414 346.128 77.6094L346.245 76.2344L346.358 74.8594C346.423 74.0962 346.519 73.3331 346.647 72.5703L346.882 71.1953L347.112 69.8203C347.231 69.1179 347.247 68.4163 347.159 67.7148L346.815 64.9648C346.717 64.1711 346.723 63.3755 346.835 62.582L347.03 61.207L347.222 59.832C347.317 59.1534 347.271 58.4737 347.077 57.7891L346.296 55.0391C346.069 54.2379 345.977 53.4323 346.022 52.625L346.101 51.25L346.183 49.875C346.226 49.1106 346.302 48.3461 346.413 47.582L346.612 46.207L346.815 44.832C346.923 44.0954 346.999 43.3574 347.046 42.6211L347.218 39.8711C347.262 39.164 347.221 38.4552 347.085 37.7461L346.819 36.3711L346.558 34.9961C346.406 34.2044 346.357 33.4109 346.413 32.6172L346.511 31.2422L346.604 29.8672C346.657 29.1224 346.7 28.3776 346.733 27.6328L346.796 26.2578L346.854 24.8828C346.886 24.16 346.864 23.4374 346.78 22.7188L346.46 19.9844C346.375 19.2602 346.246 18.5473 346.069 17.8516L345.733 16.5391L345.401 15.2227C345.227 14.535 344.99 13.8634 344.69 13.2109L343.55 10.7188C343.264 10.0967 342.873 9.55142 342.378 9.07812L341.386 8.12891L340.397 7.18359C339.868 6.67771 339.312 6.19371 338.733 5.73828L337.651 4.88672L336.565 4.03516C336.014 3.60132 335.407 3.25405 334.741 2.99609L333.437 2.48828L332.132 1.98438C331.495 1.73759 330.837 1.65018 330.155 1.72266L327.366 2.01953C326.573 2.10393 325.782 2.11023 324.999 2.03906L322.249 1.78906C321.497 1.72069 320.744 1.64804 319.991 1.56641L318.616 1.41797L317.241 1.26562C316.507 1.18596 315.772 1.14142 315.038 1.12891L312.288 1.08203C311.55 1.06948 310.811 1.0835 310.073 1.125L307.323 1.28125C306.554 1.32446 305.783 1.32249 305.015 1.27734L303.64 1.19531L302.265 1.11719C301.561 1.07606 300.857 1.12805 300.151 1.27734L298.776 1.57031L297.401 1.85938C296.626 2.02363 295.847 2.12501 295.069 2.16016L292.319 2.28516C291.532 2.32068 290.745 2.26639 289.96 2.12891L288.585 1.89062L287.21 1.64844C286.483 1.52116 285.756 1.4433 285.03 1.41797L282.28 1.32422C281.564 1.29931 280.845 1.34787 280.128 1.46875L277.378 1.92969C276.572 2.06541 275.766 2.06351 274.96 1.92188L272.21 1.4375C271.517 1.31563 270.825 1.31438 270.132 1.43359L267.382 1.91016C266.567 2.05057 265.75 2.02925 264.937 1.84766L263.562 1.53906L262.187 1.23438C261.473 1.07494 260.761 0.995964 260.05 1L257.3 1.01562C256.563 1.01989 255.826 1.05489 255.089 1.11719L253.714 1.23047L252.339 1.34766C251.594 1.4107 250.846 1.48627 250.101 1.57031L248.726 1.72266L247.351 1.87891C246.556 1.96837 245.761 1.94807 244.968 1.82031L243.593 1.60156L242.218 1.37891C241.522 1.26678 240.824 1.26902 240.128 1.38672L238.753 1.61719L237.378 1.85156C236.575 1.98712 235.771 1.99318 234.968 1.86719L233.593 1.64844L232.218 1.43359C231.49 1.31936 230.762 1.25587 230.034 1.23828L228.659 1.20312L227.284 1.17188C226.546 1.15404 225.807 1.16044 225.069 1.19531L223.694 1.26172L222.319 1.32422C221.586 1.35884 220.854 1.43311 220.12 1.54297L218.745 1.75L217.37 1.95312C216.57 2.07299 215.768 2.06998 214.968 1.94531L213.593 1.73438L212.218 1.51953C211.526 1.4119 210.836 1.42638 210.144 1.5625L207.394 2.10156C206.584 2.26073 205.77 2.27106 204.96 2.13281L202.21 1.66406C201.488 1.54105 200.766 1.48202 200.046 1.48438L197.296 1.49219C196.545 1.49464 195.793 1.49314 195.042 1.48438L193.667 1.46484L192.292 1.44922C191.558 1.44066 190.823 1.47149 190.089 1.53516L188.714 1.65234L187.339 1.77344C186.59 1.8384 185.841 1.90441 185.093 1.97266L182.343 2.22266C181.58 2.29222 180.813 2.33098 180.05 2.33984L177.3 2.37109C176.516 2.38006 175.734 2.30773 174.952 2.15625L172.202 1.625C171.509 1.49061 170.816 1.47647 170.124 1.58594L167.374 2.02344C166.599 2.14608 165.822 2.20571 165.046 2.20703L162.296 2.21484C161.513 2.21612 160.729 2.13789 159.948 1.98438L157.198 1.44531C156.514 1.31098 155.832 1.31351 155.147 1.45312L152.397 2.01562C151.593 2.17983 150.786 2.20645 149.979 2.09766L148.604 1.91016L147.229 1.72656C146.529 1.632 145.829 1.64111 145.128 1.75781L142.378 2.21875C141.581 2.35148 140.782 2.36516 139.983 2.26172L137.233 1.90234C136.511 1.80854 135.787 1.77642 135.065 1.80469L132.315 1.91406C131.539 1.94447 130.763 1.91023 129.987 1.81641L128.612 1.65234L127.237 1.48438C126.538 1.39976 125.836 1.42469 125.136 1.55469L122.386 2.0625C121.608 2.20669 120.829 2.28469 120.05 2.29297L118.675 2.30859L117.3 2.32031C116.525 2.32848 115.75 2.27851 114.976 2.16797L113.601 1.97266L112.226 1.77344C111.496 1.6693 110.767 1.61261 110.038 1.60156L107.288 1.5625C106.543 1.5512 105.795 1.54647 105.05 1.55469L102.3 1.58594C101.562 1.59411 100.823 1.62768 100.085 1.6875L98.71 1.80078L97.335 1.91016C96.5523 1.97353 95.7696 1.95982 94.9873 1.86719L93.6123 1.70312L92.2373 1.54297C91.5055 1.45631 90.7734 1.40768 90.042 1.40234L88.667 1.39453L87.292 1.38281C86.5476 1.37739 85.802 1.38689 85.0576 1.40625L82.3076 1.47656C81.5478 1.4963 80.7862 1.49185 80.0264 1.46484L78.6514 1.41797L77.2764 1.36719C76.5665 1.34209 75.8556 1.40055 75.1436 1.54297L73.7686 1.81641L72.3936 2.09375C71.5673 2.25894 70.7397 2.22918 69.917 2.00781L67.167 1.26562C66.469 1.07768 65.7737 1.01013 65.0811 1.05859L63.7061 1.15625L62.3311 1.25C61.601 1.30112 60.8706 1.39854 60.1396 1.53516L58.7646 1.78906L57.3896 2.04688C56.5712 2.19991 55.7492 2.18141 54.9326 1.99219L53.5576 1.67578L52.1826 1.35547C51.4952 1.19623 50.8089 1.17406 50.124 1.28516L47.374 1.73047C46.5976 1.8563 45.8195 1.91856 45.042 1.91406L42.292 1.89844C41.5187 1.89392 40.7442 1.83243 39.9717 1.71875L38.5967 1.51562L37.2217 1.31641C36.4997 1.21024 35.7787 1.16436 35.0576 1.17969L33.6826 1.20703L32.3076 1.23828C31.579 1.25383 30.8494 1.31531 30.1201 1.42188L28.7451 1.62109L27.3701 1.82422C26.5867 1.93878 25.799 1.97235 25.0146 1.92578L22.2646 1.76172C21.8864 1.73923 21.5811 1.70861 21.3623 1.66797C21.2572 1.64837 21.1384 1.62229 21.0381 1.57812C20.9891 1.5565 20.913 1.51579 20.8428 1.44922C20.8049 1.41308 20.7597 1.36101 20.7256 1.29297C20.6763 1.31232 20.6199 1.33122 20.5615 1.35547L18.6084 2.16797C18.0314 2.40779 17.3551 2.58674 16.5889 2.71484L13.8779 3.16797C13.2281 3.27659 12.6566 3.54478 12.1553 3.97266L11.1084 4.86328L10.0654 5.75781C9.50755 6.234 8.98285 6.72884 8.49121 7.24219L7.56543 8.20703L6.64355 9.16797C6.15078 9.6825 5.67335 10.229 5.20996 10.8047L3.47559 12.9609C3.04678 13.494 2.74091 14.0913 2.55762 14.7578L2.18652 16.1016L1.81934 17.4453C1.62982 18.135 1.53311 18.8362 1.53027 19.5469L1.52637 20.9297L1.51855 22.3164C1.51568 23.0463 1.56729 23.7752 1.6748 24.5L1.88184 25.875L2.08496 27.25C2.20353 28.0506 2.19711 28.8522 2.06543 29.6523L1.6123 32.4023C1.49366 33.1228 1.43966 33.8432 1.45215 34.5625L1.49902 37.3125C1.51188 38.0513 1.54966 38.7924 1.6123 39.5312L1.84668 42.2812C1.91087 43.0387 1.95586 43.7972 1.9834 44.5547L2.08496 47.3047C2.11265 48.0671 2.11167 48.8314 2.08105 49.5938L2.02637 50.9688L1.96777 52.3438C1.93719 53.1042 1.8821 53.8647 1.7998 54.625L1.50293 57.375C1.42263 58.1167 1.362 58.86 1.31934 59.6016L1.2373 60.9766L1.15918 62.3516C1.11839 63.0619 1.16194 63.7725 1.28809 64.4844L1.53027 65.8594L1.77637 67.2344C1.91353 68.0084 1.99157 68.7834 2.01074 69.5586L2.04199 70.9336L2.07715 72.3086C2.0964 73.0885 2.04458 73.8696 1.9248 74.6484L1.50293 77.3984C1.3906 78.1291 1.32157 78.8599 1.2959 79.5898L1.24902 80.9648L1.19824 82.3398C1.17316 83.0539 1.22416 83.7687 1.35059 84.4844L1.59277 85.8594L1.83887 87.2344C1.97744 88.0185 2.03133 88.8042 2.00293 89.5898L1.95215 90.9648L1.90527 92.3398C1.87757 93.1064 1.8097 93.8745 1.70605 94.6406L1.51855 96.0156L1.33496 97.3906C1.23931 98.0987 1.23259 98.8079 1.31543 99.5156L1.63574 102.266C1.72544 103.032 1.77624 103.799 1.78418 104.566L1.7998 105.941L1.81152 107.316C1.81915 108.054 1.85439 108.794 1.91699 109.531L2.15137 112.281C2.2167 113.052 2.23009 113.823 2.19434 114.594L2.06934 117.344C2.03527 118.077 2.03786 118.814 2.07715 119.547L2.14746 120.922L2.22168 122.297C2.26217 123.053 2.28656 123.81 2.2959 124.566L2.31543 125.941L2.33105 127.316C2.34062 128.095 2.28433 128.875 2.15918 129.652L1.71387 132.402C1.59827 133.121 1.55232 133.841 1.57324 134.559L1.6123 135.934L1.65527 137.309C1.67675 138.044 1.72704 138.78 1.81152 139.516L1.97168 140.891L2.12793 142.266C2.21832 143.053 2.22131 143.841 2.13184 144.629L1.81934 147.379C1.73737 148.101 1.71315 148.822 1.75293 149.543L1.83105 150.918L1.90527 152.293C1.94741 153.056 1.95879 153.819 1.94043 154.582L1.90918 155.957L1.87402 157.332C1.8554 158.104 1.78975 158.877 1.6709 159.648L1.45605 161.023L1.24512 162.398C1.13346 163.123 1.07676 163.847 1.07715 164.57L1.08105 165.945V167.32C1.0815 168.026 1.17182 168.735 1.35449 169.445L1.70996 170.82L2.06152 172.195C2.27113 173.009 2.31628 173.83 2.19043 174.648L1.97949 176.023L1.76465 177.398C1.65332 178.123 1.60129 178.847 1.60449 179.57L1.6084 180.945L1.61621 182.32C1.61955 183.077 1.60867 183.833 1.58105 184.59L1.47949 187.34C1.45348 188.052 1.5066 188.766 1.63965 189.48L1.89746 190.855L2.15137 192.23C2.29708 193.013 2.36415 193.798 2.35059 194.582L2.30371 197.332C2.2906 198.088 2.26231 198.845 2.21777 199.602L2.05371 202.352C2.00839 203.121 1.91996 203.891 1.78418 204.66L1.53809 206.035L1.2959 207.41C1.16982 208.125 1.1198 208.838 1.14746 209.551L1.25684 212.301C1.2867 213.067 1.27621 213.835 1.22949 214.602L1.14746 215.977L1.06152 217.352C1.01782 218.068 1.0483 218.786 1.14746 219.504L1.33496 220.879L1.52637 222.254C1.63279 223.024 1.69231 223.796 1.70215 224.566L1.71777 225.941L1.7373 227.316C1.74701 228.078 1.72539 228.84 1.67871 229.602L1.59668 230.977L1.51074 232.352C1.46478 233.101 1.41912 233.852 1.37402 234.602L1.20996 237.352C1.16628 238.078 1.17352 238.805 1.2334 239.531L1.45996 242.281C1.52359 243.053 1.53559 243.825 1.49512 244.598L1.4248 245.973L1.35059 247.348C1.31314 248.062 1.35103 248.777 1.46387 249.492L1.68262 250.867L1.89746 252.242C2.02035 253.02 2.07865 253.803 2.06543 254.582L2.01855 257.332C2.00584 258.081 1.99204 258.833 1.97949 259.582L1.93262 262.332C1.91977 263.096 1.87206 263.861 1.79199 264.625L1.65137 266L1.50684 267.375C1.42963 268.112 1.38166 268.849 1.3623 269.586L1.32324 270.961L1.28809 272.336C1.26842 273.085 1.25097 273.833 1.2334 274.582L1.19824 275.957L1.16699 277.332C1.15019 278.048 1.20535 278.767 1.33496 279.484L1.83496 282.234C1.98101 283.044 1.9765 283.855 1.82324 284.664L1.2998 287.414C1.16275 288.137 1.0867 288.86 1.06934 289.582L1.03809 290.957L1.00293 292.332C0.985859 293.045 1.04557 293.761 1.18262 294.477L1.44824 295.852L1.70996 297.227C1.86025 298.01 1.9289 298.796 1.91309 299.582L1.8584 302.332C1.84357 303.069 1.85787 303.806 1.90137 304.543L2.06543 307.293C2.11052 308.057 2.12014 308.822 2.09668 309.586L2.01074 312.336C1.98706 313.106 1.91649 313.879 1.7998 314.648L1.38574 317.398C1.27516 318.128 1.20831 318.857 1.18652 319.586L1.14355 320.961L1.10449 322.336C1.08225 323.081 1.06712 323.829 1.06543 324.574V325.949L1.06152 327.324C1.05998 328.041 1.12786 328.758 1.26465 329.477L1.78809 332.227C1.93709 333.009 2.00759 333.794 1.99902 334.578L1.96777 337.328C1.95936 338.095 1.90998 338.862 1.81934 339.629L1.65527 341.004L1.49512 342.379C1.41206 343.081 1.43016 343.785 1.5498 344.488L2.01855 347.238C2.15363 348.032 2.17944 348.83 2.09668 349.625L1.95215 351L1.81152 352.375C1.73559 353.105 1.70029 353.836 1.70996 354.566L1.72949 355.941L1.74512 357.316C1.75529 358.089 1.71354 358.861 1.61621 359.633L1.44043 361.008L1.26855 362.383C1.17642 363.113 1.12721 363.845 1.12402 364.574L1.12012 365.949L1.1123 367.324C1.10907 368.066 1.12577 368.809 1.15918 369.551L1.28418 372.301C1.31823 373.057 1.33336 373.814 1.33496 374.57L1.34277 377.32C1.34431 378.05 1.38984 378.781 1.47949 379.512L1.81543 382.262C1.91316 383.058 1.90007 383.856 1.77246 384.652L1.5498 386.027L1.33105 387.402C1.21579 388.122 1.16757 388.84 1.18652 389.559L1.25684 392.309C1.27635 393.048 1.31971 393.788 1.38574 394.527L1.51074 395.902L1.63184 397.277C1.69875 398.027 1.76574 398.778 1.83496 399.527L1.96387 400.902L2.08887 402.277C2.16128 403.062 2.15332 403.848 2.05762 404.633L1.72168 407.383C1.63259 408.113 1.58405 408.844 1.58105 409.574L1.57715 410.949L1.56934 412.324C1.56636 413.053 1.61306 413.782 1.70215 414.512L2.03809 417.262C2.13676 418.07 2.0907 418.878 1.90527 419.684L1.27246 422.434C1.11978 423.096 1.14546 423.746 1.35059 424.391L2.20215 427.07C2.431 427.789 2.67966 428.48 2.94824 429.141L3.45215 430.375L3.95215 431.609C4.22798 432.288 4.50244 432.988 4.76855 433.711L5.7373 436.344C5.96582 436.964 6.34736 437.453 6.88965 437.82L8.04199 438.602L9.19824 439.383C9.80687 439.795 10.4308 440.155 11.0732 440.457L13.5186 441.605C14.164 441.909 14.8302 442.165 15.5146 442.375L16.8115 442.77L18.1045 443.168C18.7797 443.375 19.4786 443.517 20.1943 443.59L21.5615 443.727L22.9326 443.867C23.6649 443.942 24.4013 443.982 25.1357 443.988L27.8857 444.012C28.6365 444.018 29.3889 444.027 30.1396 444.039L31.5146 444.059L32.8896 444.082C33.6146 444.093 34.3399 444.048 35.0654 443.953L37.8154 443.594C38.5795 443.494 39.3439 443.429 40.1084 443.398L42.8584 443.289C43.6207 443.259 44.3851 443.255 45.1475 443.281L47.8975 443.375C48.6683 443.401 49.4399 443.475 50.21 443.598L51.585 443.82L52.96 444.039C53.6865 444.155 54.414 444.219 55.1396 444.23L56.5146 444.25L57.8896 444.273C58.62 444.285 59.3504 444.256 60.0811 444.184L62.8311 443.91C63.609 443.833 64.3889 443.824 65.167 443.879L66.542 443.977L67.917 444.07C68.6176 444.119 69.3189 444.069 70.0225 443.914L71.3975 443.609L72.7725 443.309C73.5857 443.13 74.4029 443.111 75.2178 443.254L77.9678 443.738C78.6782 443.863 79.3878 443.902 80.0967 443.855L81.4717 443.766L82.8467 443.672C83.5885 443.623 84.3313 443.56 85.0732 443.477L87.8232 443.164C88.6052 443.076 89.3887 443.065 90.1709 443.129L91.5459 443.238L92.9209 443.352C93.6756 443.413 94.4318 443.483 95.1865 443.566L97.9365 443.871C98.6594 443.951 99.382 443.973 100.104 443.938L101.479 443.871L102.854 443.801C103.624 443.763 104.394 443.77 105.163 443.82L107.913 444C108.659 444.049 109.406 444.091 110.151 444.121L111.526 444.176L112.901 444.234C113.636 444.264 114.37 444.262 115.104 444.227L117.854 444.094C118.62 444.057 119.389 444.053 120.155 444.09L122.905 444.223C123.65 444.258 124.395 444.284 125.14 444.297L127.89 444.344C128.59 444.356 129.293 444.27 129.999 444.078L132.749 443.328C133.58 443.103 134.416 443.093 135.249 443.297L136.624 443.633L137.999 443.973C138.693 444.143 139.384 444.185 140.073 444.105L142.823 443.793C143.573 443.707 144.323 443.618 145.073 443.531L146.448 443.375L147.823 443.215C148.635 443.121 149.446 443.177 150.253 443.383L151.628 443.734L153.003 444.082C153.683 444.255 154.361 444.277 155.038 444.148L156.413 443.891L157.788 443.629C158.583 443.478 159.378 443.438 160.175 443.512L161.55 443.637L162.925 443.766C163.644 443.832 164.366 443.829 165.085 443.762L167.835 443.504C168.614 443.431 169.395 443.429 170.175 443.496L171.55 443.617L172.925 443.734C173.669 443.799 174.415 443.854 175.159 443.895L177.909 444.043C178.621 444.082 179.333 444.041 180.046 443.918L181.421 443.684L182.796 443.445C183.574 443.311 184.353 443.247 185.132 443.25L186.507 443.254L187.882 443.262C188.647 443.265 189.414 443.302 190.179 443.375L192.929 443.641L196.554 443.98L197.929 444.113C198.631 444.179 199.334 444.147 200.038 444.016L202.788 443.5C203.6 443.348 204.414 443.352 205.226 443.512L206.601 443.785L207.976 444.055C208.691 444.196 209.407 444.259 210.12 444.242L211.495 444.211L212.87 444.176C213.595 444.159 214.32 444.09 215.046 443.965L216.421 443.727L217.796 443.492C218.594 443.355 219.395 443.337 220.194 443.438L221.569 443.609L222.944 443.785C223.646 443.873 224.348 443.858 225.05 443.742L226.425 443.516L227.8 443.293C228.583 443.164 229.367 443.116 230.151 443.148L231.526 443.203L232.901 443.262C233.662 443.294 234.422 443.351 235.183 443.434L236.558 443.582L237.933 443.734C238.653 443.813 239.376 443.827 240.097 443.777L241.472 443.68L242.847 443.586C243.61 443.533 244.373 443.511 245.136 443.52L247.886 443.551C248.661 443.559 249.436 443.625 250.21 443.75L251.585 443.973L252.96 444.191C253.677 444.307 254.393 444.352 255.108 444.32L257.858 444.195C258.589 444.163 259.319 444.089 260.05 443.973L262.8 443.535C263.589 443.409 264.381 443.379 265.171 443.441L267.921 443.66C268.675 443.72 269.429 443.789 270.183 443.871L271.558 444.02L272.933 444.172C273.652 444.25 274.373 444.261 275.093 444.207L277.843 444.004C278.606 443.947 279.369 443.921 280.132 443.926L282.882 443.941C283.622 443.946 284.364 443.929 285.104 443.891L287.854 443.75C288.598 443.712 289.342 443.661 290.085 443.594L292.835 443.344C293.616 443.274 294.398 443.277 295.179 443.352L296.554 443.484L297.929 443.613C298.671 443.684 299.413 443.737 300.155 443.773L301.53 443.844L302.905 443.91C303.617 443.945 304.329 443.901 305.042 443.773L306.417 443.527L307.792 443.285C308.585 443.144 309.38 443.106 310.175 443.18L312.925 443.438C313.677 443.507 314.431 443.582 315.183 443.66L316.558 443.805L317.933 443.945C318.642 444.019 319.352 444.009 320.062 443.91L321.437 443.719L322.812 443.523C323.612 443.412 324.416 443.424 325.222 443.555L326.612 443.781L327.999 444.004C328.652 444.11 329.269 444.018 329.862 443.719L331.12 443.082L332.382 442.445C333.072 442.097 333.748 441.768 334.405 441.457L335.604 440.887L336.804 440.32C337.449 440.015 338.106 439.683 338.772 439.324L340.011 438.656L341.245 437.988C341.836 437.67 342.291 437.223 342.616 436.641L343.3 435.422L343.983 434.199C344.353 433.538 344.714 432.868 345.065 432.191L346.362 429.691C346.684 429.073 346.867 428.416 346.905 427.719L346.979 426.312L347.058 424.902C347.097 424.179 347.043 423.464 346.89 422.758L346.593 421.383L346.292 420.008C346.121 419.218 346.054 418.426 346.089 417.633L346.206 414.883C346.239 414.115 346.317 413.346 346.437 412.578L346.651 411.203L346.862 409.828C346.973 409.118 346.997 408.408 346.933 407.699L346.683 404.949C346.611 404.158 346.639 403.365 346.765 402.574L346.983 401.199L347.198 399.824C347.309 399.124 347.316 398.426 347.214 397.727L346.815 394.977C346.701 394.191 346.67 393.403 346.726 392.617L346.921 389.867C346.971 389.158 346.936 388.449 346.815 387.738L346.347 384.988C346.212 384.195 346.184 383.4 346.261 382.605L346.394 381.23L346.53 379.855C346.603 379.106 346.673 378.355 346.745 377.605L346.878 376.23L347.007 374.855C347.078 374.114 347.133 373.371 347.167 372.629L347.292 369.879C347.326 369.141 347.337 368.402 347.319 367.664L347.284 366.289L347.253 364.914C347.236 364.198 347.148 363.48 346.991 362.762L346.69 361.387L346.394 360.012C346.216 359.199 346.198 358.381 346.343 357.566L346.835 354.816C346.961 354.113 346.984 353.409 346.909 352.707L346.765 351.332L346.616 349.957C346.535 349.193 346.487 348.428 346.472 347.664L346.444 346.289L346.413 344.914C346.397 344.138 346.446 343.361 346.554 342.586L346.937 339.836C347.037 339.112 347.079 338.387 347.065 337.664L347.038 336.289L347.015 334.914C347.001 334.193 346.924 333.468 346.784 332.746L346.253 329.996C346.1 329.203 346.055 328.408 346.12 327.613L346.347 324.863C346.41 324.099 346.509 323.334 346.64 322.57L346.874 321.195L347.112 319.82C347.231 319.126 347.228 318.432 347.108 317.738L346.874 316.363L346.636 314.988C346.503 314.217 346.42 313.444 346.39 312.672L346.28 309.922C346.251 309.167 346.233 308.411 346.226 307.656L346.214 306.281L346.198 304.906C346.191 304.116 346.279 303.326 346.46 302.539L346.78 301.164L347.097 299.789C347.257 299.093 347.3 298.4 347.226 297.707L346.929 294.957C346.845 294.175 346.836 293.391 346.901 292.609L347.136 289.859C347.198 289.122 347.23 288.385 347.237 287.648L347.249 286.273L347.265 284.898C347.271 284.178 347.217 283.456 347.101 282.734L346.878 281.359L346.659 279.984C346.537 279.224 346.436 278.46 346.362 277.699L346.097 274.949C346.022 274.171 346.018 273.392 346.081 272.613L346.19 271.238L346.304 269.863C346.364 269.117 346.418 268.368 346.464 267.621L346.55 266.246L346.632 264.871C346.676 264.146 346.669 263.42 346.604 262.695L346.483 261.32L346.358 259.945C346.289 259.155 346.317 258.363 346.44 257.574L346.87 254.824C346.981 254.114 347.006 253.404 346.944 252.695L346.702 249.945C346.636 249.188 346.591 248.429 346.562 247.672L346.452 244.922C346.423 244.174 346.391 243.424 346.354 242.676L346.288 241.301L346.218 239.926C346.18 239.159 346.182 238.392 346.226 237.625L346.382 234.875C346.425 234.104 346.519 233.333 346.663 232.562L347.179 229.812C347.311 229.101 347.358 228.389 347.323 227.68L347.253 226.305L347.187 224.93C347.148 224.164 347.145 223.395 347.179 222.629L347.304 219.879C347.335 219.17 347.28 218.461 347.14 217.75L346.87 216.375L346.597 215C346.445 214.232 346.336 213.464 346.272 212.695L346.159 211.32L346.05 209.945C345.983 209.138 346.054 208.33 346.265 207.527L346.628 206.152L346.987 204.777C347.173 204.072 347.258 203.369 347.237 202.668L347.194 201.293L347.155 199.918C347.133 199.16 347.13 198.402 347.144 197.645L347.19 194.895C347.203 194.166 347.171 193.436 347.093 192.707L346.796 189.957C346.714 189.198 346.653 188.439 346.612 187.68L346.464 184.93C346.423 184.164 346.417 183.398 346.448 182.633L346.507 181.258L346.562 179.883C346.592 179.125 346.64 178.367 346.706 177.609L346.823 176.234L346.944 174.859C347.007 174.134 347.014 173.409 346.972 172.684L346.894 171.309L346.812 169.934C346.766 169.156 346.782 168.378 346.862 167.602L347.007 166.227L347.147 164.852C347.223 164.121 347.258 163.39 347.249 162.66L347.218 159.91C347.209 159.168 347.181 158.425 347.136 157.684L347.05 156.309L346.968 154.934C346.92 154.158 346.934 153.381 347.007 152.605L347.265 149.855C347.332 149.144 347.318 148.431 347.222 147.719L346.847 144.969C346.743 144.202 346.684 143.435 346.663 142.668L346.624 141.293L346.589 139.918C346.569 139.179 346.522 138.438 346.452 137.699L346.194 134.949C346.122 134.185 346.081 133.421 346.077 132.656L346.073 131.281L346.065 129.906C346.062 129.153 346.066 128.398 346.077 127.645L346.097 126.27L346.12 124.895C346.132 124.111 346.224 123.328 346.394 122.547L346.987 119.797C347.141 119.09 347.199 118.384 347.159 117.68L347.081 116.305L347.007 114.93C346.965 114.191 346.896 113.453 346.804 112.715L346.632 111.34L346.464 109.965C346.368 109.192 346.325 108.418 346.339 107.645L346.366 106.27L346.39 104.895C346.404 104.13 346.45 103.366 346.53 102.602L346.679 101.227L346.823 99.8516C346.898 99.1396 346.89 98.427 346.804 97.7148L346.468 94.9648C346.374 94.1949 346.327 93.4227 346.327 92.6523ZM347.327 92.6523C347.327 93.382 347.375 94.1137 347.464 94.8438L347.628 96.2188L347.796 97.5938C347.892 98.3809 347.899 99.1697 347.815 99.957L347.526 102.707C347.449 103.442 347.403 104.179 347.39 104.914L347.362 106.289L347.339 107.664C347.326 108.389 347.366 109.114 347.456 109.84L347.624 111.215L347.796 112.59C347.891 113.351 347.96 114.114 348.003 114.875L348.159 117.625C348.204 118.42 348.14 119.215 347.968 120.008L347.667 121.383L347.37 122.758C347.214 123.476 347.131 124.194 347.12 124.91L347.097 126.285L347.077 127.66C347.066 128.407 347.062 129.156 347.065 129.902L347.073 131.277L347.077 132.652C347.081 133.387 347.121 134.121 347.19 134.855L347.448 137.605C347.52 138.367 347.568 139.129 347.589 139.891L347.624 141.266L347.663 142.641C347.683 143.372 347.74 144.104 347.839 144.836L348.026 146.211L348.21 147.586C348.316 148.373 348.335 149.161 348.261 149.949L348.132 151.324L347.999 152.699C347.931 153.423 347.92 154.147 347.964 154.871L348.05 156.246L348.132 157.621C348.178 158.379 348.205 159.14 348.214 159.898L348.233 161.273L348.249 162.648C348.258 163.417 348.223 164.185 348.144 164.953L347.999 166.328L347.858 167.703C347.783 168.426 347.765 169.152 347.808 169.875L347.972 172.625C348.017 173.398 348.007 174.172 347.94 174.945L347.819 176.32L347.702 177.695C347.638 178.437 347.591 179.18 347.562 179.922L347.503 181.297L347.448 182.672C347.419 183.406 347.425 184.141 347.464 184.875L347.612 187.625C347.652 188.366 347.712 189.11 347.792 189.852L347.937 191.227L348.085 192.602C348.168 193.371 348.204 194.14 348.19 194.91L348.144 197.66C348.131 198.402 348.134 199.145 348.155 199.887L348.233 202.637C348.257 203.436 348.165 204.237 347.956 205.031L347.593 206.406L347.233 207.781C347.05 208.478 346.989 209.172 347.046 209.863L347.272 212.613C347.333 213.343 347.433 214.074 347.577 214.805L347.851 216.18L348.12 217.555C348.276 218.343 348.339 219.135 348.304 219.926L348.179 222.676C348.146 223.41 348.15 224.145 348.187 224.879L348.253 226.254L348.323 227.629C348.363 228.418 348.306 229.209 348.159 229.996L347.905 231.371L347.647 232.746C347.512 233.475 347.423 234.202 347.382 234.93L347.226 237.68C347.184 238.412 347.182 239.146 347.218 239.879L347.284 241.254L347.354 242.629C347.391 243.38 347.423 244.132 347.452 244.883L347.507 246.258L347.558 247.633C347.586 248.375 347.633 249.117 347.698 249.859L347.94 252.609C348.01 253.4 347.982 254.191 347.858 254.98L347.429 257.73C347.318 258.441 347.292 259.15 347.354 259.859L347.479 261.234L347.601 262.609C347.669 263.384 347.679 264.159 347.632 264.934L347.546 266.309L347.464 267.684C347.418 268.437 347.361 269.192 347.3 269.945L347.19 271.32L347.077 272.695C347.019 273.415 347.023 274.135 347.093 274.855L347.358 277.605C347.43 278.345 347.525 279.085 347.644 279.824L348.089 282.574C348.214 283.351 348.272 284.129 348.265 284.906L348.249 286.281L348.237 287.656C348.23 288.419 348.196 289.183 348.132 289.945L347.897 292.695C347.837 293.413 347.848 294.133 347.925 294.852L348.073 296.227L348.218 297.602C348.304 298.408 348.254 299.213 348.069 300.016L347.437 302.766C347.272 303.478 347.192 304.189 347.198 304.898L347.214 306.273L347.226 307.648C347.233 308.393 347.251 309.138 347.28 309.883L347.39 312.633C347.418 313.36 347.495 314.088 347.62 314.816L348.097 317.566C348.236 318.373 348.235 319.182 348.097 319.988L347.858 321.363L347.624 322.738C347.498 323.474 347.403 324.21 347.343 324.945L347.116 327.695C347.058 328.399 347.097 329.103 347.233 329.809L347.765 332.559C347.915 333.336 348 334.115 348.015 334.895L348.038 336.27L348.065 337.645C348.08 338.421 348.033 339.197 347.925 339.973L347.542 342.723C347.441 343.446 347.398 344.172 347.413 344.895L347.444 346.27L347.472 347.645C347.487 348.38 347.534 349.116 347.612 349.852L347.757 351.227L347.905 352.602C347.99 353.398 347.961 354.197 347.819 354.992L347.327 357.742C347.205 358.427 347.22 359.111 347.37 359.797L347.671 361.172L347.968 362.547C348.138 363.327 348.234 364.108 348.253 364.891L348.284 366.266L348.319 367.641C348.337 368.402 348.327 369.164 348.292 369.926L348.167 372.676C348.132 373.434 348.075 374.192 348.003 374.949L347.874 376.324L347.741 377.699C347.669 378.449 347.595 379.203 347.522 379.953L347.257 382.703C347.189 383.408 347.215 384.114 347.335 384.82L347.569 386.195L347.8 387.57C347.933 388.359 347.973 389.148 347.917 389.938L347.722 392.688C347.671 393.401 347.7 394.117 347.804 394.832L348.202 397.582C348.318 398.382 348.313 399.181 348.187 399.98L347.968 401.355L347.753 402.73C347.64 403.44 347.614 404.151 347.679 404.859L347.929 407.609C348 408.4 347.973 409.191 347.851 409.98L347.64 411.355L347.425 412.73C347.311 413.462 347.238 414.195 347.206 414.926L347.147 416.301L347.085 417.676C347.054 418.381 347.115 419.088 347.269 419.797L347.569 421.172L347.866 422.547C348.038 423.34 348.102 424.145 348.058 424.957L347.979 426.367L347.901 427.773C347.855 428.612 347.64 429.408 347.253 430.152L346.601 431.402L345.952 432.652C345.596 433.339 345.229 434.017 344.854 434.688L344.171 435.91L343.491 437.129C343.072 437.878 342.479 438.463 341.722 438.871L340.483 439.535L339.245 440.203C338.564 440.57 337.892 440.909 337.229 441.223L336.03 441.793L334.831 442.359C334.181 442.667 333.515 442.995 332.831 443.34L331.569 443.977L330.312 444.609C329.53 445.003 328.701 445.132 327.839 444.992L326.452 444.766L325.062 444.543C324.353 444.428 323.648 444.418 322.948 444.516L320.198 444.898C319.409 445.009 318.617 445.024 317.827 444.941L315.077 444.652C314.33 444.574 313.582 444.503 312.835 444.434L310.085 444.176C309.38 444.11 308.674 444.144 307.968 444.27L306.593 444.512L305.218 444.758C304.431 444.898 303.643 444.949 302.854 444.91L301.479 444.844L300.104 444.773C299.347 444.736 298.588 444.682 297.831 444.609L296.456 444.477L295.081 444.348C294.362 444.279 293.644 444.275 292.925 444.34L290.175 444.59C289.419 444.658 288.662 444.711 287.905 444.75L285.155 444.891C284.396 444.93 283.637 444.946 282.878 444.941L280.128 444.926C279.391 444.921 278.654 444.945 277.917 445L276.542 445.102L275.167 445.207C274.387 445.265 273.607 445.249 272.827 445.164L270.077 444.867C269.332 444.786 268.584 444.715 267.839 444.656L265.089 444.438C264.38 444.381 263.67 444.41 262.96 444.523L260.21 444.961C259.441 445.084 258.671 445.161 257.901 445.195L256.526 445.258L255.151 445.316C254.367 445.351 253.583 445.306 252.8 445.18L251.425 444.961L250.05 444.738C249.324 444.622 248.599 444.559 247.874 444.551L245.124 444.52C244.388 444.511 243.65 444.535 242.913 444.586L240.163 444.773C239.384 444.827 238.606 444.811 237.827 444.727L235.077 444.43C234.338 444.349 233.597 444.293 232.858 444.262L231.483 444.203L230.108 444.148C229.393 444.119 228.676 444.16 227.96 444.277L225.21 444.73C224.414 444.861 223.616 444.878 222.819 444.777L221.444 444.602L220.069 444.43C219.369 444.341 218.666 444.356 217.964 444.477L216.589 444.715L215.214 444.949C214.441 445.082 213.668 445.158 212.894 445.176L211.519 445.211L210.144 445.242C209.357 445.261 208.569 445.19 207.784 445.035L205.034 444.496C204.346 444.361 203.659 444.356 202.972 444.484L201.597 444.742L200.222 444.996C199.427 445.144 198.631 445.184 197.835 445.109L196.46 444.977L195.085 444.848C194.335 444.777 193.581 444.705 192.831 444.633L191.456 444.504L190.081 444.371C189.347 444.301 188.612 444.265 187.878 444.262L186.503 444.254L185.128 444.25C184.408 444.247 183.685 444.305 182.964 444.43L180.214 444.906C179.428 445.042 178.642 445.086 177.854 445.043L176.479 444.969L175.104 444.891C174.35 444.849 173.593 444.796 172.839 444.73L171.464 444.613L170.089 444.492C169.369 444.43 168.648 444.433 167.929 444.5L165.179 444.758C164.398 444.831 163.616 444.834 162.835 444.762L161.46 444.633L160.085 444.508C159.382 444.443 158.676 444.476 157.972 444.609L155.222 445.133C154.4 445.289 153.576 445.263 152.757 445.055L150.007 444.352C149.314 444.175 148.624 444.127 147.937 444.207L145.187 444.527C144.437 444.614 143.686 444.699 142.937 444.785L141.562 444.941L140.187 445.102C139.377 445.194 138.567 445.139 137.761 444.941L135.011 444.27C134.344 444.106 133.679 444.115 133.011 444.297L131.636 444.668L130.261 445.043C129.467 445.258 128.669 445.358 127.87 445.344L125.12 445.297C124.366 445.283 123.609 445.259 122.854 445.223L120.104 445.09C119.371 445.055 118.638 445.054 117.905 445.09L115.155 445.223C114.39 445.26 113.623 445.266 112.858 445.234L111.483 445.176L110.108 445.121C109.355 445.09 108.6 445.05 107.847 445L105.097 444.82C104.366 444.772 103.636 444.765 102.905 444.801L101.53 444.867L100.155 444.938C99.3793 444.976 98.6028 444.953 97.8271 444.867L95.0771 444.562C94.3319 444.48 93.584 444.408 92.8389 444.348L91.4639 444.238L90.0889 444.125C89.3714 444.067 88.6542 444.079 87.9365 444.16L86.5615 444.312L85.1865 444.469C84.4288 444.554 83.6709 444.622 82.9131 444.672L80.1631 444.852C79.3727 444.903 78.5808 444.861 77.792 444.723L75.042 444.238C74.3575 444.118 73.6735 444.134 72.9873 444.285L71.6123 444.586L70.2373 444.891C69.4422 445.066 68.6448 445.126 67.8467 445.07L65.0967 444.875C64.3748 444.824 63.6508 444.835 62.9287 444.906L60.1787 445.18C59.4107 445.256 58.6423 445.286 57.874 445.273L56.499 445.25L55.124 445.23C54.3501 445.218 53.5728 445.147 52.7998 445.023L50.0498 444.586C49.3206 444.47 48.5908 444.4 47.8623 444.375L45.1123 444.281C44.3753 444.256 43.6384 444.26 42.9014 444.289L40.1514 444.398C39.4165 444.428 38.6795 444.49 37.9443 444.586L35.1943 444.945C34.4212 445.047 33.6478 445.094 32.874 445.082L31.499 445.059L30.124 445.039C29.3759 445.027 28.6261 445.018 27.8779 445.012L25.1279 444.988C24.3623 444.982 23.5942 444.941 22.8311 444.863L21.4639 444.723L20.0928 444.582C19.313 444.503 18.5503 444.351 17.8115 444.125L16.5186 443.727L15.2217 443.328C14.4922 443.105 13.7812 442.831 13.0928 442.508L10.6475 441.359C9.9567 441.035 9.28577 440.652 8.63574 440.211L7.4834 439.43L6.32715 438.648C5.61045 438.163 5.09618 437.503 4.7959 436.688L3.82715 434.055C3.56477 433.342 3.2977 432.652 3.02637 431.984L2.52637 430.75L2.02246 429.516C1.74379 428.83 1.48518 428.117 1.24902 427.375L0.397461 424.695C0.137754 423.879 0.103509 423.047 0.295898 422.211L0.612305 420.836L0.932617 419.461C1.09257 418.767 1.12641 418.074 1.04199 417.383L0.706055 414.633C0.658995 414.248 0.627246 413.862 0.604492 413.477L0.569336 412.32L0.577148 410.945L0.581055 409.57C0.584217 408.801 0.635703 408.031 0.729492 407.262L0.897461 405.887L1.06152 404.512C1.14868 403.797 1.16266 403.082 1.09668 402.367L0.967773 400.992L0.842773 399.617C0.773502 398.867 0.702713 398.117 0.635742 397.367L0.514648 395.992L0.389648 394.617C0.321789 393.857 0.280825 393.096 0.260742 392.336L0.22168 390.961L0.186523 389.586C0.165903 388.805 0.217689 388.022 0.342773 387.242L0.56543 385.867L0.78418 384.492C0.89697 383.788 0.909545 383.086 0.823242 382.383L0.487305 379.633C0.392868 378.864 0.344445 378.094 0.342773 377.324L0.334961 374.574C0.3334 373.831 0.317636 373.087 0.28418 372.344L0.15918 369.594L0.112305 367.32L0.120117 365.945L0.124023 364.57C0.127386 363.8 0.179211 363.028 0.276367 362.258L0.448242 360.883L0.624023 359.508C0.715668 358.781 0.754733 358.054 0.745117 357.328L0.729492 355.953L0.709961 354.578C0.699784 353.809 0.735403 353.039 0.81543 352.27L0.959961 350.895L1.10059 349.52C1.1738 348.815 1.15024 348.112 1.03027 347.406L0.561523 344.656C0.425967 343.859 0.408556 343.06 0.50293 342.262L0.663086 340.887L0.827148 339.512C0.913681 338.78 0.959773 338.048 0.967773 337.316L0.999023 334.566C1.00685 333.85 0.9405 333.132 0.803711 332.414L0.280273 329.664C0.131732 328.884 0.0597534 328.102 0.0615234 327.32L0.0654297 325.945V324.57C0.06714 323.816 0.082011 323.063 0.104492 322.309L0.143555 320.934L0.186523 319.559C0.209509 318.788 0.276846 318.016 0.393555 317.246L0.604492 315.871L0.811523 314.496C0.922228 313.766 0.988306 313.034 1.01074 312.305L1.09668 309.555C1.11921 308.82 1.10877 308.086 1.06543 307.352L0.901367 304.602C0.856332 303.839 0.843062 303.075 0.858398 302.312L0.913086 299.562C0.927465 298.848 0.866847 298.13 0.729492 297.414L0.467773 296.039L0.202148 294.664C0.0519986 293.88 -0.0158702 293.094 0.00292969 292.309L0.0380859 290.934L0.0693359 289.559C0.087993 288.782 0.172471 288.006 0.319336 287.23L0.581055 285.855L0.838867 284.48C0.969646 283.79 0.975199 283.1 0.850586 282.41L0.600586 281.035L0.354492 279.66C0.213112 278.878 0.148589 278.093 0.166992 277.309L0.202148 275.934L0.233398 274.559C0.251 273.809 0.268385 273.059 0.288086 272.309L0.323242 270.934L0.362305 269.559C0.382353 268.796 0.430784 268.032 0.510742 267.27L0.799805 264.52C0.876885 263.784 0.920303 263.048 0.932617 262.312L0.979492 259.562C0.992049 258.813 1.00584 258.062 1.01855 257.312L1.06543 254.562C1.0776 253.842 1.02701 253.12 0.913086 252.398L0.475586 249.648C0.352032 248.865 0.313453 248.081 0.354492 247.297L0.424805 245.922L0.499023 244.547C0.537161 243.819 0.523833 243.091 0.463867 242.363L0.237305 239.613C0.173562 238.84 0.163506 238.066 0.209961 237.293L0.295898 235.918L0.37793 234.543C0.42302 233.793 0.46869 233.043 0.514648 232.293L0.59668 230.918L0.682617 229.543C0.727845 228.805 0.746723 228.066 0.737305 227.328L0.717773 225.953L0.702148 224.578C0.692838 223.849 0.635001 223.12 0.53418 222.391L0.34668 221.016L0.155273 219.641C0.0472016 218.859 0.0178002 218.076 0.0654297 217.293L0.147461 215.918L0.233398 214.543C0.278121 213.81 0.285414 213.073 0.256836 212.34L0.202148 210.965L0.151367 209.59C0.120849 208.804 0.173011 208.019 0.311523 207.234L0.795898 204.484C0.925023 203.753 1.0146 203.023 1.05762 202.293L1.13574 200.918L1.21777 199.543C1.26153 198.8 1.29085 198.056 1.30371 197.312L1.35059 194.562C1.36292 193.847 1.30054 193.131 1.16699 192.414L0.913086 191.039L0.655273 189.664C0.509038 188.879 0.450844 188.092 0.479492 187.305L0.581055 184.555C0.608184 183.812 0.619503 183.067 0.616211 182.324L0.608398 180.949L0.604492 179.574C0.601051 178.798 0.657136 178.022 0.776367 177.246L0.991211 175.871L1.20215 174.496C1.307 173.814 1.26935 173.131 1.09277 172.445L0.741211 171.07L0.385742 169.695C0.182742 168.906 0.0815516 168.113 0.0810547 167.32V165.945L0.0771484 164.57C0.076757 163.795 0.137503 163.02 0.256836 162.246L0.467773 160.871L0.682617 159.496C0.794999 158.767 0.856446 158.037 0.874023 157.309L0.90918 155.934L0.94043 154.559C0.958172 153.822 0.949869 153.084 0.90918 152.348L0.831055 150.973L0.756836 149.598C0.713973 148.82 0.734968 148.043 0.823242 147.266L1.13574 144.516C1.21667 143.803 1.21754 143.091 1.13574 142.379L0.975586 141.004L0.819336 139.629C0.73158 138.865 0.677556 138.1 0.655273 137.336L0.612305 135.961L0.573242 134.586C0.550483 133.804 0.603888 133.023 0.729492 132.242L0.948242 130.867L1.1709 129.492C1.28706 128.77 1.33995 128.049 1.33105 127.328L1.31543 125.953L1.2959 124.578C1.28673 123.835 1.2654 123.091 1.22559 122.348L1.07715 119.598C1.03612 118.831 1.03374 118.063 1.06934 117.297L1.13184 115.922L1.19824 114.547C1.23195 113.819 1.21703 113.091 1.15527 112.363L0.920898 109.613C0.856281 108.852 0.819428 108.09 0.811523 107.328L0.799805 105.953L0.78418 104.578C0.776608 103.846 0.7293 103.111 0.643555 102.379L0.323242 99.6289C0.230682 98.8375 0.235745 98.045 0.342773 97.2539L0.530273 95.8789L0.713867 94.5039C0.813063 93.7705 0.878749 93.0377 0.905273 92.3047L0.952148 90.9297L1.00293 89.5547C1.02873 88.8409 0.980788 88.1255 0.854492 87.4102L0.608398 86.0352L0.366211 84.6602C0.22769 83.8763 0.174551 83.0901 0.202148 82.3047L0.295898 79.5547C0.322969 78.785 0.396398 78.0151 0.514648 77.2461L0.936523 74.4961C1.04733 73.7756 1.0948 73.0555 1.07715 72.3359L1.04199 70.9609L1.01074 69.5859C0.992873 68.8619 0.920423 68.1353 0.791992 67.4102L0.545898 66.0352L0.303711 64.6602C0.164125 63.8724 0.117671 63.0823 0.163086 62.293L0.319336 59.543C0.362941 58.7851 0.424831 58.0273 0.506836 57.2695L0.655273 55.8945L0.807617 54.5195C0.887605 53.7807 0.942014 53.0394 0.97168 52.3008L1.08105 49.5508C1.11063 48.8138 1.11175 48.0768 1.08496 47.3398L0.983398 44.5898C0.956422 43.848 0.913494 43.1052 0.850586 42.3633L0.616211 39.6133C0.551761 38.8529 0.512296 38.0925 0.499023 37.332L0.452148 34.582C0.43857 33.8021 0.495874 33.021 0.624023 32.2422L1.07715 29.4922C1.19226 28.7932 1.19639 28.0931 1.09277 27.3945L0.686523 24.6445C0.629099 24.2573 0.58556 23.8693 0.557617 23.4805L0.518555 22.3125L0.526367 20.9258L0.530273 19.543C0.533468 18.7434 0.641654 17.9541 0.854492 17.1797L1.22559 15.8359L1.59277 14.4922C1.8122 13.6944 2.18253 12.9728 2.69824 12.332L3.56152 11.2578L4.42871 10.1797C4.90994 9.58173 5.40705 9.0131 5.9209 8.47656L6.84668 7.51562L7.76855 6.55078C8.28405 6.01253 8.83438 5.49339 9.41699 4.99609L10.46 4.10547L11.5068 3.21094C12.146 2.66557 12.8853 2.32209 13.7139 2.18359L16.4248 1.73047C17.1362 1.6115 17.7325 1.44541 18.2217 1.24219L19.2021 0.835938L20.1787 0.429688C20.4488 0.317455 20.6797 0.232908 20.8545 0.191406C20.9311 0.173244 21.0537 0.149431 21.1787 0.164062C21.2428 0.171767 21.3669 0.195294 21.4795 0.289062C21.6124 0.399987 21.666 0.556441 21.667 0.699219C21.8231 0.720852 22.0416 0.744763 22.3271 0.761719L25.0771 0.925781C25.7917 0.9681 26.5062 0.936533 27.2217 0.832031L28.5967 0.632812L29.9717 0.429688C30.7415 0.317113 31.5137 0.254764 32.2842 0.238281L33.6592 0.207031L35.0342 0.179688C35.8124 0.163085 36.5928 0.209835 37.3701 0.324219L40.1201 0.730469C40.8467 0.837319 41.5739 0.894243 42.2998 0.898438L45.0498 0.914062C45.7713 0.918175 46.4952 0.8594 47.2178 0.742188L49.9678 0.296875C50.7821 0.165026 51.5974 0.1947 52.4092 0.382812L53.7842 0.699219L55.1592 1.01953C55.8417 1.17761 56.5215 1.19339 57.2021 1.06641L59.9521 0.550781C60.7206 0.407091 61.4914 0.307778 62.2607 0.253906L63.6357 0.15625L65.0107 0.0625C65.8176 0.00600744 66.6233 0.0851163 67.4248 0.300781L70.1748 1.04297C70.8516 1.2252 71.525 1.24794 72.1982 1.11328L73.5732 0.835938L74.9482 0.5625C75.7355 0.405069 76.526 0.339125 77.3154 0.367188L78.6904 0.417969L80.0654 0.464844C80.8046 0.491084 81.545 0.49579 82.2842 0.476562L85.0342 0.40625C85.7893 0.386621 86.5447 0.377306 87.2998 0.382812L88.6748 0.394531L90.0498 0.402344C90.8181 0.407956 91.5865 0.455949 92.3545 0.546875L95.1045 0.875C95.8217 0.959931 96.54 0.972177 97.2568 0.914062L98.6318 0.804688L100.007 0.691406C100.768 0.629732 101.531 0.594331 102.292 0.585938L105.042 0.554688C105.796 0.54639 106.55 0.551071 107.304 0.5625L110.054 0.601562C110.825 0.613263 111.596 0.675153 112.366 0.785156L115.116 1.17578C115.841 1.27931 116.568 1.32801 117.292 1.32031L118.667 1.30859L120.042 1.29297C120.762 1.28524 121.484 1.21204 122.206 1.07812L124.956 0.570312C125.755 0.422261 126.555 0.395512 127.354 0.492188L128.729 0.660156L130.104 0.824219C130.828 0.911817 131.553 0.942391 132.276 0.914062L135.026 0.804688C135.804 0.774237 136.582 0.809396 137.358 0.910156L140.108 1.26953C140.809 1.36056 141.512 1.34733 142.214 1.23047L143.589 1L144.964 0.773438C145.763 0.640419 146.563 0.626449 147.362 0.734375L148.737 0.921875L150.112 1.10547C150.806 1.19909 151.499 1.17692 152.194 1.03516L154.944 0.472656C155.759 0.30629 156.579 0.304681 157.394 0.464844L160.144 1.00391C160.862 1.14496 161.58 1.21606 162.296 1.21484L165.046 1.20703C165.769 1.20575 166.493 1.14977 167.218 1.03516L168.593 0.816406L169.968 0.601562C170.775 0.473804 171.583 0.488297 172.39 0.644531L175.14 1.17578C175.857 1.31487 176.576 1.3794 177.292 1.37109L180.042 1.33984C180.778 1.33125 181.513 1.29359 182.249 1.22656L184.999 0.976562C185.75 0.908129 186.502 0.842483 187.253 0.777344L190.003 0.535156C190.768 0.46875 191.534 0.440345 192.3 0.449219L193.675 0.464844L195.05 0.484375C195.797 0.493101 196.548 0.494632 197.296 0.492188L200.046 0.484375C200.825 0.481923 201.604 0.547032 202.382 0.679688L205.132 1.14844C205.821 1.26576 206.509 1.2566 207.198 1.12109L208.573 0.851562L209.948 0.578125C210.755 0.419445 211.566 0.405331 212.374 0.53125L215.124 0.960938C215.824 1.06981 216.522 1.06961 217.222 0.964844L218.597 0.757812L219.972 0.554688C220.738 0.439853 221.505 0.364362 222.272 0.328125L225.022 0.195312C225.784 0.159335 226.546 0.15348 227.308 0.171875L228.683 0.203125L230.058 0.238281C230.83 0.256937 231.603 0.324273 232.374 0.445312L233.749 0.664062L235.124 0.878906C235.82 0.98809 236.517 0.984963 237.214 0.867188L238.589 0.632812L239.964 0.402344C240.767 0.266691 241.571 0.261374 242.374 0.390625L243.749 0.613281L245.124 0.832031C245.829 0.945688 246.537 0.966157 247.241 0.886719L249.991 0.574219C250.745 0.489238 251.499 0.415336 252.253 0.351562L253.628 0.234375L255.003 0.121094C255.766 0.0565863 256.529 0.0200639 257.292 0.015625L260.042 0C260.831 -0.00456116 261.619 0.0823022 262.405 0.257812L263.78 0.5625L265.155 0.871094C265.842 1.02438 266.525 1.03974 267.21 0.921875L268.585 0.6875L269.96 0.449219C270.766 0.310259 271.575 0.311385 272.382 0.453125L275.132 0.9375C275.826 1.05955 276.52 1.06223 277.214 0.945312L278.589 0.714844L279.964 0.480469C280.746 0.348815 281.528 0.297098 282.312 0.324219L283.687 0.371094L285.062 0.421875C285.835 0.448778 286.609 0.52886 287.382 0.664062L288.757 0.90625L290.132 1.14453C290.846 1.26958 291.56 1.31726 292.272 1.28516L295.022 1.16016C295.744 1.12759 296.467 1.03581 297.19 0.882812L298.565 0.589844L299.94 0.300781C300.733 0.132949 301.532 0.0704827 302.327 0.117188L303.702 0.199219L305.077 0.277344C305.807 0.320151 306.538 0.322321 307.269 0.28125L310.019 0.125C310.78 0.0821837 311.542 0.069091 312.304 0.0820312L315.054 0.128906C315.819 0.141924 316.586 0.190429 317.351 0.273438L320.101 0.570312C320.847 0.651352 321.596 0.725103 322.343 0.792969L325.093 1.04297C325.809 1.10796 326.532 1.10485 327.261 1.02734L330.05 0.730469C330.889 0.641221 331.705 0.746472 332.491 1.05078L333.796 1.55859L335.101 2.0625C335.857 2.3556 336.552 2.75026 337.183 3.24609L338.269 4.10156L339.354 4.95312C339.958 5.42818 340.537 5.93287 341.089 6.46094L342.077 7.40625L343.069 8.35547C343.656 8.91618 344.118 9.56748 344.456 10.3047L345.03 11.5508L345.601 12.7969C345.924 13.5034 346.181 14.2301 346.37 14.9766L346.702 16.293L347.038 17.6094C347.225 18.3478 347.363 19.1006 347.452 19.8672L347.772 22.6016C347.863 23.3738 347.889 24.1491 347.854 24.9258L347.796 26.3008L347.733 27.6758C347.7 28.4297 347.658 29.1836 347.604 29.9375L347.409 32.6875C347.359 33.3934 347.402 34.1007 347.538 34.8086L347.8 36.1836L348.065 37.5586C348.217 38.349 348.268 39.1412 348.218 39.9336L348.132 41.3086L348.042 42.6836C347.994 43.4473 347.915 44.2132 347.804 44.9766L347.604 46.3516L347.401 47.7266C347.294 48.4611 347.221 49.1956 347.179 49.9297L347.022 52.6797C346.983 53.3718 347.063 54.0673 347.261 54.7656L347.647 56.1406L348.038 57.5156C348.269 58.3305 348.329 59.1518 348.214 59.9727L348.019 61.3477L347.827 62.7227C347.728 63.4286 347.72 64.1342 347.808 64.8398L348.151 67.5898C348.251 68.3877 348.235 69.1875 348.101 69.9844L347.866 71.3594L347.636 72.7344C347.512 73.4709 347.417 74.2092 347.354 74.9453L347.241 76.3203L347.124 77.6953C347.065 78.3901 347.119 79.0863 347.288 79.7852L347.624 81.1602L347.956 82.5352C348.154 83.352 348.18 84.1728 348.03 84.9922L347.776 86.3672L347.526 87.7422C347.395 88.4627 347.327 89.1833 347.327 89.9023V92.6523Z" fill="#3F2D2A"/>
</svg>
