<svg width="485" height="631" viewBox="0 0 485 631" fill="none" xmlns="http://www.w3.org/2000/svg">
<path d="M1.13135 21.1953C1.13135 10.1496 10.0857 1.19531 21.1313 1.19531H463.131C474.177 1.19531 483.131 10.1496 483.131 21.1953V609.195C483.131 620.241 474.177 629.195 463.131 629.195H21.1313C10.0857 629.195 1.13135 620.241 1.13135 609.195V21.1953Z" fill="#FFFDF8"/>
<path d="M260.002 0C260.791 -0.00456116 261.58 0.0823021 262.366 0.257812L263.741 0.5625L265.116 0.871094C265.802 1.02438 266.486 1.03974 267.17 0.921875L268.545 0.6875L269.92 0.449219C270.727 0.31026 271.536 0.311385 272.342 0.453125L275.092 0.9375C275.786 1.05955 276.481 1.06223 277.174 0.945312L278.549 0.714844L279.924 0.480469C280.706 0.348815 281.489 0.297098 282.272 0.324219L283.647 0.371094L285.022 0.421875C285.795 0.448778 286.57 0.52886 287.342 0.664062L288.717 0.90625L290.092 1.14453C290.807 1.26958 291.52 1.31726 292.233 1.28516L294.983 1.16016C295.704 1.12759 296.428 1.0358 297.151 0.882812L298.526 0.589844L299.901 0.300781C300.694 0.132949 301.492 0.0704827 302.288 0.117188L303.663 0.199219L305.038 0.277344C305.768 0.320151 306.499 0.322321 307.229 0.28125L309.979 0.125C310.741 0.0821836 311.502 0.0690911 312.264 0.0820312L315.014 0.128906C315.779 0.141924 316.546 0.190429 317.311 0.273438L320.061 0.570312C320.808 0.651352 321.556 0.725103 322.303 0.792969L325.053 1.04297C325.756 1.10666 326.458 1.07436 327.163 0.941406L328.538 0.679688L329.913 0.421875C330.7 0.273114 331.49 0.217691 332.28 0.253906L335.03 0.378906C335.787 0.413663 336.546 0.46573 337.303 0.535156L340.053 0.785156C340.777 0.851481 341.501 0.865132 342.225 0.820312L344.975 0.648438C345.747 0.600655 346.52 0.604586 347.292 0.65625L348.667 0.746094L350.042 0.839844C350.779 0.889215 351.519 0.91235 352.256 0.910156L355.006 0.902344C355.742 0.900115 356.478 0.865142 357.213 0.800781L358.588 0.679688L359.963 0.5625C360.735 0.495006 361.508 0.477624 362.28 0.511719L363.655 0.570312L365.03 0.632812C365.784 0.666129 366.538 0.708426 367.292 0.761719L370.042 0.957031C370.748 1.00694 371.455 0.963876 372.163 0.828125L373.538 0.566406L374.913 0.300781C375.703 0.149265 376.495 0.0983668 377.288 0.148438L378.663 0.234375L380.038 0.324219C380.801 0.372458 381.564 0.451204 382.327 0.5625L383.702 0.761719L385.077 0.964844C385.812 1.07217 386.549 1.14567 387.284 1.1875L390.034 1.34375C390.726 1.38313 391.421 1.30342 392.12 1.10547L393.495 0.71875L394.87 0.328125C395.685 0.0971778 396.506 0.0367253 397.327 0.152344L398.702 0.347656L400.077 0.539062C400.783 0.638471 401.488 0.646514 402.194 0.558594L404.944 0.214844C405.742 0.115353 406.541 0.131313 407.338 0.265625L408.713 0.5L410.088 0.730469C410.825 0.854684 411.563 0.949684 412.299 1.01172L413.674 1.125L415.049 1.24219C415.744 1.30063 416.44 1.24756 417.139 1.07812L418.514 0.742188L419.889 0.410156C420.706 0.212134 421.527 0.186035 422.346 0.335938L423.721 0.589844L425.096 0.839844C425.817 0.97173 426.537 1.03914 427.256 1.03906H430.006C430.736 1.03898 431.468 0.991306 432.198 0.902344L433.573 0.738281L434.948 0.570312C435.734 0.474621 436.521 0.467849 437.307 0.550781L440.057 0.839844C440.792 0.917475 441.529 0.963021 442.264 0.976562L443.639 1.00391L445.014 1.02734C445.74 1.04068 446.467 1.0006 447.194 0.910156L448.569 0.742188L449.944 0.570312C450.705 0.475525 451.468 0.405973 452.229 0.363281L454.979 0.207031C455.774 0.162501 456.569 0.226516 457.362 0.398438L458.737 0.699219L460.112 0.996094C460.838 1.15366 461.556 1.25465 462.264 1.29688L463.612 1.37891L464.959 1.45703C465.728 1.50298 466.48 1.62576 467.213 1.82812L469.776 2.53906C470.502 2.73939 471.214 2.99738 471.909 3.31641L473.139 3.88281L474.37 4.44531C475.089 4.77559 475.741 5.21457 476.327 5.75781L477.331 6.69141L478.334 7.62109C478.9 8.14578 479.432 8.71576 479.928 9.33203L481.694 11.5273C482.225 12.1872 482.577 12.9356 482.749 13.7656L483.038 15.1445L483.323 16.5234C483.481 17.2899 483.606 18.0603 483.698 18.8281L483.862 20.207L484.026 21.5898C484.117 22.3604 484.165 23.1309 484.174 23.8984L484.194 25.2734L484.209 26.6484C484.219 27.4168 484.184 28.1851 484.104 28.9531L483.959 30.3281L483.819 31.7031C483.744 32.4263 483.725 33.1521 483.768 33.875L483.932 36.625C483.978 37.3984 483.968 38.172 483.901 38.9453L483.78 40.3203L483.663 41.6953C483.598 42.4372 483.552 43.1801 483.522 43.9219L483.463 45.2969L483.409 46.6719C483.379 47.4058 483.385 48.1411 483.424 48.875L483.573 51.625C483.613 52.3661 483.673 53.1104 483.752 53.8516L483.897 55.2266L484.045 56.6016C484.128 57.3709 484.164 58.1404 484.151 58.9102L484.104 61.6602C484.091 62.4018 484.094 63.1451 484.116 63.8867L484.194 66.6367C484.217 67.4361 484.125 68.2366 483.917 69.0312L483.553 70.4062L483.194 71.7812C483.011 72.4779 482.949 73.1718 483.006 73.8633L483.233 76.6133C483.293 77.3433 483.393 78.0738 483.538 78.8047L483.811 80.1797L484.081 81.5547C484.236 82.3432 484.299 83.1351 484.264 83.9258L484.139 86.6758C484.106 87.4099 484.11 88.1447 484.147 88.8789L484.213 90.2539L484.284 91.6289C484.323 92.4183 484.267 93.2085 484.12 93.9961L483.866 95.3711L483.608 96.7461C483.472 97.4745 483.383 98.2023 483.342 98.9297L483.186 101.68C483.145 102.412 483.142 103.146 483.178 103.879L483.245 105.254L483.315 106.629C483.352 107.38 483.383 108.132 483.413 108.883L483.467 110.258L483.518 111.633C483.547 112.375 483.594 113.117 483.659 113.859L483.901 116.609C483.97 117.4 483.942 118.191 483.819 118.98L483.389 121.73C483.278 122.441 483.252 123.15 483.315 123.859L483.44 125.234L483.561 126.609C483.63 127.384 483.64 128.159 483.592 128.934L483.506 130.309L483.424 131.684C483.378 132.437 483.321 133.192 483.26 133.945L483.151 135.32L483.038 136.695C482.979 137.415 482.984 138.135 483.053 138.855L483.319 141.605C483.39 142.345 483.485 143.085 483.604 143.824L484.049 146.574C484.174 147.351 484.232 148.129 484.225 148.906L484.209 150.281L484.198 151.656C484.191 152.419 484.156 153.183 484.092 153.945L483.858 156.695C483.798 157.413 483.808 158.133 483.885 158.852L484.034 160.227L484.178 161.602C484.264 162.408 484.215 163.213 484.03 164.016L483.397 166.766C483.233 167.478 483.152 168.189 483.159 168.898L483.174 170.273L483.186 171.648C483.193 172.393 483.211 173.138 483.241 173.883L483.35 176.633C483.379 177.36 483.455 178.088 483.581 178.816L484.057 181.566C484.196 182.373 484.196 183.182 484.057 183.988L483.819 185.363L483.584 186.738C483.458 187.474 483.364 188.21 483.303 188.945L483.077 191.695C483.019 192.399 483.058 193.103 483.194 193.809L483.725 196.559C483.875 197.336 483.96 198.115 483.975 198.895L483.999 200.27L484.026 201.645C484.041 202.421 483.993 203.197 483.885 203.973L483.502 206.723C483.402 207.446 483.359 208.172 483.374 208.895L483.405 210.27L483.432 211.645C483.447 212.38 483.494 213.116 483.573 213.852L483.717 215.227L483.866 216.602C483.95 217.398 483.922 218.197 483.78 218.992L483.288 221.742C483.166 222.427 483.181 223.111 483.331 223.797L483.631 225.172L483.928 226.547C484.099 227.327 484.195 228.108 484.213 228.891L484.245 230.266L484.28 231.641C484.298 232.402 484.288 233.164 484.252 233.926L484.127 236.676C484.092 237.434 484.036 238.192 483.963 238.949L483.834 240.324L483.702 241.699C483.63 242.449 483.556 243.203 483.483 243.953L483.217 246.703C483.149 247.408 483.176 248.114 483.295 248.82L483.53 250.195L483.76 251.57C483.894 252.359 483.933 253.148 483.877 253.938L483.682 256.688C483.632 257.401 483.66 258.117 483.764 258.832L484.163 261.582C484.279 262.382 484.274 263.181 484.147 263.98L483.928 265.355L483.713 266.73C483.601 267.44 483.575 268.151 483.639 268.859L483.889 271.609C483.961 272.4 483.934 273.191 483.811 273.98L483.6 275.355L483.385 276.73C483.272 277.462 483.198 278.195 483.167 278.926L483.108 280.301L483.045 281.676C483.015 282.381 483.076 283.088 483.229 283.797L483.53 285.172L483.827 286.547C483.995 287.323 484.1 288.101 484.139 288.879L484.28 291.629C484.319 292.409 484.286 293.19 484.186 293.969L483.834 296.719C483.743 297.431 483.73 298.144 483.799 298.855L483.932 300.23L484.069 301.605C484.147 302.41 484.095 303.215 483.913 304.016L483.596 305.391L483.284 306.766C483.121 307.483 483.032 308.199 483.014 308.914L482.979 310.289L482.948 311.664C482.931 312.366 483.012 313.071 483.194 313.777L483.545 315.152L483.901 316.527C484.111 317.346 484.143 318.17 483.995 318.992L483.495 321.742C483.368 322.44 483.355 323.136 483.452 323.832L483.834 326.582C483.945 327.372 483.96 328.167 483.877 328.957L483.588 331.707C483.51 332.454 483.439 333.202 483.37 333.949L483.112 336.699C483.046 337.404 483.08 338.11 483.206 338.816L483.448 340.191L483.694 341.566C483.834 342.353 483.885 343.142 483.846 343.93L483.78 345.305L483.709 346.68C483.672 347.436 483.617 348.193 483.545 348.949L483.413 350.324L483.284 351.699C483.215 352.419 483.211 353.14 483.276 353.859L483.526 356.609C483.594 357.365 483.647 358.123 483.686 358.879L483.827 361.629C483.866 362.388 483.882 363.147 483.877 363.906L483.862 366.656C483.857 367.393 483.881 368.131 483.936 368.867L484.038 370.242L484.143 371.617C484.201 372.397 484.185 373.177 484.1 373.957L483.803 376.707C483.722 377.452 483.651 378.197 483.592 378.941L483.374 381.691C483.317 382.402 483.346 383.113 483.459 383.824L483.897 386.574C484.02 387.343 484.097 388.114 484.131 388.883L484.194 390.258L484.252 391.633C484.287 392.417 484.242 393.202 484.116 393.984L483.897 395.359L483.674 396.734C483.558 397.46 483.495 398.186 483.487 398.91L483.456 401.66C483.447 402.396 483.471 403.131 483.522 403.867L483.709 406.617C483.763 407.397 483.747 408.178 483.663 408.957L483.366 411.707C483.285 412.446 483.229 413.187 483.198 413.926L483.139 415.301L483.084 416.676C483.055 417.39 483.096 418.105 483.213 418.82L483.667 421.57C483.797 422.367 483.814 423.167 483.713 423.965L483.538 425.34L483.366 426.715C483.277 427.415 483.292 428.115 483.413 428.816L483.651 430.191L483.885 431.566C484.018 432.34 484.094 433.116 484.112 433.891L484.147 435.266L484.178 436.641C484.197 437.428 484.126 438.215 483.971 439L483.432 441.75C483.297 442.438 483.292 443.125 483.42 443.812L483.678 445.188L483.932 446.562C484.08 447.357 484.12 448.153 484.045 448.949L483.913 450.324L483.784 451.699C483.713 452.449 483.641 453.199 483.569 453.949L483.44 455.324L483.307 456.699C483.237 457.434 483.201 458.171 483.198 458.906L483.19 460.281L483.186 461.656C483.183 462.376 483.242 463.096 483.366 463.816L483.842 466.566C483.978 467.353 484.022 468.142 483.979 468.93L483.905 470.305L483.827 471.68C483.785 472.435 483.732 473.19 483.667 473.945L483.549 475.32L483.428 476.695C483.366 477.415 483.369 478.136 483.436 478.855L483.694 481.605C483.767 482.386 483.77 483.168 483.698 483.949L483.569 485.324L483.444 486.699C483.379 487.402 483.412 488.104 483.545 488.809L484.069 491.559C484.225 492.382 484.2 493.207 483.991 494.027L483.288 496.777C483.111 497.469 483.064 498.157 483.143 498.844L483.463 501.594C483.55 502.344 483.635 503.098 483.721 503.848L483.877 505.223L484.038 506.598C484.13 507.407 484.075 508.218 483.877 509.023L483.206 511.773C483.042 512.44 483.051 513.105 483.233 513.773L483.604 515.148L483.979 516.523C484.194 517.316 484.294 518.112 484.28 518.91L484.233 521.66C484.22 522.415 484.195 523.171 484.159 523.926L484.026 526.676C483.991 527.41 483.99 528.145 484.026 528.879L484.159 531.629C484.196 532.393 484.202 533.158 484.17 533.922L484.112 535.297L484.057 536.672C484.026 537.426 483.986 538.183 483.936 538.938L483.756 541.688C483.708 542.418 483.701 543.149 483.737 543.879L483.803 545.254L483.874 546.629C483.912 547.405 483.889 548.181 483.803 548.957L483.499 551.707C483.416 552.452 483.344 553.2 483.284 553.945L483.174 555.32L483.061 556.695C483.003 557.413 483.015 558.13 483.096 558.848L483.249 560.223L483.405 561.598C483.49 562.355 483.558 563.113 483.608 563.871L483.788 566.621C483.839 567.411 483.797 568.2 483.659 568.988L483.174 571.738C483.054 572.423 483.07 573.11 483.221 573.797L483.522 575.172L483.827 576.547C484.002 577.342 484.062 578.139 484.006 578.938L483.811 581.688C483.76 582.409 483.771 583.133 483.842 583.855L484.116 586.605C484.192 587.374 484.222 588.142 484.209 588.91L484.186 590.285L484.167 591.66C484.154 592.434 484.083 593.208 483.959 593.98L483.522 596.73C483.406 597.46 483.336 598.193 483.311 598.922L483.217 601.672C483.192 602.409 483.196 603.146 483.225 603.883L483.334 606.633C483.364 607.378 483.402 608.129 483.452 608.883L483.545 610.273L483.635 611.664C483.689 612.486 483.586 613.291 483.327 614.074L482.889 615.398L482.452 616.727C482.2 617.488 481.859 618.206 481.432 618.883L480.69 620.062L479.948 621.238C479.515 621.925 478.984 622.526 478.362 623.039L476.229 624.797C475.618 625.301 474.961 625.725 474.26 626.066L473.038 626.66L471.819 627.25C471.133 627.584 470.429 627.869 469.706 628.102L467.135 628.93C466.412 629.162 465.666 629.346 464.901 629.484L463.538 629.73L462.17 629.977C461.357 630.124 460.541 630.102 459.725 629.906L458.35 629.574L456.975 629.246C456.27 629.077 455.567 629.01 454.866 629.043L453.491 629.105L452.116 629.172C451.395 629.206 450.67 629.304 449.948 629.465L448.573 629.77L447.198 630.078C446.376 630.261 445.551 630.259 444.729 630.07L443.354 629.754L441.979 629.434C441.285 629.274 440.592 629.24 439.901 629.324L437.151 629.66C436.38 629.754 435.609 629.8 434.838 629.797L433.463 629.789L432.088 629.785C431.319 629.782 430.549 629.731 429.78 629.637L428.405 629.469L427.03 629.305C426.315 629.218 425.6 629.204 424.885 629.27L423.51 629.398L422.135 629.523C421.385 629.593 420.635 629.663 419.885 629.73L418.51 629.852L417.135 629.977C416.375 630.044 415.614 630.085 414.854 630.105L413.479 630.145L412.104 630.18C411.323 630.2 410.54 630.149 409.76 630.023L408.385 629.801L407.01 629.582C406.307 629.469 405.604 629.457 404.901 629.543L402.151 629.879C401.382 629.973 400.612 630.022 399.842 630.023L397.092 630.031C396.349 630.033 395.605 630.049 394.862 630.082L392.112 630.207C391.354 630.241 390.596 630.257 389.838 630.254L388.463 630.246L387.088 630.242C386.319 630.239 385.549 630.187 384.78 630.09L383.405 629.918L382.03 629.742C381.303 629.65 380.573 629.611 379.846 629.621L378.471 629.637L377.096 629.656C376.327 629.666 375.557 629.631 374.788 629.551L373.413 629.406L372.038 629.266C371.334 629.192 370.63 629.216 369.924 629.336L367.174 629.805C366.378 629.94 365.581 629.957 364.784 629.863L363.409 629.703L362.034 629.539C361.301 629.452 360.567 629.406 359.834 629.398L357.084 629.367C356.369 629.359 355.653 629.426 354.936 629.562L352.186 630.086C351.405 630.235 350.621 630.306 349.838 630.305L348.463 630.301H347.088C346.334 630.299 345.581 630.284 344.827 630.262L343.452 630.223L342.077 630.18C341.306 630.157 340.534 630.089 339.764 629.973L338.389 629.762L337.014 629.555C336.285 629.444 335.556 629.378 334.827 629.355L332.077 629.27C331.342 629.247 330.605 629.257 329.87 629.301L327.12 629.465C326.357 629.51 325.594 629.523 324.831 629.508L322.081 629.453C321.367 629.439 320.652 629.5 319.936 629.637L318.561 629.898L317.186 630.164C316.402 630.314 315.616 630.382 314.831 630.363L313.456 630.328L312.081 630.297C311.303 630.278 310.525 630.194 309.749 630.047L308.374 629.785L306.999 629.527C306.309 629.397 305.618 629.391 304.928 629.516L303.553 629.766L302.178 630.012C301.396 630.153 300.614 630.217 299.831 630.199L298.456 630.164L297.081 630.133C296.33 630.115 295.577 630.098 294.827 630.078L293.452 630.043L292.077 630.004C291.314 629.984 290.55 629.935 289.788 629.855L287.038 629.566C286.302 629.489 285.566 629.446 284.831 629.434L282.081 629.387C281.331 629.374 280.58 629.36 279.831 629.348L277.081 629.301C276.361 629.289 275.641 629.339 274.92 629.453L272.17 629.891C271.386 630.014 270.6 630.053 269.815 630.012L268.44 629.941L267.065 629.867C266.337 629.829 265.609 629.842 264.881 629.902L262.131 630.129C261.358 630.193 260.584 630.203 259.811 630.156L258.436 630.07L257.061 629.988C256.311 629.943 255.561 629.898 254.811 629.852L253.436 629.77L252.061 629.684C251.323 629.638 250.584 629.619 249.846 629.629L248.471 629.648L247.096 629.664C246.367 629.673 245.638 629.731 244.909 629.832L243.534 630.02L242.159 630.211C241.377 630.319 240.594 630.348 239.811 630.301L238.436 630.219L237.061 630.133C236.328 630.088 235.595 630.081 234.862 630.109L233.487 630.164L232.112 630.215C231.326 630.245 230.537 630.193 229.752 630.055L227.002 629.57C226.272 629.441 225.541 629.352 224.811 629.309L223.436 629.23L222.061 629.148C221.318 629.105 220.574 629.075 219.831 629.062L217.081 629.016C216.365 629.003 215.649 629.066 214.932 629.199L213.557 629.453L212.182 629.711C211.397 629.857 210.61 629.915 209.823 629.887L207.073 629.785C206.33 629.758 205.585 629.747 204.842 629.75L203.467 629.758L202.092 629.762C201.316 629.765 200.54 629.709 199.764 629.59L198.389 629.375L197.014 629.164C196.333 629.059 195.652 629.097 194.967 629.273L193.592 629.625L192.217 629.98C191.428 630.184 190.635 630.285 189.842 630.285H188.467L187.092 630.289C186.316 630.29 185.539 630.229 184.764 630.109L183.389 629.898L182.014 629.684C181.286 629.571 180.558 629.51 179.831 629.492L178.456 629.457L177.081 629.426C176.344 629.408 175.606 629.416 174.87 629.457L173.495 629.535L172.12 629.609C171.341 629.652 170.561 629.631 169.784 629.543L167.034 629.23C166.322 629.15 165.609 629.149 164.897 629.23L163.522 629.391L162.147 629.547C161.383 629.635 160.618 629.689 159.854 629.711L158.479 629.754L157.104 629.793C156.323 629.816 155.541 629.762 154.76 629.637L153.385 629.418L152.01 629.195C151.289 629.079 150.567 629.026 149.846 629.035L148.471 629.051L147.096 629.07C146.353 629.079 145.609 629.101 144.866 629.141L142.116 629.289C141.35 629.33 140.584 629.332 139.819 629.297L138.444 629.234L137.069 629.168C136.341 629.134 135.61 629.149 134.881 629.211L132.131 629.445C131.37 629.51 130.608 629.547 129.846 629.555L128.471 629.566L127.096 629.582C126.364 629.59 125.63 629.637 124.897 629.723L122.147 630.043C121.356 630.135 120.563 630.13 119.772 630.023L118.397 629.836L117.022 629.652C116.289 629.553 115.556 629.487 114.823 629.461L113.448 629.414L112.073 629.363C111.359 629.337 110.644 629.385 109.928 629.512L108.553 629.758L107.178 630C106.394 630.139 105.608 630.192 104.823 630.164L102.073 630.07C101.303 630.043 100.533 629.97 99.7642 629.852L97.0142 629.43C96.2935 629.319 95.5737 629.271 94.854 629.289L93.479 629.324L92.104 629.355C91.3797 629.373 90.6537 629.446 89.9282 629.574L88.5532 629.82L87.1782 630.062C86.3905 630.202 85.6004 630.249 84.811 630.203L82.061 630.047C81.3032 630.003 80.5453 629.941 79.7876 629.859L78.4126 629.711L77.0376 629.559C76.2988 629.479 75.5575 629.424 74.8188 629.395L72.0688 629.285C71.3322 629.256 70.5946 629.254 69.8579 629.281L67.1079 629.383C66.3663 629.41 65.623 629.453 64.8813 629.516L62.1313 629.75C61.371 629.814 60.6106 629.854 59.8501 629.867L57.1001 629.914C56.3199 629.928 55.5393 629.87 54.7603 629.742L52.0103 629.289C51.3113 629.174 50.6112 629.17 49.9126 629.273L47.1626 629.68C46.3947 629.794 45.6264 629.865 44.8579 629.891L42.1079 629.984C41.3515 630.01 40.5948 630.017 39.8384 630.012L37.0884 629.996C36.3121 629.991 35.5355 629.921 34.7603 629.793L32.0103 629.34C31.2867 629.22 30.5608 629.157 29.8384 629.156H28.4634L27.0884 629.152C26.3639 629.152 25.6383 629.205 24.9126 629.312L22.1626 629.719C21.3433 629.84 20.5348 629.789 19.7446 629.566L18.4243 629.195L17.1001 628.82C16.3984 628.622 15.6768 628.466 14.936 628.348L12.147 627.902C11.2708 627.762 10.5339 627.349 9.95557 626.676L9.0376 625.605L8.11572 624.531C7.61 623.942 7.13059 623.359 6.67822 622.781L5.85791 621.734L5.0376 620.684C4.58563 620.106 4.13515 619.508 3.68994 618.891L2.07275 616.648C1.58185 615.968 1.2827 615.208 1.18213 614.375L1.01807 613L0.850098 611.629C0.760156 610.883 0.664659 610.137 0.561035 609.391L0.178223 606.641C0.0678812 605.846 0.0645104 605.049 0.17041 604.254L0.537598 601.504C0.633326 600.785 0.664094 600.066 0.627441 599.348L0.486816 596.598C0.44841 595.845 0.415697 595.092 0.38916 594.34L0.342285 592.965L0.291504 591.59C0.264614 590.827 0.268588 590.063 0.299316 589.301L0.408691 586.551C0.439246 585.793 0.49073 585.035 0.561035 584.277L0.689941 582.902L0.814941 581.527C0.882177 580.803 0.895048 580.076 0.850098 579.352L0.678223 576.602C0.632454 575.865 0.559171 575.128 0.459473 574.391L0.275879 573.016L0.0883789 571.641C-0.0222942 570.823 0.0354414 570.004 0.256348 569.191L0.627441 567.816L1.00244 566.441C1.19257 565.742 1.26709 565.045 1.2251 564.352L1.13916 562.977L1.05713 561.602C1.01276 560.869 0.932329 560.136 0.814941 559.402L0.596191 558.027L0.373535 556.652C0.249107 555.875 0.188232 555.094 0.193848 554.316L0.217285 551.566C0.22278 550.809 0.242697 550.05 0.283691 549.293L0.35791 547.918L0.436035 546.543C0.47497 545.822 0.45216 545.1 0.369629 544.379L0.213379 543.004L0.0532227 541.629C-0.0384616 540.827 -0.00330498 540.026 0.154785 539.227L0.428223 537.852L0.697754 536.477C0.837356 535.771 0.87924 535.066 0.822754 534.363L0.713379 532.988L0.600098 531.613C0.536455 530.823 0.570389 530.031 0.697754 529.242L1.14307 526.492C1.2581 525.779 1.28846 525.067 1.24072 524.355L1.15088 522.98L1.05713 521.605C1.0058 520.84 0.991198 520.074 1.01025 519.309L1.04541 517.934L1.07666 516.559C1.09428 515.849 1.02751 515.138 0.877441 514.426L0.299316 511.676C0.131665 510.88 0.0807911 510.08 0.143066 509.281L0.248535 507.906L0.35791 506.531C0.416302 505.783 0.471996 505.034 0.529785 504.285L0.635254 502.91L0.744629 501.535C0.801127 500.803 0.81496 500.068 0.791504 499.336L0.705566 496.586C0.681419 495.832 0.665266 495.078 0.662598 494.324L0.654785 491.574C0.652221 490.848 0.597387 490.121 0.490723 489.395L0.287598 488.02L0.0883789 486.645C-0.02873 485.847 -0.0303321 485.048 0.0883789 484.25L0.29541 482.875L0.498535 481.5C0.605975 480.779 0.649398 480.056 0.627441 479.336L0.584473 477.961L0.54541 476.586C0.522205 475.824 0.526824 475.063 0.561035 474.301L0.623535 472.926L0.682129 471.551C0.716412 470.788 0.781705 470.024 0.873535 469.262L1.0376 467.887L1.20557 466.512C1.28918 465.817 1.25694 465.123 1.11182 464.426L0.82666 463.051L0.537598 461.676C0.372661 460.885 0.312183 460.09 0.354004 459.297L0.428223 457.922L0.498535 456.547C0.538566 455.79 0.597147 455.031 0.67041 454.273L0.936035 451.523C1.00543 450.806 1.00501 450.089 0.936035 449.371L0.67041 446.621C0.595514 445.843 0.588833 445.063 0.646973 444.285L0.850098 441.535C0.902768 440.83 0.862052 440.125 0.725098 439.418L0.459473 438.043L0.189941 436.668C0.0352384 435.87 0.00064081 435.069 0.0844727 434.27L0.373535 431.52C0.450781 430.783 0.498859 430.045 0.518066 429.309L0.588379 426.559C0.608018 425.805 0.635529 425.05 0.67041 424.297L0.736816 422.922L0.799316 421.547C0.833397 420.81 0.841751 420.073 0.822754 419.336L0.752441 416.586C0.733297 415.844 0.692252 415.101 0.635254 414.359L0.424316 411.609C0.363385 410.816 0.407844 410.022 0.557129 409.23L0.818848 407.855L1.07666 406.48C1.20608 405.795 1.20213 405.108 1.06104 404.422L0.775879 403.047L0.494629 401.672C0.333016 400.885 0.264515 400.097 0.287598 399.309L0.365723 396.559C0.388526 395.783 0.470441 395.005 0.611816 394.23L0.865723 392.855L1.11572 391.48C1.2424 390.786 1.25239 390.092 1.14697 389.398L0.939941 388.023L0.729004 386.648C0.607336 385.849 0.607409 385.046 0.729004 384.246L0.936035 382.871L1.14697 381.496C1.25668 380.774 1.30543 380.053 1.2915 379.332L1.23682 376.582C1.22293 375.865 1.14029 375.145 0.986816 374.426L0.400879 371.676C0.226168 370.857 0.227546 370.034 0.404785 369.215L0.998535 366.465C1.14558 365.785 1.14808 365.106 1.00244 364.426L0.705566 363.051L0.412598 361.676C0.237003 360.855 0.240252 360.031 0.424316 359.211L1.0415 356.461C1.19957 355.756 1.25619 355.053 1.21338 354.352L1.13135 352.977L1.04541 351.602C1.00012 350.86 0.938034 350.117 0.85791 349.375L0.561035 346.625C0.477715 345.853 0.446157 345.081 0.467285 344.309L0.54541 341.559C0.566377 340.793 0.620982 340.027 0.713379 339.262L0.881348 337.887L1.04541 336.512C1.12973 335.813 1.10787 335.114 0.975098 334.414L0.45166 331.664C0.304548 330.888 0.220446 330.109 0.20166 329.332L0.17041 327.957L0.135254 326.582C0.116925 325.822 0.123718 325.061 0.154785 324.301L0.213379 322.926L0.268066 321.551C0.299188 320.79 0.356771 320.027 0.439941 319.266L0.588379 317.891L0.740723 316.516C0.818236 315.805 0.813864 315.094 0.725098 314.383L0.381348 311.633C0.281889 310.836 0.29488 310.038 0.424316 309.242L0.646973 307.867L0.873535 306.492C0.98659 305.797 0.981866 305.102 0.861816 304.406L0.385254 301.656C0.245653 300.847 0.257126 300.035 0.412598 299.227L0.674316 297.852L0.939941 296.477C1.07013 295.799 1.05292 295.122 0.885254 294.441L0.205566 291.691C0.000505434 290.859 0.0111465 290.022 0.23291 289.191L0.967285 286.441C1.15101 285.752 1.19916 285.067 1.11572 284.383L0.779785 281.633C0.687002 280.873 0.618104 280.112 0.572754 279.352L0.408691 276.602C0.362317 275.824 0.382817 275.047 0.467285 274.27L0.76416 271.52C0.842456 270.8 0.858369 270.079 0.807129 269.359L0.705566 267.984L0.60791 266.609C0.551878 265.825 0.577844 265.038 0.686035 264.254L1.06885 261.504C1.16829 260.784 1.20097 260.063 1.17041 259.344L1.05322 256.594C1.0223 255.867 0.942407 255.138 0.811035 254.41L0.561035 253.035L0.314941 251.66C0.172558 250.871 0.123802 250.08 0.174316 249.289L0.26416 247.914L0.350098 246.539C0.397156 245.802 0.417078 245.065 0.408691 244.328L0.377441 241.578C0.368745 240.815 0.391116 240.052 0.443848 239.289L0.537598 237.914L0.635254 236.539C0.685173 235.818 0.674044 235.093 0.600098 234.371L0.459473 232.996L0.314941 231.621C0.233053 230.82 0.278477 230.017 0.443848 229.219L0.725098 227.844L1.01025 226.469C1.15862 225.752 1.23263 225.035 1.23291 224.32L1.23682 222.945V221.57C1.23709 220.827 1.22433 220.083 1.19775 219.34L1.09619 216.59C1.06883 215.825 1.07664 215.058 1.11963 214.293L1.27588 211.543C1.31696 210.811 1.31758 210.079 1.27979 209.348L1.13916 206.598C1.10022 205.844 1.07223 205.09 1.05322 204.336L0.98291 201.586C0.964262 200.846 0.924246 200.104 0.861816 199.363L0.627441 196.613C0.56387 195.859 0.511327 195.105 0.467285 194.352L0.385254 192.977L0.307129 191.602C0.260849 190.809 0.313246 190.017 0.467285 189.227L1.00635 186.477C1.13913 185.796 1.12706 185.116 0.971191 184.434L0.654785 183.059L0.342285 181.684C0.157085 180.873 0.124653 180.059 0.248535 179.246L0.67041 176.496C0.78134 175.768 0.843507 175.04 0.85791 174.312L0.912598 171.562C0.927179 170.825 0.913606 170.085 0.873535 169.348L0.725098 166.598C0.68424 165.845 0.648262 165.092 0.619629 164.34L0.568848 162.965L0.51416 161.59C0.485115 160.826 0.489776 160.061 0.525879 159.297L0.588379 157.922L0.654785 156.547C0.689103 155.82 0.67446 155.091 0.611816 154.363L0.377441 151.613C0.308922 150.816 0.352566 150.018 0.510254 149.223L1.05713 146.473C1.19627 145.77 1.2327 145.068 1.1665 144.367L1.03369 142.992L0.904785 141.617C0.83334 140.861 0.777269 140.104 0.736816 139.348L0.588379 136.598C0.546982 135.823 0.566136 135.048 0.643066 134.273L0.916504 131.523C0.990114 130.783 1.04306 130.041 1.07666 129.301L1.20166 126.551C1.23529 125.809 1.25017 125.066 1.24854 124.324V122.949L1.24463 121.574C1.24301 120.848 1.18851 120.121 1.08447 119.395L0.88916 118.02L0.689941 116.645C0.575882 115.849 0.57523 115.05 0.686035 114.254L1.06885 111.504C1.16475 110.816 1.13547 110.125 0.975098 109.434L0.334473 106.684C0.149958 105.888 0.0847992 105.089 0.13916 104.289L0.32666 101.539C0.37801 100.785 0.440822 100.031 0.510254 99.2773L0.760254 96.5273C0.826521 95.8082 0.828149 95.0863 0.760254 94.3672L0.631348 92.9922L0.498535 91.6172C0.426353 90.8521 0.392436 90.0856 0.393066 89.3203V86.5703C0.393704 85.8143 0.410357 85.0568 0.439941 84.3008L0.549316 81.5508C0.579392 80.7837 0.649012 80.0166 0.760254 79.25L1.15869 76.5C1.25785 75.8166 1.22096 75.1328 1.04541 74.4453L0.342285 71.6953C0.133142 70.876 0.106772 70.0529 0.260254 69.2305L0.51416 67.8555L0.771973 66.4805C0.904107 65.7724 0.942276 65.0656 0.88916 64.3594L0.787598 62.9844L0.682129 61.6094C0.624058 60.8373 0.61952 60.0651 0.666504 59.293L0.748535 57.918L0.834473 56.543C0.880228 55.7922 0.928701 55.0399 0.979004 54.2891L1.06885 52.9141L1.1626 51.5391C1.21036 50.8262 1.18097 50.1123 1.07275 49.3984L0.861816 48.0234L0.654785 46.6484C0.534693 45.8571 0.515703 45.0616 0.596191 44.2695L0.73291 42.8945L0.873535 41.5195C0.944854 40.8162 0.918854 40.111 0.79541 39.4062L0.557129 38.0312L0.314941 36.6562C0.172929 35.8442 0.185864 35.0296 0.354004 34.2188L0.924316 31.4688C1.06484 30.79 1.05836 30.1132 0.904785 29.4336L0.592285 28.0586L0.283691 26.6836C0.105359 25.8954 0.0228326 25.1025 0.0375977 24.3086L0.0610352 22.9258L0.0883789 21.5469C0.103327 20.7465 0.231096 19.9593 0.471191 19.1875L0.885254 17.8516L1.30322 16.5195C1.53103 15.7878 1.76678 15.0599 2.01025 14.3438L2.45166 13.0391L2.89697 11.7344C3.16002 10.9608 3.56147 10.2642 4.1001 9.64844L5.92041 7.57031C6.44086 6.97552 7.01691 6.4463 7.65088 5.98828L8.76025 5.19141L9.86572 4.39062C10.4801 3.94688 11.1176 3.52403 11.7798 3.125L12.9751 2.40625L14.1665 1.6875C14.8728 1.26193 15.6404 0.983365 16.4595 0.851562L19.2329 0.40625C19.616 0.344633 19.9309 0.303014 20.1704 0.289062C20.2894 0.282154 20.4055 0.28019 20.5063 0.289062C20.5442 0.292417 20.6034 0.298968 20.6704 0.316406L20.8853 0.414062L21.0728 0.546875L21.2642 0.675781C21.2087 0.637134 21.1748 0.637963 21.2329 0.652344C21.275 0.66269 21.3428 0.678117 21.4399 0.691406C21.6347 0.717968 21.9175 0.739741 22.2876 0.761719L25.0376 0.925781C25.7521 0.9681 26.4667 0.936533 27.1821 0.832031L28.5571 0.632812L29.9321 0.429688C30.702 0.317113 31.4741 0.254764 32.2446 0.238281L33.6196 0.207031L34.9946 0.179688C35.7728 0.163085 36.5532 0.209835 37.3306 0.324219L40.0806 0.730469C40.8072 0.837319 41.5344 0.894243 42.2603 0.898438L45.0103 0.914062C45.7318 0.918175 46.4556 0.8594 47.1782 0.742188L49.9282 0.296875C50.7426 0.165026 51.5578 0.1947 52.3696 0.382812L53.7446 0.699219L55.1196 1.01953C55.8021 1.17761 56.4819 1.19339 57.1626 1.06641L59.9126 0.550781C60.6811 0.407091 61.4519 0.307778 62.2212 0.253906L63.5962 0.15625L64.9712 0.0625C65.7781 0.00600742 66.5838 0.0851161 67.3853 0.300781L70.1353 1.04297C70.812 1.2252 71.4855 1.24794 72.1587 1.11328L73.5337 0.835938L74.9087 0.5625C75.6959 0.405069 76.4864 0.339125 77.2759 0.367188L78.6509 0.417969L80.0259 0.464844C80.7651 0.491084 81.5055 0.49579 82.2446 0.476562L84.9946 0.40625C85.7498 0.386621 86.5051 0.377306 87.2603 0.382812L88.6353 0.394531L90.0103 0.402344C90.7786 0.407956 91.547 0.455949 92.3149 0.546875L95.0649 0.875C95.7821 0.959931 96.5005 0.972177 97.2173 0.914062L98.5923 0.804688L99.9673 0.691406C100.728 0.629732 101.491 0.594331 102.252 0.585938L105.002 0.554688C105.756 0.54639 106.51 0.551071 107.264 0.5625L110.014 0.601562C110.785 0.613263 111.556 0.675153 112.327 0.785156L115.077 1.17578C115.802 1.27931 116.528 1.32801 117.252 1.32031L118.627 1.30859L120.002 1.29297C120.723 1.28524 121.445 1.21204 122.167 1.07812L124.917 0.570312C125.715 0.422261 126.515 0.395511 127.315 0.492188L128.69 0.660156L130.065 0.824219C130.789 0.911817 131.514 0.942391 132.237 0.914062L134.987 0.804688C135.764 0.774237 136.542 0.809397 137.319 0.910156L140.069 1.26953C140.77 1.36056 141.472 1.34733 142.174 1.23047L143.549 1L144.924 0.773438C145.723 0.640419 146.523 0.626449 147.323 0.734375L148.698 0.921875L150.073 1.10547C150.766 1.19909 151.46 1.17692 152.155 1.03516L154.905 0.472656C155.719 0.30629 156.539 0.304681 157.354 0.464844L160.104 1.00391C160.822 1.14496 161.54 1.21606 162.256 1.21484L165.006 1.20703C165.73 1.20575 166.454 1.14977 167.178 1.03516L168.553 0.816406L169.928 0.601562C170.736 0.473804 171.544 0.488297 172.35 0.644531L175.1 1.17578C175.817 1.31487 176.537 1.3794 177.252 1.37109L180.002 1.33984C180.738 1.33125 181.474 1.29359 182.209 1.22656L184.959 0.976562C185.71 0.908129 186.463 0.842483 187.213 0.777344L189.963 0.535156C190.729 0.46875 191.495 0.440345 192.26 0.449219L193.635 0.464844L195.01 0.484375C195.758 0.493101 196.509 0.494632 197.256 0.492188L200.006 0.484375C200.785 0.481923 201.565 0.547032 202.342 0.679688L205.092 1.14844C205.781 1.26576 206.469 1.2566 207.159 1.12109L208.534 0.851562L209.909 0.578125C210.715 0.419445 211.526 0.405331 212.334 0.53125L215.084 0.960938C215.784 1.06981 216.483 1.06961 217.182 0.964844L218.557 0.757812L219.932 0.554688C220.699 0.439853 221.466 0.364362 222.233 0.328125L224.983 0.195312C225.745 0.159335 226.506 0.15348 227.268 0.171875L228.643 0.203125L230.018 0.238281C230.79 0.256937 231.563 0.324273 232.334 0.445312L233.709 0.664062L235.084 0.878906C235.781 0.98809 236.478 0.984963 237.174 0.867188L238.549 0.632812L239.924 0.402344C240.727 0.266692 241.531 0.261373 242.334 0.390625L243.709 0.613281L245.084 0.832031C245.79 0.945688 246.497 0.966157 247.202 0.886719L249.952 0.574219C250.706 0.489238 251.459 0.415336 252.213 0.351562L253.588 0.234375L254.963 0.121094C255.726 0.0565864 256.49 0.020064 257.252 0.015625L260.002 0ZM1.39307 89.3203C1.39246 90.0539 1.42539 90.7896 1.49463 91.5234L1.62354 92.8984L1.75635 94.2734C1.83006 95.0542 1.82827 95.8364 1.75635 96.6172L1.63135 97.9922L1.50244 99.3672C1.43371 100.113 1.37749 100.86 1.32666 101.605L1.13916 104.355C1.09153 105.054 1.14822 105.754 1.31104 106.457L1.62744 107.832L1.94775 109.207C2.1353 110.016 2.17407 110.829 2.06104 111.641L1.67822 114.391C1.58024 115.094 1.58141 115.797 1.68213 116.5L1.87744 117.875L2.07666 119.25C2.18739 120.023 2.24288 120.797 2.24463 121.57L2.24854 122.945V124.32C2.25023 125.078 2.236 125.836 2.20166 126.594L2.07666 129.344C2.04225 130.103 1.98801 130.862 1.9126 131.621L1.63916 134.371C1.56712 135.096 1.54962 135.822 1.58838 136.547L1.73682 139.297C1.77654 140.039 1.83075 140.781 1.90088 141.523L2.15869 144.273C2.23416 145.072 2.19543 145.872 2.0376 146.668L1.49072 149.418C1.35106 150.122 1.31323 150.825 1.37354 151.527L1.60791 154.277C1.67434 155.049 1.69118 155.822 1.65479 156.594L1.58838 157.969L1.52588 159.344C1.4911 160.08 1.48616 160.819 1.51416 161.555L1.56494 162.93L1.61963 164.305C1.64804 165.051 1.68068 165.797 1.72119 166.543L1.86963 169.293C1.91104 170.055 1.92767 170.82 1.9126 171.582L1.85791 174.332C1.84264 175.104 1.77622 175.877 1.65869 176.648L1.23682 179.398C1.1324 180.085 1.16136 180.772 1.31885 181.461L1.94385 184.211C2.13067 185.028 2.14653 185.849 1.98682 186.668L1.71729 188.043L1.45166 189.418C1.3133 190.128 1.2619 190.836 1.30322 191.543L1.46729 194.293C1.51084 195.039 1.56065 195.786 1.62354 196.531L1.85791 199.281C1.9219 200.04 1.96377 200.799 1.98291 201.559L2.05322 204.309C2.07201 205.054 2.10065 205.801 2.13916 206.547L2.27979 209.297C2.31941 210.065 2.319 210.834 2.27588 211.602L2.11963 214.352C2.07844 215.086 2.06995 215.821 2.09619 216.555L2.14697 217.93L2.19385 219.305C2.22084 220.06 2.23709 220.815 2.23682 221.57V222.945L2.23291 224.32C2.2326 225.105 2.15259 225.89 1.99072 226.672L1.42041 229.422C1.27541 230.122 1.23967 230.822 1.31104 231.52L1.59229 234.27C1.67201 235.048 1.68515 235.827 1.63135 236.605L1.5376 237.98L1.43994 239.355C1.38897 240.092 1.36904 240.83 1.37744 241.566L1.40869 244.316C1.41738 245.079 1.39879 245.843 1.3501 246.605L1.26025 247.98L1.17432 249.355C1.1292 250.064 1.17116 250.774 1.29932 251.484L1.54541 252.859L1.79541 254.234C1.93455 255.006 2.02037 255.778 2.05322 256.551L2.17041 259.301C2.20357 260.081 2.16472 260.861 2.05713 261.641L1.86963 263.016L1.67822 264.391C1.57949 265.106 1.55695 265.821 1.60791 266.535L1.80322 269.285C1.85889 270.065 1.84499 270.846 1.76025 271.625L1.60791 273L1.45947 274.375C1.38089 275.097 1.36173 275.821 1.40479 276.543L1.56885 279.293C1.61296 280.032 1.68171 280.772 1.77197 281.512L2.10791 284.262C2.20727 285.076 2.14796 285.89 1.93213 286.699L1.19775 289.449C1.01917 290.118 1.01361 290.785 1.17822 291.453L1.51416 292.828L1.854 294.203C2.0558 295.022 2.07835 295.846 1.92041 296.668L1.65869 298.043L1.39307 299.418C1.26053 300.108 1.25445 300.798 1.37354 301.488L1.61182 302.863L1.84619 304.238C1.98487 305.042 1.98874 305.848 1.85791 306.652L1.4126 309.402C1.29825 310.106 1.28582 310.809 1.37354 311.512L1.71729 314.262C1.81547 315.049 1.81892 315.837 1.73291 316.625L1.58447 318L1.43213 319.375C1.35139 320.114 1.29825 320.855 1.26807 321.594L1.20947 322.969L1.15479 324.344C1.12465 325.082 1.11744 325.82 1.13525 326.559L1.17041 327.934L1.20166 329.309C1.21912 330.031 1.29878 330.757 1.43604 331.48L1.69385 332.855L1.95557 334.23C2.10701 335.03 2.13431 335.832 2.0376 336.633L1.87354 338.008L1.70557 339.383C1.61694 340.117 1.56551 340.852 1.54541 341.586L1.46729 344.336C1.44739 345.063 1.47856 345.792 1.55713 346.52L1.854 349.27C1.93574 350.027 1.9992 350.786 2.04541 351.543L2.12744 352.918L2.21338 354.293C2.26186 355.09 2.19607 355.886 2.01807 356.68L1.40088 359.43C1.24833 360.109 1.24374 360.79 1.38916 361.469L1.68604 362.844L1.979 364.219C2.15401 365.037 2.15195 365.857 1.9751 366.676L1.38135 369.426C1.23403 370.107 1.23226 370.788 1.37744 371.469L1.96338 374.219C2.12971 374.999 2.22168 375.78 2.23682 376.562L2.2915 379.312C2.30655 380.091 2.25347 380.871 2.13525 381.648L1.92822 383.023L1.71729 384.398C1.61109 385.098 1.61094 385.797 1.71729 386.496L1.92822 387.871L2.13525 389.246C2.25763 390.051 2.24664 390.856 2.1001 391.66L1.8501 393.035L1.59619 394.41C1.46376 395.136 1.38704 395.862 1.36572 396.586L1.2876 399.336C1.26671 400.046 1.32858 400.76 1.4751 401.473L2.0376 404.223C2.20453 405.036 2.21446 405.851 2.06104 406.664L1.79932 408.039L1.5415 409.414C1.408 410.122 1.36618 410.83 1.42041 411.535L1.52588 412.91L1.63525 414.285C1.69346 415.043 1.72896 415.801 1.74854 416.559L1.7876 417.934L1.82275 419.309C1.84242 420.07 1.83455 420.832 1.79932 421.594L1.73291 422.969L1.67041 424.344C1.63584 425.09 1.60784 425.839 1.58838 426.586L1.51807 429.336C1.49815 430.099 1.44956 430.862 1.36963 431.625L1.08057 434.375C1.0073 435.075 1.03824 435.775 1.17432 436.477L1.70557 439.227C1.85931 440.019 1.90952 440.814 1.8501 441.609L1.74463 442.984L1.64307 444.359C1.58917 445.081 1.59708 445.802 1.6665 446.523L1.93213 449.273C2.0074 450.055 2.00778 450.839 1.93213 451.621L1.79541 452.996L1.6626 454.371C1.59081 455.113 1.53777 455.856 1.49854 456.598L1.42432 457.973L1.354 459.348C1.3167 460.053 1.37042 460.76 1.51807 461.469L1.80322 462.844L2.09229 464.219C2.25963 465.021 2.29469 465.828 2.19775 466.633L2.02979 468.008L1.86572 469.383C1.77696 470.12 1.71527 470.857 1.68213 471.594L1.61963 472.969L1.56104 474.344C1.52791 475.081 1.51908 475.818 1.5415 476.555L1.62744 479.305C1.65122 480.084 1.60286 480.866 1.48682 481.645L1.28369 483.02L1.07666 484.395C0.972106 485.096 0.9737 485.799 1.07666 486.5L1.27979 487.875L1.479 489.25C1.59243 490.023 1.65205 490.797 1.65479 491.57L1.6626 494.32C1.66523 495.065 1.6817 495.81 1.70557 496.555L1.7915 499.305C1.81612 500.073 1.79995 500.842 1.74072 501.609L1.63525 502.984L1.52588 504.359C1.46801 505.109 1.41248 505.86 1.354 506.609L1.24463 507.984L1.13916 509.359C1.08444 510.061 1.13141 510.764 1.27979 511.469L1.85791 514.219C2.02375 515.006 2.09632 515.796 2.07666 516.586L2.0415 517.961L2.01025 519.336C1.99202 520.07 2.00788 520.805 2.05713 521.539L2.14697 522.914L2.24072 524.289C2.29352 525.077 2.25441 525.866 2.12744 526.652L1.90479 528.027L1.68604 529.402C1.57143 530.113 1.54301 530.822 1.6001 531.531L1.81885 534.281C1.88298 535.078 1.83541 535.874 1.67822 536.668L1.40869 538.043L1.13525 539.418C0.996675 540.118 0.969462 540.818 1.04932 541.516L1.36182 544.266C1.45069 545.043 1.47416 545.82 1.43213 546.598L1.28369 549.348C1.24353 550.089 1.22266 550.832 1.21729 551.574L1.19385 554.324C1.18864 555.046 1.24609 555.769 1.36182 556.492L1.58057 557.867L1.80322 559.242C1.92589 560.008 2.01073 560.776 2.05713 561.543L2.22119 564.293C2.26982 565.099 2.18487 565.903 1.96729 566.703L1.59229 568.078L1.22119 569.453C1.0344 570.14 0.988426 570.822 1.08057 571.504L1.26416 572.879L1.45166 574.254C1.55467 575.015 1.63091 575.777 1.67822 576.539L1.76025 577.914L1.84619 579.289C1.89433 580.065 1.88296 580.842 1.81104 581.617L1.68604 582.992L1.55713 584.367C1.48832 585.109 1.43856 585.852 1.40869 586.594L1.29932 589.344C1.26967 590.081 1.26552 590.818 1.2915 591.555L1.34229 592.93L1.38916 594.305C1.41551 595.052 1.44868 595.8 1.48682 596.547L1.62744 599.297C1.66723 600.077 1.63359 600.857 1.52979 601.637L1.1626 604.387C1.06863 605.092 1.07249 605.799 1.17041 606.504L1.36182 607.875L1.55322 609.25C1.65774 610.002 1.75157 610.756 1.84229 611.508L2.01025 612.883L2.17432 614.254C2.2545 614.918 2.48983 615.519 2.88135 616.062L3.69385 617.184L4.50244 618.309C4.93969 618.915 5.37976 619.501 5.82275 620.066L6.64307 621.117L7.46729 622.164C7.91003 622.73 8.3768 623.304 8.87354 623.883L9.79541 624.953L10.7134 626.023C11.1378 626.518 11.664 626.811 12.3071 626.914L13.6978 627.137L15.0923 627.359C15.8704 627.484 16.6295 627.651 17.3696 627.859L18.6938 628.23L20.0181 628.605C20.6699 628.789 21.3337 628.831 22.0142 628.73L23.3931 628.527L24.7681 628.324C25.5422 628.21 26.3177 628.151 27.0923 628.152L28.4673 628.156H29.8423C30.6195 628.157 31.3982 628.223 32.1743 628.352L33.5493 628.582L34.9243 628.809C35.6475 628.928 36.3701 628.991 37.0923 628.996L39.8423 629.012C40.5852 629.017 41.3298 629.01 42.0728 628.984L44.8228 628.891C45.5537 628.866 46.2866 628.8 47.0181 628.691L48.3931 628.484L49.7681 628.281C50.5686 628.163 51.3702 628.169 52.1704 628.301L54.9204 628.754C55.6406 628.873 56.3616 628.926 57.0806 628.914L59.8306 628.867C60.5693 628.854 61.3104 628.817 62.0493 628.754L64.7993 628.52C65.557 628.455 66.315 628.41 67.0728 628.383L69.8228 628.281C70.5854 628.254 71.3492 628.255 72.1118 628.285L73.4868 628.34L74.8618 628.398C75.6223 628.429 76.3827 628.484 77.1431 628.566L79.8931 628.863C80.6348 628.944 81.378 629.004 82.1196 629.047L83.4946 629.129L84.8696 629.207C85.5799 629.248 86.2905 629.204 87.0024 629.078L88.3774 628.836L89.7524 628.59C90.5263 628.453 91.3017 628.375 92.0767 628.355L93.4517 628.324L94.8267 628.289C95.6065 628.27 96.3876 628.322 97.1665 628.441L99.9165 628.863C100.647 628.976 101.378 629.045 102.108 629.07L103.483 629.117L104.858 629.168C105.572 629.193 106.287 629.142 107.002 629.016L108.377 628.773L109.752 628.527C110.536 628.389 111.322 628.335 112.108 628.363L113.483 628.414L114.858 628.461C115.624 628.489 116.393 628.557 117.159 628.66L118.534 628.848L119.909 629.031C120.617 629.127 121.326 629.134 122.034 629.051L124.784 628.73C125.55 628.641 126.317 628.59 127.084 628.582L128.459 628.566L129.834 628.555C130.572 628.547 131.312 628.512 132.049 628.449L134.799 628.215C135.571 628.149 136.344 628.136 137.116 628.172L139.866 628.297C140.598 628.331 141.332 628.328 142.065 628.289L143.44 628.219L144.815 628.145C145.571 628.104 146.328 628.08 147.084 628.07L148.459 628.051L149.834 628.035C150.614 628.026 151.392 628.082 152.17 628.207L154.92 628.652C155.64 628.768 156.359 628.814 157.077 628.793L158.452 628.754L159.827 628.711C160.562 628.689 161.298 628.639 162.034 628.555L163.409 628.395L164.784 628.238C165.571 628.148 166.359 628.145 167.147 628.234L169.897 628.547C170.619 628.629 171.343 628.653 172.065 628.613L173.44 628.535L174.815 628.461C175.578 628.419 176.341 628.407 177.104 628.426L178.479 628.457L179.854 628.492C180.625 628.511 181.396 628.577 182.167 628.695L183.542 628.91L184.917 629.121C185.641 629.233 186.368 629.29 187.092 629.289L188.467 629.285H189.842C190.548 629.285 191.257 629.195 191.967 629.012L193.342 628.656L194.717 628.305C195.531 628.095 196.349 628.05 197.167 628.176L198.542 628.387L199.917 628.602C200.641 628.713 201.365 628.765 202.088 628.762L203.463 628.758L204.838 628.75C205.595 628.747 206.351 628.758 207.108 628.785L209.858 628.887C210.57 628.913 211.284 628.86 211.999 628.727L213.374 628.469L214.749 628.215C215.531 628.069 216.316 628.002 217.1 628.016L219.85 628.062C220.607 628.076 221.363 628.104 222.12 628.148L224.87 628.312C225.639 628.358 226.409 628.446 227.178 628.582L228.553 628.828L229.928 629.07C230.643 629.197 231.359 629.247 232.073 629.219L234.823 629.109C235.588 629.08 236.354 629.09 237.12 629.137L238.495 629.219L239.87 629.305C240.586 629.348 241.305 629.318 242.022 629.219L243.397 629.031L244.772 628.84C245.542 628.733 246.314 628.674 247.084 628.664L248.459 628.648L249.834 628.629C250.596 628.619 251.358 628.641 252.12 628.688L253.495 628.77L254.87 628.855C255.619 628.901 256.37 628.947 257.12 628.992L259.87 629.156C260.596 629.2 261.323 629.193 262.049 629.133L264.799 628.906C265.571 628.843 266.344 628.831 267.116 628.871L268.491 628.941L269.866 629.016C270.581 629.053 271.298 629.015 272.014 628.902L273.389 628.684L274.764 628.469C275.542 628.346 276.321 628.288 277.1 628.301L279.85 628.348C280.6 628.36 281.35 628.374 282.1 628.387L284.85 628.434C285.614 628.446 286.379 628.494 287.143 628.574L288.518 628.715L289.893 628.859C290.63 628.937 291.367 628.985 292.104 629.004L293.479 629.043L294.854 629.078C295.603 629.098 296.355 629.115 297.104 629.133L298.479 629.168L299.854 629.199C300.569 629.216 301.286 629.161 302.002 629.031L304.752 628.531C305.562 628.385 306.373 628.39 307.182 628.543L309.932 629.066C310.656 629.204 311.382 629.28 312.104 629.297L313.479 629.328L314.854 629.363C315.567 629.38 316.28 629.32 316.995 629.184L318.37 628.918L319.745 628.656C320.528 628.506 321.315 628.437 322.1 628.453L324.85 628.508C325.587 628.523 326.324 628.508 327.061 628.465L329.811 628.301C330.576 628.256 331.343 628.246 332.108 628.27L334.858 628.355C335.627 628.379 336.398 628.45 337.167 628.566L339.917 628.98C340.646 629.091 341.375 629.158 342.104 629.18L343.479 629.223L344.854 629.262C345.599 629.284 346.347 629.299 347.092 629.301H348.467L349.842 629.305C350.56 629.306 351.279 629.239 351.999 629.102L354.749 628.578C355.53 628.429 356.313 628.359 357.096 628.367L359.846 628.398C360.614 628.407 361.383 628.456 362.151 628.547L363.526 628.711L364.901 628.871C365.602 628.954 366.304 628.936 367.006 628.816L369.756 628.348C370.551 628.213 371.347 628.187 372.143 628.27L373.518 628.414L374.893 628.555C375.624 628.631 376.354 628.666 377.084 628.656L378.459 628.637L379.834 628.621C380.608 628.611 381.382 628.652 382.155 628.75L383.53 628.926L384.905 629.098C385.634 629.19 386.363 629.239 387.092 629.242L388.467 629.246L389.842 629.254C390.584 629.257 391.327 629.24 392.069 629.207L394.819 629.082C395.575 629.048 396.332 629.033 397.088 629.031L399.838 629.023C400.568 629.022 401.3 628.976 402.03 628.887L404.78 628.551C405.577 628.453 406.374 628.466 407.17 628.594L408.545 628.816L409.92 629.035C410.64 629.15 411.358 629.199 412.077 629.18L414.827 629.109C415.566 629.09 416.306 629.046 417.045 628.98L418.42 628.855L419.795 628.734C420.545 628.667 421.296 628.6 422.045 628.531L423.42 628.402L424.795 628.277C425.581 628.205 426.366 628.213 427.151 628.309L429.901 628.645C430.631 628.734 431.362 628.782 432.092 628.785L433.467 628.789L434.842 628.797C435.571 628.8 436.3 628.753 437.03 628.664L439.78 628.328C440.588 628.229 441.396 628.276 442.202 628.461L444.952 629.094C445.629 629.25 446.306 629.253 446.983 629.102L448.358 628.797L449.733 628.488C450.51 628.315 451.29 628.209 452.069 628.172L453.444 628.109L454.819 628.043C455.616 628.005 456.412 628.083 457.206 628.273L458.581 628.602L459.956 628.934C460.639 629.098 461.32 629.118 461.995 628.996L463.358 628.746L464.721 628.5C465.444 628.369 466.147 628.195 466.827 627.977L468.112 627.562L469.401 627.148C470.079 626.93 470.738 626.664 471.381 626.352L472.604 625.758L473.823 625.168C474.451 624.862 475.041 624.482 475.592 624.027L477.725 622.27C478.265 621.825 478.723 621.304 479.1 620.707L479.842 619.527L480.584 618.352C480.968 617.744 481.276 617.098 481.502 616.414L481.94 615.086L482.377 613.762C482.596 613.099 482.685 612.42 482.639 611.727L482.545 610.34L482.456 608.949C482.405 608.187 482.365 607.426 482.334 606.672L482.225 603.922C482.195 603.16 482.191 602.398 482.217 601.637L482.311 598.887C482.337 598.116 482.411 597.344 482.534 596.574L482.756 595.199L482.975 593.824C483.091 593.097 483.155 592.37 483.167 591.645L483.186 590.27L483.209 588.895C483.221 588.164 483.192 587.434 483.12 586.703L482.846 583.953C482.769 583.175 482.76 582.395 482.815 581.617L482.913 580.242L483.006 578.867C483.056 578.167 483.005 577.465 482.85 576.762L482.545 575.387L482.245 574.012C482.066 573.199 482.047 572.381 482.19 571.566L482.674 568.816C482.799 568.106 482.838 567.396 482.792 566.688L482.702 565.312L482.608 563.938C482.559 563.196 482.496 562.453 482.413 561.711L482.1 558.961C482.012 558.179 482.002 557.395 482.065 556.613L482.174 555.238L482.288 553.863C482.349 553.108 482.419 552.352 482.502 551.598L482.807 548.848C482.887 548.125 482.909 547.402 482.874 546.68L482.807 545.305L482.737 543.93C482.699 543.161 482.706 542.39 482.756 541.621L482.936 538.871C482.985 538.125 483.027 537.379 483.057 536.633L483.112 535.258L483.17 533.883C483.2 533.148 483.198 532.411 483.163 531.676L483.03 528.926C482.993 528.16 482.989 527.394 483.026 526.629L483.159 523.879C483.194 523.134 483.22 522.389 483.233 521.645L483.28 518.895C483.292 518.194 483.206 517.491 483.014 516.785L482.264 514.035C482.039 513.204 482.029 512.368 482.233 511.535L482.569 510.16L482.909 508.785C483.079 508.092 483.121 507.4 483.042 506.711L482.729 503.961C482.643 503.211 482.554 502.461 482.467 501.711L482.311 500.336L482.151 498.961C482.057 498.149 482.113 497.338 482.319 496.531L482.67 495.156L483.018 493.781C483.191 493.101 483.213 492.423 483.084 491.746L482.827 490.371L482.565 488.996C482.414 488.201 482.374 487.403 482.448 486.605L482.573 485.23L482.702 483.855C482.768 483.137 482.765 482.418 482.698 481.699L482.44 478.949C482.367 478.17 482.365 477.389 482.432 476.609L482.553 475.234L482.67 473.859C482.735 473.115 482.79 472.37 482.831 471.625L482.979 468.875C483.018 468.163 482.977 467.451 482.854 466.738L482.62 465.363L482.381 463.988C482.314 463.599 482.266 463.21 482.233 462.82L482.186 461.652L482.19 460.277L482.198 458.902C482.201 458.137 482.238 457.37 482.311 456.605L482.577 453.855L482.917 450.23L483.049 448.855C483.116 448.153 483.083 447.45 482.952 446.746L482.436 443.996C482.284 443.184 482.288 442.367 482.448 441.555L482.721 440.18L482.991 438.805C483.131 438.09 483.195 437.377 483.178 436.664L483.147 435.289L483.112 433.914C483.095 433.189 483.026 432.464 482.901 431.738L482.663 430.363L482.428 428.988C482.291 428.19 482.273 427.389 482.374 426.59L482.545 425.215L482.721 423.84C482.81 423.138 482.794 422.437 482.678 421.734L482.452 420.359L482.229 418.984C482.1 418.201 482.052 417.417 482.084 416.633L482.139 415.258L482.198 413.883C482.23 413.122 482.287 412.359 482.37 411.598L482.518 410.223L482.67 408.848C482.749 408.127 482.763 407.407 482.713 406.688L482.616 405.312L482.522 403.938C482.469 403.175 482.447 402.411 482.456 401.648L482.487 398.898C482.495 398.124 482.562 397.348 482.686 396.574L482.909 395.199L483.127 393.824C483.243 393.108 483.288 392.391 483.256 391.676L483.131 388.926C483.099 388.195 483.025 387.462 482.909 386.73L482.471 383.98C482.346 383.192 482.315 382.403 482.377 381.613L482.596 378.863C482.656 378.109 482.725 377.352 482.807 376.598L482.956 375.223L483.108 373.848C483.186 373.129 483.197 372.41 483.143 371.691L482.94 368.941C482.883 368.178 482.857 367.412 482.862 366.648L482.877 363.898C482.882 363.159 482.865 362.419 482.827 361.68L482.686 358.93C482.648 358.187 482.597 357.442 482.53 356.699L482.28 353.949C482.21 353.169 482.213 352.386 482.288 351.605L482.42 350.23L482.549 348.855C482.62 348.113 482.673 347.371 482.709 346.629L482.78 345.254L482.846 343.879C482.881 343.168 482.836 342.455 482.709 341.742L482.463 340.367L482.221 338.992C482.08 338.199 482.042 337.401 482.116 336.605L482.374 333.855C482.443 333.104 482.518 332.353 482.596 331.602L482.741 330.227L482.881 328.852C482.955 328.142 482.945 327.433 482.846 326.723L482.655 325.348L482.459 323.973C482.347 323.17 482.365 322.364 482.51 321.562L483.01 318.812C483.133 318.135 483.107 317.458 482.932 316.777L482.577 315.402L482.225 314.027C482.021 313.234 481.928 312.438 481.948 311.641L481.979 310.266L482.014 308.891C482.033 308.107 482.133 307.324 482.311 306.543L482.936 303.793C483.095 303.095 483.14 302.398 483.073 301.703L482.94 300.328L482.803 298.953C482.727 298.166 482.741 297.377 482.842 296.59L483.194 293.84C483.287 293.12 483.316 292.399 483.28 291.68L483.139 288.93C483.102 288.207 483.007 287.482 482.85 286.758L482.553 285.383L482.252 284.008C482.081 283.218 482.015 282.426 482.049 281.633L482.167 278.883C482.2 278.115 482.278 277.346 482.397 276.578L482.612 275.203L482.823 273.828C482.933 273.118 482.957 272.408 482.893 271.699L482.643 268.949C482.571 268.158 482.6 267.365 482.725 266.574L482.944 265.199L483.159 263.824C483.27 263.124 483.276 262.426 483.174 261.727L482.776 258.977C482.662 258.191 482.63 257.403 482.686 256.617L482.881 253.867C482.931 253.158 482.896 252.449 482.776 251.738L482.307 248.988C482.173 248.195 482.144 247.4 482.221 246.605L482.354 245.23L482.491 243.855C482.563 243.106 482.634 242.355 482.706 241.605L482.838 240.23L482.967 238.855C483.038 238.114 483.093 237.371 483.127 236.629L483.252 233.879C483.286 233.141 483.297 232.402 483.28 231.664L483.245 230.289L483.213 228.914C483.196 228.198 483.109 227.48 482.952 226.762L482.651 225.387L482.354 224.012C482.176 223.199 482.158 222.381 482.303 221.566L482.795 218.816C482.921 218.113 482.944 217.409 482.87 216.707L482.725 215.332L482.577 213.957C482.495 213.193 482.448 212.428 482.432 211.664L482.405 210.289L482.374 208.914C482.358 208.138 482.406 207.361 482.514 206.586L482.897 203.836C482.998 203.112 483.04 202.387 483.026 201.664L482.999 200.289L482.975 198.914C482.961 198.193 482.884 197.468 482.745 196.746L482.213 193.996C482.06 193.203 482.015 192.408 482.081 191.613L482.307 188.863C482.37 188.099 482.469 187.334 482.6 186.57L482.834 185.195L483.073 183.82C483.192 183.126 483.189 182.432 483.069 181.738L482.834 180.363L482.596 178.988C482.463 178.217 482.381 177.444 482.35 176.672L482.241 173.922C482.211 173.167 482.193 172.411 482.186 171.656L482.174 170.281L482.159 168.906C482.151 168.116 482.239 167.326 482.42 166.539L482.741 165.164L483.057 163.789C483.217 163.093 483.26 162.4 483.186 161.707L482.889 158.957C482.805 158.175 482.796 157.391 482.862 156.609L483.096 153.859C483.158 153.122 483.191 152.385 483.198 151.648L483.209 150.273L483.225 148.898C483.232 148.178 483.177 147.456 483.061 146.734L482.838 145.359L482.62 143.984C482.497 143.224 482.396 142.46 482.323 141.699L482.057 138.949C481.982 138.171 481.978 137.392 482.042 136.613L482.151 135.238L482.264 133.863C482.325 133.117 482.378 132.368 482.424 131.621L482.51 130.246L482.592 128.871C482.637 128.146 482.629 127.42 482.565 126.695L482.444 125.32L482.319 123.945C482.249 123.155 482.278 122.363 482.401 121.574L482.831 118.824C482.941 118.114 482.967 117.404 482.905 116.695L482.663 113.945C482.596 113.188 482.551 112.429 482.522 111.672L482.413 108.922C482.384 108.174 482.352 107.424 482.315 106.676L482.249 105.301L482.178 103.926C482.141 103.159 482.143 102.392 482.186 101.625L482.342 98.875C482.386 98.1037 482.48 97.3328 482.624 96.5625L483.139 93.8125C483.272 93.1009 483.319 92.3895 483.284 91.6797L483.213 90.3047L483.147 88.9297C483.109 88.164 483.105 87.3946 483.139 86.6289L483.264 83.8789C483.296 83.1702 483.24 82.4608 483.1 81.75L482.831 80.375L482.557 79C482.406 78.2322 482.296 77.464 482.233 76.6953L482.12 75.3203L482.01 73.9453C481.944 73.1376 482.014 72.3299 482.225 71.5273L482.588 70.1523L482.948 68.7773C483.133 68.0721 483.218 67.3685 483.198 66.668L483.155 65.293L483.116 63.918C483.094 63.1602 483.091 62.4023 483.104 61.6445L483.151 58.8945C483.164 58.1656 483.132 57.4363 483.053 56.707L482.756 53.957C482.675 53.1982 482.613 52.4386 482.573 51.6797L482.424 48.9297C482.383 48.1642 482.378 47.3983 482.409 46.6328L482.467 45.2578L482.522 43.8828C482.552 43.1252 482.601 42.3669 482.667 41.6094L482.784 40.2344L482.905 38.8594C482.968 38.134 482.975 37.4088 482.932 36.6836L482.854 35.3086L482.772 33.9336C482.726 33.1565 482.742 32.3784 482.823 31.6016L482.967 30.2266L483.108 28.8516C483.184 28.1209 483.218 27.3905 483.209 26.6602L483.178 23.9102C483.169 23.1782 483.121 22.443 483.034 21.707L482.87 20.3242L482.702 18.9453C482.614 18.2062 482.495 17.4654 482.342 16.7266L481.772 13.9688C481.632 13.2938 481.349 12.6887 480.917 12.1523L480.03 11.0586L479.147 9.96094C478.68 9.38151 478.183 8.84617 477.655 8.35547L476.651 7.42188L475.647 6.49219C475.138 6.02008 474.574 5.64106 473.952 5.35547L472.721 4.78906L471.491 4.22656C470.844 3.92954 470.183 3.68579 469.51 3.5L468.229 3.14844L466.948 2.79297C466.283 2.60936 465.597 2.4988 464.897 2.45703L463.549 2.375L462.206 2.29297C461.444 2.24756 460.675 2.14065 459.901 1.97266L457.151 1.37891C456.444 1.22546 455.738 1.16755 455.034 1.20703L453.659 1.28516L452.284 1.35938C451.545 1.40078 450.807 1.47055 450.069 1.5625L448.694 1.73438L447.319 1.90234C446.546 1.99859 445.772 2.04149 444.999 2.02734L443.624 2L442.249 1.97656C441.485 1.96253 440.719 1.91652 439.956 1.83594L438.581 1.6875L437.206 1.54297C436.493 1.46775 435.778 1.47567 435.065 1.5625L432.315 1.89844C431.546 1.99208 430.776 2.03898 430.006 2.03906H427.256C426.476 2.03914 425.696 1.96677 424.917 1.82422L423.542 1.57031L422.167 1.32031C421.486 1.19585 420.806 1.21726 420.124 1.38281L417.374 2.04688C416.573 2.24104 415.768 2.30611 414.963 2.23828L413.588 2.12109L412.213 2.00781C411.45 1.94347 410.687 1.84736 409.924 1.71875L408.549 1.48438L407.174 1.25391C406.472 1.13548 405.77 1.11968 405.069 1.20703L402.319 1.55078C401.525 1.64974 400.73 1.64301 399.936 1.53125L398.561 1.33594L397.186 1.14453C396.507 1.049 395.828 1.09509 395.143 1.28906L392.393 2.07031C391.592 2.29733 390.786 2.38954 389.979 2.34375L388.604 2.26562L387.229 2.18359C386.465 2.14013 385.7 2.06456 384.936 1.95312L383.561 1.75391L382.186 1.55078C381.45 1.44327 380.711 1.36686 379.975 1.32031L377.225 1.14844C376.518 1.10373 375.809 1.14526 375.1 1.28125L373.725 1.54688L372.35 1.80859C371.558 1.96042 370.765 2.00925 369.971 1.95312L368.596 1.85547L367.221 1.76172C366.476 1.70901 365.729 1.66575 364.983 1.63281L363.608 1.57031L362.233 1.51172C361.505 1.47963 360.777 1.49491 360.049 1.55859L358.674 1.67578L357.299 1.79688C356.536 1.86369 355.77 1.90007 355.006 1.90234L352.256 1.91016C351.495 1.91238 350.732 1.88691 349.971 1.83594L348.596 1.74609L347.221 1.65234C346.493 1.60367 345.766 1.60336 345.038 1.64844L343.663 1.73047L342.288 1.81641C341.512 1.86444 340.735 1.85233 339.959 1.78125L337.209 1.53125C336.467 1.46324 335.725 1.41295 334.983 1.37891L333.608 1.3125L332.233 1.25C331.523 1.21747 330.812 1.26795 330.1 1.40234L328.725 1.66406L327.35 1.92188C326.555 2.07203 325.756 2.11146 324.959 2.03906L322.209 1.78906C321.457 1.72069 320.704 1.64804 319.952 1.56641L318.577 1.41797L317.202 1.26562C316.467 1.18596 315.733 1.14142 314.999 1.12891L312.249 1.08203C311.511 1.06948 310.772 1.0835 310.034 1.125L307.284 1.28125C306.515 1.32446 305.744 1.32249 304.975 1.27734L303.6 1.19531L302.225 1.11719C301.522 1.07606 300.818 1.12805 300.112 1.27734L298.737 1.57031L297.362 1.85938C296.586 2.02363 295.807 2.12501 295.03 2.16016L292.28 2.28516C291.493 2.32068 290.706 2.26639 289.92 2.12891L288.545 1.89062L287.17 1.64844C286.443 1.52116 285.717 1.4433 284.991 1.41797L282.241 1.32422C281.525 1.29931 280.806 1.34787 280.088 1.46875L277.338 1.92969C276.533 2.0654 275.726 2.06351 274.92 1.92188L272.17 1.4375C271.478 1.31563 270.785 1.31438 270.092 1.43359L267.342 1.91016C266.527 2.05057 265.71 2.02925 264.897 1.84766L263.522 1.53906L262.147 1.23438C261.433 1.07494 260.721 0.995963 260.01 1L257.26 1.01562C256.524 1.01989 255.786 1.05489 255.049 1.11719L253.674 1.23047L252.299 1.34766C251.554 1.4107 250.806 1.48627 250.061 1.57031L248.686 1.72266L247.311 1.87891C246.516 1.96837 245.722 1.94807 244.928 1.82031L243.553 1.60156L242.178 1.37891C241.482 1.26678 240.785 1.26902 240.088 1.38672L238.713 1.61719L237.338 1.85156C236.536 1.98712 235.731 1.99318 234.928 1.86719L233.553 1.64844L232.178 1.43359C231.45 1.31936 230.722 1.25587 229.995 1.23828L228.62 1.20312L227.245 1.17188C226.507 1.15404 225.768 1.16044 225.03 1.19531L223.655 1.26172L222.28 1.32422C221.547 1.35884 220.814 1.43311 220.081 1.54297L218.706 1.75L217.331 1.95312C216.53 2.07299 215.728 2.06998 214.928 1.94531L213.553 1.73438L212.178 1.51953C211.487 1.4119 210.797 1.42638 210.104 1.5625L207.354 2.10156C206.545 2.26073 205.731 2.27106 204.92 2.13281L202.17 1.66406C201.449 1.54105 200.727 1.48202 200.006 1.48438L197.256 1.49219C196.505 1.49464 195.754 1.49314 195.002 1.48438L193.627 1.46484L192.252 1.44922C191.519 1.44066 190.783 1.47149 190.049 1.53516L188.674 1.65234L187.299 1.77344C186.551 1.8384 185.802 1.90441 185.053 1.97266L182.303 2.22266C181.54 2.29222 180.774 2.33098 180.01 2.33984L177.26 2.37109C176.477 2.38006 175.694 2.30773 174.913 2.15625L172.163 1.625C171.469 1.49061 170.777 1.47647 170.084 1.58594L167.334 2.02344C166.559 2.14608 165.783 2.20571 165.006 2.20703L162.256 2.21484C161.473 2.21612 160.69 2.13789 159.909 1.98438L157.159 1.44531C156.474 1.31098 155.792 1.31351 155.108 1.45312L152.358 2.01562C151.554 2.17983 150.746 2.20645 149.94 2.09766L148.565 1.91016L147.19 1.72656C146.49 1.63199 145.789 1.64111 145.088 1.75781L142.338 2.21875C141.541 2.35148 140.742 2.36517 139.944 2.26172L137.194 1.90234C136.471 1.80854 135.748 1.77642 135.026 1.80469L132.276 1.91406C131.5 1.94447 130.724 1.91023 129.948 1.81641L128.573 1.65234L127.198 1.48438C126.499 1.39976 125.797 1.42469 125.096 1.55469L122.346 2.0625C121.569 2.20669 120.789 2.28469 120.01 2.29297L118.635 2.30859L117.26 2.32031C116.485 2.32848 115.71 2.27851 114.936 2.16797L113.561 1.97266L112.186 1.77344C111.457 1.6693 110.727 1.61261 109.999 1.60156L107.249 1.5625C106.503 1.5512 105.756 1.54647 105.01 1.55469L102.26 1.58594C101.522 1.59411 100.783 1.62768 100.045 1.6875L98.6704 1.80078L97.2954 1.91016C96.5127 1.97353 95.7301 1.95982 94.9478 1.86719L93.5728 1.70312L92.1978 1.54297C91.4659 1.45631 90.7339 1.40768 90.0024 1.40234L88.6274 1.39453L87.2524 1.38281C86.5081 1.37739 85.7624 1.38689 85.0181 1.40625L82.2681 1.47656C81.5082 1.4963 80.7466 1.49185 79.9868 1.46484L78.6118 1.41797L77.2368 1.36719C76.527 1.34209 75.816 1.40055 75.104 1.54297L73.729 1.81641L72.354 2.09375C71.5277 2.25894 70.7002 2.22918 69.8774 2.00781L67.1274 1.26562C66.4294 1.07768 65.7341 1.01013 65.0415 1.05859L63.6665 1.15625L62.2915 1.25C61.5614 1.30112 60.831 1.39854 60.1001 1.53516L58.7251 1.78906L57.3501 2.04688C56.5316 2.19991 55.7097 2.18141 54.8931 1.99219L53.5181 1.67578L52.1431 1.35547C51.4556 1.19623 50.7693 1.17406 50.0845 1.28516L47.3345 1.73047C46.5581 1.8563 45.7799 1.91856 45.0024 1.91406L42.2524 1.89844C41.4791 1.89392 40.7047 1.83243 39.9321 1.71875L38.5571 1.51562L37.1821 1.31641C36.4602 1.21024 35.7391 1.16436 35.0181 1.17969L33.6431 1.20703L32.2681 1.23828C31.5395 1.25383 30.8098 1.31531 30.0806 1.42188L28.7056 1.62109L27.3306 1.82422C26.5471 1.93878 25.7595 1.97235 24.9751 1.92578L22.2251 1.76172C21.8463 1.7392 21.5385 1.71122 21.3071 1.67969C21.1918 1.66396 21.0846 1.6471 20.9946 1.625C20.9221 1.60717 20.7969 1.57076 20.6899 1.49609L20.5024 1.36719L20.3853 1.28516C20.3503 1.28403 20.2992 1.28499 20.229 1.28906C20.0392 1.3001 19.7612 1.33466 19.3892 1.39453L16.6157 1.83984C15.9222 1.95153 15.2776 2.18413 14.6821 2.54297L13.4907 3.26562L12.2954 3.98438C11.6568 4.36924 11.0428 4.77617 10.4517 5.20312L9.34229 6L8.23682 6.80078C7.66562 7.21353 7.14511 7.68875 6.67432 8.22656L4.854 10.3047C4.40092 10.8225 4.06326 11.4086 3.84229 12.0586L3.40088 13.3633L2.95557 14.668C2.71498 15.3757 2.48157 16.0929 2.25635 16.8164L1.84229 18.1484L1.42822 19.4844C1.2157 20.1673 1.10155 20.8613 1.08838 21.5664L1.06104 22.9453L1.0376 24.3281C1.02445 25.0393 1.0956 25.7502 1.25635 26.4609L1.88135 29.2109C2.06661 30.0298 2.07449 30.8522 1.90479 31.6719L1.33447 34.4219C1.19179 35.11 1.17913 35.7974 1.29932 36.4844L1.5415 37.8594L1.77979 39.2344C1.91891 40.0286 1.95035 40.8255 1.86963 41.6211L1.58838 44.3711C1.51647 45.0788 1.5356 45.7876 1.64307 46.4961L1.8501 47.8711L2.06104 49.2461C2.18025 50.0316 2.21139 50.8189 2.15869 51.6055L2.06885 52.9805L1.9751 54.3555C1.92493 55.1042 1.8762 55.8529 1.83057 56.6016L1.6665 59.3516C1.62218 60.0789 1.62351 60.8077 1.67822 61.5352L1.78369 62.9102L1.88525 64.2852C1.94489 65.0788 1.9041 65.8723 1.75635 66.6641L1.24072 69.4141C1.11442 70.0913 1.1373 70.7688 1.31104 71.4492L2.01416 74.1992C2.22136 75.0113 2.26542 75.8283 2.14697 76.6445L1.74854 79.3945C1.64235 80.1266 1.57409 80.8583 1.54541 81.5898L1.49463 82.9648L1.43994 84.3398C1.41087 85.0828 1.3937 85.8273 1.39307 86.5703V89.3203Z" fill="#3F2D2A"/>
</svg>
