<svg width="117" height="106" viewBox="0 0 117 106" fill="none" xmlns="http://www.w3.org/2000/svg">
<path d="M5.31586 24.7559C5.42315 19.2749 10.115 17.0423 15.0374 14.6293C19.7589 12.3148 23.4862 11.1484 28.4044 13.0091C31.8711 14.3206 33.9691 15.8052 35.6955 19.085C37.1857 21.9159 36.9107 27.1863 36.9107 27.1863C36.9107 27.1863 41.175 22.8089 44.6069 21.1103C49.9002 18.4905 53.6891 19.1946 59.5942 19.085C66.4409 18.9579 77.0119 21.1103 77.0119 21.1103C77.0119 21.1103 74.9582 16.2062 75.3917 13.0091C75.3917 13.0091 76.669 8.35442 78.6322 6.12302C82.0692 2.21637 86.0062 1.20596 91.1891 1.66733C95.3489 2.03762 97.8297 3.30363 100.911 6.12302C104.987 9.85309 107.301 13.6068 106.582 19.085C105.877 24.4498 98.0752 30.0217 98.0752 30.0217C98.0752 30.0217 103.578 37.7266 106.582 42.9837C108.266 45.9328 109.74 47.4028 110.632 50.6799C111.713 54.6483 111.726 57.2468 110.632 61.2115C109.615 64.8998 107.745 66.4402 105.771 69.7178C103.938 72.7631 100.911 77.414 100.911 77.414C100.911 77.414 107.376 75.4622 110.632 77.414C114.214 79.561 115.32 82.9658 115.088 87.1355C114.968 89.2838 114.647 90.6021 113.468 92.4013C111.563 95.3056 109.235 96.6017 105.771 96.857C100.783 97.2247 95.2397 89.5659 95.2397 89.5659C95.2397 89.5659 96.1734 94.1671 95.2397 96.857C93.805 100.99 91.0823 103.669 86.7334 104.148C83.4017 104.516 81.2949 103.349 78.6322 101.313C75.421 98.8574 73.3664 92.4013 73.3664 92.4013C73.3664 92.4013 72.8254 98.778 70.1259 101.313C67.7908 103.505 65.6322 104.205 62.4297 104.148C59.3751 104.093 57.6739 103.017 55.1385 101.313C51.4886 98.859 48.2525 92.4013 48.2525 92.4013C48.2525 92.4013 47.782 99.2986 44.6069 101.313C41.6682 103.177 39.0399 102.275 35.6955 101.313C32.4887 100.39 29.906 99.837 28.4044 96.857C27.1231 94.3142 28.4044 89.5659 28.4044 89.5659C28.4044 89.5659 22.7335 90.7812 19.8981 92.4013C14.1729 95.6727 7.76648 96.0278 5.31586 95.2369C2.86523 94.446 0.725104 91.5913 1.26518 88.3508C1.80526 85.1103 2.48037 84.3002 3.6956 81.8698C5.22605 78.809 10.1766 77.414 10.1766 77.414C10.1766 77.414 6.47525 73.0783 5.31586 69.7178C3.66491 64.9327 4.27304 61.7092 5.31586 56.7558C6.30859 52.0403 8.18001 49.7999 10.1766 45.4141C11.9941 41.4217 15.0374 35.2875 15.0374 35.2875C15.0374 35.2875 5.20631 30.352 5.31586 24.7559Z" fill="#F8F8A6"/>
<path d="M13.6339 15.6911L14.5389 16.8873L13.6339 15.6911ZM10.6024 17.3919L10.0543 15.9956L10.6024 17.3919ZM5.83147 22.071L4.39392 21.6427L5.83147 22.071ZM5.9443 25.3086L7.33684 24.7511L5.9443 25.3086ZM9.32031 30.99L8.18303 31.9681L9.32031 30.99ZM11.9366 33.1928L11.1657 34.4796L11.9366 33.1928ZM14.2019 35.4908L15.515 34.7656L14.2019 35.4908ZM13.7626 38.2399L12.6506 37.2331L13.7626 38.2399ZM6.51025 53.9945L5.07712 53.5516L6.51025 53.9945ZM8.68939 76.3406L7.46362 77.2052L8.68939 76.3406ZM1.98696 86.3712L0.487283 86.3401L1.98696 86.3712ZM8.43881 95.7182L8.136 94.2491L8.43881 95.7182ZM15.2248 94.2114L14.5331 92.8803L15.2248 94.2114ZM21.4994 91.1837L22.2058 92.507L21.4994 91.1837ZM24.7773 89.8794L25.1709 91.3268L24.7773 89.8794ZM27.83 92.8493L29.2947 92.5258L27.83 92.8493ZM28.5237 96.3196L27.0469 96.5825L28.5237 96.3196ZM33.5242 100.187L32.8907 101.547L33.5242 100.187ZM40.1227 102.081L39.8854 103.562L40.1227 102.081ZM43.2624 101.514L42.5089 100.217L43.2624 101.514ZM46.0438 99.5206L47.0237 100.656L46.0438 99.5206ZM47.6396 96.6035L46.1555 96.3862L47.6396 96.6035ZM48.195 94.1308L49.5786 94.7103L48.195 94.1308ZM51.4418 97.7979L50.0692 98.4028L51.4418 97.7979ZM53.6604 100.456L54.4996 99.2123L53.6604 100.456ZM56.6347 102.388L57.4291 101.116L56.6347 102.388ZM59.8461 103.426L59.7492 104.923L59.8461 103.426ZM63.2775 103.728L63.1115 105.218L63.2775 103.728ZM66.4438 103.086L65.7027 101.782L66.4438 103.086ZM69.2986 101.326L70.1312 102.574L69.2986 101.326ZM72.6116 95.6369L74.0123 96.1736L72.6116 95.6369ZM73.4474 94.1524L72.6152 95.4004L73.4474 94.1524ZM74.5957 95.7872L73.3247 96.5838L74.5957 95.7872ZM79.2694 100.729L80.2403 99.586L79.2694 100.729ZM84.9623 104.223L84.7604 105.71L84.9623 104.223ZM95.2618 93.1769L93.7667 93.055L95.2618 93.1769ZM95.9159 91.0397L96.8727 92.1949L95.9159 91.0397ZM97.2529 92.2525L98.5936 91.5797L97.2529 92.2525ZM99.7875 94.5536L100.329 93.1547L99.7875 94.5536ZM103.044 95.8444L103.609 94.4551L103.044 95.8444ZM106.273 96.4488L106.294 97.9486L106.273 96.4488ZM111.859 93.3319L110.843 92.2289L111.859 93.3319ZM113.882 90.7465L112.57 90.019L113.882 90.7465ZM114.533 87.5604L113.04 87.706L114.533 87.5604ZM114.744 84.0488L116.212 84.3574L114.744 84.0488ZM111.446 78.2992L112.717 77.5026L111.446 78.2992ZM108.679 76.4661L108.439 77.9467L108.679 76.4661ZM105.134 76.4546L105.372 77.9355L105.134 76.4546ZM102.579 76.8066L102.448 75.3123L102.579 76.8066ZM102.756 75.4419L103.992 76.2924L102.756 75.4419ZM104.518 72.4342L105.864 73.0966L104.518 72.4342ZM108.123 66.4847L106.908 65.6047L108.123 66.4847ZM111.305 53.2488L109.865 53.6683L111.305 53.2488ZM110.152 49.9598L111.538 49.3866L110.152 49.9598ZM108.763 46.7929L110.124 46.1616L108.763 46.7929ZM106.819 43.9165L107.916 42.8937L106.819 43.9165ZM104.967 40.9713L106.365 40.4282L104.967 40.9713ZM103.151 38.0211L104.265 37.0169L103.151 38.0211ZM101.29 35.0777L99.9061 35.6556L101.29 35.0777ZM99.7443 31.9176L101.05 31.1784L99.7443 31.9176ZM103.464 24.3334L104.74 25.1226L103.464 24.3334ZM106.363 14.9342L104.896 15.2468L106.363 14.9342ZM91.8033 2.04679L91.9495 0.553936L91.8033 2.04679ZM81.4534 2.98326L80.7365 1.66567L81.4534 2.98326ZM75.7406 20.5251L75.2278 19.1155L75.7406 20.5251ZM65.9431 19.3828L66.5998 18.0342L65.9431 19.3828ZM62.5033 19.1874L62.9969 20.6039L62.5033 19.1874ZM58.9975 19.4897L58.7295 20.9656L58.9975 19.4897ZM55.5197 18.8524L55.7925 17.3774L55.5197 18.8524ZM52.0076 18.6529L52.1116 20.1493L52.0076 18.6529ZM48.6611 19.664L47.9253 18.3568L48.6611 19.664ZM39.5386 24.6035L40.6879 25.5676L39.5386 24.6035ZM37.7943 25.7956L38.1819 24.3465L37.7943 25.7956ZM37.2924 23.8396L35.7951 23.751L37.2924 23.8396ZM34.912 17.2237L36.0849 16.2887L34.912 17.2237ZM32.1954 15.0589L32.8404 13.7047L32.1954 15.0589ZM19.1214 13.331L19.6456 14.7364L19.1214 13.331ZM14.881 14.3104L13.5341 14.9706L14.881 14.3104ZM13.6339 15.6911L12.7289 14.4948C11.9019 15.1205 11.0114 15.6199 10.0543 15.9956L10.6024 17.3919L11.1505 18.7881C12.3642 18.3117 13.4947 17.6773 14.5389 16.8873L13.6339 15.6911ZM10.6024 17.3919L10.0543 15.9956C8.80288 16.4868 7.66897 17.1845 6.65873 18.0826L7.6554 19.2037L8.65207 20.3247C9.40051 19.6592 10.2313 19.149 11.1505 18.7881L10.6024 17.3919ZM7.6554 19.2037L6.65873 18.0826C5.57044 19.0502 4.81004 20.2461 4.39392 21.6427L5.83147 22.071L7.26902 22.4993C7.52612 21.6364 7.98167 20.9207 8.65207 20.3247L7.6554 19.2037ZM5.83147 22.071L4.39392 21.6427C3.96732 23.0746 4.0058 24.5025 4.55177 25.8662L5.9443 25.3086L7.33684 24.7511C7.05914 24.0575 7.0224 23.3271 7.26902 22.4993L5.83147 22.071ZM5.9443 25.3086L4.55177 25.8662C4.98957 26.9597 5.49827 28.0094 6.07808 29.0147L7.37745 28.2653L8.67682 27.5159C8.16943 26.6362 7.72269 25.7148 7.33684 24.7511L5.9443 25.3086ZM7.37745 28.2653L6.07808 29.0147C6.67114 30.043 7.37395 31.0273 8.18303 31.9681L9.32031 30.99L10.4576 30.012C9.7634 29.2048 9.17096 28.3726 8.67682 27.5159L7.37745 28.2653ZM9.32031 30.99L8.18303 31.9681C9.03988 32.9644 10.0358 33.8028 11.1657 34.4796L11.9366 33.1928L12.7074 31.906C11.8522 31.3938 11.104 30.7636 10.4576 30.012L9.32031 30.99ZM11.9366 33.1928L11.1657 34.4796C11.95 34.9494 12.5094 35.5288 12.8889 36.2159L14.2019 35.4908L15.515 34.7656C14.859 33.5779 13.9082 32.6254 12.7074 31.906L11.9366 33.1928ZM14.2019 35.4908L12.8889 36.2159C13.012 36.4389 13.0117 36.5662 12.9992 36.6444C12.9838 36.7407 12.9188 36.9369 12.6506 37.2331L13.7626 38.2399L14.8746 39.2466C15.417 38.6475 15.8305 37.9378 15.9616 37.1178C16.0955 36.2797 15.9095 35.48 15.515 34.7656L14.2019 35.4908ZM13.7626 38.2399L12.6506 37.2331C11.7583 38.2187 11.0094 39.2849 10.4089 40.4311L11.7375 41.1273L13.0662 41.8235C13.5446 40.9104 14.1458 40.0516 14.8746 39.2466L13.7626 38.2399ZM11.7375 41.1273L10.4089 40.4311C9.84147 41.514 9.34071 42.6278 8.90669 43.7722L10.3092 44.3041L11.7117 44.836C12.1032 43.8039 12.5546 42.7998 13.0662 41.8235L11.7375 41.1273ZM10.3092 44.3041L8.90669 43.7722C8.49519 44.8572 8.07986 45.9408 7.66069 47.023L9.05944 47.5648L10.4582 48.1065C10.8799 47.0177 11.2977 45.9276 11.7117 44.836L10.3092 44.3041ZM9.05944 47.5648L7.66069 47.023C7.24928 48.0852 6.81326 49.1322 6.35266 50.1641L7.72238 50.7755L9.09211 51.3869C9.57338 50.3088 10.0287 49.2153 10.4582 48.1065L9.05944 47.5648ZM7.72238 50.7755L6.35266 50.1641C5.85751 51.2733 5.43222 52.4025 5.07712 53.5516L6.51025 53.9945L7.94338 54.4373C8.26258 53.4044 8.64537 52.3877 9.09211 51.3869L7.72238 50.7755ZM6.51025 53.9945L5.07712 53.5516C4.7514 54.6056 4.38098 55.6599 3.96565 56.7143L5.3613 57.264L6.75694 57.8138C7.19926 56.6908 7.59482 55.5653 7.94338 54.4373L6.51025 53.9945ZM5.3613 57.264L3.96565 56.7143C3.48583 57.9325 3.18287 59.1925 3.05845 60.4903L4.55161 60.6334L6.04476 60.7766C6.14228 59.7593 6.37911 58.773 6.75694 57.8138L5.3613 57.264ZM4.55161 60.6334L3.05845 60.4903C2.94796 61.6429 2.83105 62.803 2.70774 63.9704L4.19944 64.128L5.69114 64.2855C5.81546 63.1086 5.93333 61.9389 6.04476 60.7766L4.55161 60.6334ZM4.19944 64.128L2.70774 63.9704C2.5692 65.282 2.61415 66.5936 2.84138 67.9012L4.31923 67.6444L5.79708 67.3876C5.61696 66.351 5.58205 65.3184 5.69114 64.2855L4.19944 64.128ZM4.31923 67.6444L2.84138 67.9012C3.07338 69.2363 3.51686 70.5019 4.16924 71.6919L5.48454 70.9708L6.79983 70.2497C6.30582 69.3486 5.97243 68.3966 5.79708 67.3876L4.31923 67.6444ZM5.48454 70.9708L4.16924 71.6919C4.75065 72.7524 5.34576 73.7949 5.95458 74.8194L7.24407 74.0531L8.53356 73.2868C7.94273 72.2926 7.36482 71.2802 6.79983 70.2497L5.48454 70.9708ZM7.24407 74.0531L5.95458 74.8194C6.56053 75.839 7.06587 76.6413 7.46362 77.2052L8.68939 76.3406L9.91517 75.476C9.58547 75.0086 9.12726 74.2858 8.53356 73.2868L7.24407 74.0531ZM8.68939 76.3406L7.46362 77.2052C7.41432 77.1353 7.33871 76.9876 7.33253 76.7812C7.32646 76.5789 7.39073 76.4402 7.42091 76.3889C7.44547 76.3472 7.44283 76.3692 7.35393 76.446C7.26858 76.5198 7.13252 76.6193 6.92849 76.7407L7.69523 78.0299L8.46198 79.3191C9.03987 78.9754 9.64565 78.5235 10.0064 77.9105C10.2023 77.5777 10.3453 77.1634 10.3312 76.6913C10.3169 76.2153 10.1463 75.8038 9.91517 75.476L8.68939 76.3406ZM7.69523 78.0299L6.92849 76.7407C5.72785 77.4547 4.72264 78.3734 3.92912 79.4935L5.15312 80.3606L6.37712 81.2277C6.92008 80.4612 7.60961 79.826 8.46198 79.3191L7.69523 78.0299ZM5.15312 80.3606L3.92912 79.4935C3.26985 80.4242 2.59026 81.3529 1.89032 82.2797L3.08732 83.1837L4.28432 84.0877C5.00231 83.137 5.69992 82.1837 6.37712 81.2277L5.15312 80.3606ZM3.08732 83.1837L1.89032 82.2797C0.989403 83.4727 0.518387 84.8412 0.487283 86.3401L1.98696 86.3712L3.48664 86.4023C3.50477 85.5287 3.76733 84.7723 4.28432 84.0877L3.08732 83.1837ZM1.98696 86.3712L0.487283 86.3401C0.464541 87.436 0.343815 88.5092 0.125778 89.5611L1.59456 89.8655L3.06334 90.17C3.31927 88.9353 3.46014 87.6789 3.48664 86.4023L1.98696 86.3712ZM1.59456 89.8655L0.125778 89.5611C-0.194349 91.1055 0.102154 92.5898 0.951903 93.9381L2.22088 93.1382L3.48986 92.3384C3.03054 91.6097 2.90949 90.9122 3.06334 90.17L1.59456 89.8655ZM2.22088 93.1382L0.951903 93.9381C1.77849 95.2495 2.93717 96.2049 4.38546 96.7819L4.94068 95.3885L5.49591 93.995C4.62687 93.6488 3.97235 93.1039 3.48986 92.3384L2.22088 93.1382ZM4.94068 95.3885L4.38546 96.7819C5.80478 97.3475 7.26874 97.4909 8.74162 97.1873L8.43881 95.7182L8.136 94.2491C7.26204 94.4292 6.39392 94.3528 5.49591 93.995L4.94068 95.3885ZM8.43881 95.7182L8.74162 97.1873C9.86434 96.9559 10.9767 96.7871 12.079 96.6804L11.9345 95.1874L11.7899 93.6943C10.5781 93.8117 9.36011 93.9968 8.136 94.2491L8.43881 95.7182ZM11.9345 95.1874L12.079 96.6804C13.428 96.5498 14.7105 96.1691 15.9165 95.5424L15.2248 94.2114L14.5331 92.8803C13.6661 93.3309 12.7549 93.6009 11.7899 93.6943L11.9345 95.1874ZM15.2248 94.2114L15.9165 95.5424C16.9243 95.0186 17.9367 94.5339 18.9537 94.0881L18.3514 92.7143L17.7491 91.3405C16.6704 91.8135 15.5984 92.3268 14.5331 92.8803L15.2248 94.2114ZM18.3514 92.7143L18.9537 94.0881C20.0383 93.6126 21.1223 93.0854 22.2058 92.507L21.4994 91.1837L20.7929 89.8605C19.7748 90.404 18.7602 90.8973 17.7491 91.3405L18.3514 92.7143ZM21.4994 91.1837L22.2058 92.507C23.1586 91.9983 24.1465 91.6055 25.1709 91.3268L24.7773 89.8794L24.3836 88.432C23.1391 88.7705 21.9417 89.2472 20.7929 89.8605L21.4994 91.1837ZM24.7773 89.8794L25.1709 91.3268C25.3938 91.2662 25.5686 91.2346 25.7009 91.2214C25.8345 91.208 25.9038 91.2156 25.9242 91.2191C25.9412 91.2219 25.8976 91.2172 25.8288 91.1727C25.7546 91.1248 25.6959 91.0595 25.6601 90.9975L26.9589 90.2471L28.2577 89.4967C27.8383 88.7709 27.1519 88.3837 26.4229 88.2608C25.7553 88.1483 25.0497 88.2508 24.3836 88.432L24.7773 89.8794ZM26.9589 90.2471L25.6601 90.9975C25.8624 91.3478 26.1136 92.0332 26.3653 93.1728L27.83 92.8493L29.2947 92.5258C29.0247 91.3033 28.6952 90.2539 28.2577 89.4967L26.9589 90.2471ZM27.83 92.8493L26.3653 93.1728C26.622 94.3348 26.8491 95.4713 27.0469 96.5825L28.5237 96.3196L30.0005 96.0567C29.7951 94.903 29.5598 93.726 29.2947 92.5258L27.83 92.8493ZM28.5237 96.3196L27.0469 96.5825C27.335 98.2009 28.2796 99.418 29.7732 100.104L30.3995 98.7414L31.0259 97.3784C30.4215 97.1007 30.1155 96.7032 30.0005 96.0567L28.5237 96.3196ZM30.3995 98.7414L29.7732 100.104C30.8198 100.585 31.8589 101.066 32.8907 101.547L33.5242 100.187L34.1578 98.8278C33.1213 98.3447 32.0773 97.8616 31.0259 97.3784L30.3995 98.7414ZM33.5242 100.187L32.8907 101.547C34.0048 102.066 35.1625 102.487 36.3625 102.808L36.751 101.36L37.1395 99.9107C36.1054 99.6334 35.112 99.2724 34.1578 98.8278L33.5242 100.187ZM36.751 101.36L36.3625 102.808C37.5288 103.121 38.7032 103.372 39.8854 103.562L40.1227 102.081L40.3599 100.599C39.2806 100.426 38.2071 100.197 37.1395 99.9107L36.751 101.36ZM40.1227 102.081L39.8854 103.562C41.3471 103.796 42.7451 103.549 44.0159 102.811L43.2624 101.514L42.5089 100.217C41.8549 100.596 41.1598 100.728 40.3599 100.599L40.1227 102.081ZM43.2624 101.514L44.0159 102.811C45.0631 102.202 46.0656 101.483 47.0237 100.656L46.0438 99.5206L45.0639 98.385C44.2383 99.0973 43.3865 99.7067 42.5089 100.217L43.2624 101.514ZM46.0438 99.5206L47.0237 100.656C48.191 99.6491 48.9 98.3496 49.1238 96.8208L47.6396 96.6035L46.1555 96.3862C46.0351 97.208 45.6802 97.8532 45.0639 98.385L46.0438 99.5206ZM47.6396 96.6035L49.1238 96.8208C49.2952 95.6505 49.4602 94.9929 49.5786 94.7103L48.195 94.1308L46.8114 93.5514C46.5334 94.2153 46.3283 95.2061 46.1555 96.3862L47.6396 96.6035ZM48.195 94.1308L49.5786 94.7103C49.5396 94.8033 49.3713 95.1376 48.9309 95.3063C48.4938 95.4736 48.1495 95.3393 48.0647 95.3C47.9793 95.2604 47.9806 95.2406 48.0766 95.3299C48.1616 95.409 48.2823 95.5375 48.4404 95.7314L49.6031 94.7836L50.7657 93.8359C50.3894 93.3742 49.901 92.8446 49.3266 92.5783C49.0071 92.4302 48.462 92.2734 47.858 92.5047C47.2508 92.7372 46.9495 93.2218 46.8114 93.5514L48.195 94.1308ZM49.6031 94.7836L48.4404 95.7314C49.0936 96.5327 49.6367 97.4216 50.0692 98.4028L51.4418 97.7979L52.8144 97.1929C52.2763 95.972 51.5935 94.8514 50.7657 93.8359L49.6031 94.7836ZM51.4418 97.7979L50.0692 98.4028C50.6681 99.7617 51.5921 100.869 52.8213 101.699L53.6604 100.456L54.4996 99.2123C53.7411 98.7004 53.186 98.0362 52.8144 97.1929L51.4418 97.7979ZM53.6604 100.456L52.8213 101.699C53.8294 102.379 54.8358 103.033 55.8403 103.66L56.6347 102.388L57.4291 101.116C56.4556 100.508 55.4791 99.8734 54.4996 99.2123L53.6604 100.456ZM56.6347 102.388L55.8403 103.66C57.0374 104.408 58.3472 104.832 59.7492 104.923L59.8461 103.426L59.9431 101.929C59.0411 101.871 58.2099 101.603 57.4291 101.116L56.6347 102.388ZM59.8461 103.426L59.7492 104.923C60.8784 104.996 61.9991 105.095 63.1115 105.218L63.2775 103.728L63.4435 102.237C62.2847 102.108 61.1179 102.005 59.9431 101.929L59.8461 103.426ZM63.2775 103.728L63.1115 105.218C64.5553 105.379 65.929 105.104 67.1848 104.39L66.4438 103.086L65.7027 101.782C65.0081 102.177 64.271 102.329 63.4435 102.237L63.2775 103.728ZM66.4438 103.086L67.1848 104.39C68.1911 103.819 69.1733 103.213 70.1312 102.574L69.2986 101.326L68.4659 100.078C67.568 100.678 66.647 101.245 65.7027 101.782L66.4438 103.086ZM69.2986 101.326L70.1312 102.574C71.3097 101.787 72.1806 100.719 72.7253 99.4041L71.3395 98.8301L69.9536 98.2561C69.633 99.0304 69.1433 99.6263 68.4659 100.078L69.2986 101.326ZM71.3395 98.8301L72.7253 99.4041C73.1632 98.3468 73.5922 97.27 74.0123 96.1736L72.6116 95.6369L71.2109 95.1002C70.8001 96.1722 70.381 97.2242 69.9536 98.2561L71.3395 98.8301ZM72.6116 95.6369L74.0123 96.1736C74.2149 95.6448 74.3565 95.3354 74.4392 95.1886C74.4916 95.0955 74.4644 95.1692 74.3498 95.2783C74.2942 95.3313 74.1166 95.492 73.8189 95.5813C73.6567 95.63 73.4526 95.6589 73.2239 95.6288C72.9916 95.5983 72.7851 95.5137 72.6152 95.4004L73.4474 94.1524L74.2796 92.9045C73.858 92.6233 73.3687 92.5843 72.9567 92.7079C72.615 92.8104 72.3892 93.0028 72.281 93.1057C72.0613 93.3149 71.912 93.5624 71.825 93.7167C71.6291 94.0647 71.4237 94.5449 71.2109 95.1002L72.6116 95.6369ZM73.4474 94.1524L72.6152 95.4004C72.5059 95.3275 72.4429 95.2613 72.438 95.2563C72.4236 95.2415 72.4231 95.2396 72.4392 95.2591C72.4713 95.2983 72.5279 95.3726 72.6134 95.4942C72.7825 95.735 73.018 96.0944 73.3247 96.5838L74.5957 95.7872L75.8667 94.9906C75.5497 94.4847 75.2819 94.074 75.0682 93.7698C74.9623 93.619 74.8577 93.4772 74.7586 93.3564C74.695 93.2789 74.5207 93.0652 74.2796 92.9045L73.4474 94.1524ZM74.5957 95.7872L73.3247 96.5838C74.0126 97.6813 74.8173 98.6738 75.7385 99.5577L76.777 98.4754L77.8156 97.3931C77.0759 96.6833 76.4264 95.8836 75.8667 94.9906L74.5957 95.7872ZM76.777 98.4754L75.7385 99.5577C76.5896 100.374 77.4429 101.146 78.2984 101.873L79.2694 100.729L80.2403 99.586C79.4336 98.9009 78.6253 98.1701 77.8156 97.3931L76.777 98.4754ZM79.2694 100.729L78.2984 101.873C79.1376 102.585 80.0097 103.311 80.9149 104.049L81.8629 102.887L82.811 101.724C81.9203 100.998 81.0634 100.285 80.2403 99.586L79.2694 100.729ZM81.8629 102.887L80.9149 104.049C82.0308 104.959 83.3233 105.514 84.7604 105.71L84.9623 104.223L85.1643 102.737C84.2647 102.615 83.4909 102.279 82.811 101.724L81.8629 102.887ZM84.9623 104.223L84.7604 105.71C86.1529 105.899 87.5262 105.775 88.8635 105.339L88.399 103.913L87.9345 102.487C87.0262 102.782 86.1084 102.865 85.1643 102.737L84.9623 104.223ZM88.399 103.913L88.8635 105.339C90.1578 104.918 91.334 104.282 92.3826 103.433L91.4389 102.267L90.4952 101.101C89.7361 101.716 88.8857 102.177 87.9345 102.487L88.399 103.913ZM91.4389 102.267L92.3826 103.433C93.3609 102.641 94.2635 101.757 95.0903 100.781L93.9458 99.811L92.8013 98.8413C92.0932 99.6772 91.3246 100.43 90.4952 101.101L91.4389 102.267ZM93.9458 99.811L95.0903 100.781C96.0851 99.6063 96.5987 98.2199 96.6096 96.6807L95.1096 96.6701L93.6096 96.6594C93.6037 97.4963 93.3414 98.2038 92.8013 98.8413L93.9458 99.811ZM95.1096 96.6701L96.6096 96.6807C96.6177 95.5283 96.6669 94.4011 96.7568 93.2989L95.2618 93.1769L93.7667 93.055C93.6705 94.2341 93.6183 95.4356 93.6096 96.6594L95.1096 96.6701ZM95.2618 93.1769L96.7568 93.2989C96.7987 92.7854 96.864 92.4398 96.9294 92.2261C97.0043 91.9812 97.0326 92.0625 96.8727 92.1949L95.9159 91.0397L94.959 89.8845C94.4561 90.3011 94.2038 90.8806 94.0607 91.3481C93.9081 91.8469 93.8179 92.4278 93.7667 93.055L95.2618 93.1769ZM95.9159 91.0397L96.8727 92.1949C96.786 92.2667 96.6571 92.3484 96.4855 92.4006C96.3096 92.4541 96.1307 92.4636 95.9666 92.4386C95.6604 92.392 95.5027 92.2436 95.4996 92.2408C95.486 92.2284 95.5255 92.2627 95.6113 92.3918C95.6926 92.5142 95.7934 92.6883 95.9122 92.9252L97.2529 92.2525L98.5936 91.5797C98.3041 91.0028 97.9543 90.4171 97.5152 90.0187C97.2892 89.8138 96.9215 89.5494 96.4182 89.4728C95.8447 89.3854 95.3314 89.5761 94.959 89.8845L95.9159 91.0397ZM97.2529 92.2525L95.9122 92.9252C96.6278 94.3512 97.7579 95.3769 99.2464 95.9526L99.7875 94.5536L100.329 93.1547C99.5342 92.8474 98.9746 92.3389 98.5936 91.5797L97.2529 92.2525ZM99.7875 94.5536L99.2464 95.9526C100.38 96.3913 101.458 96.8183 102.478 97.2337L103.044 95.8444L103.609 94.4551C102.571 94.0325 101.477 93.599 100.329 93.1547L99.7875 94.5536ZM103.044 95.8444L102.478 97.2337C103.696 97.7294 104.972 97.9676 106.294 97.9486L106.273 96.4488L106.251 94.949C105.327 94.9622 104.45 94.7975 103.609 94.4551L103.044 95.8444ZM106.273 96.4488L106.294 97.9486C107.727 97.9281 109.042 97.4893 110.194 96.6423L109.306 95.4336L108.418 94.225C107.772 94.6994 107.065 94.9373 106.251 94.949L106.273 96.4488ZM109.306 95.4336L110.194 96.6423C111.137 95.9495 112.031 95.2137 112.876 94.4348L111.859 93.3319L110.843 92.2289C110.081 92.9311 109.273 93.5965 108.418 94.225L109.306 95.4336ZM111.859 93.3319L112.876 94.4348C113.8 93.5826 114.573 92.5931 115.194 91.474L113.882 90.7465L112.57 90.019C112.101 90.8661 111.525 91.6002 110.843 92.2289L111.859 93.3319ZM113.882 90.7465L115.194 91.474C115.89 90.2194 116.166 88.852 116.026 87.4148L114.533 87.5604L113.04 87.706C113.122 88.5506 112.965 89.3073 112.57 90.019L113.882 90.7465ZM114.533 87.5604L116.026 87.4148C115.93 86.4359 115.989 85.4187 116.212 84.3574L114.744 84.0488L113.277 83.7402C112.995 85.0792 112.913 86.403 113.04 87.706L114.533 87.5604ZM114.744 84.0488L116.212 84.3574C116.573 82.64 116.077 81.0897 114.764 79.9228L113.767 81.0441L112.771 82.1654C113.265 82.6046 113.42 83.0574 113.277 83.7402L114.744 84.0488ZM113.767 81.0441L114.764 79.9228C113.967 79.2147 113.286 78.4091 112.717 77.5026L111.446 78.2992L110.175 79.0957C110.894 80.2431 111.761 81.2675 112.771 82.1654L113.767 81.0441ZM111.446 78.2992L112.717 77.5026C111.844 76.1084 110.545 75.2495 108.92 74.9855L108.679 76.4661L108.439 77.9467C109.216 78.0729 109.762 78.4361 110.175 79.0957L111.446 78.2992ZM108.679 76.4661L108.92 74.9855C107.565 74.7655 106.222 74.7598 104.895 74.9737L105.134 76.4546L105.372 77.9355C106.371 77.7745 107.391 77.7765 108.439 77.9467L108.679 76.4661ZM105.134 76.4546L104.895 74.9737C103.737 75.1604 102.931 75.2701 102.448 75.3123L102.579 76.8066L102.709 78.3009C103.308 78.2486 104.205 78.1236 105.372 77.9355L105.134 76.4546ZM102.579 76.8066L102.448 75.3123C102.475 75.3099 102.568 75.3037 102.699 75.33C102.835 75.3573 103.047 75.427 103.255 75.6032C103.742 76.0154 103.724 76.5504 103.705 76.6942C103.688 76.83 103.652 76.8634 103.712 76.7454C103.761 76.6482 103.849 76.4998 103.992 76.2924L102.756 75.4419L101.521 74.5914C101.334 74.8625 101.168 75.1298 101.037 75.3857C100.918 75.6206 100.777 75.9442 100.73 76.3075C100.682 76.6788 100.709 77.3784 101.316 77.8926C101.839 78.3354 102.444 78.3241 102.709 78.3009L102.579 76.8066ZM102.756 75.4419L103.992 76.2924C104.692 75.2751 105.316 74.2096 105.864 73.0966L104.518 72.4342L103.172 71.7718C102.688 72.755 102.138 73.6946 101.521 74.5914L102.756 75.4419ZM104.518 72.4342L105.864 73.0966C106.36 72.0886 106.897 71.1101 107.476 70.1608L106.195 69.38L104.915 68.5992C104.289 69.6261 103.708 70.6837 103.172 71.7718L104.518 72.4342ZM106.195 69.38L107.476 70.1608C108.058 69.2069 108.678 68.2748 109.338 67.3647L108.123 66.4847L106.908 65.6047C106.202 66.5788 105.538 67.577 104.915 68.5992L106.195 69.38ZM108.123 66.4847L109.338 67.3647C110.053 66.3771 110.718 65.3432 111.332 64.2633L110.028 63.5219L108.724 62.7805C108.163 63.7668 107.558 64.7081 106.908 65.6047L108.123 66.4847ZM110.028 63.5219L111.332 64.2633C111.974 63.1328 112.485 61.9425 112.862 60.6946L111.427 60.2603L109.991 59.826C109.678 60.8607 109.256 61.8448 108.724 62.7805L110.028 63.5219ZM111.427 60.2603L112.862 60.6946C113.257 59.3917 113.426 58.0533 113.371 56.6864L111.872 56.7469L110.373 56.8074C110.415 57.8424 110.287 58.8463 109.991 59.826L111.427 60.2603ZM111.872 56.7469L113.371 56.6864C113.317 55.3662 113.109 54.0795 112.745 52.8292L111.305 53.2488L109.865 53.6683C110.16 54.6802 110.329 55.7256 110.373 56.8074L111.872 56.7469ZM111.305 53.2488L112.745 52.8292C112.401 51.6473 111.998 50.4996 111.538 49.3866L110.152 49.9598L108.766 50.533C109.184 51.5431 109.55 52.5881 109.865 53.6683L111.305 53.2488ZM110.152 49.9598L111.538 49.3866C111.091 48.3053 110.62 47.2303 110.124 46.1616L108.763 46.7929L107.402 47.4242C107.881 48.4548 108.335 49.4911 108.766 50.533L110.152 49.9598ZM108.763 46.7929L110.124 46.1616C109.568 44.9647 108.83 43.8745 107.916 42.8937L106.819 43.9165L105.722 44.9393C106.426 45.6944 106.984 46.5217 107.402 47.4242L108.763 46.7929ZM106.819 43.9165L107.916 42.8937C107.236 42.1638 106.721 41.3445 106.365 40.4282L104.967 40.9713L103.569 41.5144C104.064 42.7893 104.784 43.9334 105.722 44.9393L106.819 43.9165ZM104.967 40.9713L106.365 40.4282C105.874 39.1634 105.173 38.0237 104.265 37.0169L103.151 38.0211L102.037 39.0252C102.7 39.761 103.209 40.5882 103.569 41.5144L104.967 40.9713ZM103.151 38.0211L104.265 37.0169C103.595 36.2725 103.065 35.4358 102.675 34.4999L101.29 35.0777L99.9061 35.6556C100.426 36.9016 101.137 38.0271 102.037 39.0252L103.151 38.0211ZM101.29 35.0777L102.675 34.4999C102.196 33.3543 101.655 32.247 101.05 31.1784L99.7443 31.9176L98.4391 32.6568C98.9844 33.6197 99.4734 34.6192 99.9061 35.6556L101.29 35.0777ZM99.7443 31.9176L101.05 31.1784C100.619 30.418 100.639 29.9599 100.749 29.6597L99.3415 29.1422L97.9336 28.6248C97.4305 29.9935 97.7192 31.3856 98.4391 32.6568L99.7443 31.9176ZM99.3415 29.1422L100.749 29.6597C100.932 29.1635 101.33 28.6135 102.088 28.0374L101.181 26.8429L100.273 25.6485C99.193 26.4692 98.3646 27.452 97.9336 28.6248L99.3415 29.1422ZM101.181 26.8429L102.088 28.0374C103.153 27.2285 104.039 26.2549 104.74 25.1226L103.464 24.3334L102.189 23.5442C101.683 24.361 101.047 25.0605 100.273 25.6485L101.181 26.8429ZM103.464 24.3334L104.74 25.1226C105.347 24.1409 105.938 23.1671 106.513 22.2013L105.224 21.4341L103.935 20.667C103.37 21.6176 102.787 22.5767 102.189 23.5442L103.464 24.3334ZM105.224 21.4341L106.513 22.2013C107.175 21.0893 107.628 19.8837 107.875 18.5936L106.402 18.312L104.928 18.0304C104.746 18.9867 104.414 19.8625 103.935 20.667L105.224 21.4341ZM106.402 18.312L107.875 18.5936C108.128 17.2721 108.112 15.9442 107.83 14.6217L106.363 14.9342L104.896 15.2468C105.095 16.1817 105.105 17.1056 104.928 18.0304L106.402 18.312ZM106.363 14.9342L107.83 14.6217C107.558 13.3434 107.099 12.1364 106.456 11.0063L105.152 11.7485L103.849 12.4907C104.339 13.3507 104.687 14.2676 104.896 15.2468L106.363 14.9342ZM105.152 11.7485L106.456 11.0063C105.873 9.98257 105.253 8.97218 104.596 7.97512L103.344 8.80033L102.091 9.62553C102.713 10.5691 103.299 11.5242 103.849 12.4907L105.152 11.7485ZM103.344 8.80033L104.596 7.97512C103.924 6.95409 103.186 5.96932 102.385 5.02086L101.239 5.98919L100.093 6.95752C100.82 7.81658 101.485 8.7059 102.091 9.62553L103.344 8.80033ZM101.239 5.98919L102.385 5.02086C101.445 3.90878 100.269 3.10611 98.8843 2.62315L98.3902 4.03943L97.8961 5.45572C98.7823 5.76491 99.5056 6.26208 100.093 6.95752L101.239 5.98919ZM98.3902 4.03943L98.8843 2.62315C97.7643 2.23241 96.6841 1.83515 95.6436 1.43145L95.1011 2.82987L94.5585 4.2283C95.6329 4.64518 96.7455 5.0543 97.8961 5.45572L98.3902 4.03943ZM95.1011 2.82987L95.6436 1.43145C94.4576 0.971255 93.2249 0.678848 91.9495 0.553936L91.8033 2.04679L91.6571 3.53965C92.6638 3.63825 93.6296 3.8679 94.5585 4.2283L95.1011 2.82987ZM91.8033 2.04679L91.9495 0.553936C90.8363 0.444905 89.7078 0.302954 88.5641 0.127935L88.3372 1.61068L88.1103 3.09342C89.3059 3.27637 90.4882 3.42517 91.6571 3.53965L91.8033 2.04679ZM88.3372 1.61068L88.5641 0.127935C87.2103 -0.0792291 85.8537 -0.0343436 84.5037 0.259275L84.8225 1.72501L85.1413 3.19075C86.1381 2.97394 87.1247 2.9426 88.1103 3.09342L88.3372 1.61068ZM84.8225 1.72501L84.5037 0.259275C83.1888 0.545243 81.932 1.01519 80.7365 1.66567L81.4534 2.98326L82.1703 4.30084C83.12 3.78408 84.1092 3.4152 85.1413 3.19075L84.8225 1.72501ZM81.4534 2.98326L80.7365 1.66567C79.3775 2.40511 78.359 3.49898 77.7114 4.90798L79.0743 5.5344L80.4373 6.16083C80.8166 5.33554 81.3841 4.72865 82.1703 4.30084L81.4534 2.98326ZM79.0743 5.5344L77.7114 4.90798C77.2059 6.00774 76.7006 7.05146 76.1955 8.03946L77.531 8.72228L78.8666 9.40509C79.3923 8.37688 79.9158 7.29536 80.4373 6.16083L79.0743 5.5344ZM77.531 8.72228L76.1955 8.03946C75.6729 9.06169 75.1597 10.1054 74.656 11.1706L76.012 11.8118L77.3681 12.453C77.8589 11.415 78.3584 10.3991 78.8666 9.40509L77.531 8.72228ZM76.012 11.8118L74.656 11.1706C74.0256 12.5038 73.8375 13.9168 74.1006 15.3654L75.5765 15.0973L77.0523 14.8292C76.9017 14.0003 77.004 13.223 77.3681 12.453L76.012 11.8118ZM75.5765 15.0973L74.1006 15.3654C74.32 16.5726 74.6213 17.7554 75.0047 18.9132L76.4287 18.4416L77.8526 17.97C77.5135 16.9463 77.2468 15.8995 77.0523 14.8292L75.5765 15.0973ZM76.4287 18.4416L75.0047 18.9132C75.0666 19.1001 75.0877 19.2245 75.0929 19.2959C75.0981 19.3653 75.0866 19.3604 75.1032 19.3102C75.1227 19.2511 75.1623 19.1864 75.2139 19.1376C75.2594 19.0945 75.2793 19.0968 75.2278 19.1155L75.7406 20.5251L76.2534 21.9348C77.0021 21.6624 77.6648 21.1203 77.9519 20.2509C78.2106 19.4675 78.0806 18.6585 77.8526 17.97L76.4287 18.4416ZM75.7406 20.5251L75.2278 19.1155C74.7919 19.2741 74.161 19.3114 73.2415 19.0472L72.8273 20.4889L72.4131 21.9306C73.7382 22.3113 75.0495 22.3727 76.2534 21.9348L75.7406 20.5251ZM72.8273 20.4889L73.2415 19.0472C71.9569 18.6782 70.6398 18.5303 69.2972 18.6024L69.3777 20.1003L69.4582 21.5981C70.4704 21.5437 71.453 21.6548 72.4131 21.9306L72.8273 20.4889ZM69.3777 20.1003L69.2972 18.6024C68.3868 18.6514 67.4947 18.4699 66.5998 18.0342L65.9431 19.3828L65.2864 20.7313C66.6161 21.3789 68.0137 21.6758 69.4582 21.5981L69.3777 20.1003ZM65.9431 19.3828L66.5998 18.0342C65.1241 17.3155 63.5633 17.2297 62.0098 17.771L62.5033 19.1874L62.9969 20.6039C63.8052 20.3223 64.5375 20.3667 65.2864 20.7313L65.9431 19.3828ZM62.5033 19.1874L62.0098 17.771C61.0571 18.1029 60.1507 18.1746 59.2654 18.0139L58.9975 19.4897L58.7295 20.9656C60.1569 21.2247 61.5877 21.0949 62.9969 20.6039L62.5033 19.1874ZM58.9975 19.4897L59.2654 18.0139C58.1107 17.8042 56.9531 17.5921 55.7925 17.3774L55.5197 18.8524L55.2469 20.3274C56.4106 20.5427 57.5715 20.7554 58.7295 20.9656L58.9975 19.4897ZM55.5197 18.8524L55.7925 17.3774C54.5061 17.1395 53.2088 17.0658 51.9036 17.1566L52.0076 18.6529L52.1116 20.1493C53.1649 20.0761 54.2089 20.1354 55.2469 20.3274L55.5197 18.8524ZM52.0076 18.6529L51.9036 17.1566C50.4976 17.2543 49.1668 17.658 47.9253 18.3568L48.6611 19.664L49.3969 20.9711C50.2589 20.4859 51.1592 20.2155 52.1116 20.1493L52.0076 18.6529ZM48.6611 19.664L47.9253 18.3568C46.9763 18.891 46.0033 19.2929 45.005 19.5669L45.4019 21.0134L45.7988 22.4599C47.0425 22.1187 48.2423 21.621 49.3969 20.9711L48.6611 19.664ZM45.4019 21.0134L45.005 19.5669C43.7572 19.9092 42.5689 20.4096 41.4427 21.0657L42.1977 22.3618L42.9527 23.6579C43.8567 23.1313 44.8045 22.7328 45.7988 22.4599L45.4019 21.0134ZM42.1977 22.3618L41.4427 21.0657C40.2775 21.7445 39.2579 22.6043 38.3894 23.6395L39.5386 24.6035L40.6879 25.5676C41.3346 24.7966 42.0877 24.1619 42.9527 23.6579L42.1977 22.3618ZM39.5386 24.6035L38.3894 23.6395C38.048 24.0466 37.8153 24.2535 37.688 24.3405C37.6282 24.3813 37.6375 24.3637 37.7098 24.3425C37.7908 24.3188 37.9638 24.2882 38.1819 24.3465L37.7943 25.7956L37.4067 27.2447C38.2463 27.4692 38.9654 27.1011 39.3807 26.8173C39.8349 26.507 40.2717 26.0637 40.6879 25.5676L39.5386 24.6035ZM37.7943 25.7956L38.1819 24.3465C38.4472 24.4175 38.6317 24.5753 38.7332 24.7101C38.819 24.824 38.8293 24.8974 38.8178 24.8525C38.8079 24.8141 38.7906 24.7217 38.782 24.5561C38.7735 24.3941 38.7745 24.1867 38.7898 23.9282L37.2924 23.8396L35.7951 23.751C35.7565 24.403 35.7707 25.0476 35.9119 25.5981C36.0438 26.1123 36.4144 26.9792 37.4067 27.2447L37.7943 25.7956ZM37.2924 23.8396L38.7898 23.9282C38.8739 22.5067 38.6433 21.119 38.1076 19.7798L36.7149 20.3369L35.3222 20.894C35.6981 21.8338 35.8524 22.7812 35.7951 23.751L37.2924 23.8396ZM36.7149 20.3369L38.1076 19.7798C37.5988 18.5077 36.9247 17.3421 36.0849 16.2887L34.912 17.2237L33.7391 18.1588C34.3916 18.9772 34.9194 19.887 35.3222 20.894L36.7149 20.3369ZM34.912 17.2237L36.0849 16.2887C35.1991 15.1775 34.114 14.3113 32.8404 13.7047L32.1954 15.0589L31.5503 16.4131C32.4067 16.821 33.1327 17.3981 33.7391 18.1588L34.912 17.2237ZM32.1954 15.0589L32.8404 13.7047C31.7506 13.1856 30.6639 12.7048 29.5805 12.2627L29.0137 13.6515L28.447 15.0403C29.4758 15.4602 30.5103 15.9177 31.5503 16.4131L32.1954 15.0589ZM29.0137 13.6515L29.5805 12.2627C28.5557 11.8445 27.5073 11.3761 26.4354 10.8571L25.7817 12.2072L25.128 13.5573C26.2531 14.102 27.3595 14.5965 28.447 15.0403L29.0137 13.6515ZM25.7817 12.2072L26.4354 10.8571C24.9624 10.1439 23.4114 10.0808 21.8861 10.673L22.429 12.0713L22.9719 13.4696C23.7198 13.1792 24.4039 13.2067 25.128 13.5573L25.7817 12.2072ZM22.429 12.0713L21.8861 10.673C20.7553 11.112 19.659 11.5295 18.5972 11.9256L19.1214 13.331L19.6456 14.7364C20.7207 14.3354 21.8295 13.9131 22.9719 13.4696L22.429 12.0713ZM19.1214 13.331L18.5972 11.9256C17.6519 12.2782 16.819 12.4441 16.0881 12.4605L16.1217 13.9601L16.1553 15.4597C17.2871 15.4344 18.454 15.1809 19.6456 14.7364L19.1214 13.331ZM16.1217 13.9601L16.0881 12.4605C15.6076 12.4713 15.1081 12.5061 14.7054 12.6198C14.5382 12.667 14.1349 12.7923 13.8065 13.1421C13.6139 13.3471 13.4313 13.6479 13.3794 14.0364C13.3284 14.4184 13.4226 14.7431 13.5341 14.9706L14.881 14.3104L16.2279 13.6501C16.3134 13.8245 16.3977 14.099 16.353 14.4338C16.3073 14.7752 16.1472 15.0319 15.9934 15.1957C15.8516 15.3466 15.7131 15.4235 15.648 15.4558C15.5774 15.4907 15.5288 15.5046 15.5206 15.5069C15.5074 15.5106 15.5481 15.4987 15.673 15.486C15.7899 15.474 15.9486 15.4644 16.1553 15.4597L16.1217 13.9601ZM14.881 14.3104L13.5341 14.9706C13.2705 14.4329 13.4574 13.9793 13.5005 13.8862C13.5532 13.7722 13.5953 13.742 13.5343 13.8096C13.4228 13.9329 13.1754 14.157 12.7289 14.4948L13.6339 15.6911L14.5389 16.8873C15.0281 16.5172 15.4563 16.1573 15.7606 15.8205C15.9073 15.658 16.0923 15.4286 16.2229 15.1464C16.3439 14.8851 16.5436 14.2942 16.2279 13.6501L14.881 14.3104Z" fill="#372D1D"/>
<path d="M48.9783 68.8042L54.6492 65.1586L60.7252 67.1839V78.9308L54.6492 76.5004L48.9783 78.9308V76.5004V68.8042Z" fill="#372D1D"/>
<path d="M55.4594 77.3103L50.1935 79.7407L51.4087 85.0065L55.4594 87.4369L59.1049 85.8166L60.7252 79.7407L55.4594 77.3103Z" fill="#F4B7B7"/>
<path d="M49.4668 68.7494L50.3607 70.1008L50.4115 70.0672L50.4596 70.0298L49.4668 68.7494ZM52.6562 67.0465L52.9664 68.6368L52.6562 67.0465ZM56.16 64.5631L54.8778 65.5537L56.16 64.5631ZM59.845 67.6559L59.8857 66.0362L59.845 67.6559ZM61.1119 67.6383L62.629 68.2073L62.981 67.2686L62.298 66.5346L61.1119 67.6383ZM61.0358 67.5566L61.5678 66.0261L59.8496 68.6603L61.0358 67.5566ZM49.2926 68.7627L49.9716 67.2916L49.4051 67.0301L48.8096 67.2161L49.2926 68.7627ZM44.1946 66.3357L43.47 64.8865L42.3939 65.4245L42.5977 66.6102L44.1946 66.3357ZM44.2084 66.4161L43.5294 67.8872L46.3272 69.1785L45.8052 66.1417L44.2084 66.4161ZM44.7966 64.9031C43.9841 64.5281 43.0215 64.8828 42.6465 65.6952C42.2715 66.5077 42.6261 67.4703 43.4386 67.8453L44.1176 66.3742L44.7966 64.9031ZM49.3856 68.9046L50.9824 69.1789L51.0089 69.0251L51.0055 68.8691L49.3856 68.9046ZM48.9533 72.4015L47.3338 72.3508L48.9533 72.4015ZM49.8179 77.2225L48.2256 76.9228L49.8179 77.2225ZM49.5511 81.9759L47.9708 82.3337L49.5511 81.9759ZM50.2183 84.3572L51.7557 83.8454L50.2183 84.3572ZM51.8075 86.0515L52.4264 84.5542L51.8075 86.0515ZM58.8876 87.0872L58.0859 85.6792L58.8876 87.0872ZM60.8674 78.055L59.2472 78.0379L60.8674 78.055ZM61.0101 73.2302L59.4457 72.8084L61.0101 73.2302ZM60.7943 67.5894L61.2528 66.0354L61.0283 65.9691H60.7943V67.5894ZM61.133 67.6894L60.6745 69.2434L62.8154 69.8751L62.7526 67.6438L61.133 67.6894ZM61.1971 67.5151L61.1839 65.8949L60.4702 65.9007L59.9928 66.4312L61.1971 67.5151ZM64.0027 66.5666L62.5473 65.8545L64.0027 66.5666ZM64.479 64.4941L62.8591 64.4634L64.479 64.4941ZM64.6382 63.4448L66.1322 62.8178L65.9472 62.3769L65.5524 62.1071L64.6382 63.4448ZM64.7089 63.6131L63.2149 64.2401L64.2038 66.5964L65.9132 64.697L64.7089 63.6131ZM65.9801 64.6227C66.5787 63.9575 66.5248 62.9331 65.8597 62.3345C65.1945 61.7358 64.1701 61.7898 63.5715 62.4549L64.7758 63.5388L65.9801 64.6227ZM49.3767 77.716C48.4819 77.7197 47.7595 78.4481 47.7632 79.3429C47.7669 80.2378 48.4953 80.9602 49.3901 80.9564L49.3834 79.3362L49.3767 77.716ZM49.4834 79.3358L49.4901 80.956L49.7896 80.9548L50.0688 80.8466L49.4834 79.3358ZM52.6779 77.9552L51.924 76.5211L52.6779 77.9552ZM54.8419 77.2757L55.0358 78.8843L54.8419 77.2757ZM59.3957 78.1722L58.4695 79.5016L59.3957 78.1722ZM60.8788 79.103L61.7221 77.7195L61.6552 77.6787L61.5847 77.6446L60.8788 79.103ZM61.2607 79.3357L60.4174 80.7193L60.8022 80.9538L61.2529 80.956L61.2607 79.3357ZM61.3529 80.9564C62.2477 80.9607 62.9766 80.2388 62.9809 79.344C62.9852 78.4492 62.2633 77.7203 61.3685 77.716L61.3607 79.3362L61.3529 80.9564ZM49.3834 68.8046L50.2773 70.1559L50.3607 70.1008L49.4668 68.7494L48.5729 67.3981L48.4895 67.4532L49.3834 68.8046ZM49.4668 68.7494L50.4596 70.0298C51.629 69.1231 52.4514 68.7373 52.9664 68.6368L52.6562 67.0465L52.346 65.4563C51.0915 65.701 49.7876 66.4504 48.474 67.469L49.4668 68.7494ZM52.6562 67.0465L52.9664 68.6368C53.6411 68.5052 54.2876 68.226 54.8253 67.7413C55.3658 67.2541 55.7096 66.6373 55.8981 65.9703L54.339 65.5296L52.7798 65.0888C52.7313 65.2606 52.676 65.316 52.6556 65.3344C52.6324 65.3553 52.5561 65.4153 52.346 65.4563L52.6562 67.0465ZM54.339 65.5296L55.8981 65.9703C56.1358 65.1295 56.3641 64.3153 56.5829 63.5279L55.0217 63.0941L53.4606 62.6604C53.2432 63.4428 53.0163 64.2523 52.7798 65.0888L54.339 65.5296ZM55.0217 63.0941L56.5829 63.5279C56.6321 63.3505 56.6659 63.2476 56.684 63.1993C56.6935 63.1741 56.689 63.1899 56.6692 63.2288C56.6662 63.2346 56.5839 63.4079 56.3982 63.5868C56.3012 63.6802 56.0833 63.8662 55.7402 63.9642C55.3376 64.0792 54.892 64.0338 54.5092 63.8147C54.1814 63.6271 54.0093 63.3757 53.9352 63.2502C53.8548 63.1141 53.8148 62.9978 53.797 62.9404C53.743 62.7663 53.7532 62.6665 53.7579 62.8067L55.3772 62.7517L56.9966 62.6967C56.9919 62.5585 56.9802 62.2643 56.8918 61.9795C56.8654 61.8945 56.816 61.7558 56.7255 61.6025C56.6412 61.4598 56.4582 61.1964 56.1187 61.0022C55.7242 60.7764 55.2662 60.7295 54.8503 60.8483C54.4939 60.9501 54.262 61.1452 54.1502 61.2529C53.9349 61.4603 53.8198 61.6831 53.781 61.7593C53.7253 61.8687 53.6819 61.9759 53.6492 62.0631C53.5832 62.2395 53.5204 62.4453 53.4606 62.6604L55.0217 63.0941ZM55.3772 62.7517L53.7579 62.8067C53.7927 63.8299 54.2615 64.756 54.8778 65.5537L56.16 64.5631L57.4421 63.5725C57.0526 63.0684 56.9996 62.7869 56.9966 62.6967L55.3772 62.7517ZM56.16 64.5631L54.8778 65.5537C55.3882 66.2144 55.9272 66.8963 56.4945 67.5995L57.7555 66.5821L59.0165 65.5647C58.4623 64.8778 57.9375 64.2138 57.4421 63.5725L56.16 64.5631ZM57.7555 66.5821L56.4945 67.5995C57.3292 68.6341 58.4587 69.2419 59.8044 69.2757L59.845 67.6559L59.8857 66.0362C59.5668 66.0282 59.3032 65.9201 59.0165 65.5647L57.7555 66.5821ZM59.845 67.6559L59.8044 69.2757C60.2256 69.2863 60.5648 69.2907 60.8085 69.2873C60.9245 69.2857 61.0529 69.282 61.1688 69.2717C61.2183 69.2673 61.3243 69.257 61.4453 69.2297C61.4992 69.2175 61.6303 69.186 61.7834 69.1154C61.8376 69.0904 62.3853 68.8571 62.629 68.2073L61.1119 67.6383L59.5948 67.0694C59.7274 66.7158 59.9485 66.4977 60.0839 66.387C60.2233 66.273 60.3522 66.207 60.4261 66.1729C60.5713 66.1059 60.6913 66.0779 60.7308 66.069C60.7841 66.0569 60.8248 66.0509 60.8432 66.0484C60.8641 66.0456 60.8782 66.0443 60.8828 66.0439C60.8901 66.0432 60.8586 66.0458 60.7635 66.0471C60.5849 66.0496 60.2968 66.0465 59.8857 66.0362L59.845 67.6559ZM61.1119 67.6383L62.298 66.5346L62.2219 66.4528L61.0358 67.5566L59.8496 68.6603L59.9257 68.7421L61.1119 67.6383ZM61.0358 67.5566L60.5038 69.087L60.5982 69.1198L61.1302 67.5894L61.6622 66.059L61.5678 66.0261L61.0358 67.5566ZM49.3834 68.8046L50.0624 67.3335L49.9716 67.2916L49.2926 68.7627L48.6136 70.2338L48.7044 70.2757L49.3834 68.8046ZM49.2926 68.7627L48.8096 67.2161C47.4033 67.6553 46.8179 67.5347 46.6706 67.4623L45.9556 68.9162L45.2407 70.3702C46.5669 71.0224 48.2061 70.7994 49.7756 70.3093L49.2926 68.7627ZM45.9556 68.9162L46.6706 67.4623C46.2824 67.2714 46.1723 67.0812 46.1217 66.8997L44.561 67.335L43.0003 67.7703C43.3356 68.9725 44.1553 69.8365 45.2407 70.3702L45.9556 68.9162ZM44.561 67.335L46.1217 66.8997C46.0228 66.5452 45.93 66.238 45.8459 66.0085C45.8089 65.9077 45.7464 65.7452 45.6575 65.5876C45.623 65.5265 45.5147 65.3366 45.319 65.1551C45.1733 65.0199 44.4229 64.4101 43.47 64.8865L44.1946 66.3357L44.9192 67.7849C44.5049 67.992 44.0671 67.9918 43.7128 67.8788C43.4061 67.781 43.2072 67.6161 43.1152 67.5308C42.9368 67.3653 42.848 67.2025 42.8352 67.1799C42.7896 67.0992 42.7794 67.0583 42.8035 67.1241C42.8414 67.2277 42.9062 67.433 43.0003 67.7703L44.561 67.335ZM44.1946 66.3357L42.5977 66.6102L42.6116 66.6906L44.2084 66.4161L45.8052 66.1417L45.7914 66.0613L44.1946 66.3357ZM44.2084 66.4161L44.8874 64.945L44.7966 64.9031L44.1176 66.3742L43.4386 67.8453L43.5294 67.8872L44.2084 66.4161ZM49.3834 68.8046L47.7635 68.84L47.7657 68.94L49.3856 68.9046L51.0055 68.8691L51.0033 68.7691L49.3834 68.8046ZM49.3856 68.9046L47.7887 68.6302C47.5223 70.181 47.3624 71.4361 47.3338 72.3508L48.9533 72.4015L50.5727 72.4521C50.5941 71.7685 50.7224 70.6923 50.9824 69.1789L49.3856 68.9046ZM48.9533 72.4015L47.3338 72.3508C47.3001 73.4295 47.5389 74.4846 48.005 75.4996L49.4774 74.8235L50.9499 74.1474C50.667 73.5314 50.5565 72.9717 50.5727 72.4521L48.9533 72.4015ZM49.4774 74.8235L48.005 75.4996C48.2577 76.0499 48.3034 76.5094 48.2256 76.9228L49.8179 77.2225L51.4101 77.5222C51.6274 76.368 51.4461 75.2282 50.9499 74.1474L49.4774 74.8235ZM49.8179 77.2225L48.2256 76.9228C48.0723 77.737 47.9417 78.559 47.8337 79.3888L49.4404 79.5979L51.0471 79.807C51.1473 79.0372 51.2683 78.2756 51.4101 77.5222L49.8179 77.2225ZM49.4404 79.5979L47.8337 79.3888C47.7051 80.3773 47.7508 81.3619 47.9708 82.3337L49.5511 81.9759L51.1313 81.618C50.9956 81.0187 50.9676 80.418 51.0471 79.807L49.4404 79.5979ZM49.5511 81.9759L47.9708 82.3337C48.161 83.1737 48.398 84.0188 48.681 84.8689L50.2183 84.3572L51.7557 83.8454C51.5047 83.0915 51.2969 82.3491 51.1313 81.618L49.5511 81.9759ZM50.2183 84.3572L48.681 84.8689C49.099 86.1245 49.9686 87.0446 51.1885 87.5489L51.8075 86.0515L52.4264 84.5542C52.0614 84.4033 51.8716 84.1938 51.7557 83.8454L50.2183 84.3572ZM51.8075 86.0515L51.1885 87.5489C51.8476 87.8213 52.4677 88.1792 53.0511 88.6263L54.0367 87.3403L55.0223 86.0542C54.2183 85.4381 53.3523 84.9369 52.4264 84.5542L51.8075 86.0515ZM54.0367 87.3403L53.0511 88.6263C54.0993 89.4295 55.3284 89.7384 56.6331 89.5479L56.399 87.9447L56.1648 86.3414C55.7071 86.4083 55.3615 86.3142 55.0223 86.0542L54.0367 87.3403ZM56.399 87.9447L56.6331 89.5479C57.715 89.3899 58.737 89.0375 59.6893 88.4952L58.8876 87.0872L58.0859 85.6792C57.4824 86.0228 56.8452 86.2421 56.1648 86.3414L56.399 87.9447ZM58.8876 87.0872L59.6893 88.4952C60.7278 87.9039 61.5431 87.0741 62.1004 86.0231L60.6689 85.2641L59.2375 84.5051C58.9756 84.999 58.6034 85.3846 58.0859 85.6792L58.8876 87.0872ZM60.6689 85.2641L62.1004 86.0231C62.5777 85.123 62.9231 84.1837 63.1301 83.2081L61.5451 82.8718L59.9602 82.5354C59.8181 83.2047 59.5793 83.8604 59.2375 84.5051L60.6689 85.2641ZM61.5451 82.8718L63.1301 83.2081C63.3722 82.0674 63.2704 80.9352 62.8326 79.8532L61.3306 80.4609L59.8287 81.0686C60.026 81.5562 60.0672 82.0312 59.9602 82.5354L61.5451 82.8718ZM61.3306 80.4609L62.8326 79.8532C62.5926 79.2601 62.4812 78.6701 62.4875 78.0722L60.8674 78.055L59.2472 78.0379C59.2362 79.0782 59.4336 80.0922 59.8287 81.0686L61.3306 80.4609ZM60.8674 78.055L62.4875 78.0722C62.4967 77.2049 62.4672 76.3465 62.3986 75.4973L60.7836 75.6277L59.1686 75.7581C59.2291 76.507 59.2554 77.2669 59.2472 78.0379L60.8674 78.055ZM60.7836 75.6277L62.3986 75.4973C62.3496 74.8899 62.4058 74.2774 62.5745 73.6519L61.0101 73.2302L59.4457 72.8084C59.1833 73.7815 59.0886 74.7674 59.1686 75.7581L60.7836 75.6277ZM61.0101 73.2302L62.5745 73.6519C62.873 72.5447 62.84 71.4251 62.4851 70.3321L60.9441 70.8325L59.403 71.333C59.5671 71.8382 59.5782 72.317 59.4457 72.8084L61.0101 73.2302ZM60.9441 70.8325L62.4851 70.3321C62.2603 69.6399 62.149 69.0439 62.125 68.5353L60.5066 68.6116L58.8881 68.688C58.9284 69.5424 59.1088 70.427 59.403 71.333L60.9441 70.8325ZM60.5066 68.6116L62.125 68.5353C62.111 68.2384 62.1388 68.1958 62.114 68.2839C62.1007 68.3313 62.038 68.5424 61.8316 68.7622C61.5803 69.0299 61.2072 69.2096 60.7943 69.2096V67.5894V65.9691C60.2694 65.9691 59.8003 66.1914 59.469 66.5444C59.1826 66.8494 59.056 67.1883 58.9947 67.406C58.874 67.8349 58.87 68.3034 58.8881 68.688L60.5066 68.6116ZM60.7943 67.5894L60.3357 69.1434L60.6745 69.2434L61.133 67.6894L61.5916 66.1354L61.2528 66.0354L60.7943 67.5894ZM61.133 67.6894L62.7526 67.6438L62.7498 67.5439L61.1302 67.5894L59.5106 67.6349L59.5134 67.7349L61.133 67.6894ZM61.1302 67.5894L62.3345 68.6733L62.4014 68.599L61.1971 67.5151L59.9928 66.4312L59.9259 66.5055L61.1302 67.5894ZM61.1971 67.5151L61.2104 69.1353C62.0774 69.1282 62.8955 69.039 63.5929 68.8033C64.2919 68.5669 65.0475 68.1179 65.4581 67.2787L64.0027 66.5666L62.5473 65.8545C62.6548 65.6348 62.7913 65.6536 62.5551 65.7334C62.3173 65.8138 61.8841 65.8892 61.1839 65.8949L61.1971 67.5151ZM64.0027 66.5666L65.4581 67.2787C65.8757 66.4253 66.0806 65.4982 66.099 64.5247L64.479 64.4941L62.8591 64.4634C62.8487 65.0143 62.736 65.4689 62.5473 65.8545L64.0027 66.5666ZM64.479 64.4941L66.099 64.5247C66.106 64.153 66.1221 63.9655 66.1316 63.9031C66.1424 63.8316 66.1303 63.9927 66.0235 64.2046C65.9809 64.2891 65.7888 64.6638 65.3221 64.8939C65.055 65.0255 64.7407 65.0866 64.4159 65.045C64.1082 65.0056 63.8746 64.8854 63.724 64.7825L64.6382 63.4448L65.5524 62.1071C65.1804 61.8528 64.5446 61.6643 63.8893 61.9873C63.402 62.2275 63.1907 62.6253 63.13 62.7456C62.9869 63.0293 62.9434 63.3137 62.9278 63.4171C62.8842 63.7044 62.8665 64.0729 62.8591 64.4634L64.479 64.4941ZM64.6382 63.4448L63.1442 64.0718L63.2149 64.2401L64.7089 63.6131L66.2029 62.9861L66.1322 62.8178L64.6382 63.4448ZM64.7089 63.6131L65.9132 64.697L65.9801 64.6227L64.7758 63.5388L63.5715 62.4549L63.5046 62.5292L64.7089 63.6131ZM49.3834 79.3362L49.3901 80.9564L49.4901 80.956L49.4834 79.3358L49.4767 77.7156L49.3767 77.716L49.3834 79.3362ZM49.4834 79.3358L50.0688 80.8466C51.5226 80.2833 52.6579 79.7962 53.4318 79.3894L52.6779 77.9552L51.924 76.5211C51.3198 76.8387 50.3255 77.2719 48.8981 77.825L49.4834 79.3358ZM52.6779 77.9552L53.4318 79.3894C53.9508 79.1165 54.4828 78.9509 55.0358 78.8843L54.8419 77.2757L54.648 75.6671C53.6936 75.7821 52.783 76.0695 51.924 76.5211L52.6779 77.9552ZM54.8419 77.2757L55.0358 78.8843C55.6414 78.8113 56.2818 78.8179 56.9613 78.912L57.1834 77.307L57.4055 75.7021C56.4704 75.5726 55.5497 75.5584 54.648 75.6671L54.8419 77.2757ZM57.1834 77.307L56.9613 78.912C57.516 78.9887 58.0121 79.1829 58.4695 79.5016L59.3957 78.1722L60.3219 76.8428C59.4443 76.2313 58.4655 75.8487 57.4055 75.7021L57.1834 77.307ZM59.3957 78.1722L58.4695 79.5016C59.1414 79.9697 59.7266 80.3453 60.1729 80.5614L60.8788 79.103L61.5847 77.6446C61.3886 77.5496 60.9849 77.3047 60.3219 76.8428L59.3957 78.1722ZM60.8788 79.103L60.0355 80.4865L60.4174 80.7193L61.2607 79.3357L62.1039 77.9522L61.7221 77.7195L60.8788 79.103ZM61.2607 79.3357L61.2529 80.956L61.3529 80.9564L61.3607 79.3362L61.3685 77.716L61.2685 77.7155L61.2607 79.3357Z" fill="#372D1D"/>
<path d="M23.7644 43.1376C23.0012 42.8154 22.1213 43.1728 21.7991 43.936C21.4769 44.6992 21.8343 45.5791 22.5975 45.9014L23.181 44.5195L23.7644 43.1376ZM23.2731 44.5584L24.0282 43.2623L23.9451 43.2139L23.8565 43.1765L23.2731 44.5584ZM34.1807 49.7808L33.6687 51.1907L34.1807 49.7808ZM42.1652 53.4133L40.7894 54.0109L42.1652 53.4133ZM31.6483 59.5927L31.0759 58.2062L31.6483 59.5927ZM25.3947 62.6573L25.9241 64.0608L25.3947 62.6573ZM23.467 63.8681L22.1165 63.2152L22.0832 63.2841L22.0571 63.356L23.467 63.8681ZM23.2692 64.4126L23.9751 65.7362L24.4827 65.4654L24.6791 64.9247L23.2692 64.4126ZM22.4751 63.1362C21.7441 63.526 21.4676 64.4346 21.8574 65.1656C22.2473 65.8965 23.1559 66.1731 23.8868 65.7832L23.181 64.4597L22.4751 63.1362ZM23.181 44.5195L22.5975 45.9014L22.6896 45.9403L23.2731 44.5584L23.8565 43.1765L23.7644 43.1376L23.181 44.5195ZM23.2731 44.5584L22.5179 45.8544C24.4897 47.0033 26.0376 47.8506 27.1419 48.3787L27.7891 47.0255L28.4362 45.6723C27.4453 45.1984 25.9826 44.401 24.0282 43.2623L23.2731 44.5584ZM27.7891 47.0255L27.1419 48.3787C28.2028 48.886 29.2703 49.3775 30.3445 49.8531L30.9518 48.4816L31.5591 47.11C30.5116 46.6462 29.4707 46.167 28.4362 45.6723L27.7891 47.0255ZM30.9518 48.4816L30.3445 49.8531C31.4367 50.3367 32.5448 50.7826 33.6687 51.1907L34.1807 49.7808L34.6927 48.3709C33.6331 47.9861 32.5885 47.5658 31.5591 47.11L30.9518 48.4816ZM34.1807 49.7808L33.6687 51.1907C34.836 51.6146 36.0401 51.9461 37.28 52.1857L37.5646 50.7129L37.8492 49.2402C36.7608 49.0298 35.7089 48.7399 34.6927 48.3709L34.1807 49.7808ZM37.5646 50.7129L37.28 52.1857C38.1985 52.3632 39.025 52.7479 39.7764 53.3551L40.7191 52.1884L41.6619 51.0216C40.5356 50.1116 39.259 49.5126 37.8492 49.2402L37.5646 50.7129ZM40.7191 52.1884L39.7764 53.3551C40.2433 53.7324 40.5877 54.0154 40.8152 54.2081C40.9307 54.3059 41.0045 54.3707 41.0454 54.4084C41.0676 54.4287 41.0655 54.4278 41.0509 54.4125C41.0443 54.4056 41.0199 54.38 40.9886 54.3414C40.9727 54.3216 40.9466 54.2882 40.9169 54.244C40.891 54.2056 40.8385 54.124 40.7894 54.0109L42.1652 53.4133L43.541 52.8158C43.4542 52.6157 43.3413 52.4797 43.3216 52.4553C43.2801 52.4039 43.2418 52.3629 43.2178 52.3377C43.1683 52.2861 43.1171 52.2378 43.0759 52.1999C42.99 52.121 42.8799 52.0254 42.7543 51.919C42.4998 51.7034 42.1338 51.403 41.6619 51.0216L40.7191 52.1884ZM42.1652 53.4133L40.7894 54.0109C40.5675 53.5 40.7035 53.0601 40.7497 52.9291C40.8084 52.7626 40.8833 52.6487 40.9116 52.6072C40.9471 52.5548 40.9773 52.5188 40.9907 52.5031C41.006 52.4854 41.0162 52.4748 41.0183 52.4726C41.0217 52.4691 41.0129 52.4783 40.9851 52.5034C40.9589 52.5271 40.9227 52.5588 40.8748 52.5992C40.6778 52.7656 40.3551 53.0206 39.8922 53.3723L40.7997 54.5666L41.7072 55.761C42.1798 55.4018 42.5525 55.1091 42.8106 54.8911C42.9342 54.7867 43.0633 54.6729 43.1697 54.5634C43.2164 54.5154 43.3072 54.4193 43.3927 54.2936C43.4328 54.2346 43.5158 54.1058 43.5789 53.9269C43.6295 53.7835 43.7661 53.3339 43.541 52.8158L42.1652 53.4133ZM40.7997 54.5666L39.8922 53.3723C38.9156 54.1143 37.9704 54.9117 37.0563 55.7642L38.0794 56.8611L39.1025 57.9581C39.9444 57.1729 40.8126 56.4406 41.7072 55.761L40.7997 54.5666ZM38.0794 56.8611L37.0563 55.7642C36.3678 56.4063 35.578 56.8302 34.6647 57.0486L35.0135 58.5075L35.3622 59.9664C36.7809 59.6272 38.0351 58.9536 39.1025 57.9581L38.0794 56.8611ZM35.0135 58.5075L34.6647 57.0486C33.4246 57.345 32.2279 57.7307 31.0759 58.2062L31.6483 59.5927L32.2206 60.9792C33.2235 60.5653 34.2703 60.2274 35.3622 59.9664L35.0135 58.5075ZM31.6483 59.5927L31.0759 58.2062C29.932 58.6784 28.8294 59.2294 27.7686 59.8591L28.5342 61.1489L29.2999 62.4388C30.2362 61.883 31.2095 61.3966 32.2206 60.9792L31.6483 59.5927ZM28.5342 61.1489L27.7686 59.8591C26.8459 60.4068 25.8785 60.8716 24.8653 61.2538L25.3947 62.6573L25.9241 64.0608C27.0999 63.6172 28.2255 63.0766 29.2999 62.4388L28.5342 61.1489ZM25.3947 62.6573L24.8653 61.2538C24.2689 61.4788 23.7327 61.7239 23.2941 61.9994C22.8877 62.2547 22.3947 62.6399 22.1165 63.2152L23.467 63.8681L24.8174 64.521C24.7669 64.6254 24.7185 64.667 24.7322 64.6539C24.7442 64.6424 24.7899 64.6026 24.8897 64.5398C25.0937 64.4117 25.426 64.2486 25.9241 64.0608L25.3947 62.6573ZM23.467 63.8681L22.0571 63.356L21.8593 63.9006L23.2692 64.4126L24.6791 64.9247L24.8769 64.3802L23.467 63.8681ZM23.2692 64.4126L22.5633 63.0891L22.4751 63.1362L23.181 64.4597L23.8868 65.7832L23.9751 65.7362L23.2692 64.4126Z" fill="#372D1D"/>
<path d="M88.0435 38.8272C88.7413 38.3806 88.9449 37.453 88.4983 36.7552C88.0518 36.0575 87.1241 35.8538 86.4263 36.3004L87.2349 37.5638L88.0435 38.8272ZM87.1507 37.6177L86.3421 36.3543L86.333 36.3602L86.3239 36.3662L87.1507 37.6177ZM76.9935 44.1567L76.6873 42.6883L76.9935 44.1567ZM73.8564 45.7107L72.8571 44.592L73.8564 45.7107ZM71.0526 47.7855L71.8288 49.0691L71.0526 47.7855ZM68.2564 49.8723L67.2483 48.7617L68.2564 49.8723ZM65.8866 53.3914L66.2754 51.9427L65.8866 53.3914ZM79.3184 57.0898L78.5508 58.3785L79.3184 57.0898ZM85.6781 59.5156L86.5318 58.2822L85.6781 59.5156ZM87.134 60.1381L88.5626 60.5952L88.6301 60.3842L88.6338 60.1627L87.134 60.1381ZM87.1397 59.7922L87.5968 58.3635L85.6731 57.7479L85.6399 59.7675L87.1397 59.7922ZM86.7778 61.2513C87.5668 61.5038 88.4111 61.0688 88.6636 60.2798C88.916 59.4908 88.4811 58.6465 87.6921 58.394L87.2349 59.8226L86.7778 61.2513ZM87.2349 37.5638L86.4263 36.3004L86.3421 36.3543L87.1507 37.6177L87.9593 38.8811L88.0435 38.8272L87.2349 37.5638ZM87.1507 37.6177L86.3239 36.3662C84.457 37.5995 83.0561 38.4387 82.0956 38.9154L82.7623 40.259L83.4291 41.6027C84.5591 41.0419 86.0838 40.1203 87.9775 38.8693L87.1507 37.6177ZM82.7623 40.259L82.0956 38.9154C80.8662 39.5254 79.7905 40.3662 78.8726 41.4236L80.0053 42.4069L81.138 43.3902C81.8056 42.6212 82.5679 42.03 83.4291 41.6027L82.7623 40.259ZM80.0053 42.4069L78.8726 41.4236C78.3009 42.0821 77.5904 42.5 76.6873 42.6883L76.9935 44.1567L77.2996 45.6251C78.8267 45.3068 80.1241 44.5581 81.138 43.3902L80.0053 42.4069ZM76.9935 44.1567L76.6873 42.6883C75.2296 42.9921 73.941 43.6239 72.8571 44.592L73.8564 45.7107L74.8556 46.8294C75.5244 46.2321 76.3271 45.8278 77.2996 45.6251L76.9935 44.1567ZM73.8564 45.7107L72.8571 44.592C72.0491 45.3138 71.189 45.9501 70.2764 46.502L71.0526 47.7855L71.8288 49.0691C72.902 48.4201 73.9111 47.6731 74.8556 46.8294L73.8564 45.7107ZM71.0526 47.7855L70.2764 46.502C69.1996 47.1531 68.19 47.9069 67.2483 48.7617L68.2564 49.8723L69.2646 50.983C70.0652 50.2563 70.9197 49.6188 71.8288 49.0691L71.0526 47.7855ZM68.2564 49.8723L67.2483 48.7617C66.4246 49.5093 65.5847 50.1755 64.729 50.7618L65.5769 51.9992L66.4248 53.2365C67.3995 52.5686 68.346 51.8169 69.2646 50.983L68.2564 49.8723ZM65.5769 51.9992L64.729 50.7618C64.4385 50.9609 64.121 51.2171 63.8781 51.5435C63.6318 51.8745 63.3481 52.4434 63.5037 53.1432C63.6531 53.8151 64.1219 54.2076 64.4416 54.4073C64.7732 54.6144 65.1499 54.7468 65.4978 54.8401L65.8866 53.3914L66.2754 51.9427C66.0624 51.8855 66.0056 51.847 66.031 51.8629C66.0445 51.8713 66.3343 52.0521 66.4322 52.4919C66.5362 52.9597 66.3281 53.2763 66.2849 53.3344C66.245 53.388 66.2577 53.351 66.4248 53.2365L65.5769 51.9992ZM65.8866 53.3914L65.4978 54.8401C66.7416 55.174 68.0287 55.3522 69.3554 55.378L69.3846 53.8783L69.4138 52.3786C68.3197 52.3573 67.2747 52.2109 66.2754 51.9427L65.8866 53.3914ZM69.3846 53.8783L69.3554 55.378C70.3505 55.3974 71.2612 55.6204 72.1059 56.0418L72.7756 54.6996L73.4453 53.3574C72.1895 52.7309 70.8395 52.4063 69.4138 52.3786L69.3846 53.8783ZM72.7756 54.6996L72.1059 56.0418C73.274 56.6246 74.497 57.045 75.7718 57.3013L76.0675 55.8307L76.3631 54.3601C75.3493 54.1563 74.3777 53.8226 73.4453 53.3574L72.7756 54.6996ZM76.0675 55.8307L75.7718 57.3013C76.7463 57.4972 77.6707 57.8543 78.5508 58.3785L79.3184 57.0898L80.086 55.8011C78.9202 55.1067 77.6773 54.6243 76.3631 54.3601L76.0675 55.8307ZM79.3184 57.0898L78.5508 58.3785C79.732 59.0822 80.9989 59.5484 82.3432 59.7707L82.5879 58.2908L82.8326 56.8108C81.8635 56.6506 80.9507 56.3162 80.086 55.8011L79.3184 57.0898ZM82.5879 58.2908L82.3432 59.7707C83.2962 59.9282 84.1154 60.2582 84.8243 60.7489L85.6781 59.5156L86.5318 58.2822C85.434 57.5224 84.1931 57.0358 82.8326 56.8108L82.5879 58.2908ZM85.6781 59.5156L84.8243 60.7489C85.29 61.0713 85.7405 61.3529 86.1298 61.5194C86.2993 61.5918 86.6268 61.7194 87.0127 61.7174C87.2247 61.7164 87.5488 61.6759 87.8759 61.4744C88.232 61.2551 88.4561 60.9281 88.5626 60.5952L87.134 60.1381L85.7054 59.6809C85.7951 59.4006 85.9893 59.1131 86.3024 58.9202C86.5865 58.7452 86.8547 58.7182 86.9976 58.7175C87.2453 58.7162 87.3824 58.7922 87.3092 58.7609C87.2133 58.7199 86.9694 58.5851 86.5318 58.2822L85.6781 59.5156ZM87.134 60.1381L88.6338 60.1627L88.6395 59.8168L87.1397 59.7922L85.6399 59.7675L85.6342 60.1134L87.134 60.1381ZM87.1397 59.7922L86.6825 61.2208L86.7778 61.2513L87.2349 59.8226L87.6921 58.394L87.5968 58.3635L87.1397 59.7922Z" fill="#372D1D"/>
</svg>
